<svg width="20" height="22" viewBox="0 0 20 22" fill="none" xmlns="http://www.w3.org/2000/svg">
<g clip-path="url(#clip0_543_29459)">
<path d="M18.5354 15.1065C17.6069 16.0351 16.5045 16.7717 15.2912 17.2742C14.078 17.7768 12.7776 18.0354 11.4644 18.0354M11.4644 18.0354C10.1512 18.0354 8.85078 17.7768 7.63752 17.2742C6.42427 16.7717 5.32188 16.0351 4.39329 15.1065C3.4647 14.1779 2.72811 13.0755 2.22556 11.8623C1.72302 10.649 1.46436 9.34864 1.46436 8.03543C1.46436 6.72221 1.72302 5.42185 2.22556 4.20859C2.72811 2.99534 3.4647 1.89294 4.39329 0.964355M11.4644 18.0354L11.4646 21.0354L11.4644 18.0354ZM11.4646 21.0354H8.46458H11.4646ZM11.4646 21.0354H14.4646H11.4646ZM18.4646 8.03543C18.4646 11.9014 15.3306 15.0355 11.4646 15.0355C7.59859 15.0355 4.46458 11.9014 4.46458 8.03543C4.46458 4.16944 7.59859 1.03543 11.4646 1.03543C15.3306 1.03543 18.4646 4.16944 18.4646 8.03543Z" fill="black"/>
<path d="M18.5354 15.1065C17.6069 16.0351 16.5045 16.7717 15.2912 17.2742C14.078 17.7768 12.7776 18.0354 11.4644 18.0354M11.4644 18.0354C10.1512 18.0354 8.85078 17.7768 7.63752 17.2742C6.42427 16.7717 5.32188 16.0351 4.39329 15.1065C3.4647 14.1779 2.72811 13.0755 2.22556 11.8623C1.72302 10.649 1.46436 9.34864 1.46436 8.03543C1.46436 6.72221 1.72302 5.42185 2.22556 4.20859C2.72811 2.99534 3.4647 1.89294 4.39329 0.964355M11.4644 18.0354L11.4646 21.0354M11.4646 21.0354H8.46458M11.4646 21.0354H14.4646M18.4646 8.03543C18.4646 11.9014 15.3306 15.0355 11.4646 15.0355C7.59858 15.0355 4.46458 11.9014 4.46458 8.03543C4.46458 4.16944 7.59858 1.03543 11.4646 1.03543C15.3306 1.03543 18.4646 4.16944 18.4646 8.03543Z" stroke="#637381" stroke-width="1.5" stroke-linecap="round"/>
</g>
<defs>
<clipPath id="clip0_543_29459">
<rect width="20" height="22" fill="white"/>
</clipPath>
</defs>
</svg>
