<svg width="24" height="24" viewBox="0 0 24 24" fill="none" xmlns="http://www.w3.org/2000/svg">
<g opacity="0.4">
<path d="M1.53809 3.61475C1.53809 2.51018 2.43352 1.61475 3.53809 1.61475H8.46143C9.56599 1.61475 10.4615 2.51018 10.4615 3.61475V8.53809C10.4615 9.64265 9.56599 10.5381 8.46142 10.5381H3.53809C2.43352 10.5381 1.53809 9.64265 1.53809 8.53808V3.61475Z" fill="#38854F"/>
<path d="M13.4614 15.5381C13.4614 14.4336 14.3568 13.5381 15.4614 13.5381H20.3847C21.4893 13.5381 22.3847 14.4336 22.3847 15.5381V20.4615C22.3847 21.566 21.4893 22.4615 20.3847 22.4615H15.4614C14.3568 22.4615 13.4614 21.566 13.4614 20.4615V15.5381Z" fill="#38854F"/>
</g>
<path d="M22.3852 6.07641C22.3852 8.54052 20.3876 10.5381 17.9235 10.5381C15.4594 10.5381 13.4619 8.54052 13.4619 6.07641C13.4619 3.61231 15.4594 1.61475 17.9235 1.61475C20.3876 1.61475 22.3852 3.61231 22.3852 6.07641Z" fill="#38854F"/>
<path d="M10.4615 17.9998C10.4615 20.4639 8.46386 22.4615 5.99975 22.4615C3.53565 22.4615 1.53809 20.4639 1.53809 17.9998C1.53809 15.5357 3.53565 13.5381 5.99975 13.5381C8.46386 13.5381 10.4615 15.5357 10.4615 17.9998Z" fill="#38854F"/>
</svg>
