<svg width="48" height="48" viewBox="0 0 48 48" fill="none" xmlns="http://www.w3.org/2000/svg">
<g clip-path="url(#clip0_543_29465)">
<path d="M24 48C37.2548 48 48 37.2548 48 24C48 10.7452 37.2548 0 24 0C10.7452 0 0 10.7452 0 24C0 37.2548 10.7452 48 24 48Z" fill="#D5F273"/>
<mask id="mask0_543_29465" style="mask-type:luminance" maskUnits="userSpaceOnUse" x="17" y="4" width="31" height="31">
<path d="M43.9892 4.50258L17.252 8.26025L21.0096 34.9975L47.7469 31.2398L43.9892 4.50258Z" fill="white"/>
</mask>
<g mask="url(#mask0_543_29465)">
<path fill-rule="evenodd" clip-rule="evenodd" d="M42.8326 5.51247C42.8326 5.51247 42.7876 5.51997 42.7651 5.52747C40.4626 5.86497 38.4001 6.63747 36.5851 7.71747C36.5776 7.71747 36.5626 7.72497 36.5551 7.73247C36.5401 7.73997 36.5176 7.74747 36.5026 7.76247C36.4726 7.78497 36.4351 7.80747 36.4126 7.83747C36.2626 7.93497 36.1051 8.04747 35.9326 8.17497C35.9251 8.17497 35.9101 8.18997 35.9026 8.19747C35.8876 8.21247 35.8651 8.22747 35.8501 8.23497C35.7751 8.28747 35.7301 8.31747 35.6626 8.37747C33.1426 10.1925 31.1326 12.5325 29.6026 15.0525C29.2276 14.9475 28.8451 14.895 28.4626 14.9025C27.0301 14.925 25.5676 15.6525 24.2851 16.8525C22.5751 18.45 21.1201 20.9025 20.3251 23.8575C20.3026 23.9475 20.3101 24.045 20.3401 24.1275C20.3776 24.21 20.4376 24.285 20.5201 24.33C20.6026 24.375 20.6926 24.3975 20.7901 24.3825C20.8801 24.3675 20.9701 24.3225 21.0301 24.2625C22.5676 22.68 23.8051 21.7725 24.7201 21.4725C25.1776 21.3225 25.5451 21.315 25.8601 21.4125C26.1376 21.5025 26.3926 21.675 26.6401 21.96C26.6026 22.095 26.5576 22.23 26.5201 22.3575C26.4976 22.44 26.5051 22.5225 26.5276 22.605C26.5576 22.68 26.6026 22.755 26.6701 22.8L27.6901 23.5725C27.0751 24.855 26.4601 26.31 25.8076 27.93C25.8076 27.93 25.8076 27.93 25.8076 27.9375C25.8076 27.9375 25.8076 27.9525 25.8076 27.96C25.8076 27.96 25.8076 27.9675 25.8076 27.975C25.8076 27.975 25.8076 27.975 25.8076 27.9825C25.8076 27.9975 25.8076 28.005 25.8001 28.02C25.8001 28.02 25.8001 28.02 25.8001 28.0275C25.8001 28.035 25.8001 28.05 25.8001 28.0575C25.8001 28.0725 25.8001 28.0875 25.8001 28.1025C25.8001 28.11 25.8001 28.1175 25.8001 28.125C25.8001 28.125 25.8001 28.1325 25.8001 28.14C25.8001 28.14 25.8001 28.14 25.8001 28.1475C25.8001 28.1625 25.8001 28.1775 25.8076 28.1925C25.8076 28.2 25.8076 28.215 25.8151 28.2225C25.8151 28.2225 25.8151 28.2225 25.8151 28.23C25.8151 28.245 25.8226 28.26 25.8301 28.2675C25.8301 28.2825 25.8451 28.29 25.8451 28.305C25.8451 28.3125 25.8601 28.3275 25.8601 28.335C25.8601 28.3425 25.8751 28.3575 25.8826 28.365C25.8826 28.365 25.8826 28.365 25.8826 28.3725C25.8901 28.38 25.8976 28.3875 25.9051 28.395C25.9051 28.395 25.9051 28.395 25.9051 28.4025C25.9126 28.41 25.9201 28.4175 25.9351 28.425C25.9426 28.425 25.9501 28.44 25.9576 28.44C25.9576 28.44 25.9576 28.44 25.9651 28.4475C25.9651 28.4475 25.9651 28.4475 25.9726 28.4475C25.9801 28.4475 25.9951 28.455 26.0026 28.4625C26.0026 28.4625 26.0026 28.4625 26.0101 28.4625C26.0176 28.4625 26.0326 28.47 26.0401 28.4775C26.0551 28.4775 26.0701 28.485 26.0776 28.4925C26.0776 28.4925 26.0926 28.4925 26.1001 28.4925C26.1001 28.4925 26.1151 28.4925 26.1226 28.4925C26.1226 28.4925 26.1226 28.4925 26.1301 28.4925C26.1376 28.4925 26.1526 28.4925 26.1601 28.4925C26.1676 28.4925 26.1826 28.4925 26.1901 28.4925C26.1901 28.4925 26.2051 28.4925 26.2126 28.4925C26.2276 28.4925 26.2351 28.4925 26.2501 28.4925C26.2801 28.4925 26.3026 28.485 26.3326 28.47C26.3476 28.47 26.3551 28.4625 26.3701 28.455C26.3851 28.455 26.3926 28.44 26.4076 28.4325C26.4226 28.425 26.4376 28.41 26.4526 28.4025C26.4601 28.395 26.4676 28.3875 26.4751 28.38C27.8476 27.3075 29.0626 26.3175 30.1276 25.38L31.1176 26.1225C31.1851 26.175 31.2676 26.205 31.3501 26.205C31.4326 26.205 31.5151 26.19 31.5901 26.145C31.7026 26.0775 31.8226 25.995 31.9351 25.9275C32.6701 26.2725 32.9776 26.7525 32.9551 27.6525C32.9251 28.62 32.4076 30.0675 31.3126 31.98C31.2676 32.0625 31.2451 32.1525 31.2601 32.25C31.2751 32.3475 31.3126 32.43 31.3801 32.49C31.4476 32.5575 31.5301 32.595 31.6276 32.61C31.7176 32.6175 31.8151 32.6025 31.8976 32.55C34.5151 30.9675 36.4726 28.8975 37.5376 26.8125C38.5501 24.8175 38.7376 22.77 37.7851 21.1875C39.7801 19.05 41.4751 16.5225 42.5326 13.6575C42.5776 13.545 42.6001 13.4775 42.6526 13.3575C42.7501 13.11 42.8401 12.8775 42.9076 12.6675C42.9151 12.645 42.9301 12.6225 42.9376 12.5925C42.9376 12.5775 42.9526 12.555 42.9601 12.5325C42.9676 12.5025 42.9751 12.465 42.9751 12.4275C43.5226 10.275 43.6426 8.03997 43.3276 5.84247C43.3201 5.78997 43.3051 5.73747 43.2751 5.68497C43.2451 5.63997 43.2076 5.59497 43.1626 5.56497C43.1176 5.53497 43.0651 5.50497 43.0126 5.48997C42.9601 5.47497 42.9001 5.47497 42.8476 5.48247C42.8476 5.48247 42.8476 5.48247 42.8401 5.48247L42.8326 5.51247ZM42.5101 6.45747C42.7051 8.20497 42.6151 9.96747 42.2401 11.685L37.5901 8.18247C39.1201 7.34247 40.7851 6.75747 42.5101 6.46497V6.45747ZM36.7351 8.65497L42.0301 12.66C42.0001 12.735 41.9701 12.825 41.9401 12.9075C41.9251 12.93 41.9176 12.9525 41.9101 12.975C41.8576 13.125 41.7976 13.275 41.7451 13.4175C41.6851 13.5675 41.6176 13.74 41.5726 13.8525C41.5726 13.8675 41.5651 13.89 41.5576 13.905C39.5326 18.915 35.4226 22.875 31.4026 25.29L30.7801 24.8175C31.4101 24.225 31.9951 23.6475 32.4676 23.085C33.8401 21.45 34.5151 19.8225 34.0801 18.135C34.0801 18.105 34.0651 18.075 34.0501 18.045V18.03C33.9976 17.94 33.9226 17.8725 33.8326 17.835L33.7951 17.82C33.7426 17.7975 33.6826 17.7825 33.6226 17.7825C31.8826 17.82 30.5026 18.9225 29.3101 20.685C28.8976 21.2925 28.5001 22.02 28.1101 22.7925L27.4501 22.2975C28.6651 17.7675 31.3351 12.8025 35.5951 9.47997C35.6101 9.47247 35.6326 9.45747 35.6476 9.44997C35.9326 9.24747 36.4201 8.87997 36.7501 8.64747L36.7351 8.65497ZM36.1876 12.405C35.6551 12.48 35.1526 12.7575 34.8076 13.215C34.4776 13.6575 34.3351 14.2125 34.4101 14.76C34.4851 15.3075 34.7776 15.8025 35.2201 16.1325C35.6626 16.4625 36.2176 16.605 36.7651 16.53C37.3126 16.455 37.8076 16.1625 38.1376 15.72C38.4676 15.2775 38.6101 14.7225 38.5351 14.175C38.4601 13.6275 38.1676 13.1325 37.7251 12.795C37.5076 12.63 37.2601 12.51 36.9901 12.4425C36.7201 12.375 36.4501 12.36 36.1801 12.3975L36.1876 12.405ZM36.3076 13.2375C36.6226 13.1925 36.9526 13.2675 37.2301 13.4775C37.3576 13.575 37.4701 13.695 37.5526 13.8375C37.6351 13.98 37.6876 14.1375 37.7101 14.295C37.7326 14.46 37.7251 14.625 37.6801 14.7825C37.6351 14.94 37.5676 15.09 37.4701 15.2175C37.3726 15.345 37.2526 15.4575 37.1101 15.54C36.9676 15.6225 36.8176 15.675 36.6526 15.6975C36.4876 15.72 36.3301 15.7125 36.1651 15.6675C36.0076 15.6225 35.8576 15.555 35.7301 15.4575C35.6026 15.36 35.4901 15.24 35.4076 15.0975C35.3251 14.955 35.2726 14.805 35.2501 14.64C35.2276 14.475 35.2351 14.31 35.2801 14.1525C35.3176 13.995 35.3926 13.845 35.4901 13.7175C35.7001 13.44 36.0001 13.275 36.3076 13.23V13.2375ZM27.7426 15.8475C28.2001 15.7875 28.6426 15.8475 29.0851 15.9225C28.9726 16.125 28.8676 16.3425 28.7626 16.5525L28.7401 16.5975C28.4776 17.115 28.2301 17.64 27.9901 18.1875C27.7876 18.645 27.6151 19.095 27.4426 19.5525L27.3526 19.7925C27.1876 20.2425 27.0376 20.6925 26.8951 21.15C26.6476 20.94 26.4301 20.6775 26.1301 20.5875C25.6201 20.43 25.0576 20.46 24.4726 20.6475C23.6776 20.91 22.7926 21.5625 21.8326 22.395C22.6276 20.37 23.6476 18.5925 24.8776 17.4525C25.6651 16.7175 26.4826 16.2075 27.2851 15.945C27.4426 15.8925 27.5926 15.8625 27.7501 15.84L27.7426 15.8475ZM33.2476 18.765C33.4051 19.98 32.9776 21.165 31.8301 22.545C30.7951 23.7825 29.1676 25.1625 27.2926 26.6775C28.2301 24.45 29.1076 22.5075 30.0076 21.1725C31.0126 19.6875 32.0401 18.945 33.2476 18.765ZM37.1176 21.975C37.7101 23.2125 37.6651 24.7575 36.8026 26.4525C36.0376 27.9525 34.6051 29.4225 32.8801 30.7425C33.4126 29.58 33.7951 28.5375 33.8176 27.6975C33.8476 26.73 33.3601 26.0175 32.6476 25.5075C33.0601 25.2375 33.4726 24.96 33.8701 24.6675L33.9301 24.6225C34.2901 24.36 34.6501 24.105 35.0026 23.82C35.7376 23.2425 36.4501 22.62 37.1251 21.9675L37.1176 21.975ZM26.3476 25.56L23.5501 29.28L24.0001 29.625L25.4851 27.6525C25.7701 26.955 26.0551 26.2575 26.3476 25.5675V25.56ZM28.5826 27.2925C28.0201 27.75 27.4276 28.215 26.8126 28.7025L25.0126 31.0875L25.4626 31.425L28.5826 27.2925ZM25.5076 28.5525L23.4301 31.305L23.8801 31.6425L25.9576 28.8825C25.9576 28.8825 25.9351 28.8825 25.9276 28.875C25.9276 28.875 25.9276 28.875 25.9201 28.875L25.8751 28.8525C25.8751 28.8525 25.8001 28.8225 25.7701 28.8C25.7701 28.8 25.7626 28.8 25.7551 28.7925C25.7476 28.7925 25.7401 28.785 25.7326 28.7775C25.7326 28.7775 25.7326 28.7775 25.7326 28.77C25.7326 28.7625 25.7176 28.77 25.7101 28.755C25.7101 28.755 25.7101 28.755 25.7026 28.755C25.6951 28.755 25.6876 28.7475 25.6801 28.74C25.6651 28.725 25.6501 28.7175 25.6351 28.7025C25.6351 28.7025 25.6351 28.7025 25.6351 28.695C25.6201 28.68 25.6051 28.6575 25.5901 28.6425C25.5676 28.62 25.5451 28.5975 25.5301 28.5675C25.5301 28.56 25.5301 28.56 25.5226 28.5525H25.5076ZM23.2051 29.7225L22.8676 30.1725L23.3176 30.51L23.6551 30.06L23.2051 29.7225ZM23.0851 31.755L22.7476 32.205L23.1976 32.5425L23.5351 32.0925L23.0851 31.755ZM24.6676 31.53L24.3301 31.98L24.7801 32.3175L25.1251 31.8675L24.6751 31.53H24.6676Z" fill="#5452F5"/>
</g>
<path d="M21.1648 34.9875C20.3173 35.9175 19.3573 36.7425 18.2023 37.2225C15.7498 38.2575 11.0698 37.53 11.3848 34.02C11.4748 33.045 11.9173 31.83 12.7648 31.2525C13.6948 30.615 14.9773 30.975 15.1423 32.145C15.3748 33.84 12.9598 34.6125 11.7448 34.62C11.1523 34.62 10.5598 34.53 10.0048 34.3575C6.65226 33.33 7.11726 28.8825 8.75976 26.535C9.44976 25.4175 10.3723 24.3975 11.4298 23.6475" stroke="#5452F5" stroke-width="1.5" stroke-linecap="round" stroke-linejoin="round"/>
</g>
<defs>
<clipPath id="clip0_543_29465">
<rect width="48" height="48" fill="white"/>
</clipPath>
</defs>
</svg>
