<svg width="24" height="24" viewBox="0 0 24 24" fill="none" xmlns="http://www.w3.org/2000/svg">
<path fill-rule="evenodd" clip-rule="evenodd" d="M11 0.25C8.92893 0.25 7.25 1.92893 7.25 4C7.25 6.07107 8.92893 7.75 11 7.75C13.0711 7.75 14.75 6.07107 14.75 4C14.75 1.92893 13.0711 0.25 11 0.25ZM8.75 4C8.75 2.75736 9.75736 1.75 11 1.75C12.2426 1.75 13.25 2.75736 13.25 4C13.25 5.24264 12.2426 6.25 11 6.25C9.75736 6.25 8.75 5.24264 8.75 4Z" fill="#637381"/>
<path fill-rule="evenodd" clip-rule="evenodd" d="M11 9.25C9.26887 9.25 7.66645 9.54095 6.4689 10.0399C5.87176 10.2887 5.33955 10.6041 4.94517 10.9926C4.54815 11.3837 4.25 11.8936 4.25 12.5C4.25 13.1064 4.54815 13.6163 4.94517 14.0074C5.33955 14.3959 5.87176 14.7113 6.4689 14.9601C7.66645 15.4591 9.26887 15.75 11 15.75C12.7311 15.75 14.3335 15.4591 15.5311 14.9601C16.1282 14.7113 16.6604 14.3959 17.0548 14.0074C17.4519 13.6163 17.75 13.1064 17.75 12.5C17.75 11.8936 17.4519 11.3837 17.0548 10.9926C16.6604 10.6041 16.1282 10.2887 15.5311 10.0399C14.3335 9.54095 12.7311 9.25 11 9.25ZM5.75 12.5C5.75 12.4161 5.78764 12.2683 5.99785 12.0612C6.2107 11.8515 6.55717 11.6281 7.04582 11.4245C8.01984 11.0187 9.41742 10.75 11 10.75C12.5826 10.75 13.9802 11.0187 14.9542 11.4245C15.4428 11.6281 15.7893 11.8515 16.0022 12.0612C16.2124 12.2683 16.25 12.4161 16.25 12.5C16.25 12.5839 16.2124 12.7317 16.0022 12.9388C15.7893 13.1485 15.4428 13.3719 14.9542 13.5755C13.9802 13.9813 12.5826 14.25 11 14.25C9.41742 14.25 8.01984 13.9813 7.04582 13.5755C6.55717 13.3719 6.2107 13.1485 5.99785 12.9388C5.78764 12.7317 5.75 12.5839 5.75 12.5Z" fill="#637381"/>
<path d="M15.5142 6.15217C15.2943 6.61259 15.0061 7.03409 14.6626 7.40356C15.0584 7.62425 15.5144 7.75 15.9998 7.75C17.5186 7.75 18.7498 6.51878 18.7498 5C18.7498 3.48122 17.5186 2.25 15.9998 2.25C15.8955 2.25 15.7926 2.2558 15.6914 2.26711C15.8634 2.73272 15.9681 3.23096 15.9937 3.75001L15.9998 3.75C16.6902 3.75 17.2498 4.30964 17.2498 5C17.2498 5.69036 16.6902 6.25 15.9998 6.25C15.8276 6.25 15.6635 6.21517 15.5142 6.15217Z" fill="#637381"/>
<path d="M2.18592 9.88918C3.06913 9.5359 4.20689 9.31278 5.44547 9.26123C4.53447 9.75573 3.83157 10.3708 3.41787 11.0606C3.17201 11.1264 2.94597 11.2008 2.74301 11.2819C2.34289 11.442 2.06943 11.6138 1.90826 11.7662C1.7498 11.9161 1.74999 11.9954 1.75 11.9999C1.74999 12.0044 1.7498 12.0835 1.90826 12.2334C2.06943 12.3858 2.34289 12.5576 2.74301 12.7177C2.83104 12.7529 2.92341 12.7868 3.01985 12.8193C3.09852 13.4501 3.40834 14.0451 3.90197 14.5776C3.26701 14.4685 2.68571 14.3103 2.18592 14.1104C1.68122 13.9085 1.22245 13.6493 0.877594 13.3232C0.531153 12.9956 0.25 12.5486 0.25 11.9998C0.25 11.451 0.531153 11.004 0.877594 10.6764C1.22245 10.3503 1.68122 10.0911 2.18592 9.88918Z" fill="#637381"/>
<path d="M18.0982 14.578C18.5918 14.0455 18.9016 13.4505 18.9803 12.8197C19.0767 12.7872 19.1691 12.7533 19.2571 12.7181C19.6572 12.558 19.9307 12.3862 20.0919 12.2338C20.2503 12.0839 20.2501 12.0046 20.2501 12.0001C20.2501 11.9956 20.2503 11.9165 20.0919 11.7666C19.9307 11.6142 19.6572 11.4424 19.2571 11.2823C19.0542 11.2012 18.8281 11.1268 18.5823 11.061C18.1686 10.3712 17.4657 9.75621 16.5547 9.26172C17.7932 9.31327 18.931 9.53639 19.8142 9.88967C20.3189 10.0915 20.7777 10.3507 21.1225 10.6768C21.469 11.0044 21.7501 11.4514 21.7501 12.0002C21.7501 12.549 21.469 12.996 21.1225 13.3236C20.7777 13.6497 20.3189 13.9089 19.8142 14.1108C19.3144 14.3107 18.7331 14.4689 18.0982 14.578Z" fill="#637381"/>
<path d="M6 2.25C6.10427 2.25 6.20719 2.2558 6.30845 2.26711C6.13641 2.73272 6.0317 3.23096 6.00614 3.75001L6 3.75C5.30964 3.75 4.75 4.30964 4.75 5C4.75 5.69036 5.30964 6.25 6 6.25C6.17222 6.25 6.33631 6.21517 6.4856 6.15217C6.70549 6.61259 6.99374 7.03409 7.33721 7.40356C6.94138 7.62425 6.48537 7.75 6 7.75C4.48122 7.75 3.25 6.51878 3.25 5C3.25 3.48122 4.48122 2.25 6 2.25Z" fill="#637381"/>
</svg>
