<svg width="24" height="17" viewBox="0 0 24 17" fill="none" xmlns="http://www.w3.org/2000/svg">
<path d="M20.3986 7.90631H3.27969H20.3986ZM20.3986 7.90631C21.5804 7.90631 22.5384 8.62169 22.5384 9.50421V12.7C22.5384 14.4649 20.6223 15.8958 18.2587 15.8958H5.41955C3.05593 15.8958 1.13983 14.4649 1.13983 12.7V9.50421C1.13983 8.62169 2.09788 7.90631 3.27969 7.90631M20.3986 7.90631V6.30842C20.3986 5.42592 19.4406 4.71052 18.2587 4.71052M3.27969 7.90631V6.30842C3.27969 5.42592 4.23774 4.71052 5.41955 4.71052M18.2587 4.71052H5.41955H18.2587ZM18.2587 4.71052V3.11263C18.2587 2.23013 17.3007 1.51473 16.1189 1.51473H7.55941C6.3776 1.51473 5.41955 2.23013 5.41955 3.11263V4.71052M9.69927 10.3032H13.979H9.69927Z" fill="black"/>
<path d="M20.3986 7.90631H3.27969M20.3986 7.90631C21.5804 7.90631 22.5384 8.62169 22.5384 9.50421V12.7C22.5384 14.4649 20.6223 15.8958 18.2587 15.8958H5.41955C3.05593 15.8958 1.13983 14.4649 1.13983 12.7V9.50421C1.13983 8.62169 2.09788 7.90631 3.27969 7.90631M20.3986 7.90631V6.30842C20.3986 5.42592 19.4406 4.71052 18.2587 4.71052M3.27969 7.90631V6.30842C3.27969 5.42592 4.23774 4.71052 5.41955 4.71052M18.2587 4.71052H5.41955M18.2587 4.71052V3.11263C18.2587 2.23013 17.3007 1.51473 16.1189 1.51473H7.55941C6.3776 1.51473 5.41955 2.23013 5.41955 3.11263V4.71052M9.69927 10.3032H13.979" stroke="#637381" stroke-width="1.5" stroke-linecap="round"/>
</svg>
