<svg width="24" height="20" viewBox="0 0 24 20" fill="none" xmlns="http://www.w3.org/2000/svg">
<path d="M7 5.06C7 3.73626 8.34315 2.66316 10 2.66316H14C15.6569 2.66316 17 3.73626 17 5.06V14.6474C17 15.9711 15.6569 17.0442 14 17.0442H10C8.34315 17.0442 7 15.9711 7 14.6474V5.06Z" fill="black" stroke="#637381" stroke-width="1.5" stroke-linejoin="round"/>
<path d="M17 5.85895H19C20.1046 5.85895 21 6.57435 21 7.45684V12.2505C21 13.133 20.1046 13.8484 19 13.8484H17V5.85895Z" fill="black" stroke="#637381" stroke-width="1.5" stroke-linejoin="round"/>
<path d="M7 13.8484H5C3.89543 13.8484 3 13.133 3 12.2505V7.45684C3 6.57435 3.89543 5.85895 5 5.85895H7V13.8484Z" fill="black" stroke="#637381" stroke-width="1.5" stroke-linejoin="round"/>
</svg>
