<svg width="12" height="10" viewBox="0 0 12 10" fill="none" xmlns="http://www.w3.org/2000/svg">
<g clip-path="url(#clip0_83_3640)">
<path d="M7.0631 1.45947H8.47573C8.77943 1.45947 9.06863 1.56454 9.27032 1.74816L10.7314 3.07794C11.0705 3.38654 11.0906 3.84653 10.7795 4.1738L6.84262 8.3143C6.41704 8.7619 5.58284 8.7619 5.15726 8.3143L1.22042 4.1738C0.909241 3.84653 0.929418 3.38654 1.26849 3.07794L2.72953 1.74816C2.93128 1.56454 3.22047 1.45947 3.52414 1.45947H5.05491M7.0631 1.45947L8.12626 3.60978M7.0631 1.45947H5.05491M5.05491 1.45947L3.87362 3.60978M8.12626 3.60978H10.7841M8.12626 3.60978L5.99994 8.5555L3.87362 3.60978M8.12626 3.60978H3.87362M3.87362 3.60978H1.21572" stroke="#637381" stroke-width="0.714286" stroke-linecap="round" stroke-linejoin="round"/>
</g>
<defs>
<clipPath id="clip0_83_3640">
<rect width="12" height="9.58737" fill="white" transform="translate(0 0.261053)"/>
</clipPath>
</defs>
</svg>
