<svg width="20" height="19" viewBox="0 0 20 19" fill="none" xmlns="http://www.w3.org/2000/svg">
<g clip-path="url(#clip0_83_3653)">
<path d="M6 8.10316H14H6ZM6 11.2989H14H6ZM6 14.4947H10H6ZM6 3.30947C6 4.19197 6.89543 4.90737 8 4.90737H12C13.1046 4.90737 14 4.19197 14 3.30947M6 3.30947C6 2.42698 6.89543 1.71158 8 1.71158H12C13.1046 1.71158 14 2.42698 14 3.30947M6 3.30947H5C2.79086 3.30947 1 4.74028 1 6.50526V14.4947C1 16.2597 2.79086 17.6905 5 17.6905H15C17.2091 17.6905 19 16.2597 19 14.4947V6.50526C19 4.74028 17.2091 3.30947 15 3.30947H14" fill="black"/>
<path d="M6 8.10316H14M6 11.2989H14M6 14.4947H10M6 3.30947C6 4.19197 6.89543 4.90737 8 4.90737H12C13.1046 4.90737 14 4.19197 14 3.30947M6 3.30947C6 2.42698 6.89543 1.71158 8 1.71158H12C13.1046 1.71158 14 2.42698 14 3.30947M6 3.30947H5C2.79086 3.30947 1 4.74028 1 6.50526V14.4947C1 16.2597 2.79086 17.6905 5 17.6905H15C17.2091 17.6905 19 16.2597 19 14.4947V6.50526C19 4.74028 17.2091 3.30947 15 3.30947H14" stroke="#637381" stroke-width="1.5" stroke-linecap="round"/>
</g>
<defs>
<clipPath id="clip0_83_3653">
<rect width="20" height="17.5768" fill="white" transform="translate(0 0.912628)"/>
</clipPath>
</defs>
</svg>
