<svg width="20" height="18" viewBox="0 0 20 18" fill="none" xmlns="http://www.w3.org/2000/svg">
<path d="M18.5355 12.4883C17.607 13.2302 16.5046 13.8187 15.2913 14.2202C14.0781 14.6218 12.7777 14.8284 11.4645 14.8284M11.4645 14.8284C10.1513 14.8284 8.8509 14.6218 7.63764 14.2202C6.42439 13.8187 5.322 13.2302 4.39341 12.4883C3.46482 11.7464 2.72823 10.8657 2.22568 9.89638C1.72314 8.92702 1.46448 7.88811 1.46448 6.83893C1.46448 5.78973 1.72314 4.75082 2.22568 3.78149C2.72823 2.81216 3.46482 1.9314 4.39341 1.18951M11.4645 14.8284L11.4647 17.2252L11.4645 14.8284ZM11.4647 17.2252H8.4647H11.4647ZM11.4647 17.2252H14.4647H11.4647ZM18.4647 6.83893C18.4647 9.92762 15.3307 12.4316 11.4647 12.4316C7.59871 12.4316 4.4647 9.92762 4.4647 6.83893C4.4647 3.75021 7.59871 1.2463 11.4647 1.2463C15.3307 1.2463 18.4647 3.75021 18.4647 6.83893Z" fill="black"/>
<path d="M18.5355 12.4883C17.607 13.2302 16.5046 13.8187 15.2913 14.2202C14.0781 14.6218 12.7777 14.8284 11.4645 14.8284M11.4645 14.8284C10.1513 14.8284 8.8509 14.6218 7.63764 14.2202C6.42439 13.8187 5.322 13.2302 4.39341 12.4883C3.46482 11.7464 2.72823 10.8657 2.22568 9.89638C1.72314 8.92702 1.46448 7.88811 1.46448 6.83893C1.46448 5.78974 1.72314 4.75082 2.22568 3.78149C2.72823 2.81216 3.46482 1.9314 4.39341 1.18951M11.4645 14.8284L11.4647 17.2252M11.4647 17.2252H8.4647M11.4647 17.2252H14.4647M18.4647 6.83893C18.4647 9.92762 15.3307 12.4316 11.4647 12.4316C7.59871 12.4316 4.4647 9.92762 4.4647 6.83893C4.4647 3.75021 7.59871 1.2463 11.4647 1.2463C15.3307 1.2463 18.4647 3.75021 18.4647 6.83893Z" stroke="#637381" stroke-width="1.5" stroke-linecap="round"/>
</svg>
