<svg width="21" height="24" viewBox="0 0 21 24" fill="none" xmlns="http://www.w3.org/2000/svg">
<path fill-rule="evenodd" clip-rule="evenodd" d="M8.48669 1.92041C8.8592 1.78584 9.25397 1.75301 9.6395 1.82454C10.025 1.89608 10.3906 2.07 10.7071 2.33243C11.0237 2.59485 11.2823 2.93851 11.4624 3.33598C11.6426 3.73345 11.7392 4.17371 11.7446 4.62162L11.9119 18.6291C11.9171 19.077 11.8311 19.5201 11.6605 19.9231C11.4899 20.3261 11.2396 20.6777 10.9295 20.95C10.6193 21.2223 10.258 21.4076 9.87434 21.4913C9.49067 21.5749 9.09526 21.5545 8.71968 21.4316L3.68868 19.7862C3.17057 19.6168 2.71388 19.2603 2.38635 18.7697C2.05882 18.279 1.87791 17.6803 1.87044 17.0624L1.74435 6.50317C1.73706 5.88526 1.90361 5.28112 2.2193 4.78036C2.53499 4.2796 2.983 3.9089 3.49687 3.72324L8.48669 1.92041ZM12.5718 3.94951C12.5688 3.69547 12.6538 3.45046 12.8083 3.26837C12.9628 3.08628 13.174 2.98203 13.3954 2.97855L15.9006 2.93919C16.5651 2.92875 17.2059 3.22149 17.6821 3.753C18.1584 4.2845 18.4311 5.01125 18.4402 5.77335L18.4516 6.7312C18.4546 6.98523 18.3696 7.23024 18.2151 7.41233C18.0606 7.59442 17.8494 7.69868 17.628 7.70216C17.4065 7.70563 17.1929 7.60806 17.0341 7.43089C16.8754 7.25372 16.7845 7.01147 16.7815 6.75743L16.77 5.79959C16.767 5.54556 16.6761 5.30331 16.5173 5.12614C16.3586 4.94897 16.145 4.85139 15.9235 4.85487L13.4183 4.89423C13.1968 4.89771 12.9832 4.80013 12.8245 4.62296C12.6657 4.44579 12.5748 4.20354 12.5718 3.94951ZM17.7195 15.3649C17.9409 15.3614 18.1545 15.459 18.3133 15.6361C18.4721 15.8133 18.5629 16.0556 18.566 16.3096L18.5774 17.2674C18.5865 18.0295 18.3313 18.7646 17.8679 19.3109C17.4045 19.8571 16.7709 20.1699 16.1065 20.1803L13.6013 20.2197C13.3798 20.2232 13.1662 20.1256 13.0075 19.9484C12.8487 19.7712 12.7578 19.529 12.7548 19.275C12.7518 19.0209 12.8368 18.7759 12.9913 18.5938C13.1458 18.4117 13.357 18.3075 13.5784 18.304L16.0836 18.2646C16.3051 18.2612 16.5163 18.1569 16.6708 17.9748C16.8252 17.7927 16.9103 17.5477 16.9073 17.2937L16.8958 16.3358C16.8928 16.0818 16.9779 15.8368 17.1323 15.6547C17.2868 15.4726 17.498 15.3684 17.7195 15.3649ZM7.64144 10.7331C7.41997 10.7366 7.20877 10.8408 7.05431 11.0229C6.89985 11.205 6.81478 11.45 6.81781 11.7041C6.82084 11.9581 6.91174 12.2004 7.07049 12.3775C7.22924 12.5547 7.44284 12.6523 7.66432 12.6488L7.66515 12.6488C7.88663 12.6453 8.09783 12.541 8.25229 12.359C8.40675 12.1769 8.49182 11.9319 8.48879 11.6778C8.48575 11.4238 8.39486 11.1815 8.23611 11.0044C8.07736 10.8272 7.86375 10.7296 7.64228 10.7331L7.64144 10.7331Z" fill="black"/>
<path d="M13.4985 11.5991L17.6738 11.5335L13.4985 11.5991ZM17.6738 11.5335L15.9808 9.64408L17.6738 11.5335ZM17.6738 11.5335L16.0265 13.4754L17.6738 11.5335Z" fill="black"/>
<path d="M17.6738 11.5335L16.0265 13.4754M13.4985 11.5991L17.6738 11.5335L13.4985 11.5991ZM17.6738 11.5335L15.9808 9.64408L17.6738 11.5335Z" stroke="black" stroke-width="4.16667" stroke-linecap="round" stroke-linejoin="round"/>
</svg>
