<svg width="24" height="21" viewBox="0 0 24 21" fill="none" xmlns="http://www.w3.org/2000/svg">
<path d="M13 18.4368V15.241C13 13.4761 14.7909 12.0453 17 12.0453H21M3 15.241V5.65368C3 3.88869 4.79086 2.45789 7 2.45789H17C19.2091 2.45789 21 3.88869 21 5.65368V10.7215C21 11.5691 20.5786 12.3819 19.8284 12.9813L14.1716 17.5008C13.4214 18.1002 12.404 18.4368 11.3431 18.4368H7C4.79086 18.4368 3 17.006 3 15.241Z" fill="black"/>
<path d="M13 18.4368V15.241C13 13.4761 14.7909 12.0453 17 12.0453H21M3 15.241V5.65368C3 3.88869 4.79086 2.45789 7 2.45789H17C19.2091 2.45789 21 3.88869 21 5.65368V10.7215C21 11.5691 20.5786 12.3819 19.8284 12.9813L14.1716 17.5008C13.4214 18.1002 12.404 18.4368 11.3431 18.4368H7C4.79086 18.4368 3 17.006 3 15.241Z" stroke="#637381" stroke-width="1.5" stroke-linejoin="round"/>
</svg>
