<svg width="24" height="20" viewBox="0 0 24 20" fill="none" xmlns="http://www.w3.org/2000/svg">
<path d="M10 7.39999C10 7.84124 9.55228 8.19894 9 8.19894C8.44772 8.19894 8 7.84124 8 7.39999C8 6.95875 8.44772 6.60104 9 6.60104C9.55228 6.60104 10 6.95875 10 7.39999Z" fill="#637381"/>
<path d="M16 12.1937C16 12.6349 15.5523 12.9926 15 12.9926C14.4477 12.9926 14 12.6349 14 12.1937C14 11.7524 14.4477 11.3947 15 11.3947C15.5523 11.3947 16 11.7524 16 12.1937Z" fill="#637381"/>
<path d="M15.5303 6.9763C15.8232 7.2103 15.8232 7.58971 15.5303 7.82371L9.53033 12.6174C9.23744 12.8514 8.76256 12.8514 8.46967 12.6174C8.17678 12.3834 8.17678 12.004 8.46967 11.77L14.4697 6.9763C14.7626 6.7423 15.2374 6.7423 15.5303 6.9763Z" fill="#637381"/>
<path fill-rule="evenodd" clip-rule="evenodd" d="M5 1.20816C3.48122 1.20816 2.25 2.19184 2.25 3.40527V15.5128C2.25 17.0345 4.13941 18.0954 5.93148 17.58L7.49324 17.1309C7.79825 17.0431 8.13399 17.0534 8.4296 17.1598L10.8715 18.0377C11.5892 18.2957 12.4108 18.2957 13.1285 18.0377L15.5704 17.1598C15.866 17.0534 16.2017 17.0431 16.5068 17.1309L18.0685 17.58C19.8606 18.0954 21.75 17.0345 21.75 15.5128V3.40527C21.75 2.19184 20.5188 1.20816 19 1.20816H5ZM3.75 3.40527C3.75 2.8537 4.30964 2.40658 5 2.40658H19C19.6904 2.40658 20.25 2.8537 20.25 3.40527V15.5128C20.25 16.2045 19.3912 16.6867 18.5766 16.4525L17.0148 16.0032C16.3438 15.8103 15.6052 15.8331 14.9549 16.0669L12.513 16.9448C12.1867 17.0621 11.8133 17.0621 11.487 16.9448L9.04515 16.0669C8.39479 15.8331 7.65618 15.8103 6.98517 16.0032L5.4234 16.4525C4.60882 16.6867 3.75 16.2045 3.75 15.5128V3.40527Z" fill="#637381"/>
</svg>
