<svg width="24" height="20" viewBox="0 0 24 20" fill="none" xmlns="http://www.w3.org/2000/svg">
<path d="M12.9545 3.11157H11.0455C9.99109 3.11157 9.13635 3.75544 9.13635 4.54968C9.13635 5.45857 7.91917 6.03641 6.92 5.60187L6.81852 5.55773C5.90541 5.16061 4.73782 5.39627 4.21064 6.08411L3.25609 7.32955C2.72891 8.01738 3.04176 8.89691 3.95487 9.29407C4.95451 9.72877 4.95451 10.8754 3.95487 11.3101C3.04176 11.7073 2.72891 12.5868 3.25609 13.2747L4.21064 14.5201C4.73782 15.208 5.90541 15.4436 6.81851 15.0465L6.92 15.0023C7.91917 14.5678 9.13635 15.1456 9.13635 16.0545C9.13635 16.8488 9.99109 17.4926 11.0455 17.4926H12.9545C14.0089 17.4926 14.8636 16.8488 14.8636 16.0545C14.8636 15.1456 16.0808 14.5678 17.08 15.0023L17.1815 15.0465C18.0946 15.4436 19.2622 15.2079 19.7894 14.5201L20.7439 13.2747C21.2711 12.5868 20.9582 11.7073 20.0451 11.3101C19.0455 10.8754 19.0455 9.72877 20.0451 9.29407C20.9582 8.89691 21.2711 8.0174 20.7439 7.32956L19.7894 6.08412C19.2622 5.39629 18.0946 5.16062 17.1815 5.55774L17.08 5.60188C16.0808 6.03642 14.8636 5.45858 14.8636 4.54968C14.8636 3.75544 14.0089 3.11157 12.9545 3.11157Z" fill="black" stroke="#637381" stroke-width="1.5"/>
<path d="M15 10.3021C15 11.6259 13.6569 12.6989 12 12.6989C10.3432 12.6989 9 11.6259 9 10.3021C9 8.97832 10.3432 7.90526 12 7.90526C13.6569 7.90526 15 8.97832 15 10.3021Z" fill="white" stroke="#637381" stroke-width="1.5"/>
</svg>
