<svg width="24" height="24" viewBox="0 0 24 24" fill="none" xmlns="http://www.w3.org/2000/svg">
<g opacity="0.4">
<path d="M1.53809 3.61499C1.53809 2.51042 2.43352 1.61499 3.53809 1.61499H8.46143C9.56599 1.61499 10.4615 2.51042 10.4615 3.61499V8.53833C10.4615 9.64289 9.56599 10.5383 8.46142 10.5383H3.53809C2.43352 10.5383 1.53809 9.64289 1.53809 8.53832V3.61499Z" fill="black"/>
<path d="M13.4614 15.5383C13.4614 14.4338 14.3568 13.5383 15.4614 13.5383H20.3847C21.4893 13.5383 22.3847 14.4338 22.3847 15.5383V20.4617C22.3847 21.5662 21.4893 22.4617 20.3847 22.4617H15.4614C14.3568 22.4617 13.4614 21.5662 13.4614 20.4617V15.5383Z" fill="black"/>
</g>
<path d="M22.3852 6.07665C22.3852 8.54076 20.3876 10.5383 17.9235 10.5383C15.4594 10.5383 13.4619 8.54076 13.4619 6.07665C13.4619 3.61255 15.4594 1.61499 17.9235 1.61499C20.3876 1.61499 22.3852 3.61255 22.3852 6.07665Z" fill="black"/>
<path d="M10.4615 18C10.4615 20.4641 8.46386 22.4617 5.99975 22.4617C3.53565 22.4617 1.53809 20.4641 1.53809 18C1.53809 15.5359 3.53565 13.5383 5.99975 13.5383C8.46386 13.5383 10.4615 15.5359 10.4615 18Z" fill="black"/>
</svg>
