<svg width="24" height="20" viewBox="0 0 24 20" fill="none" xmlns="http://www.w3.org/2000/svg">
<g clip-path="url(#clip0_83_3644)">
<path fill-rule="evenodd" clip-rule="evenodd" d="M11 0.614471C8.92893 0.614471 7.25 1.95585 7.25 3.61052C7.25 5.2652 8.92893 6.60658 11 6.60658C13.0711 6.60658 14.75 5.2652 14.75 3.61052C14.75 1.95585 13.0711 0.614471 11 0.614471ZM8.75 3.61052C8.75 2.61772 9.75736 1.81289 11 1.81289C12.2426 1.81289 13.25 2.61772 13.25 3.61052C13.25 4.60333 12.2426 5.40816 11 5.40816C9.75736 5.40816 8.75 4.60333 8.75 3.61052Z" fill="#637381"/>
<path fill-rule="evenodd" clip-rule="evenodd" d="M11 7.805C9.26887 7.805 7.66645 8.03745 6.4689 8.43608C5.87176 8.63486 5.33955 8.88685 4.94517 9.19724C4.54815 9.50971 4.25 9.91709 4.25 10.4016C4.25 10.8861 4.54815 11.2934 4.94517 11.6059C5.33955 11.9163 5.87176 12.1683 6.4689 12.3671C7.66645 12.7657 9.26887 12.9982 11 12.9982C12.7311 12.9982 14.3335 12.7657 15.5311 12.3671C16.1282 12.1683 16.6604 11.9163 17.0548 11.6059C17.4519 11.2934 17.75 10.8861 17.75 10.4016C17.75 9.91709 17.4519 9.50971 17.0548 9.19724C16.6604 8.88685 16.1282 8.63486 15.5311 8.43608C14.3335 8.03745 12.7311 7.805 11 7.805ZM5.75 10.4016C5.75 10.3345 5.78764 10.2165 5.99785 10.051C6.2107 9.88346 6.55717 9.70497 7.04582 9.54231C8.01984 9.21809 9.41742 9.00342 11 9.00342C12.5826 9.00342 13.9802 9.21809 14.9542 9.54231C15.4428 9.70497 15.7893 9.88346 16.0022 10.051C16.2124 10.2165 16.25 10.3345 16.25 10.4016C16.25 10.4686 16.2124 10.5867 16.0022 10.7522C15.7893 10.9197 15.4428 11.0982 14.9542 11.2608C13.9802 11.5851 12.5826 11.7997 11 11.7997C9.41742 11.7997 8.01984 11.5851 7.04582 11.2608C6.55717 11.0982 6.2107 10.9197 5.99785 10.7522C5.78764 10.5867 5.75 10.4686 5.75 10.4016Z" fill="#637381"/>
<path d="M15.5144 5.32999C15.2945 5.69785 15.0063 6.0346 14.6628 6.32979C15.0586 6.50611 15.5146 6.60658 16 6.60658C17.5188 6.60658 18.75 5.6229 18.75 4.40947C18.75 3.19605 17.5188 2.21237 16 2.21237C15.8957 2.21237 15.7928 2.217 15.6916 2.22604C15.8636 2.59803 15.9683 2.9961 15.9939 3.4108L16 3.41079C16.6904 3.41079 17.25 3.85791 17.25 4.40947C17.25 4.96103 16.6904 5.40816 16 5.40816C15.8278 5.40816 15.6637 5.38033 15.5144 5.32999Z" fill="#637381"/>
<path d="M2.18592 8.31586C3.06913 8.03361 4.20689 7.85535 5.44547 7.81416C4.53447 8.20924 3.83157 8.70062 3.41787 9.25173C3.17201 9.3043 2.94597 9.36374 2.74301 9.42854C2.34289 9.55645 2.06943 9.69371 1.90826 9.81547C1.7498 9.93523 1.74999 9.99859 1.75 10.0022C1.74999 10.0058 1.7498 10.069 1.90826 10.1887C2.06943 10.3105 2.34289 10.4478 2.74301 10.5757C2.83104 10.6038 2.92341 10.6309 3.01985 10.6568C3.09852 11.1608 3.40834 11.6362 3.90197 12.0616C3.26701 11.9745 2.68571 11.8481 2.18592 11.6884C1.68122 11.5271 1.22245 11.32 0.877594 11.0594C0.531153 10.7977 0.25 10.4406 0.25 10.0021C0.25 9.56364 0.531153 9.20651 0.877594 8.94477C1.22245 8.68424 1.68122 8.47715 2.18592 8.31586Z" fill="#637381"/>
<path d="M18.0981 12.0616C18.5917 11.6362 18.9015 11.1608 18.9802 10.6568C19.0766 10.6309 19.169 10.6038 19.257 10.5757C19.6571 10.4478 19.9306 10.3105 20.0918 10.1887C20.2502 10.069 20.25 10.0056 20.25 10.002C20.25 9.99843 20.2502 9.93523 20.0918 9.81547C19.9306 9.69371 19.6571 9.55645 19.257 9.42854C19.0541 9.36374 18.828 9.3043 18.5822 9.25173C18.1685 8.70062 17.4656 8.20924 16.5546 7.81417C17.7931 7.85535 18.9309 8.03362 19.8141 8.31587C20.3188 8.47715 20.7776 8.68424 21.1224 8.94478C21.4689 9.20651 21.75 9.56364 21.75 10.0021C21.75 10.4406 21.4689 10.7977 21.1224 11.0594C20.7776 11.32 20.3188 11.5271 19.8141 11.6884C19.3143 11.8481 18.733 11.9745 18.0981 12.0616Z" fill="#637381"/>
<path d="M6 2.21237C6.10427 2.21237 6.20719 2.217 6.30845 2.22604C6.13641 2.59803 6.0317 2.9961 6.00614 3.4108L6 3.41079C5.30964 3.41079 4.75 3.85791 4.75 4.40947C4.75 4.96103 5.30964 5.40816 6 5.40816C6.17222 5.40816 6.33631 5.38033 6.4856 5.32999C6.70549 5.69785 6.99374 6.0346 7.33721 6.32979C6.94138 6.50611 6.48537 6.60658 6 6.60658C4.48122 6.60658 3.25 5.6229 3.25 4.40947C3.25 3.19605 4.48122 2.21237 6 2.21237Z" fill="#637381"/>
</g>
<defs>
<clipPath id="clip0_83_3644">
<rect width="24" height="19.1747" fill="white" transform="translate(0 0.414734)"/>
</clipPath>
</defs>
</svg>
