<svg width="187" height="186" viewBox="0 0 187 186" fill="none" xmlns="http://www.w3.org/2000/svg">
<path d="M151.485 34.875H35.5156V151.125H151.485V34.875Z" fill="white"/>
<path d="M50.0117 66.8438C50.0117 63.6337 52.6078 61.0312 55.8102 61.0312H145.686V127.875C145.686 131.085 143.09 133.688 139.888 133.688H50.0117V66.8438Z" fill="#38854F" fill-opacity="0.5"/>
<path d="M93.5 133.688H139.888C143.09 133.688 145.686 131.085 145.686 127.875V58.125C145.686 54.9149 143.09 52.3125 139.888 52.3125H131.19H93.5H47.1124C43.9101 52.3125 41.314 54.9149 41.314 58.125V127.875C41.314 131.085 43.9101 133.688 47.1124 133.688H65.9574" stroke="#38854F" stroke-width="3" stroke-linecap="round"/>
<path d="M44.2134 55.2188L91.4502 102.57C92.5823 103.705 94.4181 103.705 95.5502 102.57L142.787 55.2188" stroke="#38854F" stroke-width="3" stroke-linecap="round"/>
<path d="M131.19 119.156L105.822 93.7266M44.2134 130.781L81.1785 93.7266" stroke="#38854F" stroke-width="3" stroke-linecap="round"/>
<path d="M184.101 93C184.101 42.8413 143.538 2.17969 93.5002 2.17969C43.4628 2.17969 2.89941 42.8413 2.89941 93C2.89941 143.159 43.4628 183.82 93.5002 183.82C143.538 183.82 184.101 143.159 184.101 93Z" stroke="#F1F2F3" stroke-width="3"/>
<circle cx="94" cy="93" r="77.5" fill="white" stroke="#38854F" stroke-width="5"/>
<path d="M147.955 62.1423C151.031 64.9988 151.031 69.6376 147.955 72.4941L84.9552 130.994C81.879 133.851 76.8833 133.851 73.8071 130.994L42.3071 101.744C39.231 98.8876 39.231 94.2488 42.3071 91.3923C45.3833 88.5359 50.379 88.5359 53.4552 91.3923L79.3935 115.455L136.832 62.1423C139.908 59.2859 144.904 59.2859 147.98 62.1423H147.955Z" fill="#38854F"/>
</svg>
