<svg width="32" height="32" viewBox="0 0 32 32" fill="none" xmlns="http://www.w3.org/2000/svg">
<path d="M25.8665 18.6667H20.7998C20.053 18.6667 19.6797 18.6667 19.3945 18.8121C19.1436 18.9399 18.9397 19.1438 18.8118 19.3947C18.6665 19.6799 18.6665 20.0533 18.6665 20.8001V25.8667C18.6665 26.6135 18.6665 26.9869 18.8118 27.2721C18.9397 27.523 19.1436 27.7269 19.3945 27.8547C19.6797 28.0001 20.053 28.0001 20.7998 28.0001H25.8665C26.6133 28.0001 26.9866 28.0001 27.2718 27.8547C27.5228 27.7269 27.7266 27.523 27.8545 27.2721C27.9998 26.9869 27.9998 26.6135 27.9998 25.8667V20.8001C27.9998 20.0533 27.9998 19.6799 27.8545 19.3947C27.7266 19.1438 27.5228 18.9399 27.2718 18.8121C26.9866 18.6667 26.6133 18.6667 25.8665 18.6667Z" stroke="white" stroke-width="2" stroke-linecap="round" stroke-linejoin="round"/>
<path d="M25.8665 4H20.7998C20.053 4 19.6797 4 19.3945 4.14532C19.1436 4.27316 18.9397 4.47713 18.8118 4.72801C18.6665 5.01323 18.6665 5.3866 18.6665 6.13333V11.2C18.6665 11.9467 18.6665 12.3201 18.8118 12.6053C18.9397 12.8562 19.1436 13.0602 19.3945 13.188C19.6797 13.3333 20.053 13.3333 20.7998 13.3333H25.8665C26.6133 13.3333 26.9866 13.3333 27.2718 13.188C27.5228 13.0602 27.7266 12.8562 27.8545 12.6053C27.9998 12.3201 27.9998 11.9467 27.9998 11.2V6.13333C27.9998 5.3866 27.9998 5.01323 27.8545 4.72801C27.7266 4.47713 27.5228 4.27316 27.2718 4.14532C26.9866 4 26.6133 4 25.8665 4Z" stroke="white" stroke-width="2" stroke-linecap="round" stroke-linejoin="round"/>
<path d="M11.2 4H6.13333C5.3866 4 5.01323 4 4.72801 4.14532C4.47713 4.27316 4.27316 4.47713 4.14532 4.72801C4 5.01323 4 5.3866 4 6.13333V11.2C4 11.9467 4 12.3201 4.14532 12.6053C4.27316 12.8562 4.47713 13.0602 4.72801 13.188C5.01323 13.3333 5.3866 13.3333 6.13333 13.3333H11.2C11.9467 13.3333 12.3201 13.3333 12.6053 13.188C12.8562 13.0602 13.0602 12.8562 13.188 12.6053C13.3333 12.3201 13.3333 11.9467 13.3333 11.2V6.13333C13.3333 5.3866 13.3333 5.01323 13.188 4.72801C13.0602 4.47713 12.8562 4.27316 12.6053 4.14532C12.3201 4 11.9467 4 11.2 4Z" stroke="white" stroke-width="2" stroke-linecap="round" stroke-linejoin="round"/>
<path d="M11.2 18.6667H6.13333C5.3866 18.6667 5.01323 18.6667 4.72801 18.8121C4.47713 18.9399 4.27316 19.1438 4.14532 19.3947C4 19.6799 4 20.0533 4 20.8001V25.8667C4 26.6135 4 26.9869 4.14532 27.2721C4.27316 27.523 4.47713 27.7269 4.72801 27.8547C5.01323 28.0001 5.3866 28.0001 6.13333 28.0001H11.2C11.9467 28.0001 12.3201 28.0001 12.6053 27.8547C12.8562 27.7269 13.0602 27.523 13.188 27.2721C13.3333 26.9869 13.3333 26.6135 13.3333 25.8667V20.8001C13.3333 20.0533 13.3333 19.6799 13.188 19.3947C13.0602 19.1438 12.8562 18.9399 12.6053 18.8121C12.3201 18.6667 11.9467 18.6667 11.2 18.6667Z" stroke="white" stroke-width="2" stroke-linecap="round" stroke-linejoin="round"/>
</svg>
