<svg width="32" height="32" viewBox="0 0 32 32" fill="none" xmlns="http://www.w3.org/2000/svg">
<g clip-path="url(#clip0_700_9988)">
<path opacity="0.4" d="M11.2 20H6.13333C5.3866 20 5.01323 20 4.72801 20.1453C4.47713 20.2732 4.27316 20.4771 4.14532 20.728C4 21.0132 4 21.3865 4 22.1333V27.2C4 27.9468 4 28.3201 4.14532 28.6053C4.27316 28.8563 4.47713 29.0601 4.72801 29.188C5.01323 29.3333 5.3866 29.3333 6.13333 29.3333H11.2C11.9467 29.3333 12.3201 29.3333 12.6053 29.188C12.8562 29.0601 13.0602 28.8563 13.188 28.6053C13.3333 28.3201 13.3333 27.9468 13.3333 27.2V22.1333C13.3333 21.3865 13.3333 21.0132 13.188 20.728C13.0602 20.4771 12.8562 20.2732 12.6053 20.1453C12.3201 20 11.9467 20 11.2 20Z" stroke="white" stroke-width="2" stroke-linecap="round" stroke-linejoin="round"/>
<path opacity="0.4" fill-rule="evenodd" clip-rule="evenodd" d="M17.3335 27.2426C17.3335 27.2285 17.3335 27.2142 17.3335 27.2001V22.1334C17.3335 22.1193 17.3335 22.105 17.3335 22.0909C17.3335 21.7543 17.3334 21.4266 17.3562 21.1491C17.381 20.8443 17.4398 20.4846 17.6242 20.1227C17.8798 19.621 18.2878 19.213 18.7895 18.9574C19.1514 18.773 19.5111 18.7142 19.8159 18.6893C20.0934 18.6666 20.4211 18.6667 20.7576 18.6667H25.9094C26.2459 18.6667 26.5736 18.6666 26.8511 18.6893C27.1559 18.7142 27.5156 18.773 27.8775 18.9574C28.3792 19.213 28.7872 19.621 29.0428 20.1227C29.2272 20.4846 29.286 20.8443 29.311 21.1491C29.3336 21.4266 29.3335 21.7543 29.3335 22.0909V27.2426C29.3335 27.5791 29.3336 27.9069 29.311 28.1843C29.286 28.4891 29.2272 28.8489 29.0428 29.2107C28.7872 29.7125 28.3792 30.1205 27.8775 30.3761C27.5156 30.5605 27.1559 30.6193 26.8511 30.6441C26.5736 30.6669 26.2459 30.6667 25.9094 30.6667C25.8952 30.6667 25.881 30.6667 25.8668 30.6667H20.8002C20.786 30.6667 20.7718 30.6667 20.7576 30.6667C20.4211 30.6667 20.0934 30.6669 19.8159 30.6441C19.5111 30.6193 19.1514 30.5605 18.7895 30.3761C18.2878 30.1205 17.8798 29.7125 17.6242 29.2107C17.4398 28.8489 17.381 28.4891 17.3562 28.1843C17.3334 27.9069 17.3335 27.5791 17.3335 27.2426ZM20.0155 27.9847C20.021 27.9853 20.0268 27.9858 20.033 27.9863C20.1884 27.999 20.4048 28.0001 20.8002 28.0001H25.8668C26.2622 28.0001 26.4786 27.999 26.634 27.9863C26.6402 27.9858 26.646 27.9853 26.6516 27.9847C26.652 27.9793 26.6526 27.9734 26.6531 27.9673C26.6658 27.8118 26.6668 27.5954 26.6668 27.2001V22.1334C26.6668 21.7381 26.6658 21.5217 26.6531 21.3662C26.6526 21.3601 26.652 21.3542 26.6516 21.3486C26.646 21.3482 26.6402 21.3477 26.634 21.3471C26.4786 21.3345 26.2622 21.3334 25.8668 21.3334H20.8002C20.4048 21.3334 20.1884 21.3345 20.033 21.3471C20.0268 21.3477 20.021 21.3482 20.0155 21.3486C20.015 21.3542 20.0144 21.3601 20.0139 21.3662C20.0012 21.5217 20.0002 21.7381 20.0002 22.1334V27.2001C20.0002 27.5954 20.0012 27.8118 20.0139 27.9673C20.0144 27.9734 20.015 27.9793 20.0155 27.9847Z" fill="white"/>
<path fill-rule="evenodd" clip-rule="evenodd" d="M18.1143 19.4478L20.0152 21.3486L20.0327 21.3471C20.1881 21.3345 20.4045 21.3334 20.7999 21.3334H25.8665C26.2619 21.3334 26.4783 21.3345 26.6337 21.3471L26.6513 21.3486L26.6528 21.3662C26.6655 21.5217 26.6665 21.7381 26.6665 22.1334V27.2001C26.6665 27.5954 26.6655 27.8118 26.6528 27.9673L26.6513 27.9847L26.6337 27.9863C26.4783 27.999 26.2619 28.0001 25.8665 28.0001H20.7999C20.4045 28.0001 20.1881 27.999 20.0327 27.9863L20.0152 27.9847L18.1143 29.8857C18.3109 30.0823 18.5384 30.2482 18.7892 30.3761C19.1512 30.5605 19.5108 30.6193 19.8156 30.6441C20.0931 30.6669 20.4208 30.6667 20.7573 30.6667H20.7999H25.8665H25.9091C26.2456 30.6667 26.5733 30.6669 26.8508 30.6441C27.1556 30.6193 27.5153 30.5605 27.8772 30.3761C28.3789 30.1205 28.7869 29.7125 29.0425 29.2107C29.2269 28.8489 29.2857 28.4891 29.3107 28.1843C29.3333 27.9069 29.3332 27.5791 29.3332 27.2426V22.0909C29.3332 21.7543 29.3333 21.4266 29.3107 21.1491C29.2857 20.8443 29.2269 20.4846 29.0425 20.1227C28.7869 19.621 28.3789 19.213 27.8772 18.9574C27.5153 18.773 27.1556 18.7142 26.8508 18.6893C26.5733 18.6666 26.2456 18.6667 25.9091 18.6667H20.7573C20.4208 18.6667 20.0931 18.6666 19.8156 18.6893C19.5108 18.7142 19.1512 18.773 18.7892 18.9574C18.5384 19.0853 18.3109 19.2511 18.1143 19.4478Z" fill="white"/>
<path d="M16 2.66675V4.92555M6.25883 14.6666H4M8.87228 7.53923L7.27504 5.94201M23.1292 7.53923L24.7264 5.94201M28 14.6666H25.7412M10.353 14.6667C10.353 11.548 12.8813 9.01973 16.0001 9.01973C18.1263 9.01973 21.6471 11.1373 21.6471 14.6666" stroke="white" stroke-width="2" stroke-linecap="round" stroke-linejoin="round"/>
</g>
<defs>
<clipPath id="clip0_700_9988">
<rect width="32" height="32" fill="white"/>
</clipPath>
</defs>
</svg>
