<svg width="32" height="32" viewBox="0 0 32 32" fill="none" xmlns="http://www.w3.org/2000/svg">
<g clip-path="url(#clip0_700_9922)">
<path opacity="0.4" fill-rule="evenodd" clip-rule="evenodd" d="M20.7576 17.3333C20.7718 17.3333 20.786 17.3333 20.8002 17.3333H25.8668C25.881 17.3333 25.8952 17.3333 25.9094 17.3333C26.2459 17.3333 26.5736 17.3331 26.8511 17.3559C27.1559 17.3807 27.5156 17.4395 27.8775 17.6239C28.3792 17.8795 28.7872 18.2875 29.0428 18.7893C29.2272 19.1511 29.286 19.5109 29.311 19.8157C29.3336 20.0931 29.3335 20.4209 29.3335 20.7574V25.9091C29.3335 26.2457 29.3336 26.5734 29.311 26.8509C29.286 27.1557 29.2272 27.5154 29.0428 27.8773C28.7872 28.379 28.3792 28.787 27.8775 29.0426C27.5156 29.227 27.1559 29.2858 26.8511 29.3107C26.5736 29.3334 26.2459 29.3333 25.9094 29.3333H20.7576C20.4211 29.3333 20.0934 29.3334 19.8159 29.3107C19.5111 29.2858 19.1514 29.227 18.7895 29.0426C18.2878 28.787 17.8798 28.379 17.6242 27.8773C17.4398 27.5154 17.381 27.1557 17.3562 26.8509C17.3334 26.5734 17.3335 26.2457 17.3335 25.9091C17.3335 25.895 17.3335 25.8807 17.3335 25.8666V20.7999C17.3335 20.7858 17.3335 20.7715 17.3335 20.7574C17.3335 20.4209 17.3334 20.0931 17.3562 19.8157C17.381 19.5109 17.4398 19.1511 17.6242 18.7893C17.8798 18.2875 18.2878 17.8795 18.7895 17.6239C19.1514 17.4395 19.5111 17.3807 19.8159 17.3559C20.0934 17.3331 20.4211 17.3333 20.7576 17.3333ZM20.0155 20.0153C20.015 20.0207 20.0144 20.0266 20.0139 20.0327C20.0012 20.1882 20.0002 20.4046 20.0002 20.7999V25.8666C20.0002 26.2619 20.0012 26.4783 20.0139 26.6338C20.0144 26.6399 20.015 26.6458 20.0155 26.6514C20.021 26.6518 20.0268 26.6523 20.033 26.6529C20.1884 26.6655 20.4048 26.6666 20.8002 26.6666H25.8668C26.2622 26.6666 26.4786 26.6655 26.634 26.6529C26.6402 26.6523 26.646 26.6518 26.6516 26.6514C26.652 26.6458 26.6526 26.6399 26.6531 26.6338C26.6658 26.4783 26.6668 26.2619 26.6668 25.8666V20.7999C26.6668 20.4046 26.6658 20.1882 26.6531 20.0327C26.6526 20.0266 26.652 20.0207 26.6516 20.0153C26.646 20.0147 26.6402 20.0142 26.634 20.0137C26.4786 20.001 26.2622 19.9999 25.8668 19.9999H20.8002C20.4048 19.9999 20.1884 20.001 20.033 20.0137C20.0268 20.0142 20.021 20.0147 20.0155 20.0153Z" fill="white"/>
<path opacity="0.4" fill-rule="evenodd" clip-rule="evenodd" d="M17.3335 11.2426C17.3335 11.2285 17.3335 11.2143 17.3335 11.2001V6.13342C17.3335 6.11923 17.3335 6.10506 17.3335 6.0909C17.3335 5.75438 17.3334 5.42666 17.3562 5.14911C17.381 4.84432 17.4398 4.48468 17.6242 4.12278C17.8798 3.62102 18.2878 3.21307 18.7895 2.9574C19.1514 2.77302 19.5111 2.71426 19.8159 2.68935C20.0934 2.66667 20.4211 2.66671 20.7576 2.66675H25.9094C26.2459 2.66671 26.5736 2.66667 26.8511 2.68935C27.1559 2.71426 27.5156 2.773 27.8775 2.9574C28.3792 3.21307 28.7872 3.62102 29.0428 4.12278C29.2272 4.48468 29.286 4.84432 29.311 5.14911C29.3336 5.42667 29.3335 5.75439 29.3335 6.09091V11.2426C29.3335 11.5791 29.3336 11.9068 29.311 12.1844C29.286 12.4892 29.2272 12.8488 29.0428 13.2107C28.7872 13.7125 28.3792 14.1205 27.8775 14.3761C27.5156 14.5605 27.1559 14.6193 26.8511 14.6441C26.5736 14.6669 26.2459 14.6668 25.9094 14.6668C25.8952 14.6668 25.881 14.6668 25.8668 14.6668H20.8002C20.786 14.6668 20.7718 14.6668 20.7576 14.6668C20.4211 14.6668 20.0934 14.6669 19.8159 14.6441C19.5111 14.6193 19.1514 14.5605 18.7895 14.3761C18.2878 14.1205 17.8798 13.7125 17.6242 13.2107C17.4398 12.8488 17.381 12.4892 17.3562 12.1844C17.3334 11.9069 17.3335 11.5791 17.3335 11.2426ZM20.0155 11.9848C20.021 11.9853 20.0268 11.9858 20.033 11.9864C20.1884 11.9991 20.4048 12.0001 20.8002 12.0001H25.8668C26.2622 12.0001 26.4786 11.9991 26.634 11.9864C26.6402 11.9858 26.646 11.9853 26.6516 11.9848C26.652 11.9793 26.6526 11.9734 26.6531 11.9672C26.6658 11.8118 26.6668 11.5955 26.6668 11.2001V6.13342C26.6668 5.73806 26.6658 5.52171 26.6531 5.36627C26.6526 5.36008 26.652 5.35422 26.6516 5.34868C26.646 5.34818 26.6402 5.34767 26.634 5.34716C26.4786 5.33446 26.2622 5.33342 25.8668 5.33342H20.8002C20.4048 5.33342 20.1884 5.33446 20.033 5.34716C20.0268 5.34767 20.021 5.34818 20.0155 5.34868C20.015 5.35422 20.0144 5.36008 20.0139 5.36627C20.0012 5.52171 20.0002 5.73806 20.0002 6.13342V11.2001C20.0002 11.5955 20.0012 11.8118 20.0139 11.9672C20.0144 11.9734 20.015 11.9793 20.0155 11.9848Z" fill="white"/>
<path opacity="0.4" fill-rule="evenodd" clip-rule="evenodd" d="M6.09065 17.3333C6.10481 17.3333 6.11899 17.3333 6.13319 17.3333H11.1999C11.214 17.3333 11.2282 17.3333 11.2424 17.3333C11.5789 17.3333 11.9066 17.3331 12.1842 17.3559C12.4889 17.3807 12.8486 17.4395 13.2105 17.6239C13.7122 17.8795 14.1202 18.2875 14.3758 18.7893C14.5602 19.1511 14.619 19.5109 14.644 19.8157C14.6666 20.0931 14.6665 20.4209 14.6665 20.7574V25.9091C14.6665 26.2457 14.6666 26.5734 14.644 26.8509C14.619 27.1557 14.5602 27.5154 14.3758 27.8773C14.1202 28.379 13.7122 28.787 13.2105 29.0426C12.8486 29.227 12.4889 29.2858 12.1842 29.3107C11.9066 29.3334 11.5789 29.3333 11.2424 29.3333H6.09067C5.75416 29.3333 5.42643 29.3334 5.14888 29.3107C4.84408 29.2858 4.48444 29.227 4.12253 29.0426C3.62077 28.787 3.21283 28.379 2.95716 27.8773C2.77276 27.5154 2.71401 27.1557 2.68911 26.8509C2.66643 26.5734 2.66647 26.2457 2.66651 25.9091C2.66651 25.895 2.66652 25.8807 2.66652 25.8666V20.7999C2.66652 20.7858 2.66651 20.7715 2.66651 20.7574C2.66647 20.4209 2.66643 20.0931 2.68911 19.8157C2.71401 19.5109 2.77276 19.1511 2.95716 18.7893C3.21283 18.2875 3.62077 17.8795 4.12253 17.6239C4.48444 17.4395 4.84408 17.3807 5.14888 17.3559C5.42641 17.3331 5.75413 17.3333 6.09065 17.3333ZM5.34844 20.0153C5.34793 20.0207 5.34743 20.0266 5.34692 20.0327C5.33421 20.1882 5.33319 20.4046 5.33319 20.7999V25.8666C5.33319 26.2619 5.33421 26.4783 5.34692 26.6338C5.34743 26.6399 5.34793 26.6458 5.34844 26.6514C5.35397 26.6518 5.35984 26.6523 5.36603 26.6529C5.52147 26.6655 5.73781 26.6666 6.13319 26.6666H11.1999C11.5952 26.6666 11.8116 26.6655 11.967 26.6529C11.9732 26.6523 11.9791 26.6518 11.9846 26.6514C11.9851 26.6458 11.9856 26.6399 11.9861 26.6338C11.9988 26.4783 11.9999 26.2619 11.9999 25.8666V20.7999C11.9999 20.4046 11.9988 20.1882 11.9861 20.0327C11.9856 20.0266 11.9851 20.0207 11.9846 20.0153C11.9791 20.0147 11.9732 20.0142 11.967 20.0137C11.8116 20.001 11.5952 19.9999 11.1999 19.9999H6.13319C5.73781 19.9999 5.52147 20.001 5.36603 20.0137C5.35984 20.0142 5.35397 20.0147 5.34844 20.0153Z" fill="white"/>
<path opacity="0.4" fill-rule="evenodd" clip-rule="evenodd" d="M6.09065 2.66675C6.10481 2.66675 6.11899 2.66676 6.13319 2.66676H11.1999C11.214 2.66676 11.2282 2.66675 11.2424 2.66675C11.5789 2.66671 11.9066 2.66667 12.1842 2.68935C12.4889 2.71426 12.8486 2.773 13.2105 2.9574C13.7122 3.21307 14.1202 3.62102 14.3758 4.12278C14.5602 4.48468 14.619 4.84432 14.644 5.14912C14.6666 5.42667 14.6665 5.75441 14.6665 6.09092V11.2426C14.6665 11.5791 14.6666 11.9068 14.644 12.1844C14.619 12.4892 14.5602 12.8488 14.3758 13.2107C14.1202 13.7125 13.7122 14.1205 13.2105 14.3761C12.8486 14.5605 12.4889 14.6193 12.1842 14.6442C11.9066 14.6669 11.5789 14.6668 11.2424 14.6668H6.09067C5.75416 14.6668 5.42643 14.6669 5.14888 14.6442C4.84408 14.6193 4.48444 14.5605 4.12253 14.3761C3.62077 14.1205 3.21283 13.7125 2.95716 13.2107C2.77276 12.8488 2.71401 12.4892 2.68911 12.1844C2.66643 11.9069 2.66647 11.5791 2.66651 11.2426C2.66651 11.2285 2.66652 11.2143 2.66652 11.2001V6.13343C2.66652 6.11923 2.66651 6.10506 2.66651 6.0909C2.66647 5.75438 2.66643 5.42666 2.68911 5.14912C2.71401 4.84432 2.77276 4.48468 2.95716 4.12278C3.21283 3.62102 3.62077 3.21307 4.12253 2.9574C4.48444 2.773 4.84408 2.71426 5.14888 2.68935C5.42641 2.66667 5.75413 2.66671 6.09065 2.66675ZM5.34844 5.34868C5.34793 5.35422 5.34743 5.36009 5.34692 5.36627C5.33421 5.52171 5.33319 5.73806 5.33319 6.13343V11.2001C5.33319 11.5955 5.33421 11.8118 5.34692 11.9672C5.34743 11.9734 5.34793 11.9793 5.34844 11.9848C5.35397 11.9853 5.35984 11.9858 5.36603 11.9864C5.52147 11.9991 5.73781 12.0001 6.13319 12.0001H11.1999C11.5952 12.0001 11.8116 11.9991 11.967 11.9864C11.9732 11.9858 11.9791 11.9853 11.9846 11.9848C11.9851 11.9793 11.9856 11.9734 11.9861 11.9672C11.9988 11.8118 11.9999 11.5955 11.9999 11.2001V6.13343C11.9999 5.73806 11.9988 5.52171 11.9861 5.36627C11.9856 5.36009 11.9851 5.35422 11.9846 5.34868C11.9791 5.34818 11.9732 5.34767 11.967 5.34717C11.8116 5.33446 11.5952 5.33343 11.1999 5.33343H6.13319C5.73781 5.33343 5.52147 5.33446 5.36603 5.34717C5.35984 5.34767 5.35397 5.34818 5.34844 5.34868Z" fill="white"/>
</g>
<defs>
<clipPath id="clip0_700_9922">
<rect width="32" height="32" fill="white"/>
</clipPath>
</defs>
</svg>
