<svg width="32" height="32" viewBox="0 0 32 32" fill="none" xmlns="http://www.w3.org/2000/svg">
<g clip-path="url(#clip0_700_9953)">
<path d="M25.8665 20H20.7998C20.053 20 19.6797 20 19.3945 20.1453C19.1436 20.2732 18.9397 20.4771 18.8118 20.728C18.6665 21.0132 18.6665 21.3865 18.6665 22.1333V27.2C18.6665 27.9468 18.6665 28.3201 18.8118 28.6053C18.9397 28.8563 19.1436 29.0601 19.3945 29.188C19.6797 29.3333 20.053 29.3333 20.7998 29.3333H25.8665C26.6133 29.3333 26.9866 29.3333 27.2718 29.188C27.5228 29.0601 27.7266 28.8563 27.8545 28.6053C27.9998 28.3201 27.9998 27.9468 27.9998 27.2V22.1333C27.9998 21.3865 27.9998 21.0132 27.8545 20.728C27.7266 20.4771 27.5228 20.2732 27.2718 20.1453C26.9866 20 26.6133 20 25.8665 20Z" stroke="white" stroke-width="2" stroke-linecap="round" stroke-linejoin="round"/>
<path d="M11.2 20H6.13333C5.3866 20 5.01323 20 4.72801 20.1453C4.47713 20.2732 4.27316 20.4771 4.14532 20.728C4 21.0132 4 21.3865 4 22.1333V27.2C4 27.9468 4 28.3201 4.14532 28.6053C4.27316 28.8563 4.47713 29.0601 4.72801 29.188C5.01323 29.3333 5.3866 29.3333 6.13333 29.3333H11.2C11.9467 29.3333 12.3201 29.3333 12.6053 29.188C12.8562 29.0601 13.0602 28.8563 13.188 28.6053C13.3333 28.3201 13.3333 27.9468 13.3333 27.2V22.1333C13.3333 21.3865 13.3333 21.0132 13.188 20.728C13.0602 20.4771 12.8562 20.2732 12.6053 20.1453C12.3201 20 11.9467 20 11.2 20Z" stroke="white" stroke-width="2" stroke-linecap="round" stroke-linejoin="round"/>
<path d="M16 2.66675V4.92555M6.25883 14.6666H4M8.87228 7.53923L7.27504 5.94201M23.1292 7.53923L24.7264 5.94201M28 14.6666H25.7412M10.353 14.6667C10.353 11.548 12.8813 9.01973 16.0001 9.01973C18.1263 9.01973 21.6471 11.1373 21.6471 14.6666" stroke="white" stroke-width="2" stroke-linecap="round" stroke-linejoin="round"/>
</g>
<defs>
<clipPath id="clip0_700_9953">
<rect width="32" height="32" fill="white"/>
</clipPath>
</defs>
</svg>
