<svg width="21" height="20" viewBox="0 0 21 20" fill="none" xmlns="http://www.w3.org/2000/svg">
<g clip-path="url(#clip0_3571_27232)">
<path d="M3.83398 4.16732C3.83398 4.38833 3.92178 4.60029 4.07806 4.75657C4.23434 4.91285 4.4463 5.00065 4.66732 5.00065C4.88833 5.00065 5.10029 4.91285 5.25657 4.75657C5.41285 4.60029 5.50065 4.38833 5.50065 4.16732C5.50065 3.9463 5.41285 3.73434 5.25657 3.57806C5.10029 3.42178 4.88833 3.33398 4.66732 3.33398C4.4463 3.33398 4.23434 3.42178 4.07806 3.57806C3.92178 3.73434 3.83398 3.9463 3.83398 4.16732Z" stroke="#373941" stroke-width="1.66667" stroke-linecap="round" stroke-linejoin="round"/>
<path d="M9.66602 4.16732C9.66602 4.38833 9.75381 4.60029 9.91009 4.75657C10.0664 4.91285 10.2783 5.00065 10.4993 5.00065C10.7204 5.00065 10.9323 4.91285 11.0886 4.75657C11.2449 4.60029 11.3327 4.38833 11.3327 4.16732C11.3327 3.9463 11.2449 3.73434 11.0886 3.57806C10.9323 3.42178 10.7204 3.33398 10.4993 3.33398C10.2783 3.33398 10.0664 3.42178 9.91009 3.57806C9.75381 3.73434 9.66602 3.9463 9.66602 4.16732Z" stroke="#373941" stroke-width="1.66667" stroke-linecap="round" stroke-linejoin="round"/>
<path d="M15.5 4.16732C15.5 4.38833 15.5878 4.60029 15.7441 4.75657C15.9004 4.91285 16.1123 5.00065 16.3333 5.00065C16.5543 5.00065 16.7663 4.91285 16.9226 4.75657C17.0789 4.60029 17.1667 4.38833 17.1667 4.16732C17.1667 3.9463 17.0789 3.73434 16.9226 3.57806C16.7663 3.42178 16.5543 3.33398 16.3333 3.33398C16.1123 3.33398 15.9004 3.42178 15.7441 3.57806C15.5878 3.73434 15.5 3.9463 15.5 4.16732Z" stroke="#373941" stroke-width="1.66667" stroke-linecap="round" stroke-linejoin="round"/>
<path d="M3.83398 9.99935C3.83398 10.2204 3.92178 10.4323 4.07806 10.5886C4.23434 10.7449 4.4463 10.8327 4.66732 10.8327C4.88833 10.8327 5.10029 10.7449 5.25657 10.5886C5.41285 10.4323 5.50065 10.2204 5.50065 9.99935C5.50065 9.77834 5.41285 9.56637 5.25657 9.41009C5.10029 9.25381 4.88833 9.16602 4.66732 9.16602C4.4463 9.16602 4.23434 9.25381 4.07806 9.41009C3.92178 9.56637 3.83398 9.77834 3.83398 9.99935Z" stroke="#373941" stroke-width="1.66667" stroke-linecap="round" stroke-linejoin="round"/>
<path d="M9.66602 9.99935C9.66602 10.2204 9.75381 10.4323 9.91009 10.5886C10.0664 10.7449 10.2783 10.8327 10.4993 10.8327C10.7204 10.8327 10.9323 10.7449 11.0886 10.5886C11.2449 10.4323 11.3327 10.2204 11.3327 9.99935C11.3327 9.77834 11.2449 9.56637 11.0886 9.41009C10.9323 9.25381 10.7204 9.16602 10.4993 9.16602C10.2783 9.16602 10.0664 9.25381 9.91009 9.41009C9.75381 9.56637 9.66602 9.77834 9.66602 9.99935Z" stroke="#373941" stroke-width="1.66667" stroke-linecap="round" stroke-linejoin="round"/>
<path d="M15.5 9.99935C15.5 10.2204 15.5878 10.4323 15.7441 10.5886C15.9004 10.7449 16.1123 10.8327 16.3333 10.8327C16.5543 10.8327 16.7663 10.7449 16.9226 10.5886C17.0789 10.4323 17.1667 10.2204 17.1667 9.99935C17.1667 9.77834 17.0789 9.56637 16.9226 9.41009C16.7663 9.25381 16.5543 9.16602 16.3333 9.16602C16.1123 9.16602 15.9004 9.25381 15.7441 9.41009C15.5878 9.56637 15.5 9.77834 15.5 9.99935Z" stroke="#373941" stroke-width="1.66667" stroke-linecap="round" stroke-linejoin="round"/>
<path d="M3.83398 15.8333C3.83398 16.0543 3.92178 16.2663 4.07806 16.4226C4.23434 16.5789 4.4463 16.6667 4.66732 16.6667C4.88833 16.6667 5.10029 16.5789 5.25657 16.4226C5.41285 16.2663 5.50065 16.0543 5.50065 15.8333C5.50065 15.6123 5.41285 15.4004 5.25657 15.2441C5.10029 15.0878 4.88833 15 4.66732 15C4.4463 15 4.23434 15.0878 4.07806 15.2441C3.92178 15.4004 3.83398 15.6123 3.83398 15.8333Z" stroke="#373941" stroke-width="1.66667" stroke-linecap="round" stroke-linejoin="round"/>
<path d="M9.66602 15.8333C9.66602 16.0543 9.75381 16.2663 9.91009 16.4226C10.0664 16.5789 10.2783 16.6667 10.4993 16.6667C10.7204 16.6667 10.9323 16.5789 11.0886 16.4226C11.2449 16.2663 11.3327 16.0543 11.3327 15.8333C11.3327 15.6123 11.2449 15.4004 11.0886 15.2441C10.9323 15.0878 10.7204 15 10.4993 15C10.2783 15 10.0664 15.0878 9.91009 15.2441C9.75381 15.4004 9.66602 15.6123 9.66602 15.8333Z" stroke="#373941" stroke-width="1.66667" stroke-linecap="round" stroke-linejoin="round"/>
<path d="M15.5 15.8333C15.5 16.0543 15.5878 16.2663 15.7441 16.4226C15.9004 16.5789 16.1123 16.6667 16.3333 16.6667C16.5543 16.6667 16.7663 16.5789 16.9226 16.4226C17.0789 16.2663 17.1667 16.0543 17.1667 15.8333C17.1667 15.6123 17.0789 15.4004 16.9226 15.2441C16.7663 15.0878 16.5543 15 16.3333 15C16.1123 15 15.9004 15.0878 15.7441 15.2441C15.5878 15.4004 15.5 15.6123 15.5 15.8333Z" stroke="#373941" stroke-width="1.66667" stroke-linecap="round" stroke-linejoin="round"/>
</g>
<defs>
<clipPath id="clip0_3571_27232">
<rect width="20" height="20" fill="white" transform="translate(0.5)"/>
</clipPath>
</defs>
</svg>
