<svg width="15" height="17" viewBox="0 0 15 17" fill="none" xmlns="http://www.w3.org/2000/svg">
<path d="M0.833984 2.50529C0.834 2.39447 0.856119 2.28477 0.899045 2.1826C0.941972 2.08044 1.00485 1.98786 1.08398 1.91029C1.99219 1.01999 3.20553 0.509231 4.47703 0.481984C5.74854 0.454736 6.98264 0.913044 7.92815 1.76362L8.22065 2.03696C8.82851 2.56954 9.60915 2.86315 10.4173 2.86315C11.2255 2.86315 12.0061 2.56954 12.614 2.03696L12.8215 1.84779C13.3298 1.44529 14.094 1.76696 14.1632 2.41112L14.1673 2.50529V10.0053C14.1673 10.1161 14.1452 10.2258 14.1023 10.328C14.0593 10.4301 13.9965 10.5227 13.9173 10.6003C13.0091 11.4906 11.7958 12.0013 10.5243 12.0286C9.25276 12.0558 8.01866 11.5975 7.07315 10.747L6.78065 10.4736C6.19193 9.95779 5.44046 9.66559 4.65792 9.64822C3.87538 9.63085 3.11168 9.88942 2.50065 10.3786V15.8386C2.50042 16.051 2.41909 16.2553 2.27328 16.4098C2.12747 16.5642 1.92819 16.6572 1.71616 16.6696C1.50412 16.682 1.29533 16.6131 1.13246 16.4767C0.96958 16.3404 0.864904 16.147 0.839818 15.9361L0.833984 15.8386V2.50529Z" fill="#555763"/>
</svg>
