<svg width="81" height="58" viewBox="0 0 81 58" fill="none" xmlns="http://www.w3.org/2000/svg">
<path d="M16.8328 5.62261C16.953 5.62736 17.0733 5.63212 17.1973 5.63701C18.0367 5.67661 18.0367 5.67661 18.1627 5.80212C18.312 5.82761 18.4623 5.84758 18.6129 5.86425C18.7569 5.8802 18.9009 5.89615 19.0493 5.91258C19.0493 5.98549 19.0493 6.0584 19.0493 6.13351C19.175 6.12668 19.3007 6.11984 19.4302 6.1128C19.9734 6.1099 20.4317 6.27048 20.9333 6.46491C20.9333 6.53782 20.9333 6.61072 20.9333 6.68584C21.1527 6.68584 21.3721 6.68584 21.5982 6.68584C21.5982 6.75875 21.5982 6.83165 21.5982 6.90677C21.7445 6.90677 21.8908 6.90677 22.0415 6.90677C22.0415 6.97968 22.0415 7.05258 22.0415 7.1277C22.1878 7.1277 22.3341 7.1277 22.4848 7.1277C22.4848 7.20061 22.4848 7.27351 22.4848 7.34863C22.5945 7.34863 22.7043 7.34863 22.8173 7.34863C22.8173 7.42154 22.8173 7.49444 22.8173 7.56956C22.8904 7.56956 22.9636 7.56956 23.0389 7.56956C23.0389 7.64247 23.0389 7.71537 23.0389 7.79049C23.1852 7.79049 23.3315 7.79049 23.4822 7.79049C23.4822 7.8634 23.4822 7.9363 23.4822 8.01142C23.7017 8.04787 23.9211 8.08433 24.1472 8.12188C24.1472 8.19479 24.1472 8.2677 24.1472 8.34282C24.2203 8.34282 24.2935 8.34282 24.3688 8.34282C24.3688 8.41572 24.3688 8.48863 24.3688 8.56375C24.4763 8.59109 24.5837 8.61843 24.6944 8.64659C24.8624 8.71494 24.8624 8.71494 25.0338 8.78468C25.1308 9.01941 25.1308 9.01941 25.1446 9.22654C25.2178 9.22654 25.2909 9.22654 25.3663 9.22654C25.3663 9.29944 25.3663 9.37235 25.3663 9.44747C25.4394 9.44747 25.5126 9.44747 25.5879 9.44747C25.5879 9.52037 25.5879 9.59328 25.5879 9.6684C25.6611 9.6684 25.7342 9.6684 25.8096 9.6684C25.8096 9.7413 25.8096 9.81421 25.8096 9.88933C25.8827 9.88933 25.9558 9.88933 26.0312 9.88933C26.0312 9.96223 26.0312 10.0351 26.0312 10.1103C26.1775 10.1467 26.3238 10.1832 26.4745 10.2207C26.4745 10.2936 26.4745 10.3665 26.4745 10.4417C26.5477 10.4417 26.6208 10.4417 26.6962 10.4417C26.6962 10.5146 26.6962 10.5875 26.6962 10.6626C26.7693 10.6626 26.8424 10.6626 26.9178 10.6626C26.9178 10.7355 26.9178 10.8084 26.9178 10.8835C26.991 10.8835 27.0641 10.8835 27.1395 10.8835C27.176 11.1022 27.2126 11.321 27.2503 11.5463C27.3234 11.5463 27.3966 11.5463 27.4719 11.5463C27.4719 11.6192 27.4719 11.6921 27.4719 11.7672C27.5451 11.7672 27.6182 11.7672 27.6936 11.7672C27.6936 11.8766 27.6936 11.986 27.6936 12.0986C27.7667 12.0986 27.8399 12.0986 27.9152 12.0986C27.9152 12.2444 27.9152 12.3903 27.9152 12.5405C27.9884 12.5405 28.0615 12.5405 28.1369 12.5405C28.1369 12.6134 28.1369 12.6863 28.1369 12.7614C28.21 12.7614 28.2832 12.7614 28.3585 12.7614C28.3585 12.9072 28.3585 13.053 28.3585 13.2033C28.4317 13.2033 28.5048 13.2033 28.5802 13.2033C28.5802 13.3491 28.5802 13.4949 28.5802 13.6451C28.6533 13.6451 28.7265 13.6451 28.8018 13.6451C28.9637 13.9376 29.0235 14.0753 29.0235 14.4184C29.0966 14.4184 29.1698 14.4184 29.2451 14.4184C29.2817 14.7829 29.3183 15.1475 29.356 15.523C29.4291 15.523 29.5022 15.523 29.5776 15.523C29.5776 15.7418 29.5776 15.9605 29.5776 16.1858C29.6507 16.1858 29.7239 16.1858 29.7993 16.1858C29.7993 16.441 29.7993 16.6962 29.7993 16.9591C29.8724 16.9591 29.9455 16.9591 30.0209 16.9591C30.0276 17.0535 30.0343 17.1479 30.0412 17.2452C30.0505 17.3672 30.0598 17.4892 30.0694 17.615C30.0784 17.7367 30.0874 17.8585 30.0967 17.9839C30.0989 18.2749 30.0989 18.2749 30.2425 18.3951C30.2524 18.6656 30.2553 18.9329 30.2534 19.2033C30.2531 19.3245 30.2531 19.3245 30.2529 19.4481C30.2523 19.707 30.2509 19.9658 30.2495 20.2247C30.2489 20.3998 30.2484 20.575 30.248 20.7501C30.2467 21.1802 30.2448 21.6104 30.2425 22.0405C30.1694 22.0405 30.0963 22.0405 30.0209 22.0405C30.0209 22.5144 30.0209 22.9883 30.0209 23.4765C29.9478 23.4765 29.8746 23.4765 29.7993 23.4765C29.7993 23.6953 29.7993 23.914 29.7993 24.1393C29.7261 24.1393 29.653 24.1393 29.5776 24.1393C29.5776 24.358 29.5776 24.5768 29.5776 24.8021C29.5045 24.8021 29.4313 24.8021 29.356 24.8021C29.3194 25.2031 29.2828 25.6041 29.2451 26.0172C29.172 26.0172 29.0988 26.0172 29.0235 26.0172C29.0235 26.163 29.0235 26.3089 29.0235 26.4591C28.9503 26.4591 28.8772 26.4591 28.8018 26.4591C28.8018 26.6049 28.8018 26.7507 28.8018 26.901C28.7287 26.901 28.6555 26.901 28.5802 26.901C28.5802 27.0103 28.5802 27.1197 28.5802 27.2323C28.507 27.2323 28.4339 27.2323 28.3585 27.2323C28.3585 27.3782 28.3585 27.524 28.3585 27.6742C28.2854 27.6742 28.2122 27.6742 28.1369 27.6742C28.1369 27.7471 28.1369 27.82 28.1369 27.8951C28.0637 27.8951 27.9906 27.8951 27.9152 27.8951C27.9152 28.041 27.9152 28.1868 27.9152 28.337C27.8421 28.337 27.7689 28.337 27.6936 28.337C27.6936 28.4099 27.6936 28.4828 27.6936 28.5579C27.6204 28.5579 27.5473 28.5579 27.4719 28.5579C27.4719 28.6673 27.4719 28.7767 27.4719 28.8893C27.3988 28.8893 27.3256 28.8893 27.2503 28.8893C27.2137 29.0351 27.1771 29.181 27.1395 29.3312C27.0663 29.3312 26.9932 29.3312 26.9178 29.3312C26.9178 29.477 26.9178 29.6228 26.9178 29.773C26.8447 29.773 26.7715 29.773 26.6962 29.773C26.6962 29.846 26.6962 29.9189 26.6962 29.994C26.623 29.994 26.5499 29.994 26.4745 29.994C26.4745 30.0669 26.4745 30.1398 26.4745 30.2149C26.4014 30.2149 26.3282 30.2149 26.2529 30.2149C26.2529 30.2878 26.2529 30.3607 26.2529 30.4358C26.1797 30.4358 26.1066 30.4358 26.0312 30.4358C26.0312 30.5087 26.0312 30.5817 26.0312 30.6568C25.8849 30.6932 25.7386 30.7297 25.5879 30.7672C25.5879 30.8401 25.5879 30.913 25.5879 30.9882C25.5148 30.9882 25.4416 30.9882 25.3663 30.9882C25.3663 31.0611 25.3663 31.134 25.3663 31.2091C25.2931 31.2091 25.22 31.2091 25.1446 31.2091C25.1446 31.282 25.1446 31.3549 25.1446 31.43C25.0349 31.43 24.9252 31.43 24.8121 31.43C24.8121 31.5029 24.8121 31.5758 24.8121 31.651C24.739 31.651 24.6658 31.651 24.5905 31.651C24.5905 31.7239 24.5905 31.7968 24.5905 31.8719C24.5173 31.8719 24.4442 31.8719 24.3688 31.8719C24.3688 31.9448 24.3688 32.0177 24.3688 32.0928C24.2957 32.0928 24.2225 32.0928 24.1472 32.0928C24.1472 32.1657 24.1472 32.2386 24.1472 32.3137C24.0009 32.3137 23.8546 32.3137 23.7039 32.3137C23.7039 32.3867 23.7039 32.4596 23.7039 32.5347C23.6307 32.5347 23.5576 32.5347 23.4822 32.5347C23.4822 32.6076 23.4822 32.6805 23.4822 32.7556C23.2262 32.7921 22.9702 32.8285 22.7065 32.8661C22.7065 32.939 22.7065 33.0119 22.7065 33.087C22.5602 33.087 22.4139 33.087 22.2632 33.087C22.2632 33.1599 22.2632 33.2328 22.2632 33.3079C22.1169 33.3079 21.9706 33.3079 21.8199 33.3079C21.8199 33.3808 21.8199 33.4537 21.8199 33.5289C21.6736 33.5289 21.5273 33.5289 21.3766 33.5289C21.3766 33.6018 21.3766 33.6747 21.3766 33.7498C21.2303 33.7498 21.084 33.7498 20.9333 33.7498C20.9333 33.8227 20.9333 33.8956 20.9333 33.9707C20.5858 34.1759 20.3376 34.2139 19.9358 34.1917C19.9358 34.2646 19.9358 34.3375 19.9358 34.4126C19.6433 34.4126 19.3507 34.4126 19.0493 34.4126C19.0493 34.4855 19.0493 34.5584 19.0493 34.6335C18.3119 34.7281 17.5931 34.7602 16.8501 34.7586C16.6823 34.7588 16.6823 34.7588 16.5112 34.759C16.2761 34.759 16.041 34.7588 15.8059 34.7584C15.4485 34.7578 15.091 34.7584 14.7336 34.7591C14.504 34.759 14.2744 34.7589 14.0448 34.7586C13.9392 34.7589 13.8335 34.7591 13.7246 34.7593C13.0897 34.7571 12.4755 34.7143 11.8456 34.6335C11.8456 34.5606 11.8456 34.4877 11.8456 34.4126C11.5531 34.4126 11.2605 34.4126 10.959 34.4126C10.959 34.3397 10.959 34.2668 10.959 34.1917C10.7396 34.1917 10.5202 34.1917 10.2941 34.1917C10.2941 34.1187 10.2941 34.0458 10.2941 33.9707C10.1844 33.9707 10.0747 33.9707 9.96162 33.9707C9.96162 33.8978 9.96162 33.8249 9.96162 33.7498C9.74219 33.7498 9.52276 33.7498 9.29667 33.7498C9.29667 33.6769 9.29667 33.604 9.29667 33.5289C9.15038 33.5289 9.0041 33.5289 8.85337 33.5289C8.85337 33.456 8.85337 33.383 8.85337 33.3079C8.70709 33.3079 8.5608 33.3079 8.41008 33.3079C8.41008 33.235 8.41008 33.1621 8.41008 33.087C8.26379 33.087 8.1175 33.087 7.96678 33.087C7.9302 33.0141 7.89363 32.9412 7.85595 32.8661C7.63157 32.794 7.63157 32.794 7.41265 32.7556C7.41265 32.6827 7.41265 32.6098 7.41265 32.5347C7.26636 32.5347 7.12008 32.5347 6.96935 32.5347C6.96935 32.4618 6.96935 32.3889 6.96935 32.3137C6.89621 32.3137 6.82307 32.3137 6.7477 32.3137C6.7477 32.2408 6.7477 32.1679 6.7477 32.0928C6.67456 32.0928 6.60142 32.0928 6.52605 32.0928C6.52605 32.0199 6.52605 31.947 6.52605 31.8719C6.37977 31.8719 6.23348 31.8719 6.08276 31.8719C6.08276 31.799 6.08276 31.7261 6.08276 31.651C6.00961 31.651 5.93647 31.651 5.86111 31.651C5.82453 31.5051 5.78796 31.3593 5.75028 31.2091C5.67714 31.2091 5.60399 31.2091 5.52863 31.2091C5.52863 31.1362 5.52863 31.0633 5.52863 30.9882C5.45549 30.9882 5.38234 30.9882 5.30698 30.9882C5.30698 30.9153 5.30698 30.8424 5.30698 30.7672C5.16069 30.7308 5.01441 30.6943 4.86368 30.6568C4.86368 30.5839 4.86368 30.511 4.86368 30.4358C4.79054 30.4358 4.7174 30.4358 4.64203 30.4358C4.64203 30.3629 4.64203 30.29 4.64203 30.2149C4.56889 30.2149 4.49575 30.2149 4.42038 30.2149C4.42038 30.142 4.42038 30.0691 4.42038 29.994C4.34724 29.994 4.2741 29.994 4.19874 29.994C4.19874 29.9211 4.19874 29.8482 4.19874 29.773C4.12559 29.773 4.05245 29.773 3.97709 29.773C3.97709 29.7001 3.97709 29.6272 3.97709 29.5521C3.90394 29.5521 3.8308 29.5521 3.75544 29.5521C3.71886 29.3334 3.68229 29.1147 3.64461 28.8893C3.49832 28.8529 3.35203 28.8164 3.20131 28.7789C3.20131 28.633 3.20131 28.4872 3.20131 28.337C3.12817 28.337 3.05502 28.337 2.97966 28.337C2.97966 28.2641 2.97966 28.1912 2.97966 28.1161C2.90652 28.1161 2.83337 28.1161 2.75801 28.1161C2.75801 27.9703 2.75801 27.8244 2.75801 27.6742C2.68487 27.6742 2.61173 27.6742 2.53636 27.6742C2.46322 27.4555 2.39008 27.2368 2.31471 27.0114C2.24157 27.0114 2.16843 27.0114 2.09307 27.0114C2.09307 26.9021 2.09307 26.7927 2.09307 26.68C2.01992 26.68 1.94678 26.68 1.87142 26.68C1.87142 26.4613 1.87142 26.2426 1.87142 26.0172C1.79827 26.0172 1.72513 26.0172 1.64977 26.0172C1.61319 25.6892 1.57662 25.3611 1.53894 25.023C1.4658 25.023 1.39265 25.023 1.31729 25.023C1.31729 24.8043 1.31729 24.5856 1.31729 24.3603C1.24415 24.3603 1.171 24.3603 1.09564 24.3603C1.09564 24.1415 1.09564 23.9228 1.09564 23.6975C1.0225 23.6975 0.949354 23.6975 0.873993 23.6975C0.873993 23.3694 0.873993 23.0413 0.873993 22.7033C0.800849 22.7033 0.727705 22.7033 0.652344 22.7033C0.652344 21.0993 0.652344 19.4954 0.652344 17.8428C0.725488 17.8428 0.798632 17.8428 0.873993 17.8428C0.873993 17.4783 0.873993 17.1137 0.873993 16.7382C0.947138 16.7382 1.02028 16.7382 1.09564 16.7382C1.09564 16.4465 1.09564 16.1549 1.09564 15.8544C1.16879 15.8544 1.24193 15.8544 1.31729 15.8544C1.31729 15.6722 1.31729 15.4899 1.31729 15.3021C1.39044 15.3021 1.46358 15.3021 1.53894 15.3021C1.54708 15.2022 1.54708 15.2022 1.55539 15.1002C1.56368 15.0119 1.57196 14.9236 1.5805 14.8326C1.58822 14.7455 1.59593 14.6583 1.60388 14.5686C1.65144 14.2984 1.73688 14.1038 1.87142 13.8661C1.94456 13.8661 2.0177 13.8661 2.09307 13.8661C2.09307 13.7203 2.09307 13.5744 2.09307 13.4242C2.16621 13.4242 2.23935 13.4242 2.31471 13.4242C2.31471 13.2784 2.31471 13.1326 2.31471 12.9823C2.38786 12.9823 2.461 12.9823 2.53636 12.9823C2.53636 12.8365 2.53636 12.6907 2.53636 12.5405C2.60951 12.5405 2.68265 12.5405 2.75801 12.5405C2.75801 12.4676 2.75801 12.3947 2.75801 12.3196C2.83116 12.3196 2.9043 12.3196 2.97966 12.3196C2.97966 12.2102 2.97966 12.1008 2.97966 11.9882C3.05281 11.9882 3.12595 11.9882 3.20131 11.9882C3.20131 11.9153 3.20131 11.8424 3.20131 11.7672C3.27446 11.7672 3.3476 11.7672 3.42296 11.7672C3.42296 11.6214 3.42296 11.4756 3.42296 11.3254C3.49611 11.3254 3.56925 11.3254 3.64461 11.3254C3.68118 11.1796 3.71776 11.0337 3.75544 10.8835C3.82858 10.8835 3.90173 10.8835 3.97709 10.8835C3.97709 10.8106 3.97709 10.7377 3.97709 10.6626C4.05023 10.6626 4.12337 10.6626 4.19874 10.6626C4.27188 10.5168 4.34502 10.371 4.42038 10.2207C4.49353 10.2207 4.56667 10.2207 4.64203 10.2207C4.64203 10.1114 4.64203 10.002 4.64203 9.88933C4.71518 9.88933 4.78832 9.88933 4.86368 9.88933C4.86368 9.81642 4.86368 9.74351 4.86368 9.6684C4.93683 9.6684 5.00997 9.6684 5.08533 9.6684C5.08533 9.59549 5.08533 9.52258 5.08533 9.44747C5.15848 9.44747 5.23162 9.44747 5.30698 9.44747C5.30698 9.37456 5.30698 9.30165 5.30698 9.22654C5.45327 9.22654 5.59956 9.22654 5.75028 9.22654C5.78685 9.08072 5.82343 8.93491 5.86111 8.78468C5.93425 8.78468 6.0074 8.78468 6.08276 8.78468C6.08276 8.71177 6.08276 8.63886 6.08276 8.56375C6.1559 8.56375 6.22904 8.56375 6.30441 8.56375C6.30441 8.49084 6.30441 8.41793 6.30441 8.34282C6.45069 8.34282 6.59698 8.34282 6.7477 8.34282C6.7477 8.26991 6.7477 8.197 6.7477 8.12188C6.96714 8.08543 7.18657 8.04898 7.41265 8.01142C7.41265 7.93851 7.41265 7.86561 7.41265 7.79049C7.4858 7.79049 7.55894 7.79049 7.6343 7.79049C7.6343 7.71758 7.6343 7.64468 7.6343 7.56956C7.74402 7.56956 7.85374 7.56956 7.96678 7.56956C7.96678 7.49665 7.96678 7.42375 7.96678 7.34863C8.11307 7.34863 8.25935 7.34863 8.41008 7.34863C8.41008 7.27572 8.41008 7.20282 8.41008 7.1277C8.55636 7.1277 8.70265 7.1277 8.85337 7.1277C8.85337 7.05479 8.85337 6.98188 8.85337 6.90677C8.99966 6.90677 9.14595 6.90677 9.29667 6.90677C9.29667 6.83386 9.29667 6.76095 9.29667 6.68584C9.44296 6.68584 9.58925 6.68584 9.73997 6.68584C9.73997 6.61293 9.73997 6.54002 9.73997 6.46491C10.3935 6.21156 10.922 6.09535 11.624 6.13351C11.624 6.06061 11.624 5.9877 11.624 5.91258C11.7497 5.89663 11.8754 5.88069 12.005 5.86425C12.3785 5.84501 12.3785 5.84501 12.5106 5.69165C12.9152 5.64731 13.3231 5.63868 13.7297 5.62261C13.8522 5.61772 13.9748 5.61282 14.1011 5.60778C15.0135 5.57737 15.9206 5.58619 16.8328 5.62261ZM13.8405 10.3312C13.8405 10.4041 13.8405 10.477 13.8405 10.5521C13.4748 10.5521 13.109 10.5521 12.7322 10.5521C12.7322 10.625 12.7322 10.6979 12.7322 10.773C12.5128 10.773 12.2934 10.773 12.0673 10.773C12.0673 10.846 12.0673 10.9189 12.0673 10.994C11.8844 10.994 11.7016 10.994 11.5132 10.994C11.5132 11.0669 11.5132 11.1398 11.5132 11.2149C11.3669 11.2149 11.2206 11.2149 11.0699 11.2149C11.0699 11.2878 11.0699 11.3607 11.0699 11.4358C10.9236 11.4358 10.7773 11.4358 10.6266 11.4358C10.6266 11.5087 10.6266 11.5817 10.6266 11.6568C10.4071 11.6932 10.1877 11.7297 9.96162 11.7672C9.96162 11.8401 9.96162 11.913 9.96162 11.9882C9.85191 11.9882 9.74219 11.9882 9.62915 11.9882C9.62915 12.0611 9.62915 12.134 9.62915 12.2091C9.556 12.2091 9.48286 12.2091 9.4075 12.2091C9.4075 12.282 9.4075 12.3549 9.4075 12.43C9.33435 12.43 9.26121 12.43 9.18585 12.43C9.18585 12.5029 9.18585 12.5758 9.18585 12.651C9.1127 12.651 9.03956 12.651 8.9642 12.651C8.9642 12.7239 8.9642 12.7968 8.9642 12.8719C8.89106 12.8719 8.81791 12.8719 8.74255 12.8719C8.74255 12.9448 8.74255 13.0177 8.74255 13.0928C8.59626 13.0928 8.44997 13.0928 8.29925 13.0928C8.29925 13.1657 8.29925 13.2386 8.29925 13.3137C8.22611 13.3137 8.15296 13.3137 8.0776 13.3137C8.0776 13.4596 8.0776 13.6054 8.0776 13.7556C7.96789 13.7921 7.85817 13.8285 7.74513 13.8661C7.74513 13.939 7.74513 14.0119 7.74513 14.087C7.67198 14.087 7.59884 14.087 7.52348 14.087C7.52348 14.1599 7.52348 14.2328 7.52348 14.3079C7.45033 14.3079 7.37719 14.3079 7.30183 14.3079C7.30183 14.4537 7.30183 14.5996 7.30183 14.7498C7.22868 14.7498 7.15554 14.7498 7.08018 14.7498C7.08018 14.8227 7.08018 14.8956 7.08018 14.9707C7.00703 14.9707 6.93389 14.9707 6.85853 14.9707C6.85853 15.1165 6.85853 15.2624 6.85853 15.4126C6.78539 15.4126 6.71224 15.4126 6.63688 15.4126C6.63688 15.5219 6.63688 15.6313 6.63688 15.744C6.56374 15.744 6.49059 15.744 6.41523 15.744C6.41523 15.8898 6.41523 16.0356 6.41523 16.1858C6.34209 16.1858 6.26894 16.1858 6.19358 16.1858C6.19358 16.3317 6.19358 16.4775 6.19358 16.6277C6.12044 16.6277 6.04729 16.6277 5.97193 16.6277C5.97193 16.8464 5.97193 17.0651 5.97193 17.2905C5.89879 17.2905 5.82564 17.2905 5.75028 17.2905C5.73557 17.4327 5.72085 17.575 5.70569 17.7216C5.68595 17.907 5.66618 18.0924 5.64638 18.2778C5.63674 18.3717 5.6271 18.4656 5.61716 18.5623C5.60752 18.6517 5.59788 18.7411 5.58794 18.8331C5.57924 18.9158 5.57053 18.9986 5.56156 19.0838C5.52863 19.2789 5.52863 19.2789 5.41781 19.3893C5.40824 19.5376 5.40594 19.6865 5.40698 19.8351C5.40734 19.9244 5.4077 20.0138 5.40807 20.1058C5.409 20.1997 5.40992 20.2937 5.41088 20.3904C5.41138 20.4848 5.41188 20.5791 5.4124 20.6763C5.41371 20.9101 5.41569 21.1439 5.41781 21.3777C5.49095 21.3777 5.5641 21.3777 5.63946 21.3777C5.63753 21.4977 5.63753 21.4977 5.63556 21.6202C5.63033 22.1783 5.63128 22.707 5.75028 23.2556C5.82343 23.2556 5.89657 23.2556 5.97193 23.2556C5.97193 23.4379 5.97193 23.6201 5.97193 23.8079C6.04508 23.8079 6.11822 23.8079 6.19358 23.8079C6.19358 23.9537 6.19358 24.0996 6.19358 24.2498C6.26673 24.2498 6.33987 24.2498 6.41523 24.2498C6.41523 24.3956 6.41523 24.5414 6.41523 24.6917C6.48837 24.6917 6.56152 24.6917 6.63688 24.6917C6.63688 24.8375 6.63688 24.9833 6.63688 25.1335C6.71002 25.1335 6.78317 25.1335 6.85853 25.1335C6.85853 25.2429 6.85853 25.3522 6.85853 25.4649C6.93167 25.4649 7.00482 25.4649 7.08018 25.4649C7.08018 25.5378 7.08018 25.6107 7.08018 25.6858C7.15332 25.6858 7.22647 25.6858 7.30183 25.6858C7.30183 25.8317 7.30183 25.9775 7.30183 26.1277C7.37497 26.1277 7.44812 26.1277 7.52348 26.1277C7.52348 26.2006 7.52348 26.2735 7.52348 26.3486C7.59662 26.3486 7.66977 26.3486 7.74513 26.3486C7.79999 26.5674 7.79999 26.5674 7.85595 26.7905C7.9291 26.7905 8.00224 26.7905 8.0776 26.7905C8.0776 26.8634 8.0776 26.9363 8.0776 27.0114C8.15075 27.0114 8.22389 27.0114 8.29925 27.0114C8.29925 27.1208 8.29925 27.2301 8.29925 27.3428C8.44554 27.3428 8.59183 27.3428 8.74255 27.3428C8.74255 27.4157 8.74255 27.4886 8.74255 27.5637C8.81569 27.5637 8.88884 27.5637 8.9642 27.5637C8.9642 27.6367 8.9642 27.7096 8.9642 27.7847C9.03734 27.7847 9.11049 27.7847 9.18585 27.7847C9.18585 27.8576 9.18585 27.9305 9.18585 28.0056C9.25899 28.0056 9.33214 28.0056 9.4075 28.0056C9.4075 28.0785 9.4075 28.1514 9.4075 28.2265C9.47836 28.2584 9.54922 28.2903 9.62222 28.3232C9.8508 28.4475 9.8508 28.4475 9.96162 28.6684C10.1079 28.6684 10.2542 28.6684 10.4049 28.6684C10.4049 28.7413 10.4049 28.8142 10.4049 28.8893C10.4781 28.8893 10.5512 28.8893 10.6266 28.8893C10.6266 28.9622 10.6266 29.0351 10.6266 29.1103C10.9191 29.1467 11.2117 29.1832 11.5132 29.2207C11.5132 29.2936 11.5132 29.3665 11.5132 29.4417C11.696 29.4417 11.8789 29.4417 12.0673 29.4417C12.0673 29.5146 12.0673 29.5875 12.0673 29.6626C12.2867 29.6626 12.5062 29.6626 12.7322 29.6626C12.7322 29.7355 12.7322 29.8084 12.7322 29.8835C12.819 29.8902 12.9057 29.8969 12.995 29.9038C13.1072 29.913 13.2193 29.9223 13.3349 29.9318C13.5026 29.9453 13.5026 29.9453 13.6738 29.959C13.9513 29.994 13.9513 29.994 14.0621 30.1044C14.2676 30.1141 14.4734 30.1163 14.679 30.1152C14.8037 30.1149 14.9283 30.1145 15.0567 30.1142C15.188 30.1132 15.3192 30.1123 15.4544 30.1113C15.586 30.1108 15.7177 30.1103 15.8533 30.1098C16.1798 30.1085 16.5063 30.1067 16.8328 30.1044C16.8328 30.0315 16.8328 29.9586 16.8328 29.8835C17.1985 29.8835 17.5642 29.8835 17.941 29.8835C17.941 29.8106 17.941 29.7377 17.941 29.6626C18.1604 29.6626 18.3799 29.6626 18.606 29.6626C18.606 29.5897 18.606 29.5168 18.606 29.4417C18.7888 29.4417 18.9717 29.4417 19.1601 29.4417C19.1601 29.3687 19.1601 29.2958 19.1601 29.2207C19.4527 29.1843 19.7452 29.1478 20.0467 29.1103C20.0467 29.0373 20.0467 28.9644 20.0467 28.8893C20.193 28.8893 20.3393 28.8893 20.49 28.8893C20.49 28.8164 20.49 28.7435 20.49 28.6684C20.5631 28.6684 20.6363 28.6684 20.7116 28.6684C20.7116 28.3403 20.7116 28.0122 20.7116 27.6742C20.6385 27.6742 20.5653 27.6742 20.49 27.6742C20.49 27.6013 20.49 27.5284 20.49 27.4533C20.3437 27.4533 20.1974 27.4533 20.0467 27.4533C20.0467 27.3804 20.0467 27.3075 20.0467 27.2323C19.937 27.2323 19.8272 27.2323 19.7142 27.2323C19.7142 27.3053 19.7142 27.3782 19.7142 27.4533C19.5679 27.4533 19.4216 27.4533 19.2709 27.4533C19.2709 27.5262 19.2709 27.5991 19.2709 27.6742C19.1246 27.6742 18.9783 27.6742 18.8276 27.6742C18.8276 27.7471 18.8276 27.82 18.8276 27.8951C18.6447 27.8951 18.4619 27.8951 18.2735 27.8951C18.2735 27.968 18.2735 28.041 18.2735 28.1161C18.054 28.1161 17.8346 28.1161 17.6085 28.1161C17.6085 28.189 17.6085 28.2619 17.6085 28.337C17.316 28.337 17.0234 28.337 16.7219 28.337C16.7219 28.4099 16.7219 28.4828 16.7219 28.5579C15.8808 28.5579 15.0396 28.5579 14.173 28.5579C14.173 28.485 14.173 28.4121 14.173 28.337C13.8804 28.337 13.5878 28.337 13.2864 28.337C13.2864 28.2641 13.2864 28.1912 13.2864 28.1161C13.0669 28.1161 12.8475 28.1161 12.6214 28.1161C12.6214 28.0432 12.6214 27.9703 12.6214 27.8951C12.4386 27.8951 12.2557 27.8951 12.0673 27.8951C12.0673 27.8222 12.0673 27.7493 12.0673 27.6742C11.921 27.6742 11.7747 27.6742 11.624 27.6742C11.624 27.6013 11.624 27.5284 11.624 27.4533C11.4777 27.4533 11.3314 27.4533 11.1807 27.4533C11.1807 27.3804 11.1807 27.3075 11.1807 27.2323C11.0344 27.2323 10.8881 27.2323 10.7374 27.2323C10.7374 27.1594 10.7374 27.0865 10.7374 27.0114C10.4927 26.7123 10.4927 26.7123 10.1833 26.4591C10.037 26.4591 9.89069 26.4591 9.73997 26.4591C9.73997 26.3862 9.73997 26.3133 9.73997 26.2382C9.66683 26.2382 9.59368 26.2382 9.51832 26.2382C9.51832 26.1653 9.51832 26.0924 9.51832 26.0172C9.44518 26.0172 9.37203 26.0172 9.29667 26.0172C9.29667 25.9443 9.29667 25.8714 9.29667 25.7963C9.22353 25.7963 9.15038 25.7963 9.07502 25.7963C9.07502 25.6505 9.07502 25.5047 9.07502 25.3544C9.00188 25.3544 8.92874 25.3544 8.85337 25.3544C8.85337 25.2815 8.85337 25.2086 8.85337 25.1335C8.6888 25.0242 8.6888 25.0242 8.5209 24.9126C8.48433 24.8032 8.44776 24.6939 8.41008 24.5812C8.33693 24.5812 8.26379 24.5812 8.18843 24.5812C8.18843 24.5083 8.18843 24.4354 8.18843 24.3603C8.11528 24.3603 8.04214 24.3603 7.96678 24.3603C7.9302 24.0686 7.89363 23.777 7.85595 23.4765C7.78281 23.4765 7.70966 23.4765 7.6343 23.4765C7.56116 23.0755 7.48801 22.6746 7.41265 22.2614C7.33951 22.2614 7.26636 22.2614 7.191 22.2614C7.19229 22.183 7.19357 22.1045 7.1949 22.0237C7.1959 21.9221 7.1969 21.8206 7.19793 21.716C7.19922 21.6148 7.2005 21.5135 7.20183 21.4092C7.21976 21.1605 7.21976 21.1605 7.08018 21.0463C7.06911 20.7322 7.0648 20.4214 7.06633 20.1074C7.0659 20.0192 7.06547 19.9311 7.06503 19.8402C7.06615 19.1824 7.06615 19.1824 7.191 19.0579C7.19899 18.8717 7.2003 18.6851 7.19793 18.4987C7.19693 18.3972 7.19593 18.2956 7.1949 18.191C7.19361 18.1126 7.19233 18.0341 7.191 17.9533C7.26415 17.9533 7.33729 17.9533 7.41265 17.9533C7.41265 17.771 7.41265 17.5887 7.41265 17.401C7.4858 17.401 7.55894 17.401 7.6343 17.401C7.6343 17.2551 7.6343 17.1093 7.6343 16.9591C7.70745 16.9591 7.78059 16.9591 7.85595 16.9591C8.03141 16.354 8.03141 16.354 8.18843 15.744C8.26157 15.744 8.33471 15.744 8.41008 15.744C8.41008 15.6711 8.41008 15.5982 8.41008 15.523C8.48322 15.523 8.55636 15.523 8.63173 15.523C8.63173 15.3772 8.63173 15.2314 8.63173 15.0812C8.70487 15.0812 8.77801 15.0812 8.85337 15.0812C8.85337 15.0083 8.85337 14.9354 8.85337 14.8603C8.92652 14.8603 8.99966 14.8603 9.07502 14.8603C9.07502 14.7873 9.07502 14.7144 9.07502 14.6393C9.14817 14.6393 9.22131 14.6393 9.29667 14.6393C9.29667 14.5664 9.29667 14.4935 9.29667 14.4184C9.36982 14.4184 9.44296 14.4184 9.51832 14.4184C9.51832 14.3455 9.51832 14.2726 9.51832 14.1975C9.59147 14.1975 9.66461 14.1975 9.73997 14.1975C9.73997 14.1246 9.73997 14.0517 9.73997 13.9765C9.95941 13.9219 9.95941 13.9219 10.1833 13.8661C10.1833 13.7932 10.1833 13.7203 10.1833 13.6451C10.293 13.6451 10.4027 13.6451 10.5157 13.6451C10.5157 13.5722 10.5157 13.4993 10.5157 13.4242C10.5889 13.4242 10.662 13.4242 10.7374 13.4242C10.7374 13.3513 10.7374 13.2784 10.7374 13.2033C10.8837 13.2033 11.03 13.2033 11.1807 13.2033C11.1807 13.1304 11.1807 13.0575 11.1807 12.9823C11.2538 12.9823 11.327 12.9823 11.4023 12.9823C11.4023 12.9094 11.4023 12.8365 11.4023 12.7614C11.5486 12.7614 11.6949 12.7614 11.8456 12.7614C11.8456 12.6885 11.8456 12.6156 11.8456 12.5405C11.9622 12.5473 11.9622 12.5473 12.0811 12.5543C12.4423 12.5386 12.7274 12.4447 13.0647 12.3196C13.0647 12.2467 13.0647 12.1737 13.0647 12.0986C14.6373 12.0986 16.2099 12.0986 17.8302 12.0986C17.8302 12.1715 17.8302 12.2444 17.8302 12.3196C18.0496 12.3196 18.269 12.3196 18.4951 12.3196C18.4951 12.3925 18.4951 12.4654 18.4951 12.5405C18.6048 12.5405 18.7146 12.5405 18.8276 12.5405C18.8276 12.6134 18.8276 12.6863 18.8276 12.7614C18.9739 12.7614 19.1202 12.7614 19.2709 12.7614C19.2709 12.8343 19.2709 12.9072 19.2709 12.9823C19.4172 12.9823 19.5635 12.9823 19.7142 12.9823C19.7142 13.0553 19.7142 13.1282 19.7142 13.2033C19.7873 13.2033 19.8605 13.2033 19.9358 13.2033C19.9358 13.2762 19.9358 13.3491 19.9358 13.4242C20.0821 13.4242 20.2284 13.4242 20.3791 13.4242C20.3791 13.4971 20.3791 13.57 20.3791 13.6451C20.4523 13.6451 20.5254 13.6451 20.6008 13.6451C20.6374 13.7545 20.6739 13.8639 20.7116 13.9765C20.8579 13.9765 21.0042 13.9765 21.1549 13.9765C21.1549 14.0494 21.1549 14.1223 21.1549 14.1975C21.2281 14.1975 21.3012 14.1975 21.3766 14.1975C21.3766 14.2704 21.3766 14.3433 21.3766 14.4184C21.4497 14.4184 21.5229 14.4184 21.5982 14.4184C21.5982 14.4913 21.5982 14.5642 21.5982 14.6393C21.6714 14.6393 21.7445 14.6393 21.8199 14.6393C21.8199 14.7851 21.8199 14.931 21.8199 15.0812C21.893 15.0812 21.9662 15.0812 22.0415 15.0812C22.0415 15.1541 22.0415 15.227 22.0415 15.3021C22.1147 15.3021 22.1878 15.3021 22.2632 15.3021C22.2632 15.375 22.2632 15.4479 22.2632 15.523C22.3363 15.523 22.4095 15.523 22.4848 15.523C22.4985 15.5846 22.5122 15.6461 22.5264 15.7095C22.6023 15.9893 22.7055 16.2498 22.8173 16.5172C22.8904 16.5172 22.9636 16.5172 23.0389 16.5172C23.0389 16.663 23.0389 16.8089 23.0389 16.9591C23.1121 16.9591 23.1852 16.9591 23.2606 16.9591C23.2606 17.1778 23.2606 17.3965 23.2606 17.6219C23.3337 17.6219 23.4069 17.6219 23.4822 17.6219C23.4822 17.8771 23.4822 18.1322 23.4822 18.3951C23.5554 18.3951 23.6285 18.3951 23.7039 18.3951C23.7039 19.5981 23.7039 20.8011 23.7039 22.0405C23.6307 22.0405 23.5576 22.0405 23.4822 22.0405C23.4822 22.2592 23.4822 22.4779 23.4822 22.7033C23.4091 22.7033 23.336 22.7033 23.2606 22.7033C23.2606 22.7762 23.2606 22.8491 23.2606 22.9242C23.1874 22.9242 23.1143 22.9242 23.0389 22.9242C23.0389 22.9971 23.0389 23.07 23.0389 23.1451C22.9292 23.1816 22.8195 23.218 22.7065 23.2556C22.7065 23.3285 22.7065 23.4014 22.7065 23.4765C22.5602 23.4765 22.4139 23.4765 22.2632 23.4765C22.2632 23.5494 22.2632 23.6224 22.2632 23.6975C21.8243 23.6975 21.3854 23.6975 20.9333 23.6975C20.9333 23.6246 20.9333 23.5517 20.9333 23.4765C20.787 23.4765 20.6407 23.4765 20.49 23.4765C20.49 23.4036 20.49 23.3307 20.49 23.2556C20.4168 23.2556 20.3437 23.2556 20.2683 23.2556C20.2683 23.1462 20.2683 23.0369 20.2683 22.9242C20.1952 22.9242 20.122 22.9242 20.0467 22.9242C20.0467 20.5547 20.0467 18.1853 20.0467 15.744C19.9735 15.744 19.9004 15.744 19.825 15.744C19.825 15.6346 19.825 15.5253 19.825 15.4126C19.7519 15.4126 19.6787 15.4126 19.6034 15.4126C19.6034 15.3397 19.6034 15.2668 19.6034 15.1917C19.3474 15.1917 19.0914 15.1917 18.8276 15.1917C18.8276 15.2646 18.8276 15.3375 18.8276 15.4126C18.7179 15.4126 18.6082 15.4126 18.4951 15.4126C18.4951 15.5948 18.4951 15.7771 18.4951 15.9649C18.2391 15.9649 17.9831 15.9649 17.7194 15.9649C17.7194 15.892 17.7194 15.8191 17.7194 15.744C17.3122 15.6141 16.9248 15.6254 16.5003 15.6335C16.5003 15.5606 16.5003 15.4877 16.5003 15.4126C16.1447 15.4061 15.7892 15.4022 15.4336 15.3988C15.2834 15.396 15.2834 15.396 15.1301 15.3932C14.5781 15.3891 14.1372 15.4204 13.6188 15.6335C13.4715 15.6721 13.324 15.7098 13.1755 15.744C13.1755 15.8169 13.1755 15.8898 13.1755 15.9649C13.0293 15.9649 12.883 15.9649 12.7322 15.9649C12.7322 16.0378 12.7322 16.1107 12.7322 16.1858C12.6591 16.1858 12.586 16.1858 12.5106 16.1858C12.5106 16.2587 12.5106 16.3317 12.5106 16.4068C12.4374 16.4068 12.3643 16.4068 12.2889 16.4068C12.2889 16.4797 12.2889 16.5526 12.2889 16.6277C12.1792 16.6277 12.0695 16.6277 11.9565 16.6277C11.9565 16.7006 11.9565 16.7735 11.9565 16.8486C11.8833 16.8486 11.8102 16.8486 11.7348 16.8486C11.7348 16.9944 11.7348 17.1403 11.7348 17.2905C11.6617 17.2905 11.5885 17.2905 11.5132 17.2905C11.5132 17.3634 11.5132 17.4363 11.5132 17.5114C11.2937 17.5661 11.2937 17.5661 11.0699 17.6219C11.0699 17.7677 11.0699 17.9135 11.0699 18.0637C10.9967 18.0637 10.9236 18.0637 10.8482 18.0637C10.8482 18.2825 10.8482 18.5012 10.8482 18.7265C10.7751 18.7265 10.7019 18.7265 10.6266 18.7265C10.6266 18.9817 10.6266 19.2369 10.6266 19.4998C10.5534 19.4998 10.4803 19.4998 10.4049 19.4998C10.4049 19.9737 10.4049 20.4476 10.4049 20.9358C10.4781 20.9358 10.5512 20.9358 10.6266 20.9358C10.6266 21.191 10.6266 21.4462 10.6266 21.7091C10.6997 21.7091 10.7729 21.7091 10.8482 21.7091C10.8482 21.9278 10.8482 22.1465 10.8482 22.3719C10.9214 22.3719 10.9945 22.3719 11.0699 22.3719C11.0699 22.5177 11.0699 22.6635 11.0699 22.8137C11.143 22.8137 11.2162 22.8137 11.2915 22.8137C11.2915 22.8867 11.2915 22.9596 11.2915 23.0347C11.3647 23.0347 11.4378 23.0347 11.5132 23.0347C11.5132 23.1076 11.5132 23.1805 11.5132 23.2556C11.5863 23.2556 11.6595 23.2556 11.7348 23.2556C11.7348 23.365 11.7348 23.4743 11.7348 23.587C11.808 23.587 11.8811 23.587 11.9565 23.587C11.993 23.7328 12.0296 23.8786 12.0673 24.0289C12.2136 24.0289 12.3599 24.0289 12.5106 24.0289C12.5106 24.1018 12.5106 24.1747 12.5106 24.2498C12.5837 24.2498 12.6569 24.2498 12.7322 24.2498C12.7322 24.3227 12.7322 24.3956 12.7322 24.4707C12.8785 24.4707 13.0248 24.4707 13.1755 24.4707C13.1755 24.5436 13.1755 24.6165 13.1755 24.6917C13.3218 24.6917 13.4681 24.6917 13.6188 24.6917C13.6188 24.7646 13.6188 24.8375 13.6188 24.9126C13.8748 24.9126 14.1308 24.9126 14.3946 24.9126C14.3946 24.9855 14.3946 25.0584 14.3946 25.1335C15.0895 25.1335 15.7844 25.1335 16.5003 25.1335C16.5003 25.0606 16.5003 24.9877 16.5003 24.9126C16.7563 24.9126 17.0123 24.9126 17.2761 24.9126C17.2761 24.8397 17.2761 24.7668 17.2761 24.6917C17.4223 24.6917 17.5686 24.6917 17.7194 24.6917C17.7194 24.6187 17.7194 24.5458 17.7194 24.4707C17.7925 24.4707 17.8656 24.4707 17.941 24.4707C17.941 24.3978 17.941 24.3249 17.941 24.2498C18.0873 24.2498 18.2336 24.2498 18.3843 24.2498C18.3843 24.1769 18.3843 24.104 18.3843 24.0289C18.6037 24.0289 18.8232 24.0289 19.0493 24.0289C19.0493 24.1018 19.0493 24.1747 19.0493 24.2498C19.1224 24.2498 19.1955 24.2498 19.2709 24.2498C19.2709 24.3227 19.2709 24.3956 19.2709 24.4707C19.344 24.4707 19.4172 24.4707 19.4925 24.4707C19.4925 24.5436 19.4925 24.6165 19.4925 24.6917C19.5657 24.6917 19.6388 24.6917 19.7142 24.6917C19.7142 24.7646 19.7142 24.8375 19.7142 24.9126C19.8605 24.9126 20.0068 24.9126 20.1575 24.9126C20.1575 24.9855 20.1575 25.0584 20.1575 25.1335C20.6168 25.2618 21.0621 25.2602 21.5359 25.2578C21.6191 25.2582 21.7023 25.2586 21.788 25.2591C22.2198 25.2583 22.6173 25.2388 23.0389 25.1335C23.0389 25.0606 23.0389 24.9877 23.0389 24.9126C23.1487 24.9126 23.2584 24.9126 23.3714 24.9126C23.3714 24.8397 23.3714 24.7668 23.3714 24.6917C23.5177 24.6917 23.664 24.6917 23.8147 24.6917C23.8147 24.6187 23.8147 24.5458 23.8147 24.4707C23.8879 24.4707 23.961 24.4707 24.0364 24.4707C24.0364 24.3978 24.0364 24.3249 24.0364 24.2498C24.1095 24.2498 24.1827 24.2498 24.258 24.2498C24.258 24.1769 24.258 24.104 24.258 24.0289C24.3312 24.0289 24.4043 24.0289 24.4797 24.0289C24.4797 23.883 24.4797 23.7372 24.4797 23.587C24.5528 23.587 24.626 23.587 24.7013 23.587C24.7013 23.5141 24.7013 23.4412 24.7013 23.3661C24.7745 23.3661 24.8476 23.3661 24.923 23.3661C24.923 23.2567 24.923 23.1474 24.923 23.0347C24.9961 23.0347 25.0693 23.0347 25.1446 23.0347C25.2572 22.1325 25.2725 21.2392 25.2699 20.3317C25.2693 20.086 25.2699 19.8402 25.2706 19.5945C25.2705 19.4359 25.2704 19.2774 25.2702 19.1188C25.27 18.9063 25.27 18.9063 25.2698 18.6896C25.2555 18.2861 25.2094 17.9092 25.1446 17.5114C25.0715 17.5114 24.9983 17.5114 24.923 17.5114C24.923 17.2927 24.923 17.074 24.923 16.8486C24.8498 16.8486 24.7767 16.8486 24.7013 16.8486C24.7013 16.7028 24.7013 16.557 24.7013 16.4068C24.6282 16.4068 24.555 16.4068 24.4797 16.4068C24.4797 16.188 24.4797 15.9693 24.4797 15.744C24.4065 15.744 24.3334 15.744 24.258 15.744C24.258 15.6346 24.258 15.5253 24.258 15.4126C24.1849 15.4126 24.1117 15.4126 24.0364 15.4126C24.0364 15.3397 24.0364 15.2668 24.0364 15.1917C23.9632 15.1917 23.8901 15.1917 23.8147 15.1917C23.8147 15.0458 23.8147 14.9 23.8147 14.7498C23.7416 14.7498 23.6684 14.7498 23.5931 14.7498C23.5931 14.6769 23.5931 14.604 23.5931 14.5289C23.5199 14.5289 23.4468 14.5289 23.3714 14.5289C23.3714 14.383 23.3714 14.2372 23.3714 14.087C23.2983 14.087 23.2251 14.087 23.1498 14.087C23.1132 13.9776 23.0766 13.8683 23.0389 13.7556C22.9658 13.7556 22.8927 13.7556 22.8173 13.7556C22.8173 13.6827 22.8173 13.6098 22.8173 13.5347C22.7441 13.5347 22.671 13.5347 22.5956 13.5347C22.5956 13.4618 22.5956 13.3889 22.5956 13.3137C22.5225 13.3137 22.4494 13.3137 22.374 13.3137C22.374 13.2408 22.374 13.1679 22.374 13.0928C22.3008 13.0928 22.2277 13.0928 22.1523 13.0928C22.1523 13.0199 22.1523 12.947 22.1523 12.8719C22.0792 12.8719 22.0061 12.8719 21.9307 12.8719C21.9307 12.799 21.9307 12.7261 21.9307 12.651C21.8575 12.651 21.7844 12.651 21.709 12.651C21.709 12.578 21.709 12.5051 21.709 12.43C21.6359 12.43 21.5628 12.43 21.4874 12.43C21.4874 12.3571 21.4874 12.2842 21.4874 12.2091C21.3777 12.2091 21.268 12.2091 21.1549 12.2091C21.1549 12.1362 21.1549 12.0633 21.1549 11.9882C21.0818 11.9882 21.0086 11.9882 20.9333 11.9882C20.9333 11.9153 20.9333 11.8424 20.9333 11.7672C20.6407 11.7308 20.3481 11.6943 20.0467 11.6568C20.0467 11.5839 20.0467 11.511 20.0467 11.4358C19.9735 11.4358 19.9004 11.4358 19.825 11.4358C19.825 11.3629 19.825 11.29 19.825 11.2149C19.4239 11.0695 19.1495 10.994 18.7168 10.994C18.7168 10.9211 18.7168 10.8482 18.7168 10.773C18.5339 10.773 18.3511 10.773 18.1627 10.773C18.1627 10.7001 18.1627 10.6272 18.1627 10.5521C17.7969 10.5521 17.4312 10.5521 17.0544 10.5521C17.0544 10.4792 17.0544 10.4063 17.0544 10.3312C15.9938 10.3312 14.9332 10.3312 13.8405 10.3312Z" fill="#8091AF"/>
<path d="M9.29688 35.7384C10.65 35.7384 12.0032 35.7384 13.3974 35.7384C13.3974 35.9571 13.3974 36.1759 13.3974 36.4012C13.4705 36.4012 13.5437 36.4012 13.619 36.4012C13.619 36.5835 13.619 36.7657 13.619 36.9535C13.6922 36.9535 13.7653 36.9535 13.8407 36.9535C13.8407 37.1722 13.8407 37.391 13.8407 37.6163C13.9138 37.6163 13.987 37.6163 14.0623 37.6163C14.0623 37.9079 14.0623 38.1996 14.0623 38.5C14.1355 38.5 14.2086 38.5 14.284 38.5C14.3388 39.1015 14.3388 39.1015 14.3948 39.7152C14.468 39.7152 14.5411 39.7152 14.6165 39.7152C14.6165 39.9703 14.6165 40.2255 14.6165 40.4884C14.6896 40.4884 14.7628 40.4884 14.8381 40.4884C14.8381 40.7071 14.8381 40.9259 14.8381 41.1512C14.9113 41.1512 14.9844 41.1512 15.0598 41.1512C15.0598 41.3699 15.0598 41.5886 15.0598 41.814C15.1329 41.814 15.2061 41.814 15.2814 41.814C15.2814 42.0692 15.2814 42.3243 15.2814 42.5872C15.3546 42.5872 15.4277 42.5872 15.5031 42.5872C15.5579 42.4779 15.5579 42.4779 15.6139 42.3663C15.687 42.3663 15.7602 42.3663 15.8355 42.3663C15.8355 42.184 15.8355 42.0018 15.8355 41.814C15.9087 41.814 15.9818 41.814 16.0572 41.814C16.0572 41.5224 16.0572 41.2307 16.0572 40.9303C16.1303 40.9303 16.2035 40.9303 16.2788 40.9303C16.2788 40.748 16.2788 40.5657 16.2788 40.3779C16.352 40.3779 16.4251 40.3779 16.5005 40.3779C16.5086 40.234 16.5086 40.234 16.5169 40.0871C16.5252 39.9598 16.5335 39.8325 16.542 39.7013C16.5536 39.513 16.5536 39.513 16.5654 39.3208C16.6107 38.947 16.701 38.6308 16.833 38.2791C16.9061 38.2791 16.9792 38.2791 17.0546 38.2791C17.0546 38.0604 17.0546 37.8417 17.0546 37.6163C17.1278 37.6163 17.2009 37.6163 17.2763 37.6163C17.2763 37.3247 17.2763 37.0331 17.2763 36.7326C17.3494 36.7326 17.4225 36.7326 17.4979 36.7326C17.4979 36.5503 17.4979 36.3681 17.4979 36.1803C17.5711 36.1803 17.6442 36.1803 17.7196 36.1803C17.7196 36.0345 17.7196 35.8886 17.7196 35.7384C18.2363 35.733 18.7531 35.7289 19.2699 35.7263C19.4458 35.7252 19.6217 35.7237 19.7975 35.7217C20.0501 35.7191 20.3026 35.7178 20.5551 35.7168C20.634 35.7157 20.7128 35.7146 20.7941 35.7134C20.9885 35.7133 21.1828 35.7249 21.3768 35.7384C21.5984 35.9593 21.5984 35.9593 21.6123 36.2493C21.6077 36.3359 21.6031 36.4225 21.5984 36.5117C21.5253 36.5117 21.4521 36.5117 21.3768 36.5117C21.3768 36.6939 21.3768 36.8762 21.3768 37.064C21.3036 37.064 21.2305 37.064 21.1551 37.064C21.1551 37.2098 21.1551 37.3556 21.1551 37.5059C21.082 37.5059 21.0088 37.5059 20.9335 37.5059C20.9335 37.7246 20.9335 37.9433 20.9335 38.1686C20.8603 38.1686 20.7872 38.1686 20.7118 38.1686C20.6753 38.5696 20.6387 38.9706 20.601 39.3838C20.5279 39.3838 20.4547 39.3838 20.3793 39.3838C20.3793 39.6025 20.3793 39.8212 20.3793 40.0465C20.3062 40.0465 20.2331 40.0465 20.1577 40.0465C20.1577 40.1559 20.1577 40.2653 20.1577 40.3779C20.0846 40.3779 20.0114 40.3779 19.9361 40.3779C19.9361 40.5967 19.9361 40.8154 19.9361 41.0407C19.8629 41.0407 19.7898 41.0407 19.7144 41.0407C19.7144 41.2595 19.7144 41.4782 19.7144 41.7035C19.6413 41.7035 19.5681 41.7035 19.4928 41.7035C19.4928 41.8858 19.4928 42.0681 19.4928 42.2559C19.4196 42.2559 19.3465 42.2559 19.2711 42.2559C19.2711 42.4746 19.2711 42.6933 19.2711 42.9186C19.198 42.9186 19.1248 42.9186 19.0495 42.9186C19.0495 43.1374 19.0495 43.3561 19.0495 43.5814C18.9763 43.5814 18.9032 43.5814 18.8278 43.5814C18.8278 43.7637 18.8278 43.946 18.8278 44.1338C18.7547 44.1338 18.6815 44.1338 18.6062 44.1338C18.5696 44.4983 18.533 44.8628 18.4953 45.2384C18.4222 45.2384 18.349 45.2384 18.2737 45.2384C18.2737 45.4571 18.2737 45.6759 18.2737 45.9012C18.2005 45.9012 18.1274 45.9012 18.052 45.9012C18.052 46.0835 18.052 46.2657 18.052 46.4535C17.9789 46.4535 17.9057 46.4535 17.8304 46.4535C17.8304 46.5993 17.8304 46.7452 17.8304 46.8954C17.7572 46.8954 17.6841 46.8954 17.6087 46.8954C17.6087 46.9683 17.6087 47.0412 17.6087 47.1163C16.1824 47.1163 14.7561 47.1163 13.2866 47.1163C13.2866 47.0434 13.2866 46.9705 13.2866 46.8954C13.2134 46.8954 13.1403 46.8954 13.0649 46.8954C13.0649 46.6767 13.0649 46.4579 13.0649 46.2326C12.9918 46.2326 12.9186 46.2326 12.8433 46.2326C12.6374 45.8863 12.5993 45.6389 12.6216 45.2384C12.5485 45.2384 12.4753 45.2384 12.4 45.2384C12.3634 44.8374 12.3268 44.4364 12.2891 44.0233C12.216 44.0233 12.1429 44.0233 12.0675 44.0233C12.0675 43.841 12.0675 43.6588 12.0675 43.471C11.9943 43.471 11.9212 43.471 11.8458 43.471C11.8458 43.2887 11.8458 43.1064 11.8458 42.9186C11.7727 42.9186 11.6996 42.9186 11.6242 42.9186C11.6242 42.6999 11.6242 42.4812 11.6242 42.2559C11.5511 42.2559 11.4779 42.2559 11.4025 42.2559C11.4025 42.0736 11.4025 41.8913 11.4025 41.7035C11.3294 41.7035 11.2563 41.7035 11.1809 41.7035C11.1809 41.4848 11.1809 41.2661 11.1809 41.0407C11.1078 41.0407 11.0346 41.0407 10.9592 41.0407C10.9592 40.822 10.9592 40.6033 10.9592 40.3779C10.8861 40.3779 10.813 40.3779 10.7376 40.3779C10.5317 40.0316 10.4936 39.7842 10.5159 39.3838C10.4428 39.3838 10.3697 39.3838 10.2943 39.3838C10.2577 38.9828 10.2212 38.5818 10.1835 38.1686C10.1103 38.1686 10.0372 38.1686 9.96182 38.1686C9.96182 37.9499 9.96182 37.7312 9.96182 37.5059C9.88868 37.5059 9.81553 37.5059 9.74017 37.5059C9.74017 37.2871 9.74017 37.0684 9.74017 36.8431C9.66703 36.8431 9.59389 36.8431 9.51852 36.8431C9.32598 36.4232 9.29688 36.2248 9.29688 35.7384Z" fill="#8091AF"/>
<path d="M14.5046 16.9595C15.1263 16.9595 15.748 16.9595 16.3886 16.9595C16.3886 17.0324 16.3886 17.1053 16.3886 17.1804C16.5714 17.1804 16.7543 17.1804 16.9427 17.1804C16.9427 17.2533 16.9427 17.3262 16.9427 17.4013C17.0158 17.4013 17.089 17.4013 17.1643 17.4013C17.1643 17.4742 17.1643 17.5471 17.1643 17.6223C17.3838 17.6587 17.6032 17.6952 17.8293 17.7327C17.8293 17.8056 17.8293 17.8785 17.8293 17.9537C17.9024 17.9537 17.9756 17.9537 18.0509 17.9537C18.0509 18.0995 18.0509 18.2453 18.0509 18.3955C18.1241 18.3955 18.1972 18.3955 18.2726 18.3955C18.2726 19.5985 18.2726 20.8014 18.2726 22.0409C18.1994 22.0409 18.1263 22.0409 18.0509 22.0409C18.0509 22.1138 18.0509 22.1867 18.0509 22.2618C17.9778 22.2618 17.9047 22.2618 17.8293 22.2618C17.8293 22.4076 17.8293 22.5534 17.8293 22.7037C17.683 22.7037 17.5367 22.7037 17.386 22.7037C17.386 22.7766 17.386 22.8495 17.386 22.9246C17.3128 22.9246 17.2397 22.9246 17.1643 22.9246C17.1643 22.9975 17.1643 23.0704 17.1643 23.1455C16.6706 23.2002 16.6706 23.2002 16.1669 23.256C16.1669 23.3289 16.1669 23.4018 16.1669 23.4769C15.6549 23.4769 15.1429 23.4769 14.6154 23.4769C14.6154 23.404 14.6154 23.3311 14.6154 23.256C14.5102 23.2583 14.4051 23.2605 14.2968 23.2629C13.9504 23.256 13.9504 23.256 13.7288 23.1455C13.7288 23.0726 13.7288 22.9997 13.7288 22.9246C13.5825 22.9246 13.4362 22.9246 13.2855 22.9246C13.2855 22.8517 13.2855 22.7788 13.2855 22.7037C13.2123 22.7037 13.1392 22.7037 13.0638 22.7037C13.0638 22.6308 13.0638 22.5578 13.0638 22.4827C12.9907 22.4827 12.9175 22.4827 12.8422 22.4827C12.8422 22.4098 12.8422 22.3369 12.8422 22.2618C12.769 22.2618 12.6959 22.2618 12.6205 22.2618C12.6205 22.116 12.6205 21.9702 12.6205 21.8199C12.5474 21.8199 12.4742 21.8199 12.3989 21.8199C12.3623 21.4919 12.3257 21.1638 12.2881 20.8258C12.2149 20.8258 12.1418 20.8258 12.0664 20.8258C12.0664 20.4248 12.0664 20.0238 12.0664 19.6106C12.1396 19.6106 12.2127 19.6106 12.2881 19.6106C12.2858 19.4876 12.2835 19.3646 12.2811 19.2378C12.2881 18.8374 12.2881 18.8374 12.3989 18.6164C12.472 18.6164 12.5452 18.6164 12.6205 18.6164C12.6205 18.4706 12.6205 18.3248 12.6205 18.1746C12.6937 18.1746 12.7668 18.1746 12.8422 18.1746C12.8422 18.1017 12.8422 18.0288 12.8422 17.9537C12.9153 17.9537 12.9885 17.9537 13.0638 17.9537C13.0638 17.8808 13.0638 17.8078 13.0638 17.7327C13.2101 17.6963 13.3564 17.6598 13.5071 17.6223C13.5071 17.5494 13.5071 17.4764 13.5071 17.4013C13.6534 17.4013 13.7997 17.4013 13.9504 17.4013C13.9504 17.3284 13.9504 17.2555 13.9504 17.1804C14.1333 17.1804 14.3161 17.1804 14.5046 17.1804C14.5046 17.1075 14.5046 17.0346 14.5046 16.9595Z" fill="#8091AF"/>
<path d="M47.864 40.1567C48.5955 40.1567 49.3269 40.1567 50.0805 40.1567C50.0805 40.3755 50.0805 40.5942 50.0805 40.8195C50.0074 40.8195 49.9343 40.8195 49.8589 40.8195C49.8589 40.9653 49.8589 41.1112 49.8589 41.2614C49.7857 41.2614 49.7126 41.2614 49.6372 41.2614C49.6372 41.4072 49.6372 41.553 49.6372 41.7032C49.5641 41.7032 49.491 41.7032 49.4156 41.7032C49.4156 41.8491 49.4156 41.9949 49.4156 42.1451C49.3424 42.1451 49.2693 42.1451 49.1939 42.1451C49.1939 42.2545 49.1939 42.3638 49.1939 42.4765C49.1208 42.4765 49.0477 42.4765 48.9723 42.4765C48.9723 42.5494 48.9723 42.6223 48.9723 42.6974C48.8992 42.6974 48.826 42.6974 48.7506 42.6974C48.7141 42.9162 48.6775 43.1349 48.6398 43.3602C48.5667 43.3602 48.4935 43.3602 48.4182 43.3602C48.4182 43.4331 48.4182 43.506 48.4182 43.5812C48.345 43.5812 48.2719 43.5812 48.1965 43.5812C48.1965 43.6541 48.1965 43.727 48.1965 43.8021C48.1234 43.8021 48.0502 43.8021 47.9749 43.8021C47.9749 43.9114 47.9749 44.0208 47.9749 44.1335C48.4137 44.1335 48.8526 44.1335 49.3048 44.1335C49.3048 43.6231 49.3048 43.1128 49.3048 42.587C49.3779 42.587 49.4511 42.587 49.5264 42.587C49.5264 42.5141 49.5264 42.4412 49.5264 42.366C49.5996 42.366 49.6727 42.366 49.7481 42.366C49.7481 42.2567 49.7481 42.1473 49.7481 42.0346C49.8212 42.0346 49.8944 42.0346 49.9697 42.0346C49.9697 41.8888 49.9697 41.743 49.9697 41.5928C50.0429 41.5928 50.116 41.5928 50.1914 41.5928C50.1914 41.447 50.1914 41.3012 50.1914 41.1509C50.2645 41.1509 50.3377 41.1509 50.413 41.1509C50.413 41.0051 50.413 40.8593 50.413 40.7091C50.7787 40.7091 51.1445 40.7091 51.5213 40.7091C51.5213 41.8391 51.5213 42.9692 51.5213 44.1335C51.8138 44.1335 52.1064 44.1335 52.4079 44.1335C52.4079 44.7167 52.4079 45.3 52.4079 45.9009C52.1153 45.9009 51.8227 45.9009 51.5213 45.9009C51.5213 46.3019 51.5213 46.7029 51.5213 47.116C50.7898 47.116 50.0584 47.116 49.3048 47.116C49.3048 46.7151 49.3048 46.3141 49.3048 45.9009C48.2807 45.9009 47.2567 45.9009 46.2017 45.9009C46.1651 45.6458 46.1285 45.3906 46.0909 45.1277C46.0543 45.0912 46.0177 45.0548 45.98 45.0172C45.9755 44.7595 45.9753 44.5017 45.98 44.2439C46.0532 44.2439 46.1263 44.2439 46.2017 44.2439C46.2017 44.1346 46.2017 44.0252 46.2017 43.9126C46.2748 43.9126 46.348 43.9126 46.4233 43.9126C46.4233 43.7667 46.4233 43.6209 46.4233 43.4707C46.4965 43.4707 46.5696 43.4707 46.645 43.4707C46.6587 43.3932 46.6724 43.3158 46.6865 43.236C46.7601 42.8989 46.8635 42.5811 46.9774 42.2556C47.0506 42.2556 47.1237 42.2556 47.1991 42.2556C47.1991 42.1098 47.1991 41.9639 47.1991 41.8137C47.2722 41.8137 47.3454 41.8137 47.4207 41.8137C47.4207 41.6679 47.4207 41.5221 47.4207 41.3719C47.4939 41.3719 47.567 41.3719 47.6424 41.3719C47.6424 41.1531 47.6424 40.9344 47.6424 40.7091C47.7155 40.7091 47.7887 40.7091 47.864 40.7091C47.864 40.5268 47.864 40.3445 47.864 40.1567Z" fill="#8091AF"/>
<path d="M67.922 41.5933C68.2877 41.5933 68.6535 41.5933 69.0303 41.5933C69.0303 41.6662 69.0303 41.7391 69.0303 41.8142C69.3228 41.8142 69.6154 41.8142 69.9169 41.8142C69.9169 41.8871 69.9169 41.96 69.9169 42.0351C70.0266 42.0351 70.1363 42.0351 70.2493 42.0351C70.2493 42.108 70.2493 42.1809 70.2493 42.2561C70.4688 42.2925 70.6882 42.329 70.9143 42.3665C70.9143 42.4394 70.9143 42.5123 70.9143 42.5874C70.9874 42.5874 71.0606 42.5874 71.1359 42.5874C71.1359 42.7333 71.1359 42.8791 71.1359 43.0293C71.2091 43.0293 71.2822 43.0293 71.3576 43.0293C71.3576 43.3938 71.3576 43.7584 71.3576 44.134C71.4307 44.134 71.5039 44.134 71.5792 44.134C71.5792 44.3527 71.5792 44.5714 71.5792 44.7968C71.5061 44.7968 71.4329 44.7968 71.3576 44.7968C71.3576 44.8697 71.3576 44.9426 71.3576 45.0177C69.5473 45.0724 69.5473 45.0724 67.7004 45.1281C67.7369 45.274 67.7735 45.4198 67.8112 45.57C67.8843 45.57 67.9575 45.57 68.0328 45.57C68.0328 45.6429 68.0328 45.7158 68.0328 45.7909C68.3986 45.7909 68.7643 45.7909 69.1411 45.7909C69.1411 45.718 69.1411 45.6451 69.1411 45.57C69.2142 45.57 69.2874 45.57 69.3627 45.57C69.3627 45.4242 69.3627 45.2784 69.3627 45.1281C70.0942 45.1281 70.8256 45.1281 71.5792 45.1281C71.5792 45.3104 71.5792 45.4927 71.5792 45.6805C71.5061 45.6805 71.4329 45.6805 71.3576 45.6805C71.3576 45.7898 71.3576 45.8992 71.3576 46.0119C71.2844 46.0119 71.2113 46.0119 71.1359 46.0119C71.1359 46.1577 71.1359 46.3035 71.1359 46.4537C71.0628 46.4537 70.9896 46.4537 70.9143 46.4537C70.9143 46.5266 70.9143 46.5995 70.9143 46.6747C70.8411 46.6747 70.768 46.6747 70.6926 46.6747C70.6926 46.7476 70.6926 46.8205 70.6926 46.8956C70.5463 46.8956 70.4001 46.8956 70.2493 46.8956C70.2493 46.9685 70.2493 47.0414 70.2493 47.1165C69.9933 47.1165 69.7373 47.1165 69.4736 47.1165C69.4736 47.1894 69.4736 47.2623 69.4736 47.3374C68.8884 47.3374 68.3033 47.3374 67.7004 47.3374C67.7004 47.2645 67.7004 47.1916 67.7004 47.1165C67.4078 47.1165 67.1152 47.1165 66.8138 47.1165C66.8138 47.0436 66.8138 46.9707 66.8138 46.8956C66.6675 46.8956 66.5212 46.8956 66.3705 46.8956C66.3705 46.8227 66.3705 46.7498 66.3705 46.6747C66.2973 46.6747 66.2242 46.6747 66.1488 46.6747C66.1122 46.5288 66.0757 46.383 66.038 46.2328C65.9649 46.2328 65.8917 46.2328 65.8163 46.2328C65.8163 46.1234 65.8163 46.0141 65.8163 45.9014C65.7432 45.9014 65.6701 45.9014 65.5947 45.9014C65.5947 45.7556 65.5947 45.6098 65.5947 45.4595C65.5216 45.4595 65.4484 45.4595 65.373 45.4595C65.373 44.8763 65.373 44.293 65.373 43.6921C65.4462 43.6921 65.5193 43.6921 65.5947 43.6921C65.5947 43.4734 65.5947 43.2547 65.5947 43.0293C65.6678 43.0293 65.741 43.0293 65.8163 43.0293C65.8163 42.8835 65.8163 42.7377 65.8163 42.5874C65.8895 42.5874 65.9626 42.5874 66.038 42.5874C66.0746 42.4781 66.1111 42.3687 66.1488 42.2561C66.2585 42.2561 66.3683 42.2561 66.4813 42.2561C66.4813 42.1831 66.4813 42.1102 66.4813 42.0351C66.6642 42.0351 66.847 42.0351 67.0354 42.0351C67.0354 41.9622 67.0354 41.8893 67.0354 41.8142C67.328 41.8142 67.6206 41.8142 67.922 41.8142C67.922 41.7413 67.922 41.6684 67.922 41.5933ZM68.0328 43.1398C68.0328 43.2127 68.0328 43.2856 68.0328 43.3607C67.9597 43.3607 67.8866 43.3607 67.8112 43.3607C67.8112 43.4701 67.8112 43.5794 67.8112 43.6921C68.2501 43.6921 68.6889 43.6921 69.1411 43.6921C69.1411 43.5827 69.1411 43.4734 69.1411 43.3607C69.0679 43.3607 68.9948 43.3607 68.9194 43.3607C68.9194 43.2878 68.9194 43.2149 68.9194 43.1398C68.6269 43.1398 68.3343 43.1398 68.0328 43.1398Z" fill="#8091AF"/>
<path d="M42.2111 41.5933C42.5768 41.5933 42.9425 41.5933 43.3193 41.5933C43.3193 41.6662 43.3193 41.7391 43.3193 41.8142C43.6119 41.8142 43.9045 41.8142 44.2059 41.8142C44.2059 41.8871 44.2059 41.96 44.2059 42.0351C44.3156 42.0351 44.4254 42.0351 44.5384 42.0351C44.5384 42.108 44.5384 42.1809 44.5384 42.2561C44.6847 42.2925 44.831 42.329 44.9817 42.3665C44.9817 42.4394 44.9817 42.5123 44.9817 42.5874C45.0548 42.5874 45.128 42.5874 45.2033 42.5874C45.2033 42.6604 45.2033 42.7333 45.2033 42.8084C45.2765 42.8084 45.3496 42.8084 45.425 42.8084C45.425 42.9542 45.425 43.1 45.425 43.2502C45.4981 43.2502 45.5713 43.2502 45.6466 43.2502C45.6466 43.8335 45.6466 44.4168 45.6466 45.0177C44.4032 45.0177 43.1597 45.0177 41.8786 45.0177C41.8786 45.127 41.8786 45.2364 41.8786 45.3491C41.9517 45.3491 42.0249 45.3491 42.1003 45.3491C42.1003 45.4949 42.1003 45.6407 42.1003 45.7909C42.466 45.7909 42.8317 45.7909 43.2085 45.7909C43.2085 45.718 43.2085 45.6451 43.2085 45.57C43.2816 45.57 43.3548 45.57 43.4302 45.57C43.4302 45.4971 43.4302 45.4242 43.4302 45.3491C43.5033 45.3491 43.5764 45.3491 43.6518 45.3491C43.6518 45.2762 43.6518 45.2033 43.6518 45.1281C44.3101 45.1281 44.9684 45.1281 45.6466 45.1281C45.6466 45.4198 45.6466 45.7114 45.6466 46.0119C45.5735 46.0119 45.5004 46.0119 45.425 46.0119C45.425 46.0848 45.425 46.1577 45.425 46.2328C45.3519 46.2328 45.2787 46.2328 45.2033 46.2328C45.1668 46.3786 45.1302 46.5244 45.0925 46.6747C44.9828 46.6747 44.8731 46.6747 44.76 46.6747C44.76 46.7476 44.76 46.8205 44.76 46.8956C44.6138 46.8956 44.4675 46.8956 44.3167 46.8956C44.3167 46.9685 44.3167 47.0414 44.3167 47.1165C44.1339 47.1165 43.951 47.1165 43.7626 47.1165C43.7626 47.1894 43.7626 47.2623 43.7626 47.3374C43.1775 47.3374 42.5923 47.3374 41.9894 47.3374C41.9894 47.2645 41.9894 47.1916 41.9894 47.1165C41.6969 47.1165 41.4043 47.1165 41.1028 47.1165C41.1028 47.0436 41.1028 46.9707 41.1028 46.8956C40.9565 46.8956 40.8103 46.8956 40.6595 46.8956C40.6595 46.8227 40.6595 46.7498 40.6595 46.6747C40.5864 46.6747 40.5132 46.6747 40.4379 46.6747C40.4379 46.6017 40.4379 46.5288 40.4379 46.4537C40.3647 46.4537 40.2916 46.4537 40.2162 46.4537C40.1797 46.3079 40.1431 46.1621 40.1054 46.0119C40.0323 46.0119 39.9591 46.0119 39.8838 46.0119C39.8838 45.8296 39.8838 45.6473 39.8838 45.4595C39.8106 45.4595 39.7375 45.4595 39.6621 45.4595C39.6621 44.8034 39.6621 44.1472 39.6621 43.4712C39.7353 43.4712 39.8084 43.4712 39.8838 43.4712C39.8838 43.3254 39.8838 43.1795 39.8838 43.0293C39.9569 43.0293 40.03 43.0293 40.1054 43.0293C40.1146 42.9427 40.1237 42.8562 40.1331 42.767C40.2162 42.477 40.2162 42.477 40.4448 42.332C40.5511 42.2944 40.5511 42.2944 40.6595 42.2561C40.6595 42.1831 40.6595 42.1102 40.6595 42.0351C40.8058 42.0351 40.9521 42.0351 41.1028 42.0351C41.1028 41.9622 41.1028 41.8893 41.1028 41.8142C41.4686 41.8142 41.8343 41.8142 42.2111 41.8142C42.2111 41.7413 42.2111 41.6684 42.2111 41.5933ZM42.2111 43.1398C42.1745 43.2856 42.1379 43.4314 42.1003 43.5816C41.9905 43.6363 41.9905 43.6363 41.8786 43.6921C42.1346 43.765 42.3906 43.8379 42.6544 43.913C42.6544 43.8401 42.6544 43.7672 42.6544 43.6921C42.9104 43.7286 43.1664 43.765 43.4302 43.8026C43.4302 43.6568 43.4302 43.5109 43.4302 43.3607C43.357 43.3607 43.2839 43.3607 43.2085 43.3607C43.2085 43.2878 43.2085 43.2149 43.2085 43.1398C42.8794 43.1398 42.5502 43.1398 42.2111 43.1398Z" fill="#8091AF"/>
<path d="M22.5959 41.5933C22.8153 41.5933 23.0348 41.5933 23.2608 41.5933C23.2608 41.6662 23.2608 41.7391 23.2608 41.8142C23.6266 41.8142 23.9923 41.8142 24.3691 41.8142C24.3691 41.8871 24.3691 41.96 24.3691 42.0351C24.5154 42.0351 24.6617 42.0351 24.8124 42.0351C24.8124 42.108 24.8124 42.1809 24.8124 42.2561C25.0867 42.3107 25.0867 42.3107 25.3665 42.3665C25.3665 42.5123 25.3665 42.6581 25.3665 42.8084C25.4397 42.8084 25.5128 42.8084 25.5882 42.8084C25.5882 42.9542 25.5882 43.1 25.5882 43.2502C25.6613 43.2502 25.7345 43.2502 25.8098 43.2502C25.8098 43.5783 25.8098 43.9064 25.8098 44.2444C25.883 44.2444 25.9561 44.2444 26.0315 44.2444C26.0315 44.4267 26.0315 44.609 26.0315 44.7968C25.9583 44.7968 25.8852 44.7968 25.8098 44.7968C25.8407 44.9129 25.8407 44.9129 25.8722 45.0315C25.9264 45.3865 25.8832 45.6623 25.8098 46.0119C25.7367 46.0119 25.6635 46.0119 25.5882 46.0119C25.5882 46.1577 25.5882 46.3035 25.5882 46.4537C25.515 46.4537 25.4419 46.4537 25.3665 46.4537C25.3665 46.5266 25.3665 46.5995 25.3665 46.6747C25.2568 46.6747 25.1471 46.6747 25.034 46.6747C25.034 46.7476 25.034 46.8205 25.034 46.8956C24.6302 47.164 24.401 47.1344 23.9258 47.1165C23.9258 47.1894 23.9258 47.2623 23.9258 47.3374C23.3406 47.3374 22.7555 47.3374 22.1526 47.3374C22.1526 47.2645 22.1526 47.1916 22.1526 47.1165C21.9332 47.1165 21.7137 47.1165 21.4876 47.1165C21.4876 47.0436 21.4876 46.9707 21.4876 46.8956C21.3414 46.8956 21.1951 46.8956 21.0443 46.8956C21.0443 46.8227 21.0443 46.7498 21.0443 46.6747C20.9346 46.6747 20.8249 46.6747 20.7119 46.6747C20.7119 46.6017 20.7119 46.5288 20.7119 46.4537C20.6387 46.4537 20.5656 46.4537 20.4902 46.4537C20.4902 46.3808 20.4902 46.3079 20.4902 46.2328C20.4171 46.2328 20.3439 46.2328 20.2686 46.2328C20.2686 46.1234 20.2686 46.0141 20.2686 45.9014C20.1954 45.9014 20.1223 45.9014 20.0469 45.9014C20.0469 45.6827 20.0469 45.464 20.0469 45.2386C19.9738 45.2386 19.9006 45.2386 19.8253 45.2386C19.8223 45.02 19.8201 44.8014 19.8183 44.5827C19.8171 44.461 19.8158 44.3392 19.8145 44.2138C19.8253 43.913 19.8253 43.913 19.9361 43.8026C19.9768 43.5454 20.0139 43.2876 20.0469 43.0293C20.1201 43.0293 20.1932 43.0293 20.2686 43.0293C20.2686 42.9199 20.2686 42.8106 20.2686 42.6979C20.3417 42.6979 20.4149 42.6979 20.4902 42.6979C20.4902 42.5886 20.4902 42.4792 20.4902 42.3665C20.6731 42.3301 20.8559 42.2936 21.0443 42.2561C21.0443 42.1831 21.0443 42.1102 21.0443 42.0351C21.1906 42.0351 21.3369 42.0351 21.4876 42.0351C21.4876 41.9622 21.4876 41.8893 21.4876 41.8142C21.8534 41.8142 22.2191 41.8142 22.5959 41.8142C22.5959 41.7413 22.5959 41.6684 22.5959 41.5933ZM22.4851 43.1398C22.4851 43.2127 22.4851 43.2856 22.4851 43.3607C22.4119 43.3607 22.3388 43.3607 22.2634 43.3607C22.2634 43.4336 22.2634 43.5065 22.2634 43.5816C22.1537 43.6363 22.1537 43.6363 22.0418 43.6921C22.2612 43.6921 22.4806 43.6921 22.7067 43.6921C22.7067 43.765 22.7067 43.8379 22.7067 43.913C22.7707 43.8971 22.8347 43.8811 22.9007 43.8647C23.1315 43.8072 23.3624 43.7496 23.5933 43.6921C23.5933 43.5827 23.5933 43.4734 23.5933 43.3607C23.5202 43.3607 23.447 43.3607 23.3717 43.3607C23.3717 43.2878 23.3717 43.2149 23.3717 43.1398C23.0791 43.1398 22.7865 43.1398 22.4851 43.1398ZM22.5959 44.7968C22.5959 44.8697 22.5959 44.9426 22.5959 45.0177C22.413 45.0177 22.2302 45.0177 22.0418 45.0177C22.0418 45.127 22.0418 45.2364 22.0418 45.3491C22.1149 45.3491 22.1881 45.3491 22.2634 45.3491C22.2634 45.422 22.2634 45.4949 22.2634 45.57C22.3366 45.57 22.4097 45.57 22.4851 45.57C22.4851 45.6429 22.4851 45.7158 22.4851 45.7909C22.8508 45.7909 23.2165 45.7909 23.5933 45.7909C23.5933 45.718 23.5933 45.6451 23.5933 45.57C23.6665 45.57 23.7396 45.57 23.815 45.57C23.815 45.4242 23.815 45.2784 23.815 45.1281C24.1075 45.1281 24.4001 45.1281 24.7016 45.1281C24.5553 45.0917 24.409 45.0552 24.2583 45.0177C24.2583 44.9448 24.2583 44.8719 24.2583 44.7968C24.1851 44.7968 24.112 44.7968 24.0366 44.7968C24.0366 44.8697 24.0366 44.9426 24.0366 45.0177C23.5429 44.9083 23.5429 44.9083 23.0392 44.7968C23.0392 44.8697 23.0392 44.9426 23.0392 45.0177C22.966 45.0177 22.8929 45.0177 22.8175 45.0177C22.8175 44.9448 22.8175 44.8719 22.8175 44.7968C22.7444 44.7968 22.6713 44.7968 22.5959 44.7968Z" fill="#8091AF"/>
<path d="M33.3457 41.814C34.0406 41.814 34.7354 41.814 35.4514 41.814C35.6133 42.1367 35.5745 42.4214 35.573 42.7814C35.5729 42.8546 35.5727 42.9279 35.5725 43.0033C35.5719 43.2375 35.5705 43.4716 35.5691 43.7057C35.5686 43.8643 35.5681 44.023 35.5676 44.1816C35.5664 44.5707 35.5645 44.9598 35.5622 45.3488C35.6353 45.3488 35.7085 45.3488 35.7838 45.3488C35.7838 45.4218 35.7838 45.4947 35.7838 45.5698C36.0033 45.5698 36.2227 45.5698 36.4488 45.5698C36.4488 45.4969 36.4488 45.424 36.4488 45.3488C36.5219 45.3488 36.5951 45.3488 36.6704 45.3488C36.6704 44.1823 36.6704 43.0158 36.6704 41.814C37.4019 41.814 38.1333 41.814 38.8869 41.814C38.8869 43.5637 38.8869 45.3135 38.8869 47.1163C38.3018 47.1163 37.7166 47.1163 37.1137 47.1163C37.1137 47.0434 37.1137 46.9705 37.1137 46.8954C36.8577 46.8954 36.6017 46.8954 36.338 46.8954C36.338 46.9683 36.338 47.0412 36.338 47.1163C36.1551 47.1163 35.9722 47.1163 35.7838 47.1163C35.7838 47.1892 35.7838 47.2621 35.7838 47.3372C35.3816 47.3372 34.9793 47.3372 34.5648 47.3372C34.5648 47.2643 34.5648 47.1914 34.5648 47.1163C34.3453 47.1163 34.1259 47.1163 33.8998 47.1163C33.8633 46.9705 33.8267 46.8247 33.789 46.6744C33.7159 46.6744 33.6427 46.6744 33.5674 46.6744C33.5674 46.5286 33.5674 46.3828 33.5674 46.2326C33.4942 46.2326 33.4211 46.2326 33.3457 46.2326C33.3457 44.7744 33.3457 43.3163 33.3457 41.814Z" fill="#8091AF"/>
<path d="M52.9609 41.814C53.6558 41.814 54.3507 41.814 55.0666 41.814C55.0666 42.8711 55.0666 43.9283 55.0666 45.0175C55.1398 45.0175 55.2129 45.0175 55.2883 45.0175C55.2883 45.1997 55.2883 45.382 55.2883 45.5698C55.5443 45.5698 55.8003 45.5698 56.064 45.5698C56.064 45.4969 56.064 45.424 56.064 45.3488C56.1372 45.3488 56.2103 45.3488 56.2857 45.3488C56.2857 45.2759 56.2857 45.203 56.2857 45.1279C56.3588 45.1279 56.432 45.1279 56.5073 45.1279C56.5073 44.0343 56.5073 42.9407 56.5073 41.814C57.2388 41.814 57.9702 41.814 58.7238 41.814C58.7238 43.5637 58.7238 45.3135 58.7238 47.1163C58.0655 47.1163 57.4072 47.1163 56.729 47.1163C56.729 46.9705 56.729 46.8247 56.729 46.6744C56.6193 46.6744 56.5095 46.6744 56.3965 46.6744C56.3965 46.7473 56.3965 46.8202 56.3965 46.8954C56.3234 46.8954 56.2502 46.8954 56.1749 46.8954C56.1749 46.9683 56.1749 47.0412 56.1749 47.1163C55.9554 47.1163 55.736 47.1163 55.5099 47.1163C55.5099 47.1892 55.5099 47.2621 55.5099 47.3372C55.1442 47.3372 54.7785 47.3372 54.4017 47.3372C54.4017 47.2643 54.4017 47.1914 54.4017 47.1163C54.1822 47.1163 53.9628 47.1163 53.7367 47.1163C53.7367 47.0434 53.7367 46.9705 53.7367 46.8954C53.6636 46.8954 53.5904 46.8954 53.5151 46.8954C53.5151 46.8225 53.5151 46.7495 53.5151 46.6744C53.4419 46.6744 53.3688 46.6744 53.2934 46.6744C53.1296 46.3478 53.1759 46.0401 53.1826 45.6802C53.1094 45.6802 53.0363 45.6802 52.9609 45.6802C52.9609 44.4044 52.9609 43.1285 52.9609 41.814Z" fill="#8091AF"/>
<path d="M29.9107 41.5933C30.2398 41.5933 30.569 41.5933 30.9081 41.5933C30.9081 41.6662 30.9081 41.7391 30.9081 41.8142C31.091 41.8142 31.2738 41.8142 31.4622 41.8142C31.4622 41.8871 31.4622 41.96 31.4622 42.0351C31.5354 42.0351 31.6085 42.0351 31.6839 42.0351C31.6839 42.108 31.6839 42.1809 31.6839 42.2561C31.8302 42.2925 31.9765 42.329 32.1272 42.3665C32.1272 42.5852 32.1272 42.804 32.1272 43.0293C32.2003 43.0293 32.2735 43.0293 32.3488 43.0293C32.3488 44.3781 32.3488 45.7269 32.3488 47.1165C31.6174 47.1165 30.8859 47.1165 30.1323 47.1165C30.1323 46.0229 30.1323 44.9293 30.1323 43.8026C30.0592 43.8026 29.986 43.8026 29.9107 43.8026C29.9107 43.6568 29.9107 43.5109 29.9107 43.3607C29.6912 43.3607 29.4718 43.3607 29.2457 43.3607C29.2457 43.4336 29.2457 43.5065 29.2457 43.5816C29.1726 43.5816 29.0994 43.5816 29.0241 43.5816C29.0241 43.7274 29.0241 43.8733 29.0241 44.0235C28.9509 44.0235 28.8778 44.0235 28.8024 44.0235C28.8413 44.1032 28.8801 44.183 28.9202 44.2651C29.0425 44.631 28.99 44.7539 28.9133 45.1281C28.8837 45.4706 28.8675 45.8136 28.8509 46.1569C28.8349 46.4735 28.8189 46.7902 28.8024 47.1165C28.1441 47.1165 27.4858 47.1165 26.8076 47.1165C26.8076 46.752 26.8076 46.3874 26.8076 46.0119C26.7344 46.0119 26.6613 46.0119 26.5859 46.0119C26.5859 45.7202 26.5859 45.4286 26.5859 45.1281C26.6591 45.1281 26.7322 45.1281 26.8076 45.1281C26.8076 44.0345 26.8076 42.9409 26.8076 41.8142C27.3927 41.8142 27.9779 41.8142 28.5808 41.8142C28.6174 41.96 28.6539 42.1058 28.6916 42.2561C28.7648 42.2561 28.8379 42.2561 28.9133 42.2561C28.9133 42.1831 28.9133 42.1102 28.9133 42.0351C29.0595 42.0351 29.2058 42.0351 29.3566 42.0351C29.3566 41.9622 29.3566 41.8893 29.3566 41.8142C29.5394 41.8142 29.7223 41.8142 29.9107 41.8142C29.9107 41.7413 29.9107 41.6684 29.9107 41.5933Z" fill="#8091AF"/>
<path d="M61.6049 41.5933C62.0438 41.5933 62.4827 41.5933 62.9348 41.5933C62.9348 41.6662 62.9348 41.7391 62.9348 41.8142C63.1908 41.8142 63.4468 41.8142 63.7106 41.8142C63.7106 41.8871 63.7106 41.96 63.7106 42.0351C63.8569 42.0351 64.0032 42.0351 64.1539 42.0351C64.1539 42.108 64.1539 42.1809 64.1539 42.2561C64.3002 42.2925 64.4465 42.329 64.5972 42.3665C64.5972 42.5123 64.5972 42.6581 64.5972 42.8084C64.6703 42.8084 64.7435 42.8084 64.8188 42.8084C64.8188 43.0636 64.8188 43.3187 64.8188 43.5816C64.1605 43.5816 63.5022 43.5816 62.824 43.5816C62.824 43.5087 62.824 43.4358 62.824 43.3607C62.7509 43.3607 62.6777 43.3607 62.6023 43.3607C62.6023 43.2878 62.6023 43.2149 62.6023 43.1398C62.2732 43.1398 61.944 43.1398 61.6049 43.1398C61.6049 43.2491 61.6049 43.3585 61.6049 43.4712C61.8975 43.4712 62.1901 43.4712 62.4915 43.4712C62.4915 43.5441 62.4915 43.617 62.4915 43.6921C62.8572 43.6921 63.223 43.6921 63.5998 43.6921C63.5998 43.765 63.5998 43.8379 63.5998 43.913C63.7826 43.913 63.9655 43.913 64.1539 43.913C64.1539 43.9859 64.1539 44.0588 64.1539 44.134C64.3002 44.1704 64.4465 44.2069 64.5972 44.2444C64.5972 44.3173 64.5972 44.3902 64.5972 44.4654C64.6703 44.4654 64.7435 44.4654 64.8188 44.4654C64.8188 44.6841 64.8188 44.9028 64.8188 45.1281C64.892 45.1281 64.9651 45.1281 65.0405 45.1281C65.0405 45.2375 65.0405 45.3469 65.0405 45.4595C64.9673 45.4595 64.8942 45.4595 64.8188 45.4595C64.8188 45.7147 64.8188 45.9699 64.8188 46.2328C64.7457 46.2328 64.6726 46.2328 64.5972 46.2328C64.5606 46.3786 64.524 46.5244 64.4864 46.6747C64.3767 46.6747 64.2669 46.6747 64.1539 46.6747C64.1539 46.7476 64.1539 46.8205 64.1539 46.8956C64.0076 46.8956 63.8613 46.8956 63.7106 46.8956C63.7106 46.9685 63.7106 47.0414 63.7106 47.1165C63.5277 47.1165 63.3449 47.1165 63.1565 47.1165C63.1565 47.1894 63.1565 47.2623 63.1565 47.3374C62.5713 47.3374 61.9862 47.3374 61.3833 47.3374C61.3833 47.2645 61.3833 47.1916 61.3833 47.1165C61.0907 47.1165 60.7981 47.1165 60.4967 47.1165C60.4967 47.0436 60.4967 46.9707 60.4967 46.8956C60.3504 46.8956 60.2041 46.8956 60.0534 46.8956C60.0534 46.8227 60.0534 46.7498 60.0534 46.6747C59.9802 46.6747 59.9071 46.6747 59.8317 46.6747C59.8317 46.6017 59.8317 46.5288 59.8317 46.4537C59.7586 46.4537 59.6854 46.4537 59.6101 46.4537C59.4993 46.2328 59.4993 46.2328 59.4993 45.3491C60.1576 45.3491 60.8159 45.3491 61.4941 45.3491C61.4941 45.4949 61.4941 45.6407 61.4941 45.7909C61.677 45.7909 61.8598 45.7909 62.0482 45.7909C62.0482 45.8638 62.0482 45.9367 62.0482 46.0119C62.1579 46.0119 62.2677 46.0119 62.3807 46.0119C62.3807 45.939 62.3807 45.8661 62.3807 45.7909C62.527 45.7909 62.6733 45.7909 62.824 45.7909C62.824 45.6816 62.824 45.5722 62.824 45.4595C62.6046 45.4595 62.3851 45.4595 62.159 45.4595C62.159 45.3866 62.159 45.3137 62.159 45.2386C61.7568 45.2386 61.3545 45.2386 60.94 45.2386C60.94 45.1657 60.94 45.0928 60.94 45.0177C60.7205 45.0177 60.5011 45.0177 60.275 45.0177C60.275 44.9448 60.275 44.8719 60.275 44.7968C60.2019 44.7968 60.1287 44.7968 60.0534 44.7968C60.0534 44.7238 60.0534 44.6509 60.0534 44.5758C59.9802 44.5758 59.9071 44.5758 59.8317 44.5758C59.8317 44.5029 59.8317 44.43 59.8317 44.3549C59.7586 44.3549 59.6854 44.3549 59.6101 44.3549C59.4618 44.0592 59.4764 43.822 59.4715 43.4919C59.4687 43.3773 59.4658 43.2626 59.4629 43.1445C59.5039 42.7652 59.601 42.558 59.8317 42.2561C59.9049 42.2561 59.978 42.2561 60.0534 42.2561C60.0534 42.1831 60.0534 42.1102 60.0534 42.0351C60.1997 42.0351 60.346 42.0351 60.4967 42.0351C60.4967 41.9622 60.4967 41.8893 60.4967 41.8142C60.8624 41.8142 61.2281 41.8142 61.6049 41.8142C61.6049 41.7413 61.6049 41.6684 61.6049 41.5933Z" fill="#8091AF"/>
</svg>
