<svg width="403" height="307" viewBox="0 0 403 307" fill="none" xmlns="http://www.w3.org/2000/svg">
<path d="M402.66 270.467H0V270.668H402.66V270.467Z" fill="#E0E0E0"/>
<path d="M305.482 277.892H277.779V278.093H305.482V277.892Z" fill="#E0E0E0"/>
<path d="M338.073 277.32H322.482V277.521H338.073V277.32Z" fill="#E0E0E0"/>
<path d="M199.188 277.795H178.507V277.996H199.188V277.795Z" fill="#E0E0E0"/>
<path d="M214.127 280.654H200.001V280.855H214.127V280.654Z" fill="#E0E0E0"/>
<path d="M116.506 275.758H73.8318V275.959H116.506V275.758Z" fill="#E0E0E0"/>
<path d="M190.861 234.549H35.3616C34.1434 234.547 32.9758 234.062 32.1152 233.2C31.2546 232.338 30.7712 231.169 30.7712 229.951V11.363C30.7818 10.1519 31.2699 8.99377 32.1294 8.14033C32.9888 7.28688 34.1503 6.80701 35.3616 6.80493H190.861C192.08 6.80493 193.25 7.2894 194.112 8.15177C194.975 9.01413 195.459 10.1837 195.459 11.4033V229.951C195.459 231.171 194.975 232.34 194.112 233.203C193.25 234.065 192.08 234.549 190.861 234.549ZM35.3616 6.966C34.1968 6.96813 33.0805 7.43233 32.2576 8.2567C31.4347 9.08108 30.9726 10.1983 30.9726 11.363V229.951C30.9726 231.116 31.4347 232.233 32.2576 233.057C33.0805 233.882 34.1968 234.346 35.3616 234.348H190.861C192.026 234.346 193.143 233.882 193.968 233.058C194.792 232.234 195.256 231.117 195.258 229.951V11.363C195.256 10.1975 194.792 9.08036 193.968 8.25621C193.143 7.43207 192.026 6.96813 190.861 6.966H35.3616Z" fill="#E0E0E0"/>
<path d="M365.06 234.549H209.552C208.333 234.547 207.165 234.062 206.303 233.2C205.441 232.338 204.956 231.17 204.954 229.951V11.363C204.967 10.1511 205.456 8.99305 206.317 8.13982C207.178 7.2866 208.34 6.80698 209.552 6.80493H365.06C366.269 6.80912 367.429 7.28993 368.287 8.14315C369.144 8.99637 369.631 10.1533 369.642 11.363V229.951C369.642 231.168 369.16 232.335 368.301 233.197C367.442 234.059 366.276 234.545 365.06 234.549ZM209.552 6.966C208.387 6.96813 207.27 7.43207 206.445 8.25621C205.621 9.08036 205.157 10.1975 205.155 11.363V229.951C205.157 231.117 205.621 232.234 206.445 233.058C207.27 233.882 208.387 234.346 209.552 234.348H365.06C366.225 234.346 367.342 233.882 368.166 233.058C368.991 232.234 369.454 231.117 369.457 229.951V11.363C369.454 10.1975 368.991 9.08036 368.166 8.25621C367.342 7.43207 366.225 6.96813 365.06 6.966H209.552Z" fill="#E0E0E0"/>
<path d="M349.533 26.35H228.171V130.687H349.533V26.35Z" fill="#E0E0E0"/>
<path d="M352.231 26.35H230.869V130.687H352.231V26.35Z" fill="#F0F0F0"/>
<path d="M347.391 125.791V31.2464L235.709 31.2464V125.791H347.391Z" fill="#FAFAFA"/>
<path d="M311.699 125.791V31.2464H304.403V125.791H311.699Z" fill="#E0E0E0"/>
<path d="M273.318 125.791V31.2464H266.021V125.791H273.318Z" fill="#E0E0E0"/>
<path d="M314.268 128.891V27.5983H306.972V128.891H314.268Z" fill="#F0F0F0"/>
<path d="M275.878 128.899V27.6063H268.582V128.899H275.878Z" fill="#F0F0F0"/>
<path d="M347.391 125.783V31.2383H345.353V125.783H347.391Z" fill="#E0E0E0"/>
<path d="M142.816 108.75C142.816 108.75 128.046 83.3103 148.541 63.0243C148.541 63.0243 153.889 66.5113 153.808 71.1983C153.728 75.8853 148.074 77.0691 149.29 80.9829C150.506 84.8968 155.83 88.7221 152.334 91.9594C148.839 95.1968 152.898 98.0638 152.665 102.026C152.431 105.988 142.816 108.75 142.816 108.75Z" fill="#E0E0E0"/>
<path d="M145.135 112.914C145.135 112.914 151.126 84.0996 125.292 71.3272C125.292 71.3272 121.313 76.3202 122.876 80.7414C124.438 85.1626 130.164 84.5022 130.244 88.6013C130.325 92.7004 126.484 98.0155 130.816 99.9805C135.149 101.945 132.209 105.956 133.683 109.644C135.157 113.333 145.135 112.914 145.135 112.914Z" fill="#E6E6E6"/>
<path d="M131.984 105.594C131.984 105.594 132.242 130.47 142.187 130.47C152.133 130.47 152.383 105.594 152.383 105.594H131.984Z" fill="#F0F0F0"/>
<path d="M72.2292 121.112C72.2292 121.112 72.7849 130.47 94.0212 130.47C115.257 130.47 115.821 121.112 115.821 121.112H72.2292Z" fill="#E6E6E6"/>
<path d="M296.116 177.533H284.906C283.51 177.533 282.377 178.665 282.377 180.061V198.6C282.377 199.997 283.51 201.129 284.906 201.129H296.116C297.513 201.129 298.645 199.997 298.645 198.6V180.061C298.645 178.665 297.513 177.533 296.116 177.533Z" fill="#F0F0F0"/>
<path d="M325.849 185.248H318.303C317.364 185.248 316.604 186.009 316.604 186.947V199.429C316.604 200.368 317.364 201.129 318.303 201.129H325.849C326.787 201.129 327.548 200.368 327.548 199.429V186.947C327.548 186.009 326.787 185.248 325.849 185.248Z" fill="#E6E6E6"/>
<path d="M326.976 183.71H317.175C316.86 183.71 316.604 183.966 316.604 184.281V184.926C316.604 185.241 316.86 185.497 317.175 185.497H326.976C327.292 185.497 327.548 185.241 327.548 184.926V184.281C327.548 183.966 327.292 183.71 326.976 183.71Z" fill="#F0F0F0"/>
<path d="M256.43 188.002C256.43 188.002 256.833 201.129 272.206 201.129C287.58 201.129 287.99 188.002 287.99 188.002H256.43Z" fill="#E6E6E6"/>
<path d="M218.193 170.663H241.459V166.073H218.193V170.663Z" fill="#E0E0E0"/>
<path d="M357.127 166.081H241.459V170.671H357.127V166.081Z" fill="#F0F0F0"/>
<path d="M218.193 205.719H241.459V201.129H218.193V205.719Z" fill="#E0E0E0"/>
<path d="M357.127 201.129H241.459V205.719H357.127V201.129Z" fill="#F0F0F0"/>
<path d="M226.577 170.663H222.284V270.459H226.577V170.663Z" fill="#E0E0E0"/>
<path d="M245.751 170.663H241.459V270.459H245.751V170.663Z" fill="#F0F0F0"/>
<path d="M342.245 170.663H337.953V270.459H342.245V170.663Z" fill="#E0E0E0"/>
<path d="M357.127 170.663H352.835V270.459H357.127V170.663Z" fill="#F0F0F0"/>
<path d="M72.2291 136.308H50.2278V264.427H72.2291V136.308Z" fill="#E6E6E6"/>
<path d="M162.949 264.419H54.4558V270.467H162.949V264.419Z" fill="#E6E6E6"/>
<path d="M72.229 264.419H167.168L167.168 136.3H72.229L72.229 264.419Z" fill="#F0F0F0"/>
<path d="M80.8784 216.011H158.519V184.716H80.8784V216.011Z" fill="#E6E6E6"/>
<path d="M80.8784 253.007H158.519V221.713H80.8784V253.007Z" fill="#E6E6E6"/>
<path d="M128.416 188.147H110.981C110.414 188.145 109.87 187.918 109.469 187.517C109.067 187.116 108.841 186.572 108.839 186.005C108.839 185.436 109.064 184.89 109.466 184.487C109.867 184.084 110.412 183.857 110.981 183.855H128.416C128.985 183.857 129.53 184.084 129.931 184.487C130.333 184.89 130.558 185.436 130.558 186.005C130.556 186.572 130.33 187.116 129.929 187.517C129.527 187.918 128.984 188.145 128.416 188.147Z" fill="#F0F0F0"/>
<path d="M80.8784 179.007H158.519V147.712H80.8784V179.007Z" fill="#E6E6E6"/>
<path d="M128.416 151.15H110.981C110.412 151.148 109.867 150.921 109.466 150.518C109.064 150.115 108.839 149.569 108.839 149C108.841 148.433 109.067 147.889 109.469 147.488C109.87 147.087 110.414 146.86 110.981 146.858H128.416C128.984 146.86 129.527 147.087 129.929 147.488C130.33 147.889 130.556 148.433 130.558 149C130.558 149.569 130.333 150.115 129.931 150.518C129.53 150.921 128.985 151.148 128.416 151.15Z" fill="#F0F0F0"/>
<path d="M128.416 225.143H110.981C110.414 225.141 109.87 224.915 109.469 224.514C109.067 224.112 108.841 223.569 108.839 223.001C108.839 222.432 109.064 221.887 109.466 221.484C109.867 221.081 110.412 220.853 110.981 220.851H128.416C128.985 220.853 129.53 221.081 129.931 221.484C130.333 221.887 130.558 222.432 130.558 223.001C130.556 223.569 130.33 224.112 129.929 224.514C129.527 224.915 128.984 225.141 128.416 225.143Z" fill="#F0F0F0"/>
<path d="M170.1 130.47H72.2292V136.308H170.1V130.47Z" fill="#E6E6E6"/>
<path d="M47.1516 136.3H72.2292V130.462H47.1516V136.3Z" fill="#E0E0E0"/>
<path d="M96.7511 31.2464H61.156V70.3366H96.7511V31.2464Z" fill="#E6E6E6"/>
<path d="M100.609 31.2464H63.8376V70.3366H100.609V31.2464Z" fill="#F0F0F0"/>
<path d="M97.5242 67.2522V34.3227H66.914V67.2522H97.5242Z" fill="#FAFAFA"/>
<path d="M90.1072 59.2715V42.3034H74.339V59.2715H90.1072Z" fill="#F0F0F0"/>
<path d="M134.279 19.7062H107.285V48.7057H134.279V19.7062Z" fill="#E6E6E6"/>
<path d="M137.146 19.7062H109.87V48.7057H137.146V19.7062Z" fill="#F0F0F0"/>
<path d="M134.859 46.4186V21.9933H112.157V46.4186H134.859Z" fill="#FAFAFA"/>
<path d="M123.504 28.0251L117.295 38.7842H129.713L123.504 28.0251Z" fill="#F0F0F0"/>
<path d="M201.33 306.835C287.566 306.835 357.474 302.753 357.474 297.719C357.474 292.684 287.566 288.603 201.33 288.603C115.094 288.603 45.1865 292.684 45.1865 297.719C45.1865 302.753 115.094 306.835 201.33 306.835Z" fill="#F5F5F5"/>
<path d="M338.073 79.9441H259.072C254.904 79.9441 251.526 83.3225 251.526 87.49V108.976C251.526 113.143 254.904 116.522 259.072 116.522H338.073C342.241 116.522 345.619 113.143 345.619 108.976V87.49C345.619 83.3225 342.241 79.9441 338.073 79.9441Z" fill="#8091AF"/>
<path d="M322.402 86.1129H260.69C259.961 86.1129 259.369 86.7042 259.369 87.4336V88.8832C259.369 89.6126 259.961 90.2039 260.69 90.2039H322.402C323.131 90.2039 323.723 89.6126 323.723 88.8832V87.4336C323.723 86.7042 323.131 86.1129 322.402 86.1129Z" fill="#8091AF"/>
<path d="M302.857 95.97H260.69C259.961 95.97 259.369 96.5613 259.369 97.2907V98.7403C259.369 99.4697 259.961 100.061 260.69 100.061H302.857C303.586 100.061 304.177 99.4697 304.177 98.7403V97.2907C304.177 96.5613 303.586 95.97 302.857 95.97Z" fill="#8091AF"/>
<path d="M291.55 105.827H260.69C259.961 105.827 259.369 106.418 259.369 107.148V108.597C259.369 109.327 259.961 109.918 260.69 109.918H291.55C292.279 109.918 292.871 109.327 292.871 108.597V107.148C292.871 106.418 292.279 105.827 291.55 105.827Z" fill="#8091AF"/>
<path d="M329.795 105.827H298.935C298.205 105.827 297.614 106.418 297.614 107.148V108.597C297.614 109.327 298.205 109.918 298.935 109.918H329.795C330.524 109.918 331.115 109.327 331.115 108.597V107.148C331.115 106.418 330.524 105.827 329.795 105.827Z" fill="#8091AF"/>
<g opacity="0.5">
<path d="M322.402 86.1129H260.69C259.961 86.1129 259.369 86.7042 259.369 87.4336V88.8832C259.369 89.6126 259.961 90.2039 260.69 90.2039H322.402C323.131 90.2039 323.723 89.6126 323.723 88.8832V87.4336C323.723 86.7042 323.131 86.1129 322.402 86.1129Z" fill="white"/>
<path d="M302.857 95.97H260.69C259.961 95.97 259.369 96.5613 259.369 97.2907V98.7403C259.369 99.4697 259.961 100.061 260.69 100.061H302.857C303.586 100.061 304.177 99.4697 304.177 98.7403V97.2907C304.177 96.5613 303.586 95.97 302.857 95.97Z" fill="white"/>
<path d="M291.55 105.827H260.69C259.961 105.827 259.369 106.418 259.369 107.148V108.597C259.369 109.327 259.961 109.918 260.69 109.918H291.55C292.279 109.918 292.871 109.327 292.871 108.597V107.148C292.871 106.418 292.279 105.827 291.55 105.827Z" fill="white"/>
<path d="M329.795 105.827H298.935C298.205 105.827 297.614 106.418 297.614 107.148V108.597C297.614 109.327 298.205 109.918 298.935 109.918H329.795C330.524 109.918 331.115 109.327 331.115 108.597V107.148C331.115 106.418 330.524 105.827 329.795 105.827Z" fill="white"/>
</g>
<path d="M274.791 71.4158H185.119C179.008 71.4158 174.054 76.3698 174.054 82.4809V113.985C174.054 120.096 179.008 125.05 185.119 125.05H274.791C280.903 125.05 285.857 120.096 285.857 113.985V82.4809C285.857 76.3698 280.903 71.4158 274.791 71.4158Z" fill="#8091AF"/>
<path d="M277.964 80.4595H187.495C186.423 80.4595 185.554 81.3285 185.554 82.4003V84.5183C185.554 85.5902 186.423 86.4592 187.495 86.4592H277.964C279.036 86.4592 279.905 85.5902 279.905 84.5183V82.4003C279.905 81.3285 279.036 80.4595 277.964 80.4595Z" fill="#8091AF"/>
<path d="M249.303 94.915H187.495C186.423 94.915 185.554 95.7839 185.554 96.8558V98.9738C185.554 100.046 186.423 100.915 187.495 100.915H249.303C250.375 100.915 251.244 100.046 251.244 98.9738V96.8558C251.244 95.7839 250.375 94.915 249.303 94.915Z" fill="#8091AF"/>
<path d="M232.729 109.371H187.495C186.423 109.371 185.554 110.239 185.554 111.311V113.429C185.554 114.501 186.423 115.37 187.495 115.37H232.729C233.801 115.37 234.67 114.501 234.67 113.429V111.311C234.67 110.239 233.801 109.371 232.729 109.371Z" fill="#8091AF"/>
<path d="M281.258 109.371H243.569C242.497 109.371 241.628 110.239 241.628 111.311V113.429C241.628 114.501 242.497 115.37 243.569 115.37H281.258C282.33 115.37 283.199 114.501 283.199 113.429V111.311C283.199 110.239 282.33 109.371 281.258 109.371Z" fill="#8091AF"/>
<g opacity="0.5">
<path d="M277.964 80.4595H187.495C186.423 80.4595 185.554 81.3285 185.554 82.4003V84.5183C185.554 85.5902 186.423 86.4592 187.495 86.4592H277.964C279.036 86.4592 279.905 85.5902 279.905 84.5183V82.4003C279.905 81.3285 279.036 80.4595 277.964 80.4595Z" fill="white"/>
<path d="M249.303 94.915H187.495C186.423 94.915 185.554 95.7839 185.554 96.8558V98.9738C185.554 100.046 186.423 100.915 187.495 100.915H249.303C250.375 100.915 251.244 100.046 251.244 98.9738V96.8558C251.244 95.7839 250.375 94.915 249.303 94.915Z" fill="white"/>
<path d="M232.729 109.37H187.495C186.423 109.37 185.554 110.239 185.554 111.311V113.429C185.554 114.501 186.423 115.37 187.495 115.37H232.729C233.801 115.37 234.67 114.501 234.67 113.429V111.311C234.67 110.239 233.801 109.37 232.729 109.37Z" fill="white"/>
<path d="M281.258 109.37H243.569C242.497 109.37 241.628 110.239 241.628 111.311V113.429C241.628 114.501 242.497 115.37 243.569 115.37H281.258C282.33 115.37 283.199 114.501 283.199 113.429V111.311C283.199 110.239 282.33 109.37 281.258 109.37Z" fill="white"/>
</g>
<path d="M219.039 134.77H175.85C172.994 134.77 170.679 137.085 170.679 139.94V204.64C170.679 207.495 172.994 209.81 175.85 209.81H219.039C221.894 209.81 224.209 207.495 224.209 204.64V139.94C224.209 137.085 221.894 134.77 219.039 134.77Z" fill="#8091AF"/>
<path opacity="0.4" d="M219.039 134.77H175.85C172.994 134.77 170.679 137.085 170.679 139.94V204.64C170.679 207.495 172.994 209.81 175.85 209.81H219.039C221.894 209.81 224.209 207.495 224.209 204.64V139.94C224.209 137.085 221.894 134.77 219.039 134.77Z" fill="black"/>
<path d="M217.058 142.598H177.823C177.298 142.598 176.873 143.023 176.873 143.548V144.974C176.873 145.499 177.298 145.924 177.823 145.924H217.058C217.583 145.924 218.008 145.499 218.008 144.974V143.548C218.008 143.023 217.583 142.598 217.058 142.598Z" fill="#FAFAFA"/>
<path d="M204.568 150.603H177.823C177.298 150.603 176.873 151.028 176.873 151.553V152.979C176.873 153.503 177.298 153.929 177.823 153.929H204.568C205.092 153.929 205.518 153.503 205.518 152.979V151.553C205.518 151.028 205.092 150.603 204.568 150.603Z" fill="#FAFAFA"/>
<path d="M217.058 158.616H177.823C177.298 158.616 176.873 159.041 176.873 159.566V160.992C176.873 161.516 177.298 161.942 177.823 161.942H217.058C217.583 161.942 218.008 161.516 218.008 160.992V159.566C218.008 159.041 217.583 158.616 217.058 158.616Z" fill="#FAFAFA"/>
<path d="M192.407 166.621H177.823C177.298 166.621 176.873 167.046 176.873 167.571V168.996C176.873 169.521 177.298 169.947 177.823 169.947H192.407C192.932 169.947 193.357 169.521 193.357 168.996V167.571C193.357 167.046 192.932 166.621 192.407 166.621Z" fill="#FAFAFA"/>
<path d="M212.814 166.621H198.23C197.705 166.621 197.279 167.046 197.279 167.571V168.996C197.279 169.521 197.705 169.947 198.23 169.947H212.814C213.339 169.947 213.764 169.521 213.764 168.996V167.571C213.764 167.046 213.339 166.621 212.814 166.621Z" fill="#FAFAFA"/>
<path d="M217.058 174.634H177.823C177.298 174.634 176.873 175.059 176.873 175.584V177.009C176.873 177.534 177.298 177.96 177.823 177.96H217.058C217.583 177.96 218.008 177.534 218.008 177.009V175.584C218.008 175.059 217.583 174.634 217.058 174.634Z" fill="#FAFAFA"/>
<path d="M217.058 182.639H177.823C177.298 182.639 176.873 183.064 176.873 183.589V185.014C176.873 185.539 177.298 185.964 177.823 185.964H217.058C217.583 185.964 218.008 185.539 218.008 185.014V183.589C218.008 183.064 217.583 182.639 217.058 182.639Z" fill="#FAFAFA"/>
<path d="M210.1 190.651H177.823C177.298 190.651 176.873 191.077 176.873 191.602V193.027C176.873 193.552 177.298 193.977 177.823 193.977H210.1C210.625 193.977 211.05 193.552 211.05 193.027V191.602C211.05 191.077 210.625 190.651 210.1 190.651Z" fill="#FAFAFA"/>
<path d="M192.882 198.656H177.823C177.298 198.656 176.873 199.082 176.873 199.607V201.032C176.873 201.557 177.298 201.982 177.823 201.982H192.882C193.407 201.982 193.833 201.557 193.833 201.032V199.607C193.833 199.082 193.407 198.656 192.882 198.656Z" fill="#FAFAFA"/>
<path d="M230.724 134.311H170.816L197.303 155.386L237.916 170.688V141.487C237.911 139.582 237.152 137.757 235.804 136.412C234.455 135.067 232.629 134.311 230.724 134.311Z" fill="#8091AF"/>
<path opacity="0.4" d="M230.724 134.311H170.816L197.303 155.386L237.916 170.688V141.487C237.911 139.582 237.152 137.757 235.804 136.412C234.455 135.067 232.629 134.311 230.724 134.311Z" fill="black"/>
<path d="M228.107 145.167H184.273C183.615 145.167 183.082 145.701 183.082 146.359V148.582C183.082 149.24 183.615 149.773 184.273 149.773H228.107C228.765 149.773 229.299 149.24 229.299 148.582V146.359C229.299 145.701 228.765 145.167 228.107 145.167Z" fill="#FAFAFA"/>
<path d="M334.329 191.36V149.226C334.329 145.997 331.711 143.379 328.482 143.379H255.319C252.09 143.379 249.472 145.997 249.472 149.226V191.36C249.472 194.589 252.09 197.207 255.319 197.207H328.482C331.711 197.207 334.329 194.589 334.329 191.36Z" fill="#8091AF"/>
<path d="M347.689 178.008V135.874C347.689 132.645 345.071 130.027 341.842 130.027H268.679C265.45 130.027 262.832 132.645 262.832 135.874V178.008C262.832 181.237 265.45 183.855 268.679 183.855H341.842C345.071 183.855 347.689 181.237 347.689 178.008Z" fill="#8091AF"/>
<path opacity="0.5" d="M347.689 178.008V135.874C347.689 132.645 345.071 130.027 341.842 130.027H268.679C265.45 130.027 262.832 132.645 262.832 135.874V178.008C262.832 181.237 265.45 183.855 268.679 183.855H341.842C345.071 183.855 347.689 181.237 347.689 178.008Z" fill="white"/>
<path d="M340.264 163.569V137.629C340.264 136.193 339.099 135.028 337.663 135.028H313.753C312.316 135.028 311.152 136.193 311.152 137.629V163.569C311.152 165.005 312.316 166.17 313.753 166.17H337.663C339.099 166.17 340.264 165.005 340.264 163.569Z" fill="#8091AF"/>
<path opacity="0.7" d="M340.264 163.569V137.629C340.264 136.193 339.099 135.028 337.663 135.028H313.753C312.316 135.028 311.152 136.193 311.152 137.629V163.569C311.152 165.005 312.316 166.17 313.753 166.17H337.663C339.099 166.17 340.264 165.005 340.264 163.569Z" fill="white"/>
<path d="M306.594 176.115V156.24C306.594 155.137 305.699 154.243 304.596 154.243H286.275C285.172 154.243 284.278 155.137 284.278 156.24V176.115C284.278 177.218 285.172 178.113 286.275 178.113H304.596C305.699 178.113 306.594 177.218 306.594 176.115Z" fill="#8091AF"/>
<path opacity="0.3" d="M306.594 176.115V156.24C306.594 155.137 305.699 154.243 304.596 154.243H286.275C285.172 154.243 284.278 155.137 284.278 156.24V176.115C284.278 177.218 285.172 178.113 286.275 178.113H304.596C305.699 178.113 306.594 177.218 306.594 176.115Z" fill="white"/>
<path d="M295.432 50.099V39.364C295.432 36.0817 292.771 33.4208 289.488 33.4208L92.8856 33.4208C89.6032 33.4208 86.9423 36.0817 86.9423 39.364V50.099C86.9423 53.3813 89.6032 56.0422 92.8856 56.0422L289.488 56.0422C292.771 56.0422 295.432 53.3813 295.432 50.099Z" fill="#8091AF"/>
<path opacity="0.5" d="M295.432 50.099V39.364C295.432 36.0817 292.771 33.4208 289.488 33.4208L92.8856 33.4208C89.6032 33.4208 86.9423 36.0817 86.9423 39.364V50.099C86.9423 53.3813 89.6032 56.0422 92.8856 56.0422L289.488 56.0422C292.771 56.0422 295.432 53.3813 295.432 50.099Z" fill="white"/>
<path d="M258.234 59.8273V52.0398H201.66V59.8273H258.234Z" fill="#8091AF"/>
<path opacity="0.5" d="M258.234 59.8273V52.0398H201.66V59.8273H258.234Z" fill="white"/>
<path d="M315.718 16.6782V5.94327C315.718 2.66089 313.057 0 309.775 0L113.172 0C109.889 0 107.229 2.66089 107.229 5.94327V16.6782C107.229 19.9606 109.889 22.6214 113.172 22.6214L309.775 22.6214C313.057 22.6214 315.718 19.9606 315.718 16.6782Z" fill="#8091AF"/>
<path d="M104.981 118.954C104.273 120.564 103.492 122.304 102.807 124.003C102.123 125.702 101.414 127.45 100.794 129.189C99.5214 132.581 98.5013 136.061 97.7416 139.602L97.508 140.891L97.4275 141.374C97.4275 141.511 97.4275 141.688 97.3792 141.849C97.3486 142.633 97.3647 143.418 97.4275 144.201C97.5805 145.9 97.8543 147.72 98.2328 149.54C98.9093 153.188 99.771 156.949 100.649 160.653L96.5175 162.264C94.5917 158.753 92.9516 155.093 91.6131 151.32C90.9079 149.356 90.3375 147.346 89.9058 145.304C89.6639 144.174 89.5131 143.027 89.4548 141.873C89.4548 141.551 89.4548 141.245 89.4548 140.899C89.4548 140.553 89.4548 140.166 89.5112 139.94L89.6723 138.33C89.9129 136.256 90.2814 134.198 90.7756 132.169C91.2265 130.156 91.8064 128.199 92.3862 126.266C92.966 124.333 93.6908 122.433 94.4559 120.564C94.8344 119.63 95.2612 118.704 95.6316 117.778C96.0021 116.852 96.437 115.966 96.9524 114.976L104.981 118.954Z" fill="#E4897B"/>
<path d="M100.431 159.566L103.572 162.634L96.7189 165.856C96.7189 165.856 95.0599 162.948 96.2115 160.323L100.431 159.566Z" fill="#E4897B"/>
<path d="M106.109 167.201L100.319 169.568L96.7271 165.823L103.572 162.634L106.109 167.201Z" fill="#E4897B"/>
<path opacity="0.4" d="M223.404 163.899C212.009 162.619 201.25 157.99 192.486 150.597C183.722 143.204 177.346 133.378 174.166 122.362C170.985 111.345 171.142 99.6335 174.617 88.7065C178.092 77.7796 184.728 68.1281 193.687 60.9723C202.646 53.8165 213.526 49.4776 224.951 48.5041C236.375 47.5306 247.832 49.9662 257.873 55.5031C267.914 61.04 276.087 69.4295 281.36 79.6111C286.634 89.7926 288.77 101.309 287.499 112.705C286.655 120.276 284.327 127.606 280.648 134.277C276.969 140.948 272.012 146.829 266.06 151.583C260.107 156.338 253.276 159.872 245.957 161.985C238.638 164.099 230.974 164.749 223.404 163.899Z" fill="#FAFAFA"/>
<path opacity="0.4" d="M265.587 60.5923L177.404 131.05C177.034 130.244 176.671 129.439 176.333 128.634C174.122 123.375 172.708 117.816 172.137 112.141L248.304 51.2828C254.558 53.3687 260.404 56.5181 265.587 60.5923Z" fill="#FAFAFA"/>
<path opacity="0.4" d="M285.937 91.4602L203.029 157.698C195.153 153.592 188.328 147.728 183.082 140.561L273.608 68.2267C279.443 74.9245 283.661 82.8735 285.937 91.4602Z" fill="#FAFAFA"/>
<path d="M164.599 84.1157L163.834 83.8579C165.159 79.9481 166.825 76.1621 168.811 72.5432L169.512 72.9298C167.551 76.5081 165.908 80.251 164.599 84.1157ZM174.376 65.3195L173.724 64.8444C180.342 55.8955 189.003 48.6586 198.986 43.7369L199.349 44.4617C189.479 49.3326 180.917 56.4922 174.376 65.3437V65.3195ZM262.631 45.565C259.999 44.1535 257.277 42.9186 254.481 41.8686L254.771 41.1116C257.594 42.1862 260.343 43.4452 263.001 44.8805L262.631 45.565Z" fill="#8091AF"/>
<path opacity="0.3" d="M164.599 84.1157L163.834 83.8579C165.159 79.9481 166.825 76.1621 168.811 72.5432L169.512 72.9298C167.551 76.5081 165.908 80.251 164.599 84.1157ZM174.376 65.3195L173.724 64.8444C180.342 55.8955 189.003 48.6586 198.986 43.7369L199.349 44.4617C189.479 49.3326 180.917 56.4922 174.376 65.3437V65.3195ZM262.631 45.565C259.999 44.1535 257.277 42.9186 254.481 41.8686L254.771 41.1116C257.594 42.1862 260.343 43.4452 263.001 44.8805L262.631 45.565Z" fill="black"/>
<path d="M289.81 76.6584C282.353 61.1925 269.231 49.1893 253.163 43.137C237.095 37.0848 219.315 37.4478 203.507 44.1508C187.7 50.8538 175.078 63.3826 168.259 79.14C161.439 94.8974 160.945 112.675 166.878 128.787C161.499 130.671 156.184 132.693 150.901 134.778C143.282 137.801 135.734 140.958 128.255 144.249C120.782 147.559 113.341 150.933 105.972 154.46C102.276 156.192 98.6275 158.02 94.9472 159.792C93.0326 160.614 91.2979 161.804 89.8414 163.295C89.0532 164.12 88.3591 165.03 87.7718 166.009C87.0551 167.166 86.5124 168.422 86.1611 169.737C85.5551 172.107 85.8172 174.616 86.8999 176.809C87.9826 179.002 89.8144 180.736 92.0641 181.696C93.3134 182.22 94.6315 182.562 95.978 182.711C97.1152 182.84 98.2633 182.84 99.4006 182.711C101.467 182.46 103.465 181.806 105.279 180.786C108.928 178.942 112.6 177.162 116.224 175.27C123.472 171.573 130.719 167.716 137.879 163.802C145.038 159.888 152.205 155.789 159.196 151.585C164.028 148.662 168.908 145.674 173.691 142.55C182.877 157.051 197.29 167.462 213.942 171.626C230.595 175.79 248.212 173.388 263.142 164.917C278.072 156.447 289.171 142.557 294.139 126.126C299.106 109.695 297.562 91.9821 289.827 76.6584H289.81ZM253.201 153.591C243.842 158.21 233.323 159.951 222.975 158.593C212.627 157.234 202.914 152.838 195.064 145.96C187.214 139.082 181.58 130.031 178.874 119.951C176.169 109.87 176.512 99.2144 179.862 89.3298C183.212 79.4451 189.418 70.7758 197.695 64.418C205.972 58.0601 215.948 54.2993 226.363 53.6111C236.777 52.9228 247.161 55.338 256.203 60.5513C265.244 65.7646 272.537 73.5418 277.159 82.8996C280.228 89.1142 282.043 95.8726 282.5 102.789C282.957 109.705 282.048 116.643 279.823 123.208C277.598 129.772 274.102 135.834 269.534 141.047C264.966 146.261 259.416 150.523 253.201 153.591Z" fill="#8091AF"/>
<path opacity="0.3" d="M289.81 76.6584C282.353 61.1925 269.231 49.1893 253.163 43.137C237.095 37.0848 219.315 37.4478 203.507 44.1508C187.7 50.8538 175.078 63.3826 168.259 79.14C161.439 94.8974 160.945 112.675 166.878 128.787C161.499 130.671 156.184 132.693 150.901 134.778C143.282 137.801 135.734 140.958 128.255 144.249C120.782 147.559 113.341 150.933 105.972 154.46C102.276 156.192 98.6275 158.02 94.9472 159.792C93.0326 160.614 91.2979 161.804 89.8414 163.295C89.0532 164.12 88.3591 165.03 87.7718 166.009C87.0551 167.166 86.5124 168.422 86.1611 169.737C85.5551 172.107 85.8172 174.616 86.8999 176.809C87.9826 179.002 89.8144 180.736 92.0641 181.696C93.3134 182.22 94.6315 182.562 95.978 182.711C97.1152 182.84 98.2633 182.84 99.4006 182.711C101.467 182.46 103.465 181.806 105.279 180.786C108.928 178.942 112.6 177.162 116.224 175.27C123.472 171.573 130.719 167.716 137.879 163.802C145.038 159.888 152.205 155.789 159.196 151.585C164.028 148.662 168.908 145.674 173.691 142.55C182.877 157.051 197.29 167.462 213.942 171.626C230.595 175.79 248.212 173.388 263.142 164.917C278.072 156.447 289.171 142.557 294.139 126.126C299.106 109.695 297.562 91.9821 289.827 76.6584H289.81ZM253.201 153.591C243.842 158.21 233.323 159.951 222.975 158.593C212.627 157.234 202.914 152.838 195.064 145.96C187.214 139.082 181.58 130.031 178.874 119.951C176.169 109.87 176.512 99.2144 179.862 89.3298C183.212 79.4451 189.418 70.7758 197.695 64.418C205.972 58.0601 215.948 54.2993 226.363 53.6111C236.777 52.9228 247.161 55.338 256.203 60.5513C265.244 65.7646 272.537 73.5418 277.159 82.8996C280.228 89.1142 282.043 95.8726 282.5 102.789C282.957 109.705 282.048 116.643 279.823 123.208C277.598 129.772 274.102 135.834 269.534 141.047C264.966 146.261 259.416 150.523 253.201 153.591Z" fill="black"/>
<path d="M127.24 90.1958C127.24 90.671 127.49 91.0575 127.804 91.0575C128.118 91.0575 128.368 90.671 128.368 90.1958C128.368 89.7207 128.118 89.3341 127.804 89.3341C127.49 89.3341 127.24 89.7529 127.24 90.1958Z" fill="#263238"/>
<path d="M127.466 91.0575C128.036 92.516 128.803 93.8898 129.745 95.1405C129.419 95.3736 129.047 95.5325 128.653 95.6062C128.259 95.68 127.854 95.6667 127.466 95.5673V91.0575Z" fill="#DE5753"/>
<path d="M125.574 87.5463C125.529 87.5463 125.484 87.5362 125.444 87.5167C125.403 87.4972 125.368 87.4688 125.34 87.4336C125.298 87.3721 125.281 87.2969 125.293 87.2234C125.305 87.1499 125.345 87.0839 125.404 87.039C125.759 86.77 126.174 86.5907 126.612 86.5164C127.051 86.4421 127.502 86.4749 127.925 86.6122C127.963 86.6225 127.999 86.6407 128.029 86.6656C128.06 86.6905 128.085 86.7216 128.102 86.7568C128.12 86.7919 128.131 86.8304 128.133 86.8698C128.135 86.9091 128.128 86.9485 128.114 86.9853C128.1 87.0221 128.078 87.0555 128.05 87.0834C128.023 87.1112 127.989 87.133 127.952 87.1471C127.916 87.1613 127.876 87.1676 127.837 87.1656C127.797 87.1636 127.759 87.1534 127.724 87.1356C127.387 87.0325 127.031 87.0115 126.685 87.0746C126.339 87.1376 126.013 87.2828 125.735 87.498C125.687 87.5297 125.631 87.5465 125.574 87.5463Z" fill="#263238"/>
<path d="M110.973 93.7795C111.778 98.1041 112.664 106.036 109.636 108.928C109.636 108.928 110.82 113.317 118.865 113.317C127.724 113.317 123.085 108.928 123.085 108.928C118.253 107.768 118.39 104.192 119.228 100.826L110.973 93.7795Z" fill="#E4897B"/>
<path d="M106.02 111.207C106.979 109.717 105.368 106.101 105.368 106.101C105.368 106.101 119.606 102.517 125.429 108.018C126.637 109.153 125.3 110.828 125.3 110.828L106.02 111.207Z" fill="#8091AF"/>
<path opacity="0.1" d="M106.02 111.207C106.979 109.717 105.368 106.101 105.368 106.101C105.368 106.101 119.606 102.517 125.429 108.018C126.637 109.153 125.3 110.828 125.3 110.828L106.02 111.207Z" fill="black"/>
<path d="M82.4648 275.516C81.7158 275.516 80.5159 274.268 80.1616 273.801C80.1463 273.778 80.1382 273.751 80.1382 273.724C80.1382 273.697 80.1463 273.67 80.1616 273.648C80.1746 273.625 80.1934 273.607 80.216 273.594C80.2387 273.581 80.2644 273.575 80.2904 273.575C80.379 273.575 82.352 273.752 82.8916 274.453C82.9503 274.527 82.9922 274.613 83.0144 274.705C83.0367 274.796 83.0387 274.892 83.0204 274.985C83.0134 275.104 82.9694 275.219 82.8944 275.313C82.8194 275.407 82.7171 275.475 82.6017 275.508L82.4648 275.516ZM80.5964 273.905C81.1843 274.582 82.1265 275.347 82.5292 275.25C82.5292 275.25 82.6903 275.21 82.7386 274.952C82.7492 274.899 82.7474 274.843 82.7335 274.79C82.7195 274.737 82.6937 274.688 82.658 274.646C82.0615 274.194 81.3436 273.931 80.5964 273.889V273.905Z" fill="#8091AF"/>
<path d="M80.685 273.889C80.5404 273.904 80.3947 273.904 80.2501 273.889C80.2246 273.887 80.2003 273.878 80.1803 273.862C80.1602 273.846 80.1452 273.825 80.1373 273.801C80.126 273.778 80.1201 273.753 80.1201 273.728C80.1201 273.703 80.126 273.678 80.1373 273.656C80.1937 273.607 81.3775 272.375 82.2714 272.375C82.3784 272.373 82.4847 272.393 82.5832 272.435C82.6818 272.476 82.7704 272.539 82.8432 272.617C82.9234 272.684 82.9783 272.776 82.9988 272.879C83.0193 272.981 83.0042 273.088 82.956 273.181C82.7224 273.632 81.4903 273.889 80.685 273.889ZM80.5803 273.607C81.3856 273.607 82.5533 273.358 82.7466 273.003C82.7466 273.003 82.803 272.899 82.6741 272.77C82.6272 272.719 82.5698 272.679 82.5058 272.652C82.4418 272.626 82.3728 272.614 82.3037 272.617C81.6435 272.768 81.0435 273.113 80.5803 273.607Z" fill="#8091AF"/>
<path d="M135.608 293.797C134.997 293.793 134.388 293.736 133.788 293.628C133.758 293.622 133.731 293.606 133.712 293.582C133.693 293.559 133.682 293.529 133.683 293.499C133.679 293.471 133.682 293.443 133.694 293.417C133.705 293.391 133.724 293.369 133.747 293.354C133.836 293.306 135.898 292.122 136.888 292.396C136.98 292.416 137.067 292.456 137.143 292.511C137.219 292.566 137.283 292.637 137.331 292.718C137.394 292.807 137.428 292.914 137.428 293.024C137.428 293.133 137.394 293.24 137.331 293.33C137.098 293.692 136.365 293.797 135.608 293.797ZM134.247 293.418C135.342 293.579 136.84 293.571 137.114 293.185C137.154 293.136 137.186 293.048 137.114 292.879C137.052 292.779 136.954 292.706 136.84 292.677C136.212 292.516 134.963 293.048 134.247 293.418Z" fill="#8091AF"/>
<path d="M133.82 293.636C133.794 293.643 133.766 293.643 133.739 293.636C133.717 293.621 133.7 293.601 133.69 293.576C133.68 293.552 133.677 293.525 133.683 293.499C133.738 292.661 134.059 291.862 134.601 291.22C134.711 291.125 134.839 291.055 134.978 291.015C135.117 290.975 135.263 290.965 135.406 290.986C135.793 290.986 135.906 291.22 135.93 291.373C136.035 292.041 134.625 293.322 133.909 293.644L133.82 293.636ZM135.262 291.22C135.084 291.218 134.913 291.281 134.778 291.397C134.323 291.906 134.041 292.546 133.973 293.225C134.698 292.782 135.664 291.784 135.584 291.381C135.584 291.381 135.584 291.244 135.31 291.22H135.262Z" fill="#8091AF"/>
<path d="M127.313 293.491H133.232L133.82 279.792H127.901L127.313 293.491Z" fill="#E4897B"/>
<path d="M74.6047 269.975L79.5494 273.213L90.4695 263.992L85.5168 260.746L74.6047 269.975Z" fill="#E4897B"/>
<path d="M80.3629 272.907L75.2249 268.695C75.1342 268.62 75.0203 268.58 74.9028 268.58C74.7853 268.58 74.6715 268.62 74.5807 268.695L70.3447 272.021C70.2424 272.102 70.1597 272.206 70.1029 272.324C70.0461 272.442 70.0166 272.571 70.0166 272.701C70.0166 272.832 70.0461 272.961 70.1029 273.079C70.1597 273.197 70.2424 273.3 70.3447 273.382C72.1647 274.823 73.1231 275.435 75.386 277.288C76.7792 278.423 80.2179 281.902 82.1587 283.473C84.0996 285.043 85.8793 283.352 85.2351 282.538C82.344 278.874 81.2085 275.742 80.8783 273.801C80.8212 273.45 80.6379 273.132 80.3629 272.907Z" fill="#263238"/>
<path d="M133.192 292.806H126.749C126.632 292.807 126.518 292.847 126.426 292.92C126.334 292.993 126.269 293.095 126.242 293.209L125.074 298.468C125.045 298.595 125.045 298.728 125.074 298.855C125.104 298.982 125.162 299.101 125.244 299.203C125.326 299.305 125.431 299.386 125.549 299.442C125.668 299.497 125.797 299.525 125.928 299.523C128.255 299.482 131.621 299.345 134.553 299.345C137.975 299.345 140.939 299.531 144.95 299.531C147.365 299.531 148.058 297.074 147.035 296.857C142.413 295.842 138.628 295.738 134.633 293.265C134.205 292.981 133.706 292.823 133.192 292.806Z" fill="#263238"/>
<path d="M97.9753 110.691C92.8454 113.107 89.9221 129.294 89.9221 129.294L102.461 134.295C104.296 129.814 105.78 125.196 106.898 120.484C108.622 113.027 103.226 108.195 97.9753 110.691Z" fill="#263238"/>
<path d="M104.627 119.815C101.527 122.956 100.109 129.109 99.4893 133.111L102.493 134.311C104.276 129.957 105.73 125.475 106.842 120.903C106.576 119.195 105.916 118.511 104.627 119.815Z" fill="#203048"/>
<path d="M132.185 110.578C132.185 110.578 138.483 117.698 132.54 161.716H100.899C100.681 156.884 103.733 133.168 99.0464 110.281C102.543 109.603 106.081 109.156 109.636 108.944C114.115 108.678 118.606 108.678 123.085 108.944C126.156 109.253 129.199 109.799 132.185 110.578Z" fill="#263238"/>
<path d="M135.076 127.667L129.745 118.479C128.716 122.766 128.296 127.177 128.497 131.581C128.642 134.738 131.533 146.431 134.134 148.139C134.824 141.337 135.139 134.503 135.076 127.667Z" fill="#203048"/>
<path d="M135.817 116.868C136.623 120.782 137.428 124.792 138.29 128.722C139.151 132.652 140.045 136.598 141.084 140.408C141.35 141.35 141.599 142.316 141.889 143.218L142.107 143.911L142.212 144.257V144.217C142.155 144.144 142.091 144.136 142.139 144.217C142.47 144.578 142.893 144.843 143.363 144.982C144.124 145.265 144.908 145.483 145.707 145.634C149.514 146.238 153.369 146.488 157.223 146.383L157.988 150.764C156.909 151.11 155.902 151.36 154.839 151.61C153.776 151.859 152.729 152.069 151.658 152.23C149.442 152.599 147.195 152.75 144.95 152.681C143.701 152.647 142.46 152.485 141.245 152.197C139.7 151.859 138.249 151.186 136.993 150.224C136.173 149.562 135.496 148.74 135.004 147.808C134.875 147.567 134.762 147.293 134.658 147.059L134.513 146.681L134.215 145.876C133.804 144.853 133.466 143.846 133.095 142.84C131.734 138.813 130.599 134.746 129.6 130.687C128.602 126.629 127.74 122.578 127.023 118.414L135.817 116.868Z" fill="#E4897B"/>
<path d="M124.285 114.895C122.618 120.299 129.375 136.413 129.375 136.413L142.832 133.031C142.832 133.031 142.316 124.655 139.248 118.012C134.625 107.993 126.282 108.412 124.285 114.895Z" fill="#263238"/>
<path d="M157.11 146.383L163.81 146.214L160.589 153.188C160.589 153.188 157.859 153.55 155.62 149.87L153.26 147.051L155.974 146.512C156.348 146.433 156.728 146.39 157.11 146.383Z" fill="#E4897B"/>
<path d="M168.038 147.51L164.205 153.293L160.589 153.188L163.81 146.214L168.038 147.51Z" fill="#E4897B"/>
<path d="M133.82 279.792L133.514 286.855H127.595L127.901 279.792H133.82Z" fill="#CE6F64"/>
<path d="M85.5169 260.746L90.4696 263.992L84.8324 268.743L79.8877 265.506L85.5169 260.746Z" fill="#CE6F64"/>
<path d="M111.343 89.1731C111.698 95.0278 111.609 98.4826 114.565 101.486C119.01 106.02 126.25 103.339 127.651 97.4598C128.916 92.193 128.126 83.4956 122.392 81.1602C121.127 80.6495 119.753 80.4686 118.399 80.6345C117.045 80.8005 115.755 81.3077 114.65 82.1087C113.546 82.9097 112.663 83.9781 112.084 85.2138C111.506 86.4495 111.251 87.8119 111.343 89.1731Z" fill="#E4897B"/>
<path d="M104.45 88.1423C105.908 93.4816 109.338 99.6342 113.776 100.029C119.284 100.512 121.772 94.8184 122.497 88.9396C125.799 86.6766 124.068 84.1882 127.377 83.8741C131.63 83.4714 130.269 75.692 124.672 74.4438C124.672 74.4438 126.548 77.9469 122.61 76.1752C118.865 74.3954 114.704 73.6741 110.578 74.0895C110.578 74.0895 115.604 76.602 110.691 77.7214C105.779 78.8408 104.313 81.8688 106.576 83.6969C106.576 83.705 103.492 84.6311 104.45 88.1423Z" fill="#263238"/>
<path d="M119.139 90.1475C119.247 91.6028 119.833 92.9816 120.806 94.0694C122.095 95.4948 123.44 94.609 123.665 92.8776C123.874 91.3233 123.448 88.706 121.869 87.9168C120.291 87.1276 119.034 88.3919 119.139 90.1475Z" fill="#E4897B"/>
<path d="M121.313 161.716C121.313 161.716 127.08 203.472 122.538 220.207C115.338 246.702 87.8122 269.065 87.8122 269.065L78.4785 262.945C78.4785 262.945 101.921 244.06 104.788 221.874C107.365 201.958 100.899 177.871 100.899 161.708L121.313 161.716Z" fill="#8091AF"/>
<path opacity="0.1" d="M121.313 161.716C121.313 161.716 127.08 203.472 122.538 220.207C115.338 246.702 87.8122 269.065 87.8122 269.065L78.4785 262.945C78.4785 262.945 101.921 244.06 104.788 221.874C107.365 201.958 100.899 177.871 100.899 161.708L121.313 161.716Z" fill="black"/>
<path d="M123.697 185.586C122.162 183.827 120.472 182.21 118.648 180.754C119.63 194.308 120.436 214.384 119.542 228.646C120.744 225.912 121.745 223.094 122.537 220.215C124.752 212.041 124.518 197.923 123.697 185.586Z" fill="#8091AF"/>
<path opacity="0.3" d="M123.697 185.586C122.162 183.827 120.472 182.21 118.648 180.754C119.63 194.308 120.436 214.384 119.542 228.646C120.744 225.912 121.745 223.094 122.537 220.215C124.752 212.041 124.518 197.923 123.697 185.586Z" fill="black"/>
<path d="M91.573 266.98C91.6132 266.98 87.9571 269.396 87.9571 269.396L77.7617 262.711L80.983 260.046L91.573 266.98Z" fill="#8091AF"/>
<path opacity="0.3" d="M91.573 266.98C91.6132 266.98 87.9571 269.396 87.9571 269.396L77.7617 262.711L80.983 260.046L91.573 266.98Z" fill="black"/>
<path d="M132.539 161.716C132.539 161.716 141.446 199.486 142.074 217.533C142.783 237.763 135.72 285.486 135.72 285.486H125.694C125.694 285.486 124.462 237.392 124.019 218.967C123.528 198.874 111.738 161.716 111.738 161.716H132.539Z" fill="#8091AF"/>
<path opacity="0.1" d="M132.539 161.716C132.539 161.716 141.446 199.486 142.074 217.533C142.783 237.763 135.72 285.486 135.72 285.486H125.694C125.694 285.486 124.462 237.392 124.019 218.967C123.528 198.874 111.738 161.716 111.738 161.716H132.539Z" fill="black"/>
<path d="M137.645 281.5C137.694 281.5 137.082 285.655 137.082 285.655H124.889L124.559 281.943L137.645 281.5Z" fill="#8091AF"/>
<path opacity="0.3" d="M137.645 281.5C137.694 281.5 137.082 285.655 137.082 285.655H124.889L124.559 281.943L137.645 281.5Z" fill="black"/>
<path d="M286.694 125.421C287.378 126.065 287.918 126.612 288.482 127.224C289.045 127.836 289.577 128.432 290.092 129.053C291.139 130.285 292.122 131.581 293.072 132.886C294.97 135.503 296.658 138.266 298.121 141.148L298.419 141.736C298.565 142.021 298.686 142.317 298.782 142.622C298.976 143.211 299.095 143.823 299.136 144.442C299.188 145.534 299.038 146.626 298.693 147.663C298.105 149.386 297.231 150.998 296.108 152.431C294.084 155.03 291.698 157.324 289.021 159.244L287.016 156.941C287.958 155.837 288.941 154.654 289.818 153.47C290.712 152.323 291.519 151.112 292.234 149.846C292.903 148.742 293.397 147.541 293.7 146.286C293.804 145.838 293.823 145.373 293.756 144.917C293.728 144.764 293.679 144.615 293.611 144.474C293.581 144.413 293.546 144.353 293.507 144.297L293.249 143.862C291.696 141.33 290.01 138.881 288.2 136.526C287.306 135.342 286.347 134.207 285.381 133.087C284.906 132.523 284.415 131.976 283.923 131.428C283.432 130.881 282.901 130.333 282.474 129.906L286.694 125.421Z" fill="#E4897B"/>
<path d="M287.789 156.264L281.773 155.282L284.922 160.549C284.922 160.549 288.796 160.412 289.899 158.133L287.789 156.264Z" fill="#E4897B"/>
<path d="M277.328 157.714L280.195 161.99L284.922 160.549L281.773 155.282L277.328 157.714Z" fill="#E4897B"/>
<path d="M287.499 293.724C287.09 293.759 286.682 293.648 286.348 293.41C286.247 293.315 286.172 293.195 286.131 293.062C286.09 292.93 286.084 292.789 286.114 292.653C286.12 292.567 286.149 292.484 286.199 292.413C286.248 292.342 286.317 292.286 286.396 292.251C287.096 291.937 288.933 293.112 289.142 293.249C289.166 293.264 289.184 293.286 289.195 293.312C289.205 293.338 289.206 293.367 289.198 293.394C289.195 293.422 289.184 293.448 289.165 293.468C289.146 293.488 289.121 293.502 289.094 293.507C288.572 293.639 288.037 293.712 287.499 293.724ZM286.694 292.476C286.635 292.467 286.575 292.467 286.517 292.476C286.481 292.493 286.451 292.519 286.43 292.551C286.408 292.584 286.397 292.622 286.396 292.661C286.375 292.751 286.377 292.845 286.402 292.934C286.427 293.023 286.475 293.104 286.541 293.169C286.847 293.442 287.636 293.483 288.691 293.273C288.087 292.874 287.407 292.603 286.694 292.476Z" fill="#8091AF"/>
<path d="M289.11 293.499H289.037C288.466 293.169 287.362 291.888 287.499 291.188C287.525 291.077 287.586 290.978 287.674 290.906C287.761 290.833 287.869 290.791 287.982 290.785C288.091 290.769 288.202 290.779 288.307 290.812C288.411 290.845 288.507 290.902 288.586 290.978C289.247 291.558 289.255 293.298 289.255 293.394C289.253 293.419 289.246 293.442 289.233 293.463C289.221 293.484 289.203 293.502 289.182 293.515L289.11 293.499ZM288.079 291.083H288.015C287.837 291.083 287.797 291.18 287.781 291.252C287.701 291.663 288.385 292.645 288.957 293.104C288.971 292.429 288.777 291.765 288.401 291.204C288.353 291.159 288.296 291.125 288.233 291.104C288.171 291.083 288.104 291.076 288.039 291.083H288.079Z" fill="#8091AF"/>
<path d="M260.054 293.724C259.54 293.773 259.025 293.642 258.596 293.354C258.5 293.268 258.425 293.161 258.379 293.04C258.333 292.92 258.316 292.79 258.331 292.661C258.336 292.583 258.361 292.507 258.403 292.441C258.445 292.375 258.503 292.321 258.572 292.283C259.321 291.864 261.721 293.088 261.995 293.241C262.02 293.257 262.04 293.28 262.053 293.307C262.065 293.334 262.071 293.364 262.067 293.394C262.063 293.422 262.049 293.448 262.029 293.469C262.009 293.489 261.983 293.502 261.954 293.507C261.329 293.64 260.693 293.713 260.054 293.724ZM258.983 292.476C258.891 292.47 258.799 292.489 258.717 292.532C258.688 292.546 258.664 292.568 258.647 292.595C258.629 292.622 258.62 292.653 258.62 292.685C258.608 292.769 258.616 292.855 258.644 292.935C258.672 293.015 258.719 293.087 258.781 293.145C259.152 293.475 260.142 293.531 261.479 293.306C260.7 292.89 259.856 292.61 258.983 292.476Z" fill="#8091AF"/>
<path d="M261.93 293.499H261.866C261.149 293.177 259.724 291.888 259.836 291.188C259.836 291.027 259.981 290.825 260.376 290.785C260.52 290.769 260.666 290.784 260.804 290.826C260.943 290.869 261.071 290.94 261.181 291.035C261.938 291.663 262.083 293.289 262.083 293.362C262.086 293.387 262.083 293.411 262.073 293.434C262.063 293.457 262.047 293.476 262.027 293.491C261.996 293.504 261.962 293.507 261.93 293.499ZM260.489 291.083H260.4C260.142 291.083 260.126 291.212 260.118 291.244C260.054 291.655 261.02 292.677 261.729 293.12C261.659 292.432 261.378 291.782 260.924 291.26C260.801 291.156 260.649 291.094 260.489 291.083Z" fill="#8091AF"/>
<path d="M271.449 106.906C271.216 110.546 270.588 117.939 273.382 119.985C273.382 119.985 272.875 123.713 266.279 124.583C259.031 125.525 262.341 121.434 262.341 121.434C266.182 119.969 265.691 117.045 264.644 114.372L271.449 106.906Z" fill="#E4897B"/>
<path d="M256.446 100.472C256.406 100.472 256.367 100.463 256.331 100.447C256.295 100.43 256.262 100.405 256.237 100.375C256.006 100.102 255.715 99.8867 255.386 99.7468C255.058 99.6069 254.701 99.5463 254.344 99.5698C254.307 99.5766 254.268 99.5758 254.231 99.5672C254.193 99.5586 254.158 99.5426 254.127 99.52C254.096 99.4973 254.07 99.4687 254.051 99.4357C254.031 99.4027 254.019 99.3661 254.014 99.3282C254.005 99.2524 254.026 99.1761 254.073 99.1158C254.119 99.0555 254.188 99.0161 254.264 99.006C254.718 98.9676 255.176 99.0398 255.596 99.2165C256.017 99.3932 256.389 99.6692 256.68 100.021C256.715 100.063 256.737 100.114 256.744 100.168C256.751 100.222 256.743 100.277 256.72 100.327C256.698 100.376 256.661 100.419 256.616 100.448C256.57 100.478 256.517 100.495 256.462 100.496L256.446 100.472Z" fill="#263238"/>
<path d="M255.19 104.039C254.904 105.194 254.462 106.305 253.877 107.341C254.146 107.486 254.443 107.569 254.748 107.586C255.053 107.603 255.358 107.552 255.641 107.438L255.19 104.039Z" fill="#DE5753"/>
<path d="M255.512 103.153C255.576 103.637 255.375 104.055 255.061 104.104C254.747 104.152 254.433 103.782 254.376 103.298C254.32 102.815 254.513 102.396 254.827 102.356C255.141 102.316 255.456 102.638 255.512 103.153Z" fill="#263238"/>
<path d="M254.972 102.364L253.772 102.179C253.772 102.179 254.481 103.008 254.972 102.364Z" fill="#263238"/>
<path d="M268.566 293.37H262.526L262.124 279.398H268.163L268.566 293.37Z" fill="#E4897B"/>
<path d="M295.987 293.37H289.947L288.007 279.398H294.046L295.987 293.37Z" fill="#E4897B"/>
<path d="M289.577 292.694H296.358C296.473 292.692 296.585 292.734 296.673 292.809C296.76 292.885 296.817 292.99 296.833 293.104L297.638 298.476C297.653 298.611 297.639 298.748 297.597 298.878C297.555 299.007 297.486 299.127 297.395 299.228C297.304 299.329 297.192 299.41 297.067 299.465C296.943 299.52 296.808 299.548 296.672 299.547C294.312 299.507 293.169 299.37 290.189 299.37C288.353 299.37 285.671 299.555 283.142 299.555C280.614 299.555 280.477 297.05 281.532 296.825C286.259 295.81 287.008 294.409 288.594 293.064C288.871 292.834 289.217 292.704 289.577 292.694Z" fill="#263238"/>
<path d="M262.325 292.694H269.098C269.214 292.692 269.327 292.733 269.416 292.809C269.505 292.884 269.563 292.989 269.581 293.104L270.386 298.476C270.401 298.611 270.387 298.748 270.345 298.878C270.303 299.007 270.234 299.127 270.143 299.228C270.052 299.329 269.94 299.41 269.815 299.465C269.691 299.52 269.556 299.548 269.42 299.547C267.06 299.507 265.917 299.37 262.937 299.37C261.101 299.37 257.3 299.555 254.771 299.555C252.242 299.555 252.105 297.05 253.16 296.825C257.888 295.81 259.748 294.409 261.342 293.064C261.619 292.834 261.965 292.704 262.325 292.694Z" fill="#263238"/>
<path d="M262.124 279.398L262.333 286.605H268.373L268.163 279.398H262.124Z" fill="#CE6F64"/>
<path d="M294.046 279.398H288.007L289.013 286.605H295.045L294.046 279.398Z" fill="#CE6F64"/>
<path d="M271.53 99.3684C271.94 105.344 272.238 107.865 269.645 111.303C265.739 116.465 258.314 115.668 256.124 109.934C254.151 104.772 253.813 95.8734 259.305 92.7487C260.513 92.0563 261.878 91.684 263.271 91.6672C264.663 91.6504 266.037 91.9897 267.262 92.6528C268.486 93.3159 269.521 94.2809 270.268 95.4562C271.015 96.6315 271.449 97.9782 271.53 99.3684Z" fill="#E4897B"/>
<path d="M275.009 104.917C278.359 106.785 280.847 102.179 280.847 102.179C280.847 102.179 274.84 102.831 275.379 99.2557C276.088 94.5124 272.689 88.7463 264.169 89.4872C263.694 89.5274 263.243 89.5838 262.8 89.6563C261.908 89.2335 260.899 89.1243 259.938 89.3465C258.976 89.5687 258.117 90.1092 257.501 90.8804C255.085 91.0817 251.823 93.9647 254.038 97.7739C254.194 97.3362 254.434 96.9338 254.747 96.5901C254.932 98.8208 256.881 102.364 259.313 102.598C259.836 105.65 257.807 109.185 258.508 112.374C259.546 116.973 267.302 118.012 267.302 118.012C267.034 117.437 266.935 116.799 267.015 116.171C267.094 115.542 267.35 114.949 267.753 114.46C273.02 116.876 276.49 114.517 276.49 114.517C272.899 113.18 273.986 110.796 273.986 110.796C275.226 111.347 276.631 111.395 277.906 110.931C279.181 110.467 280.227 109.526 280.823 108.307C279.63 108.364 278.446 108.074 277.414 107.472C276.382 106.871 275.547 105.983 275.009 104.917Z" fill="#263238"/>
<path d="M261.415 103.516C261.429 104.089 261.33 104.66 261.122 105.195C260.915 105.73 260.604 106.218 260.207 106.632C259.144 107.736 257.839 106.963 257.485 105.553C257.171 104.281 257.348 102.179 258.733 101.599C259.038 101.479 259.368 101.438 259.693 101.478C260.018 101.518 260.328 101.639 260.594 101.829C260.861 102.02 261.076 102.274 261.219 102.568C261.362 102.863 261.43 103.189 261.415 103.516Z" fill="#E4897B"/>
<path d="M266.432 159.188C266.432 159.188 267.962 198.938 271.602 222.276C274.534 241.137 287.556 285.204 287.556 285.204H295.786C295.786 285.204 288.997 242.643 287.507 224C283.738 176.816 293.523 166.685 284.286 156.86L266.432 159.188Z" fill="#263238"/>
<path d="M273.309 171.759C273.309 171.759 269.589 171.114 267.415 178.201C268.22 191.626 269.597 209.44 271.602 222.276C272.045 225.135 272.722 228.582 273.551 232.359C271.981 209.681 273.309 171.759 273.309 171.759Z" fill="#161F33"/>
<path d="M260.014 160.025C260.014 160.025 253.233 204.004 253.627 222.405C254.038 241.548 261.052 285.22 261.052 285.22H269.21C269.21 285.22 267.922 242.683 268.639 223.887C269.444 203.392 277.811 157.714 277.811 157.714L260.014 160.025Z" fill="#263238"/>
<path d="M296.978 285.591H286.034L285.18 281.918L296.897 281.999L296.978 285.591Z" fill="#8091AF"/>
<path opacity="0.2" d="M296.978 285.591H286.034L285.18 281.918L296.897 281.999L296.978 285.591Z" fill="black"/>
<path d="M283.875 119.993C287.024 120.299 291.808 129.246 291.808 129.246L283.859 135.342C283.859 135.342 277.28 129.568 278.061 126.322C278.874 122.948 280.855 119.711 283.875 119.993Z" fill="#8091AF"/>
<path opacity="0.1" d="M283.875 119.993C287.024 120.299 291.808 129.246 291.808 129.246L283.859 135.342C283.859 135.342 277.28 129.568 278.061 126.322C278.874 122.948 280.855 119.711 283.875 119.993Z" fill="black"/>
<path d="M281.499 123.842C280.697 123.626 279.866 123.533 279.035 123.568C278.613 124.449 278.286 125.372 278.061 126.322C277.255 129.544 283.859 135.342 283.859 135.342L284.447 134.891L281.499 123.842Z" fill="#8091AF"/>
<path opacity="0.3" d="M281.499 123.842C280.697 123.626 279.866 123.533 279.035 123.568C278.613 124.449 278.286 125.372 278.061 126.322C277.255 129.544 283.859 135.342 283.859 135.342L284.447 134.891L281.499 123.842Z" fill="black"/>
<path d="M257.316 132.435C255.021 138.241 252.605 144.144 250.68 149.967C250.551 150.337 250.446 150.691 250.334 151.054L250.06 151.948C249.985 152.211 249.985 152.49 250.06 152.753C250.514 153.76 251.236 154.623 252.146 155.25C254.553 156.977 257.177 158.382 259.949 159.429L259.224 162.393C255.814 161.943 252.516 160.867 249.496 159.22C247.638 158.227 246.124 156.694 245.155 154.823C244.599 153.627 244.406 152.294 244.6 150.989C244.618 150.83 244.645 150.671 244.68 150.514L244.761 150.176L244.898 149.564C244.994 149.153 245.091 148.759 245.196 148.356C246.001 145.135 247.032 142.075 248.119 139.038C249.206 136.002 250.342 133.007 251.622 130.019L257.316 132.435Z" fill="#E4897B"/>
<path d="M252.427 124.285C252.427 124.285 249.705 125.662 260.014 160.025L284.318 156.852C282.611 147.011 281.805 140.915 283.875 119.993C280.39 119.743 276.891 119.743 273.406 119.993C269.695 120.208 266.006 120.693 262.365 121.442C257.702 122.481 252.427 124.285 252.427 124.285Z" fill="#8091AF"/>
<path opacity="0.1" d="M252.427 124.285C252.427 124.285 249.705 125.662 260.014 160.025L284.318 156.852C282.611 147.011 281.805 140.915 283.875 119.993C280.39 119.743 276.891 119.743 273.406 119.993C269.695 120.208 266.006 120.693 262.365 121.442C257.702 122.481 252.427 124.285 252.427 124.285Z" fill="black"/>
<path d="M284.495 155.378L285.889 157.4C285.993 157.561 285.816 157.754 285.542 157.794L260.054 161.128C259.836 161.128 259.635 161.072 259.603 160.935L259.104 158.785C259.063 158.64 259.241 158.487 259.482 158.455L284.093 155.233C284.167 155.222 284.242 155.229 284.313 155.254C284.383 155.279 284.446 155.322 284.495 155.378Z" fill="#8091AF"/>
<path opacity="0.2" d="M284.495 155.378L285.889 157.4C285.993 157.561 285.816 157.754 285.542 157.794L260.054 161.128C259.836 161.128 259.635 161.072 259.603 160.935L259.104 158.785C259.063 158.64 259.241 158.487 259.482 158.455L284.093 155.233C284.167 155.222 284.242 155.229 284.313 155.254C284.383 155.279 284.446 155.322 284.495 155.378Z" fill="black"/>
<path d="M281.548 158.559L282.208 158.471C282.337 158.471 282.426 158.374 282.409 158.294L281.733 155.507C281.707 155.46 281.666 155.422 281.616 155.402C281.566 155.381 281.511 155.379 281.459 155.394L280.799 155.475C280.662 155.475 280.573 155.572 280.597 155.66L281.274 158.439C281.29 158.527 281.419 158.576 281.548 158.559Z" fill="#263238"/>
<path d="M265.57 160.621L266.231 160.532C266.359 160.532 266.456 160.436 266.432 160.355L265.755 157.569C265.729 157.522 265.688 157.485 265.639 157.463C265.589 157.441 265.534 157.436 265.482 157.448L264.821 157.537C264.692 157.537 264.596 157.633 264.62 157.714L265.296 160.5C265.313 160.621 265.441 160.669 265.57 160.621Z" fill="#263238"/>
<path d="M253.563 135.946C254.231 139.055 255.174 142.993 256.551 147.978L256.849 135.342L253.563 135.946Z" fill="#8091AF"/>
<path opacity="0.3" d="M253.563 135.946C254.231 139.055 255.174 142.993 256.551 147.978L256.849 135.342L253.563 135.946Z" fill="black"/>
<path d="M252.428 124.285C249.408 125.501 246.79 135.833 246.79 135.833L257.179 140.891C257.179 140.891 262.196 128.255 259.949 125.791C257.702 123.327 255.907 122.892 252.428 124.285Z" fill="#8091AF"/>
<path opacity="0.1" d="M252.428 124.285C249.408 125.501 246.79 135.833 246.79 135.833L257.179 140.891C257.179 140.891 262.196 128.255 259.949 125.791C257.702 123.327 255.907 122.892 252.428 124.285Z" fill="black"/>
<path d="M270.604 285.591H259.659L258.806 281.918L270.99 281.999L270.604 285.591Z" fill="#8091AF"/>
<path opacity="0.2" d="M270.604 285.591H259.659L258.806 281.918L270.99 281.999L270.604 285.591Z" fill="black"/>
<path d="M260.118 158.431L259.241 158.068C259.025 157.98 258.79 157.951 258.559 157.984C258.328 158.016 258.11 158.109 257.927 158.253C257.744 158.397 257.602 158.587 257.516 158.803C257.43 159.02 257.402 159.255 257.437 159.486L258.073 163.681C258.103 163.891 258.18 164.092 258.298 164.269C258.415 164.445 258.571 164.594 258.752 164.703C258.934 164.812 259.138 164.88 259.349 164.901C259.56 164.922 259.774 164.896 259.973 164.825C260.293 164.709 260.592 164.543 260.859 164.334C261.151 164.092 261.381 163.785 261.532 163.439C261.683 163.092 261.751 162.714 261.729 162.336L261.64 160.597C261.625 160.127 261.473 159.671 261.203 159.287C260.932 158.902 260.555 158.604 260.118 158.431Z" fill="#E4897B"/>
</svg>
