<svg width="71" height="41" viewBox="0 0 71 41" fill="none" xmlns="http://www.w3.org/2000/svg">
<path d="M58.2656 12.2383H12.2656C11.1611 12.2383 10.2656 13.1337 10.2656 14.2383V26.2383C10.2656 27.3429 11.1611 28.2383 12.2656 28.2383H58.2656C59.3702 28.2383 60.2656 27.3429 60.2656 26.2383V14.2383C60.2656 13.1337 59.3702 12.2383 58.2656 12.2383Z" fill="#DEDFE3"/>
<path d="M3.26562 23.2383C4.92248 23.2383 6.26562 21.8951 6.26562 20.2383C6.26562 18.5814 4.92248 17.2383 3.26562 17.2383C1.60877 17.2383 0.265625 18.5814 0.265625 20.2383C0.265625 21.8951 1.60877 23.2383 3.26562 23.2383Z" fill="#00A287"/>
<path d="M35.2656 8.23828C36.9225 8.23828 38.2656 6.89514 38.2656 5.23828C38.2656 3.58143 36.9225 2.23828 35.2656 2.23828C33.6088 2.23828 32.2656 3.58143 32.2656 5.23828C32.2656 6.89514 33.6088 8.23828 35.2656 8.23828Z" fill="#00A287"/>
<path d="M35.2656 38.2383C36.9225 38.2383 38.2656 36.8951 38.2656 35.2383C38.2656 33.5814 36.9225 32.2383 35.2656 32.2383C33.6088 32.2383 32.2656 33.5814 32.2656 35.2383C32.2656 36.8951 33.6088 38.2383 35.2656 38.2383Z" fill="#00A287"/>
<path d="M19.2656 8.23828C20.9225 8.23828 22.2656 6.89514 22.2656 5.23828C22.2656 3.58143 20.9225 2.23828 19.2656 2.23828C17.6088 2.23828 16.2656 3.58143 16.2656 5.23828C16.2656 6.89514 17.6088 8.23828 19.2656 8.23828Z" fill="#00A287"/>
<path d="M19.2656 38.2383C20.9225 38.2383 22.2656 36.8951 22.2656 35.2383C22.2656 33.5814 20.9225 32.2383 19.2656 32.2383C17.6088 32.2383 16.2656 33.5814 16.2656 35.2383C16.2656 36.8951 17.6088 38.2383 19.2656 38.2383Z" fill="#00A287"/>
<path d="M51.2656 8.23828C52.9225 8.23828 54.2656 6.89514 54.2656 5.23828C54.2656 3.58143 52.9225 2.23828 51.2656 2.23828C49.6088 2.23828 48.2656 3.58143 48.2656 5.23828C48.2656 6.89514 49.6088 8.23828 51.2656 8.23828Z" fill="#00A287"/>
<path d="M51.2656 38.2383C52.9225 38.2383 54.2656 36.8951 54.2656 35.2383C54.2656 33.5814 52.9225 32.2383 51.2656 32.2383C49.6088 32.2383 48.2656 33.5814 48.2656 35.2383C48.2656 36.8951 49.6088 38.2383 51.2656 38.2383Z" fill="#00A287"/>
<path d="M67.2656 23.2383C68.9225 23.2383 70.2656 21.8951 70.2656 20.2383C70.2656 18.5814 68.9225 17.2383 67.2656 17.2383C65.6088 17.2383 64.2656 18.5814 64.2656 20.2383C64.2656 21.8951 65.6088 23.2383 67.2656 23.2383Z" fill="#00A287"/>
</svg>
