<svg width="60" height="44" viewBox="0 0 60 44" fill="none" xmlns="http://www.w3.org/2000/svg">
<path d="M2.6 30.3001C2.6 29.5821 2.01797 29.0001 1.3 29.0001C0.582031 29.0001 0 29.5821 0 30.3001C0 31.0181 0.582031 31.6001 1.3 31.6001C2.01797 31.6001 2.6 31.0181 2.6 30.3001Z" fill="#8091AF"/>
<path d="M2.6 24.0188C2.6 23.3009 2.01797 22.7188 1.3 22.7188C0.582031 22.7188 0 23.3009 0 24.0188C0 24.7368 0.582031 25.3188 1.3 25.3188C2.01797 25.3188 2.6 24.7368 2.6 24.0188Z" fill="#8091AF"/>
<path d="M2.6 17.8392C2.6 17.1212 2.01797 16.5392 1.3 16.5392C0.582031 16.5392 0 17.1212 0 17.8392C0 18.5571 0.582031 19.1392 1.3 19.1392C2.01797 19.1392 2.6 18.5571 2.6 17.8392Z" fill="#8091AF"/>
<path d="M2.6 11.4017C2.6 10.6837 2.01797 10.1017 1.3 10.1017C0.582031 10.1017 0 10.6837 0 11.4017C0 12.1196 0.582031 12.7017 1.3 12.7017C2.01797 12.7017 2.6 12.1196 2.6 11.4017Z" fill="#8091AF"/>
<path d="M59.5219 30.3001C59.5219 29.5821 58.9398 29.0001 58.2219 29.0001C57.5039 29.0001 56.9219 29.5821 56.9219 30.3001C56.9219 31.0181 57.5039 31.6001 58.2219 31.6001C58.9398 31.6001 59.5219 31.0181 59.5219 30.3001Z" fill="#8091AF"/>
<path d="M59.5219 24.0188C59.5219 23.3009 58.9398 22.7188 58.2219 22.7188C57.5039 22.7188 56.9219 23.3009 56.9219 24.0188C56.9219 24.7368 57.5039 25.3188 58.2219 25.3188C58.9398 25.3188 59.5219 24.7368 59.5219 24.0188Z" fill="#8091AF"/>
<path d="M59.5219 17.8392C59.5219 17.1212 58.9398 16.5392 58.2219 16.5392C57.5039 16.5392 56.9219 17.1212 56.9219 17.8392C56.9219 18.5571 57.5039 19.1392 58.2219 19.1392C58.9398 19.1392 59.5219 18.5571 59.5219 17.8392Z" fill="#8091AF"/>
<path d="M59.5219 11.4017C59.5219 10.6837 58.9398 10.1017 58.2219 10.1017C57.5039 10.1017 56.9219 10.6837 56.9219 11.4017C56.9219 12.1196 57.5039 12.7017 58.2219 12.7017C58.9398 12.7017 59.5219 12.1196 59.5219 11.4017Z" fill="#8091AF"/>
<path d="M15.4672 1.3001C15.4672 0.582132 14.8852 9.91821e-05 14.1672 9.91821e-05C13.4492 9.91821e-05 12.8672 0.582132 12.8672 1.3001C12.8672 2.01807 13.4492 2.6001 14.1672 2.6001C14.8852 2.6001 15.4672 2.01807 15.4672 1.3001Z" fill="#8091AF"/>
<path d="M22.2797 1.3001C22.2797 0.582132 21.6977 9.91821e-05 20.9797 9.91821e-05C20.2617 9.91821e-05 19.6797 0.582132 19.6797 1.3001C19.6797 2.01807 20.2617 2.6001 20.9797 2.6001C21.6977 2.6001 22.2797 2.01807 22.2797 1.3001Z" fill="#8091AF"/>
<path d="M29.0922 1.3001C29.0922 0.582132 28.5102 9.91821e-05 27.7922 9.91821e-05C27.0742 9.91821e-05 26.4922 0.582132 26.4922 1.3001C26.4922 2.01807 27.0742 2.6001 27.7922 2.6001C28.5102 2.6001 29.0922 2.01807 29.0922 1.3001Z" fill="#8091AF"/>
<path d="M35.2562 1.3001C35.2562 0.582132 34.6742 9.91821e-05 33.9562 9.91821e-05C33.2383 9.91821e-05 32.6562 0.582132 32.6562 1.3001C32.6562 2.01807 33.2383 2.6001 33.9562 2.6001C34.6742 2.6001 35.2562 2.01807 35.2562 1.3001Z" fill="#8091AF"/>
<path d="M41.7094 1.3001C41.7094 0.582132 41.1273 9.91821e-05 40.4094 9.91821e-05C39.6914 9.91821e-05 39.1094 0.582132 39.1094 1.3001C39.1094 2.01807 39.6914 2.6001 40.4094 2.6001C41.1273 2.6001 41.7094 2.01807 41.7094 1.3001Z" fill="#8091AF"/>
<path d="M48.1625 1.3001C48.1625 0.582132 47.5805 9.91821e-05 46.8625 9.91821e-05C46.1445 9.91821e-05 45.5625 0.582132 45.5625 1.3001C45.5625 2.01807 46.1445 2.6001 46.8625 2.6001C47.5805 2.6001 48.1625 2.01807 48.1625 1.3001Z" fill="#8091AF"/>
<path d="M15.4672 41.7298C15.4672 41.0118 14.8852 40.4298 14.1672 40.4298C13.4492 40.4298 12.8672 41.0118 12.8672 41.7298C12.8672 42.4478 13.4492 43.0298 14.1672 43.0298C14.8852 43.0298 15.4672 42.4478 15.4672 41.7298Z" fill="#8091AF"/>
<path d="M22.2797 41.7298C22.2797 41.0118 21.6977 40.4298 20.9797 40.4298C20.2617 40.4298 19.6797 41.0118 19.6797 41.7298C19.6797 42.4478 20.2617 43.0298 20.9797 43.0298C21.6977 43.0298 22.2797 42.4478 22.2797 41.7298Z" fill="#8091AF"/>
<path d="M29.0922 41.7298C29.0922 41.0118 28.5102 40.4298 27.7922 40.4298C27.0742 40.4298 26.4922 41.0118 26.4922 41.7298C26.4922 42.4478 27.0742 43.0298 27.7922 43.0298C28.5102 43.0298 29.0922 42.4478 29.0922 41.7298Z" fill="#8091AF"/>
<path d="M35.2562 41.7298C35.2562 41.0118 34.6742 40.4298 33.9562 40.4298C33.2383 40.4298 32.6562 41.0118 32.6562 41.7298C32.6562 42.4478 33.2383 43.0298 33.9562 43.0298C34.6742 43.0298 35.2562 42.4478 35.2562 41.7298Z" fill="#8091AF"/>
<path d="M41.7094 41.7298C41.7094 41.0118 41.1273 40.4298 40.4094 40.4298C39.6914 40.4298 39.1094 41.0118 39.1094 41.7298C39.1094 42.4478 39.6914 43.0298 40.4094 43.0298C41.1273 43.0298 41.7094 42.4478 41.7094 41.7298Z" fill="#8091AF"/>
<path d="M48.1625 41.7298C48.1625 41.0118 47.5805 40.4298 46.8625 40.4298C46.1445 40.4298 45.5625 41.0118 45.5625 41.7298C45.5625 42.4478 46.1445 43.0298 46.8625 43.0298C47.5805 43.0298 48.1625 42.4478 48.1625 41.7298Z" fill="#8091AF"/>
<path d="M54.8231 4.28666L54.8231 37.8267L4.70312 37.8267L4.70313 4.28666L54.8231 4.28666ZM49.8231 32.8267L49.8231 9.28666L9.70313 9.28666L9.70312 32.8267L49.8231 32.8267Z" fill="#8091AF"/>
</svg>
