<svg width="79" height="31" viewBox="0 0 79 31" fill="none" xmlns="http://www.w3.org/2000/svg">
<path d="M18.6871 30.5698C25.6939 30.5698 31.3741 25.0697 31.3741 18.2849C31.3741 11.5001 25.6939 6 18.6871 6C11.6802 6 6 11.5001 6 18.2849C6 25.0697 11.6802 30.5698 18.6871 30.5698Z" fill="#8091AF"/>
<path d="M7.28437 8.42393C8.54599 8.42393 9.56874 7.4336 9.56874 6.21196C9.56874 4.99033 8.54599 4 7.28437 4C6.02275 4 5 4.99033 5 6.21196C5 7.4336 6.02275 8.42393 7.28437 8.42393Z" fill="#8091AF"/>
<path d="M18.2844 4.42393C19.546 4.42393 20.5687 3.43359 20.5687 2.21196C20.5687 0.990328 19.546 0 18.2844 0C17.0228 0 16 0.990328 16 2.21196C16 3.43359 17.0228 4.42393 18.2844 4.42393Z" fill="#8091AF"/>
<path d="M29.2844 8.42392C30.546 8.42392 31.5687 7.43359 31.5687 6.21196C31.5687 4.99033 30.546 4 29.2844 4C28.0227 4 27 4.99033 27 6.21196C27 7.43359 28.0227 8.42392 29.2844 8.42392Z" fill="#8091AF"/>
<path d="M34.2844 17.4239C35.546 17.4239 36.5687 16.4336 36.5687 15.212C36.5687 13.9903 35.546 13 34.2844 13C33.0227 13 32 13.9903 32 15.212C32 16.4336 33.0227 17.4239 34.2844 17.4239Z" fill="#8091AF"/>
<path d="M2.28437 17.4239C3.54599 17.4239 4.56874 16.4336 4.56874 15.212C4.56874 13.9903 3.54599 13 2.28437 13C1.02275 13 0 13.9903 0 15.212C0 16.4336 1.02275 17.4239 2.28437 17.4239Z" fill="#8091AF"/>
<path d="M60.6871 30.5698C67.6939 30.5698 73.3741 25.0697 73.3741 18.2849C73.3741 11.5001 67.6939 6 60.6871 6C53.6802 6 48 11.5001 48 18.2849C48 25.0697 53.6802 30.5698 60.6871 30.5698Z" fill="#8091AF"/>
<path d="M49.2844 8.42393C50.546 8.42393 51.5687 7.4336 51.5687 6.21196C51.5687 4.99033 50.546 4 49.2844 4C48.0227 4 47 4.99033 47 6.21196C47 7.4336 48.0227 8.42393 49.2844 8.42393Z" fill="#8091AF"/>
<path d="M60.2844 4.42393C61.546 4.42393 62.5687 3.43359 62.5687 2.21196C62.5687 0.990328 61.546 0 60.2844 0C59.0228 0 58 0.990328 58 2.21196C58 3.43359 59.0228 4.42393 60.2844 4.42393Z" fill="#8091AF"/>
<path d="M71.2844 8.42392C72.546 8.42392 73.5687 7.43359 73.5687 6.21196C73.5687 4.99033 72.546 4 71.2844 4C70.0227 4 69 4.99033 69 6.21196C69 7.43359 70.0227 8.42392 71.2844 8.42392Z" fill="#8091AF"/>
<path d="M76.2844 17.4239C77.546 17.4239 78.5687 16.4336 78.5687 15.212C78.5687 13.9903 77.546 13 76.2844 13C75.0227 13 74 13.9903 74 15.212C74 16.4336 75.0227 17.4239 76.2844 17.4239Z" fill="#8091AF"/>
<path d="M44.2844 17.4239C45.546 17.4239 46.5687 16.4336 46.5687 15.212C46.5687 13.9903 45.546 13 44.2844 13C43.0227 13 42 13.9903 42 15.212C42 16.4336 43.0227 17.4239 44.2844 17.4239Z" fill="#8091AF"/>
</svg>
