<svg width="21" height="20" viewBox="0 0 21 20" fill="none" xmlns="http://www.w3.org/2000/svg">
<g clip-path="url(#clip0_4369_4387)">
<path d="M4.13477 5.83341C4.13477 5.39139 4.31036 4.96746 4.62292 4.6549C4.93548 4.34234 5.3594 4.16675 5.80143 4.16675H15.8014C16.2435 4.16675 16.6674 4.34234 16.9799 4.6549C17.2925 4.96746 17.4681 5.39139 17.4681 5.83341V15.8334C17.4681 16.2754 17.2925 16.6994 16.9799 17.0119C16.6674 17.3245 16.2435 17.5001 15.8014 17.5001H5.80143C5.3594 17.5001 4.93548 17.3245 4.62292 17.0119C4.31036 16.6994 4.13477 16.2754 4.13477 15.8334V5.83341Z" stroke="#373941" stroke-width="1.5" stroke-linecap="round" stroke-linejoin="round"/>
<path d="M14.1348 2.5V5.83333" stroke="#373941" stroke-width="1.5" stroke-linecap="round" stroke-linejoin="round"/>
<path d="M7.4668 2.5V5.83333" stroke="#373941" stroke-width="1.5" stroke-linecap="round" stroke-linejoin="round"/>
<path d="M4.13477 9.16675H17.4681" stroke="#373941" stroke-width="1.5" stroke-linecap="round" stroke-linejoin="round"/>
<path d="M7.4668 12.5H9.13346V14.1667H7.4668V12.5Z" stroke="#373941" stroke-width="1.5" stroke-linecap="round" stroke-linejoin="round"/>
</g>
<defs>
<clipPath id="clip0_4369_4387">
<rect width="20" height="20" fill="white" transform="translate(0.800781)"/>
</clipPath>
</defs>
</svg>
