<svg xmlns="http://www.w3.org/2000/svg" xmlns:xlink="http://www.w3.org/1999/xlink" version="1.1" x="0px" y="0px" 
viewBox="0 0 100 125" style="enable-background:new 0 0 100 100;" xml:space="preserve"><circle cx="23.39" cy="34.96" 
r="1.3"/><circle cx="28.84" cy="34.96" r="1.3"/><rect x="19.86" y="27.08" width="12.51" height="5.9"/><circle cx="23.39" 
cy="47.84" r="1.3"/><circle cx="28.84" cy="47.84" r="1.3"/><rect x="19.86" y="39.96" width="12.51" height="5.9"/><circle 
cx="23.39" cy="60.1" r="1.3"/><circle cx="28.84" cy="60.1" r="1.3"/><rect x="19.86" y="52.22" width="12.51" height="5.9"/>
<circle cx="23.39" cy="72.77" r="1.3"/><circle cx="28.84" cy="72.77" r="1.3"/><rect x="19.86" y="64.9" width="12.51" 
height="5.9"/><circle cx="23.39" cy="86" r="1.3"/><circle cx="28.84" cy="86" r="1.3"/><rect x="19.86" y="78.12" width="12.51" 
height="5.9"/><circle cx="39.56" cy="34.96" r="1.3"/><circle cx="45" cy="34.96" r="1.3"/><rect x="36.03" y="27.08" width="12.51" 
height="5.9"/><circle cx="39.56" cy="47.84" r="1.3"/><circle cx="45" cy="47.84" r="1.3"/><rect x="36.03" y="39.96" width="12.51" 
height="5.9"/><circle cx="39.56" cy="60.1" r="1.3"/><circle cx="45" cy="60.1" r="1.3"/><rect x="36.03" y="52.22" width="12.51" 
height="5.9"/><circle cx="39.56" cy="72.77" r="1.3"/><circle cx="45" cy="72.77" r="1.3"/><rect x="36.03" y="64.9" width="12.51" 
height="5.9"/><circle cx="39.56" cy="86" r="1.3"/><circle cx="45" cy="86" r="1.3"/><rect x="36.03" y="78.12" width="12.51" 
height="5.9"/><circle cx="55.36" cy="34.96" r="1.3"/><circle cx="60.81" cy="34.96" r="1.3"/><rect x="51.83" y="27.08" 
width="12.51" height="5.9"/><rect x="38.26" y="11.07" width="23.48" height="5.9"/><circle cx="55.36" cy="47.84" r="1.3"/>
<circle cx="60.81" cy="47.84" r="1.3"/><rect x="51.83" y="39.96" width="12.51" height="5.9"/><circle cx="55.36" cy="60.1" 
r="1.3"/><circle cx="60.81" cy="60.1" r="1.3"/><rect x="51.83" y="52.22" width="12.51" height="5.9"/><circle cx="55.36" 
cy="72.77" r="1.3"/><circle cx="60.81" cy="72.77" r="1.3"/><rect x="51.83" y="64.9" width="12.51" height="5.9"/><circle 
cx="55.36" cy="86" r="1.3"/><circle cx="60.81" cy="86" r="1.3"/><rect x="51.83" y="78.12" width="12.51" height="5.9"/>
<circle cx="71.16" cy="34.96" r="1.3"/><circle cx="76.61" cy="34.96" r="1.3"/><rect x="67.63" y="27.08" width="12.51" 
height="5.9"/><circle cx="71.16" cy="47.84" r="1.3"/><circle cx="76.61" cy="47.84" r="1.3"/><rect x="67.63" y="39.96" 
width="12.51" height="5.9"/><circle cx="71.16" cy="60.1" r="1.3"/><circle cx="76.61" cy="60.1" r="1.3"/><rect x="67.63" 
y="52.22" width="12.51" height="5.9"/><circle cx="71.16" cy="72.77" r="1.3"/><circle cx="76.61" cy="72.77" r="1.3"/>
<rect x="67.63" y="64.9" width="12.51" height="5.9"/><circle cx="71.16" cy="86" r="1.3"/><circle cx="76.61" cy="86" r="1.3"/>
<rect x="67.63" y="78.12" width="12.51" height="5.9"/></svg>