<svg width="54" height="54" viewBox="0 0 54 54" fill="none" xmlns="http://www.w3.org/2000/svg">
<rect width="54" height="54" rx="6" fill="#DEDFE3"/>
<g clip-path="url(#clip0_4849_4973)">
<path d="M27.7068 17.293L36.7068 26.293C37.3368 26.923 36.8908 28 35.9998 28H34.9998V34C34.9998 34.7956 34.6837 35.5587 34.1211 36.1213C33.5585 36.6839 32.7954 37 31.9998 37H30.9998V30C30.9998 29.2348 30.7075 28.4985 30.1825 27.9417C29.6576 27.385 28.9397 27.0499 28.1758 27.005L27.9998 27H25.9998C25.2041 27 24.4411 27.3161 23.8785 27.8787C23.3159 28.4413 22.9998 29.2044 22.9998 30V37H21.9998C21.2041 37 20.4411 36.6839 19.8785 36.1213C19.3159 35.5587 18.9998 34.7956 18.9998 34V28H17.9998C17.1098 28 16.6628 26.923 17.2928 26.293L26.2928 17.293C26.4803 17.1055 26.7346 17.0002 26.9998 17.0002C27.265 17.0002 27.5193 17.1055 27.7068 17.293ZM27.9998 29C28.265 29 28.5194 29.1054 28.7069 29.2929C28.8944 29.4804 28.9998 29.7348 28.9998 30V37H24.9998V30C24.9998 29.7551 25.0898 29.5187 25.2525 29.3356C25.4153 29.1526 25.6395 29.0357 25.8828 29.007L25.9998 29H27.9998Z" fill="#555763"/>
</g>
<defs>
<clipPath id="clip0_4849_4973">
<rect width="24" height="24" fill="white" transform="translate(15 15)"/>
</clipPath>
</defs>
</svg>