<svg width="71" height="41" viewBox="0 0 71 41" fill="none" xmlns="http://www.w3.org/2000/svg">
<path d="M43.2656 20.7383C43.2656 16.32 39.6839 12.7383 35.2656 12.7383C30.8473 12.7383 27.2656 16.32 27.2656 20.7383C27.2656 25.1566 30.8473 28.7383 35.2656 28.7383C39.6839 28.7383 43.2656 25.1566 43.2656 20.7383Z" fill="#DEDFE3"/>
<path d="M20.2656 23.7383C21.9225 23.7383 23.2656 22.3951 23.2656 20.7383C23.2656 19.0814 21.9225 17.7383 20.2656 17.7383C18.6088 17.7383 17.2656 19.0814 17.2656 20.7383C17.2656 22.3951 18.6088 23.7383 20.2656 23.7383Z" fill="#00A287"/>
<path d="M50.2656 23.7383C51.9225 23.7383 53.2656 22.3951 53.2656 20.7383C53.2656 19.0814 51.9225 17.7383 50.2656 17.7383C48.6088 17.7383 47.2656 19.0814 47.2656 20.7383C47.2656 22.3951 48.6088 23.7383 50.2656 23.7383Z" fill="#00A287"/>
<path d="M32.2656 5.73828C32.2656 7.39514 33.6088 8.73828 35.2656 8.73828C36.9225 8.73828 38.2656 7.39514 38.2656 5.73828C38.2656 4.08143 36.9225 2.73828 35.2656 2.73828C33.6088 2.73828 32.2656 4.08143 32.2656 5.73828Z" fill="#00A287"/>
<path d="M32.2656 35.7383C32.2656 37.3951 33.6088 38.7383 35.2656 38.7383C36.9225 38.7383 38.2656 37.3951 38.2656 35.7383C38.2656 34.0814 36.9225 32.7383 35.2656 32.7383C33.6088 32.7383 32.2656 34.0814 32.2656 35.7383Z" fill="#00A287"/>
<path d="M22.5349 12.2526C23.7065 13.4242 25.606 13.4242 26.7776 12.2526C27.9491 11.0811 27.9491 9.18157 26.7776 8.00999C25.606 6.83842 23.7065 6.83842 22.5349 8.00999C21.3634 9.18157 21.3634 11.0811 22.5349 12.2526Z" fill="#00A287"/>
<path d="M43.7537 33.4665C44.9253 34.6381 46.8247 34.6381 47.9963 33.4665C49.1679 32.2949 49.1679 30.3954 47.9963 29.2239C46.8247 28.0523 44.9253 28.0523 43.7537 29.2239C42.5821 30.3954 42.5821 32.2949 43.7537 33.4665Z" fill="#00A287"/>
<path d="M43.7532 8.01052C42.5817 9.18209 42.5817 11.0816 43.7532 12.2532C44.9248 13.4247 46.8243 13.4247 47.9959 12.2532C49.1674 11.0816 49.1674 9.18209 47.9959 8.01052C46.8243 6.83894 44.9248 6.83894 43.7532 8.01052Z" fill="#00A287"/>
<path d="M22.5345 29.2234C21.3629 30.395 21.3629 32.2945 22.5345 33.466C23.706 34.6376 25.6055 34.6376 26.7771 33.466C27.9487 32.2945 27.9487 30.395 26.7771 29.2234C25.6055 28.0518 23.706 28.0518 22.5345 29.2234Z" fill="#00A287"/>
</svg>
