<svg width="35" height="36" viewBox="0 0 35 36" fill="none" xmlns="http://www.w3.org/2000/svg">
<path d="M17.7496 29.9698C24.7564 29.9698 30.4366 24.4697 30.4366 17.6849C30.4366 10.9002 24.7564 5.40002 17.7496 5.40002C10.7427 5.40002 5.0625 10.9002 5.0625 17.6849C5.0625 24.4697 10.7427 29.9698 17.7496 29.9698Z" fill="#8091AF"/>
<path d="M6.87031 8.80332C8.13193 8.80332 9.15468 7.81299 9.15468 6.59136C9.15468 5.36973 8.13193 4.37939 6.87031 4.37939C5.60868 4.37939 4.58594 5.36973 4.58594 6.59136C4.58594 7.81299 5.60868 8.80332 6.87031 8.80332Z" fill="#8091AF"/>
<path d="M16.8234 4.92393C18.0851 4.92393 19.1078 3.93359 19.1078 2.71196C19.1078 1.49033 18.0851 0.5 16.8234 0.5C15.5618 0.5 14.5391 1.49033 14.5391 2.71196C14.5391 3.93359 15.5618 4.92393 16.8234 4.92393Z" fill="#8091AF"/>
<path d="M26.5578 7.35678C27.8194 7.35678 28.8422 6.36646 28.8422 5.14482C28.8422 3.92319 27.8194 2.93286 26.5578 2.93286C25.2962 2.93286 24.2734 3.92319 24.2734 5.14482C24.2734 6.36646 25.2962 7.35678 26.5578 7.35678Z" fill="#8091AF"/>
<path d="M32.2766 14.5202C33.5382 14.5202 34.5609 13.5299 34.5609 12.3083C34.5609 11.0866 33.5382 10.0963 32.2766 10.0963C31.0149 10.0963 29.9922 11.0866 29.9922 12.3083C29.9922 13.5299 31.0149 14.5202 32.2766 14.5202Z" fill="#8091AF"/>
<path d="M32.7141 23.3003C33.9757 23.3003 34.9984 22.3099 34.9984 21.0883C34.9984 19.8667 33.9757 18.8763 32.7141 18.8763C31.4524 18.8763 30.4297 19.8667 30.4297 21.0883C30.4297 22.3099 31.4524 23.3003 32.7141 23.3003Z" fill="#8091AF"/>
<path d="M2.28437 18.4851C3.54599 18.4851 4.56874 17.4948 4.56874 16.2731C4.56874 15.0515 3.54599 14.0612 2.28437 14.0612C1.02275 14.0612 0 15.0515 0 16.2731C0 17.4948 1.02275 18.4851 2.28437 18.4851Z" fill="#8091AF"/>
<path d="M4.22187 27.7239C5.48349 27.7239 6.50624 26.7335 6.50624 25.5119C6.50624 24.2903 5.48349 23.2999 4.22187 23.2999C2.96025 23.2999 1.9375 24.2903 1.9375 25.5119C1.9375 26.7335 2.96025 27.7239 4.22187 27.7239Z" fill="#8091AF"/>
<path d="M10.9484 34.0707C12.2101 34.0707 13.2328 33.0803 13.2328 31.8587C13.2328 30.6371 12.2101 29.6467 10.9484 29.6467C9.68681 29.6467 8.66406 30.6371 8.66406 31.8587C8.66406 33.0803 9.68681 34.0707 10.9484 34.0707Z" fill="#8091AF"/>
<path d="M19.9094 35.5001C21.171 35.5001 22.1937 34.5098 22.1937 33.2881C22.1937 32.0665 21.171 31.0762 19.9094 31.0762C18.6477 31.0762 17.625 32.0665 17.625 33.2881C17.625 34.5098 18.6477 35.5001 19.9094 35.5001Z" fill="#8091AF"/>
<path d="M27.7062 32.3353C28.9679 32.3353 29.9906 31.345 29.9906 30.1233C29.9906 28.9017 28.9679 27.9114 27.7062 27.9114C26.4446 27.9114 25.4219 28.9017 25.4219 30.1233C25.4219 31.345 26.4446 32.3353 27.7062 32.3353Z" fill="#8091AF"/>
</svg>
