<svg width="409" height="304" viewBox="0 0 409 304" fill="none" xmlns="http://www.w3.org/2000/svg">
<path d="M408.388 267.15H0.400391V267.354H408.388V267.15Z" fill="#EBEBEB"/>
<path d="M257.979 272.707H237.204V272.911H257.979V272.707Z" fill="#EBEBEB"/>
<path d="M372.028 277.122H322.801V277.326H372.028V277.122Z" fill="#EBEBEB"/>
<path d="M232.783 272.805H181.923V273.009H232.783V272.805Z" fill="#EBEBEB"/>
<path d="M148.942 278.909H138.301V279.113H148.942V278.909Z" fill="#EBEBEB"/>
<path d="M207.731 278.909H159.279V279.113H207.731V278.909Z" fill="#EBEBEB"/>
<path d="M74.582 275.465H43.2078V275.669H74.582V275.465Z" fill="#EBEBEB"/>
<path d="M193.786 230.758H36.2289C34.9947 230.756 33.8117 230.264 32.9397 229.39C32.0676 228.517 31.5779 227.333 31.5779 226.099V4.61842C31.5886 3.39122 32.0831 2.2178 32.954 1.35307C33.8248 0.488327 35.0017 0.00210227 36.2289 0H193.786C195.021 0 196.207 0.490881 197.08 1.36465C197.954 2.23843 198.445 3.42352 198.445 4.65922V226.099C198.445 227.334 197.954 228.52 197.08 229.393C196.207 230.267 195.021 230.758 193.786 230.758ZM36.2289 0.163196C35.0488 0.165357 33.9176 0.635698 33.0839 1.47098C32.2501 2.30626 31.7819 3.43824 31.7819 4.61842V226.099C31.7819 227.279 32.2501 228.411 33.0839 229.246C33.9176 230.081 35.0488 230.552 36.2289 230.554H193.786C194.967 230.552 196.099 230.082 196.934 229.247C197.769 228.412 198.239 227.28 198.241 226.099V4.61842C198.239 3.43749 197.769 2.30553 196.934 1.47048C196.099 0.635433 194.967 0.165353 193.786 0.163196H36.2289Z" fill="#EBEBEB"/>
<path d="M370.29 230.758H212.725C211.49 230.756 210.307 230.264 209.433 229.391C208.56 228.518 208.068 227.334 208.066 226.099V4.61842C208.079 3.39047 208.575 2.21707 209.448 1.35256C210.32 0.488042 211.497 0.00207934 212.725 0H370.29C371.516 0.00424674 372.691 0.491421 373.56 1.35593C374.429 2.22044 374.923 3.39263 374.933 4.61842V226.099C374.933 227.332 374.445 228.514 373.574 229.388C372.704 230.261 371.523 230.754 370.29 230.758ZM212.725 0.163196C211.544 0.165353 210.412 0.635433 209.577 1.47048C208.742 2.30553 208.272 3.43749 208.27 4.61842V226.099C208.272 227.28 208.742 228.412 209.577 229.247C210.412 230.082 211.544 230.552 212.725 230.554H370.29C371.471 230.552 372.603 230.082 373.438 229.247C374.273 228.412 374.743 227.28 374.746 226.099V4.61842C374.743 3.43749 374.273 2.30553 373.438 1.47048C372.603 0.635433 371.471 0.165353 370.29 0.163196H212.725Z" fill="#EBEBEB"/>
<path d="M160.298 196.381H106.117L102.829 158.438H157.01L160.298 196.381Z" fill="#E6E6E6"/>
<path d="M163.107 196.381H108.926L105.637 158.438H159.818L163.107 196.381Z" fill="#F0F0F0"/>
<path d="M116.334 188.229L114.523 166.582H152.409L154.22 188.229H116.334Z" fill="white"/>
<path d="M172.483 196.381H166.126V267.151H172.483V196.381Z" fill="#E6E6E6"/>
<path d="M174.488 196.381H170.074V267.151H174.488V196.381Z" fill="#F0F0F0"/>
<path d="M112.957 204.19H174.49V196.381H112.957V204.19Z" fill="#F0F0F0"/>
<path d="M115.126 204.19H108.769V267.151H115.126V204.19Z" fill="#E6E6E6"/>
<path d="M117.133 204.19H112.719V267.151H117.133V204.19Z" fill="#F0F0F0"/>
<path d="M69.8804 204.19H63.5239V267.151H69.8804V204.19Z" fill="#E6E6E6"/>
<path d="M71.8881 204.19H67.4736V267.151H71.8881V204.19Z" fill="#F0F0F0"/>
<path d="M132.254 204.19H125.897V267.151H132.254V204.19Z" fill="#E6E6E6"/>
<path d="M134.252 204.19H129.838V267.151H134.252V204.19Z" fill="#F0F0F0"/>
<path d="M112.956 196.381H63.5239V204.19H112.956V196.381Z" fill="#E6E6E6"/>
<path d="M297.285 19.918H106.078V126.37H297.285V19.918Z" fill="#E0E0E0"/>
<path d="M307.786 19.918H107.04V126.37H307.786V19.918Z" fill="#F5F5F5"/>
<path d="M304.507 123.09V23.1982L110.321 23.1982V123.09L304.507 123.09Z" fill="white"/>
<path d="M188.949 123.09L225.611 23.1982H165.106L128.445 123.09H188.949Z" fill="#F5F5F5"/>
<path d="M247.184 123.09L283.846 23.1982H238.2L201.538 123.09H247.184Z" fill="#F5F5F5"/>
<path d="M357.887 165.48H341.632V267.151H357.887V165.48Z" fill="#E6E6E6"/>
<path d="M353.611 267.151H357.887V259.325H349.132L353.611 267.151Z" fill="#FAFAFA"/>
<path d="M208.025 165.48H191.771V267.151H208.025V165.48Z" fill="#E6E6E6"/>
<path d="M357.888 165.48H204.297V265.037H357.888V165.48Z" fill="#FAFAFA"/>
<path d="M354.981 197.605H207.208V169.486H354.981V197.605ZM208.024 196.789H354.165V170.302H208.024V196.789Z" fill="#E6E6E6"/>
<path d="M328.969 183.138H236.086C231.778 183.138 227.625 179.662 224.663 173.591L224.385 173.011H340.662L340.384 173.591C337.398 179.662 333.318 183.138 328.969 183.138ZM225.723 173.803C228.481 179.213 232.251 182.297 236.086 182.297H328.969C332.82 182.297 336.574 179.213 339.332 173.803H225.723Z" fill="#E6E6E6"/>
<path d="M208.573 267.151H204.297V259.325H213.053L208.573 267.151Z" fill="#FAFAFA"/>
<path d="M354.981 229.289H207.208V201.203H354.981V229.289ZM208.024 228.473H354.165V202.019H208.024V228.473Z" fill="#E6E6E6"/>
<path d="M328.969 214.855H236.086C231.778 214.855 227.625 211.37 224.663 205.308L224.385 204.72H340.662L340.384 205.308C337.398 211.338 333.318 214.855 328.969 214.855ZM225.723 205.536C228.481 210.946 232.251 214.039 236.086 214.039H328.969C332.82 214.039 336.574 210.946 339.332 205.536H225.723Z" fill="#E6E6E6"/>
<path d="M354.981 261.031H207.208V232.912H354.981V261.031ZM208.024 260.215H354.165V233.728H208.024V260.215Z" fill="#E6E6E6"/>
<path d="M328.969 246.563H236.086C231.778 246.563 227.625 243.087 224.663 237.025L224.385 236.437H340.662L340.384 237.025C337.398 243.087 333.318 246.563 328.969 246.563ZM225.723 237.253C228.481 242.663 232.251 245.747 236.086 245.747H328.969C332.82 245.747 336.574 242.663 339.332 237.253H225.723Z" fill="#E6E6E6"/>
<path d="M99.1172 178.927V180.902H97.8606L96.8161 196.381H81.4431L80.4069 180.902H79.1421V178.927H99.1172Z" fill="#E6E6E6"/>
<path d="M94.0582 140.519C92.8016 131.299 80.3579 128.671 64.5688 128.328C49.5467 128.01 44.7324 122.698 44.7324 122.698C44.7324 122.698 44.7814 144.216 66.4292 152.016C86.9837 159.409 95.3229 149.756 94.0582 140.519Z" fill="#E6E6E6"/>
<path d="M86.387 161.416C86.6481 157.63 92.7026 150.662 107.268 153.828C117.794 156.121 121.711 150.662 121.711 150.662C121.711 150.662 120.731 166.067 104.901 170.694C89.863 175.092 85.9219 168.091 86.387 161.416Z" fill="#E6E6E6"/>
<path d="M89.7075 184.737C89.7895 184.738 89.8707 184.721 89.9454 184.687C90.0201 184.653 90.0865 184.603 90.14 184.541C91.1926 183.293 90.3276 180.306 89.1363 176.169C87.6023 170.865 85.6929 164.256 87.3085 159.466C88.2041 156.936 89.2504 154.462 90.4419 152.057C92.7266 147.227 94.7013 143.081 93.053 138.691C93.0273 138.622 92.988 138.558 92.9374 138.503C92.8867 138.449 92.8258 138.405 92.7581 138.374C92.6904 138.343 92.6172 138.326 92.5428 138.323C92.4684 138.321 92.3943 138.333 92.3247 138.36C92.2551 138.386 92.1915 138.426 92.1375 138.477C92.0834 138.528 92.0401 138.59 92.0099 138.658C91.9798 138.726 91.9634 138.799 91.9618 138.874C91.9601 138.948 91.9732 139.022 92.0004 139.091C93.4773 143 91.6903 146.786 89.4219 151.584C88.2153 154.027 87.1527 156.54 86.2396 159.107C84.5179 164.232 86.4762 171.029 88.0511 176.479C88.9813 179.743 89.9441 183.007 89.2832 183.823C89.2307 183.879 89.1906 183.946 89.1652 184.019C89.1399 184.092 89.13 184.169 89.1362 184.245C89.1423 184.322 89.1644 184.397 89.2009 184.465C89.2375 184.532 89.2877 184.592 89.3485 184.639C89.4527 184.713 89.58 184.748 89.7075 184.737Z" fill="#E6E6E6"/>
<path d="M204.392 304C291.769 304 362.602 299.865 362.602 294.763C362.602 289.662 291.769 285.526 204.392 285.526C117.016 285.526 46.1829 289.662 46.1829 294.763C46.1829 299.865 117.016 304 204.392 304Z" fill="#F5F5F5"/>
<path d="M204.361 249.73H88.492L82.1519 63.3853H198.02L204.361 249.73Z" fill="#424242"/>
<path d="M210.146 243.944H94.2777L87.9294 57.6H203.798L210.146 243.944Z" fill="#424242"/>
<path opacity="0.3" d="M210.146 243.944H94.2777L87.9294 57.6H203.798L210.146 243.944Z" fill="white"/>
<path d="M171.323 134.28C183.73 121.66 183.202 101.024 170.145 88.1879C157.087 75.352 136.445 75.1773 124.039 87.7975C111.632 100.418 112.16 121.054 125.218 133.89C138.275 146.726 158.917 146.901 171.323 134.28Z" fill="#424242"/>
<path d="M174.586 111.046C174.753 115.487 173.784 119.896 171.771 123.857C169.598 128.126 166.279 131.705 162.186 134.193C158.093 136.68 153.387 137.978 148.597 137.941C143.695 137.915 138.886 136.599 134.652 134.127C130.419 131.655 126.91 128.114 124.477 123.857C122.209 119.957 120.942 115.556 120.789 111.046C120.638 107.55 121.2 104.06 122.44 100.787C123.681 97.5145 125.573 94.5283 128.003 92.0098C130.433 89.4913 133.35 87.4931 136.576 86.1367C139.802 84.7802 143.27 84.0938 146.769 84.1192C153.979 84.1702 160.891 86.9965 166.072 92.0109C171.252 97.0253 174.301 103.843 174.586 111.046Z" fill="white"/>
<path opacity="0.6" d="M171.753 123.857C169.58 128.126 166.261 131.705 162.168 134.193C158.075 136.68 153.369 137.978 148.579 137.941C143.677 137.914 138.868 136.599 134.634 134.127C130.401 131.655 126.892 128.114 124.459 123.857C131.36 119.152 139.525 116.651 147.878 116.685C156.364 116.703 164.661 119.196 171.753 123.857Z" fill="#424242"/>
<path opacity="0.6" d="M156.064 110.375C160.626 105.735 160.432 98.1466 155.631 93.4267C150.83 88.7069 143.239 88.6426 138.677 93.2832C134.115 97.9238 134.309 105.512 139.111 110.232C143.912 114.952 151.502 115.016 156.064 110.375Z" fill="#424242"/>
<path d="M186.865 176.463H112.954L112.457 161.776H186.368L186.865 176.463Z" fill="white"/>
<path d="M187.763 202.713H113.843L113.346 188.026H187.265L187.763 202.713Z" fill="white"/>
<path d="M159.238 190.049L141.425 192.497C141.255 192.516 141.091 192.571 140.943 192.657C140.795 192.742 140.666 192.858 140.565 192.996C140.464 193.134 140.393 193.291 140.355 193.458C140.318 193.625 140.315 193.798 140.348 193.966L142.69 205.904C142.766 206.254 142.971 206.563 143.264 206.77C143.557 206.977 143.917 207.066 144.273 207.021L162.086 204.574C162.255 204.552 162.418 204.496 162.566 204.409C162.713 204.322 162.84 204.205 162.94 204.067C163.041 203.929 163.111 203.771 163.148 203.604C163.185 203.437 163.187 203.264 163.154 203.097L160.821 191.159C160.744 190.809 160.539 190.501 160.246 190.295C159.952 190.09 159.593 190.002 159.238 190.049ZM154.122 202.142L150.858 202.574L150.539 198.723C150.203 198.578 149.907 198.353 149.675 198.069C149.444 197.785 149.284 197.45 149.209 197.091C149.149 196.813 149.149 196.526 149.207 196.247C149.265 195.969 149.381 195.706 149.547 195.475C149.713 195.245 149.925 195.051 150.171 194.908C150.417 194.765 150.689 194.674 150.972 194.643C151.552 194.569 152.138 194.714 152.615 195.051C153.093 195.388 153.427 195.892 153.55 196.463C153.621 196.808 153.6 197.165 153.488 197.499C153.376 197.833 153.178 198.131 152.914 198.364L154.122 202.142Z" fill="#424242"/>
<path d="M157.474 189.405C157.159 189.445 156.841 189.366 156.581 189.183C156.322 189 156.14 188.727 156.071 188.417L155.842 187.25C155.516 185.658 154.624 184.238 153.33 183.254C152.037 182.269 150.43 181.788 148.809 181.898C147.99 181.944 147.192 182.166 146.467 182.549C145.742 182.932 145.108 183.466 144.608 184.116C144.108 184.765 143.753 185.514 143.569 186.313C143.384 187.112 143.373 187.941 143.537 188.744L143.799 190.09C143.829 190.239 143.828 190.393 143.795 190.542C143.763 190.691 143.7 190.831 143.61 190.954C143.52 191.077 143.405 191.179 143.274 191.256C143.142 191.332 142.995 191.379 142.844 191.396C142.528 191.44 142.208 191.362 141.947 191.179C141.687 190.995 141.506 190.72 141.44 190.408L141.22 189.274C140.996 188.214 140.989 187.12 141.198 186.057C141.408 184.994 141.83 183.984 142.44 183.089C143.05 182.193 143.834 181.43 144.746 180.845C145.659 180.261 146.68 179.866 147.748 179.686C150.064 179.297 152.442 179.815 154.387 181.132C156.331 182.45 157.694 184.465 158.192 186.761L158.454 188.099C158.484 188.25 158.482 188.406 158.448 188.556C158.414 188.706 158.349 188.848 158.256 188.971C158.164 189.094 158.047 189.197 157.912 189.271C157.777 189.346 157.628 189.391 157.474 189.405Z" fill="#424242"/>
<path d="M175.565 223.284H127.447L127.128 213.72H175.238L175.565 223.284Z" fill="#424242"/>
<path d="M152.349 169.119C152.364 169.468 152.307 169.816 152.183 170.143C152.059 170.469 151.87 170.767 151.627 171.018C151.385 171.269 151.093 171.468 150.772 171.603C150.45 171.738 150.104 171.806 149.755 171.804C149.035 171.798 148.345 171.517 147.827 171.017C147.31 170.518 147.004 169.838 146.972 169.119C146.958 168.771 147.014 168.423 147.139 168.096C147.263 167.77 147.452 167.472 147.694 167.221C147.937 166.97 148.228 166.771 148.55 166.636C148.872 166.501 149.218 166.432 149.567 166.435C150.287 166.438 150.978 166.719 151.496 167.219C152.014 167.719 152.32 168.4 152.349 169.119Z" fill="#263238"/>
<path d="M140.748 169.119C140.764 169.469 140.708 169.817 140.584 170.144C140.46 170.471 140.271 170.769 140.028 171.02C139.786 171.271 139.494 171.471 139.172 171.605C138.849 171.74 138.503 171.808 138.153 171.804C137.435 171.798 136.746 171.516 136.229 171.017C135.713 170.517 135.408 169.838 135.379 169.119C135.365 168.771 135.421 168.423 135.545 168.096C135.669 167.77 135.859 167.472 136.101 167.221C136.344 166.97 136.635 166.771 136.957 166.636C137.279 166.501 137.625 166.432 137.974 166.435C138.693 166.439 139.383 166.72 139.9 167.22C140.417 167.72 140.721 168.401 140.748 169.119Z" fill="#263238"/>
<path d="M129.218 169.119C129.233 169.468 129.176 169.816 129.052 170.143C128.928 170.469 128.739 170.767 128.496 171.018C128.254 171.269 127.962 171.468 127.641 171.603C127.319 171.738 126.973 171.806 126.624 171.804C125.904 171.8 125.214 171.519 124.697 171.019C124.181 170.519 123.877 169.838 123.849 169.119C123.835 168.771 123.892 168.423 124.016 168.096C124.14 167.77 124.329 167.472 124.572 167.221C124.814 166.97 125.105 166.771 125.427 166.636C125.749 166.501 126.095 166.432 126.444 166.435C127.163 166.439 127.854 166.72 128.37 167.22C128.887 167.72 129.191 168.401 129.218 169.119Z" fill="#263238"/>
<path d="M163.912 169.119C163.927 169.468 163.87 169.816 163.746 170.142C163.622 170.469 163.433 170.766 163.19 171.017C162.947 171.268 162.656 171.468 162.334 171.603C162.012 171.738 161.667 171.806 161.317 171.804C160.598 171.8 159.908 171.519 159.391 171.019C158.874 170.519 158.57 169.838 158.543 169.119C158.531 168.772 158.589 168.425 158.715 168.1C158.841 167.776 159.031 167.48 159.275 167.232C159.518 166.983 159.809 166.786 160.131 166.653C160.453 166.521 160.798 166.455 161.146 166.459C161.86 166.465 162.544 166.744 163.059 167.238C163.573 167.733 163.879 168.406 163.912 169.119Z" fill="#263238"/>
<path d="M175.475 169.119C175.491 169.469 175.435 169.817 175.311 170.144C175.188 170.471 174.999 170.769 174.756 171.02C174.513 171.271 174.221 171.471 173.899 171.605C173.576 171.74 173.23 171.808 172.881 171.804C172.162 171.798 171.473 171.516 170.956 171.017C170.44 170.517 170.136 169.838 170.106 169.119C170.092 168.771 170.148 168.423 170.273 168.096C170.397 167.77 170.586 167.472 170.828 167.221C171.071 166.97 171.362 166.771 171.684 166.636C172.006 166.501 172.352 166.432 172.701 166.435C173.42 166.439 174.11 166.72 174.627 167.22C175.144 167.72 175.448 168.401 175.475 169.119Z" fill="#263238"/>
<path d="M272.863 97.3295C273.948 99.0757 274.854 100.74 275.784 102.478C276.714 104.216 277.555 105.962 278.379 107.749C280.06 111.368 281.452 115.114 282.54 118.953C282.687 119.434 282.793 119.948 282.916 120.446L283.095 121.205L283.185 121.58L283.291 122.2C283.475 123.607 283.389 125.036 283.038 126.411C282.475 128.545 281.618 130.591 280.492 132.49C278.478 135.941 276.045 139.128 273.246 141.98L269.811 139.385C271.535 136.215 273.069 132.945 274.405 129.593C275 128.116 275.419 126.574 275.653 124.999C275.728 124.518 275.706 124.027 275.588 123.555L275.262 122.559C275.131 122.151 275.009 121.743 274.854 121.327C273.613 117.961 272.177 114.67 270.553 111.47C268.922 108.206 267.167 104.943 265.413 101.825L272.863 97.3295Z" fill="#FF8B7B"/>
<path d="M270.682 138.25L266.928 140.233L271.237 145.276C271.237 145.276 273.93 143.456 274.052 140.682L270.682 138.25Z" fill="#FF8B7B"/>
<path d="M261.896 143.343L266.506 147.006L271.239 145.276L266.931 140.234L261.896 143.343Z" fill="#FF8B7B"/>
<path d="M246.13 70.6308C246.04 71.0878 245.722 71.406 245.428 71.3489C245.135 71.2918 244.963 70.8675 245.053 70.4187C245.143 69.9699 245.461 69.6027 245.763 69.7006C246.065 69.7985 246.22 70.1739 246.13 70.6308Z" fill="#263238"/>
<path d="M245.764 71.4142C244.942 72.6923 243.948 73.851 242.81 74.8576C243.079 75.1362 243.405 75.3533 243.765 75.4942C244.126 75.635 244.513 75.6962 244.899 75.6736L245.764 71.4142Z" fill="#FF5652"/>
<path d="M244.293 87.4236V82.0708L251.376 82.8868C251.376 82.8868 251.261 87.4889 247.296 88.8434L244.293 87.4236Z" fill="#FF8B7B"/>
<path d="M246.333 78.2192L251.319 79.6554L251.409 82.9274L244.326 82.0706L246.333 78.2192Z" fill="#FF8B7B"/>
<path opacity="0.2" d="M251.32 79.6554L246.334 78.2192L245.363 80.0797C245.416 81.5456 245.874 82.9682 246.686 84.1896C247.499 85.411 248.634 86.3835 249.965 86.9991C250.822 85.8026 251.322 84.3882 251.409 82.9193L251.32 79.6554Z" fill="black"/>
<path d="M248.301 68.4522C248.354 68.4508 248.404 68.4346 248.448 68.4055C248.491 68.3765 248.526 68.3357 248.547 68.2879C248.568 68.2401 248.576 68.1873 248.568 68.1355C248.561 68.0837 248.539 68.0351 248.505 67.9952C248.219 67.6715 247.859 67.4212 247.456 67.265C247.052 67.1089 246.618 67.0515 246.188 67.0976C246.118 67.1096 246.055 67.149 246.014 67.2071C245.972 67.2652 245.956 67.3374 245.968 67.4077C245.98 67.4785 246.019 67.5419 246.077 67.5845C246.134 67.6271 246.206 67.6457 246.278 67.6362C246.618 67.6028 246.962 67.6512 247.28 67.7776C247.598 67.9039 247.881 68.1044 248.105 68.3624C248.13 68.3897 248.161 68.4117 248.194 68.4271C248.228 68.4425 248.264 68.451 248.301 68.4522Z" fill="#263238"/>
<path d="M258.727 78.8884C257.912 83.0907 257.406 88.9086 260.359 91.7074C260.359 91.7074 259.217 95.9668 251.384 95.9668C242.808 95.9668 247.263 92.2296 247.263 92.2296C250.829 91.1199 250.796 87.0645 249.98 83.8006L258.727 78.8884Z" fill="#FF8B7B"/>
<path d="M261.953 94.5144C262.72 93.4373 262.687 90.0184 261.871 89.4145C260.558 88.4435 254.919 88.215 247.339 89.9612C248.155 93.2741 246.4 95.004 246.4 95.004L261.953 94.5144Z" fill="#424242"/>
<path d="M287.459 288.235C287.226 288.317 286.979 288.352 286.733 288.338C286.486 288.324 286.245 288.261 286.023 288.154C285.939 288.075 285.881 287.973 285.858 287.86C285.834 287.748 285.846 287.631 285.892 287.525C285.918 287.437 285.963 287.356 286.023 287.286C286.084 287.217 286.159 287.162 286.243 287.125C287.018 286.75 288.797 287.476 288.879 287.509C288.903 287.519 288.924 287.536 288.938 287.558C288.953 287.579 288.961 287.605 288.96 287.631C288.96 287.658 288.953 287.683 288.94 287.706C288.928 287.729 288.909 287.748 288.887 287.762C288.427 287.964 287.949 288.123 287.459 288.235ZM286.521 287.313C286.467 287.326 286.415 287.345 286.366 287.37C286.315 287.389 286.269 287.419 286.232 287.459C286.195 287.499 286.168 287.547 286.153 287.599C286.08 287.844 286.153 287.925 286.202 287.95C286.512 288.211 287.655 287.95 288.463 287.648C287.848 287.393 287.185 287.279 286.521 287.313Z" fill="#424242"/>
<path d="M288.855 287.77H288.79C288.137 287.582 286.75 286.595 286.733 285.95C286.733 285.848 286.767 285.748 286.831 285.668C286.895 285.588 286.984 285.532 287.084 285.51C287.181 285.474 287.285 285.459 287.388 285.468C287.491 285.476 287.59 285.507 287.68 285.559C288.447 285.95 288.937 287.533 288.953 287.607C288.964 287.627 288.97 287.649 288.97 287.672C288.97 287.695 288.964 287.718 288.953 287.737C288.94 287.75 288.925 287.76 288.908 287.765C288.891 287.771 288.873 287.773 288.855 287.77ZM287.223 285.738H287.158C286.995 285.795 286.995 285.877 286.995 285.918C286.995 286.301 287.925 287.076 288.626 287.387C288.455 286.93 288.08 286.024 287.582 285.755C287.471 285.704 287.346 285.699 287.231 285.738H287.223Z" fill="#424242"/>
<path d="M245.079 289.198C244.345 289.198 243.635 289.092 243.399 288.766C243.337 288.679 243.303 288.574 243.303 288.468C243.303 288.361 243.337 288.257 243.399 288.17C243.445 288.09 243.507 288.021 243.582 287.966C243.656 287.911 243.741 287.872 243.831 287.852C244.786 287.59 246.793 288.733 246.875 288.782C246.9 288.794 246.92 288.814 246.932 288.84C246.944 288.865 246.946 288.893 246.94 288.921C246.937 288.948 246.925 288.975 246.906 288.995C246.887 289.016 246.861 289.03 246.834 289.035C246.255 289.141 245.668 289.196 245.079 289.198ZM244.174 288.08C244.087 288.066 243.999 288.066 243.913 288.08C243.857 288.091 243.805 288.114 243.759 288.146C243.712 288.179 243.673 288.22 243.643 288.268C243.545 288.439 243.586 288.521 243.643 288.57C243.913 288.945 245.357 288.953 246.426 288.798C245.728 288.417 244.963 288.173 244.174 288.08Z" fill="#424242"/>
<path d="M246.824 289.035H246.767C246.073 288.725 244.702 287.485 244.808 286.832C244.808 286.677 244.939 286.489 245.314 286.456C245.448 286.441 245.584 286.453 245.713 286.492C245.843 286.531 245.962 286.597 246.065 286.685C246.588 287.31 246.902 288.083 246.962 288.896C246.962 288.919 246.957 288.942 246.947 288.964C246.937 288.985 246.923 289.003 246.905 289.019C246.88 289.031 246.852 289.037 246.824 289.035ZM245.42 286.709H245.339C245.094 286.709 245.078 286.824 245.078 286.856C245.012 287.248 245.943 288.227 246.652 288.651C246.59 287.997 246.325 287.377 245.894 286.881C245.76 286.766 245.588 286.705 245.412 286.709H245.42Z" fill="#424242"/>
<path d="M253.124 288.904H247.388L246.817 275.612H252.553L253.124 288.904Z" fill="#FF8B7B"/>
<path d="M295.251 286.244L289.645 287.46L284.007 275.082L289.621 273.866L295.251 286.244Z" fill="#FF8B7B"/>
<path d="M289.1 286.897L295.407 285.534C295.517 285.511 295.632 285.526 295.733 285.576C295.834 285.627 295.915 285.71 295.962 285.812L298.149 290.561C298.207 290.676 298.237 290.803 298.237 290.932C298.236 291.061 298.205 291.188 298.147 291.302C298.088 291.417 298.002 291.516 297.898 291.591C297.793 291.667 297.672 291.716 297.545 291.736C295.342 292.168 294.24 292.274 291.474 292.87C289.769 293.245 285.917 294.184 283.559 294.69C281.201 295.196 280.393 292.935 281.315 292.519C285.436 290.634 287.149 288.978 288.267 287.436C288.469 287.16 288.766 286.969 289.1 286.897Z" fill="#263238"/>
<path d="M247.428 288.235H253.695C253.809 288.236 253.919 288.275 254.008 288.346C254.097 288.417 254.159 288.516 254.185 288.627L255.319 293.727C255.352 293.85 255.356 293.979 255.33 294.105C255.304 294.23 255.25 294.347 255.17 294.447C255.091 294.547 254.989 294.627 254.873 294.68C254.757 294.734 254.63 294.759 254.503 294.755C252.243 294.714 248.979 294.584 246.139 294.584C242.81 294.584 239.946 294.763 236.046 294.763C233.687 294.763 233.035 292.381 234.022 292.16C238.51 291.181 242.182 291.075 246.058 288.684C246.465 288.412 246.939 288.256 247.428 288.235Z" fill="#263238"/>
<path d="M270.625 93.0213C276.002 94.2535 280.416 107.986 280.416 107.986L269.67 116.203C266.881 113.221 264.912 109.566 263.958 105.596C262.057 98.3986 265.125 91.7484 270.625 93.0213Z" fill="#424242"/>
<path opacity="0.4" d="M270.625 93.0213C276.002 94.2535 280.416 107.986 280.416 107.986L269.67 116.203C266.881 113.221 264.912 109.566 263.958 105.596C262.057 98.3986 265.125 91.7484 270.625 93.0213Z" fill="black"/>
<path d="M242.336 109.398C240.998 110.842 239.66 112.131 238.256 113.478C237.563 114.13 236.861 114.783 236.143 115.412L235.058 116.366L234.788 116.603L234.323 116.978C233.845 117.361 233.314 117.674 232.748 117.908C232.119 118.176 231.442 118.314 230.757 118.316C230.173 118.319 229.593 118.217 229.044 118.014C228.436 117.783 227.88 117.43 227.412 116.978C226.814 116.394 226.376 115.666 226.139 114.865C226.015 114.47 225.936 114.062 225.902 113.649C225.86 113.166 225.86 112.68 225.902 112.197C225.943 111.805 225.992 111.462 226.057 111.144C226.281 110.031 226.597 108.94 227.004 107.88C227.371 106.873 227.793 105.887 228.269 104.926C228.791 103.89 229.289 103.131 229.786 102.266C231.808 98.9543 234.115 95.8254 236.681 92.9151C239.222 90.0219 242.021 87.3671 245.045 84.9838L248.048 88.0763C245.943 90.8996 243.87 93.9269 241.953 96.9052C240.044 99.8666 238.301 102.931 236.73 106.085C236.38 106.852 235.914 107.717 235.694 108.337C235.402 109.057 235.149 109.793 234.935 110.54C234.73 111.213 234.574 111.9 234.47 112.596C234.465 112.705 234.465 112.814 234.47 112.923C234.47 112.988 234.47 113.021 234.47 112.849C234.457 112.666 234.421 112.485 234.364 112.311C234.188 111.732 233.864 111.209 233.426 110.793C233.035 110.435 232.578 110.157 232.079 109.977C231.641 109.811 231.177 109.725 230.709 109.724C230.258 109.719 229.811 109.805 229.395 109.977C229.254 110.035 229.117 110.103 228.987 110.181L229.297 109.896L230.284 108.998L232.234 107.17C233.524 105.954 234.821 104.657 236.045 103.449L242.336 109.398Z" fill="#FF8B7B"/>
<path opacity="0.2" d="M266.017 103.107C268.938 105.995 269.893 111.266 270.097 115.836L269.624 116.203C266.834 113.221 264.866 109.566 263.912 105.595C263.806 105.171 263.708 104.779 263.634 104.314L266.017 103.107Z" fill="black"/>
<path d="M236.633 98.733C235.458 104.934 234.723 117.672 238.126 142.885H268.856C269.068 138.177 266.106 115.183 270.651 92.9804C267.255 92.3283 263.821 91.895 260.369 91.683C256.021 91.4336 251.662 91.4336 247.314 91.683C245.878 91.8136 244.458 92.0257 243.234 92.246C241.606 92.5316 240.103 93.3047 238.925 94.4631C237.746 95.6215 236.947 97.1104 236.633 98.733Z" fill="#424242"/>
<path opacity="0.4" d="M236.633 98.733C235.458 104.934 234.723 117.672 238.126 142.885H268.856C269.068 138.177 266.106 115.183 270.651 92.9804C267.255 92.3283 263.821 91.895 260.369 91.683C256.021 91.4336 251.662 91.4336 247.314 91.683C245.878 91.8136 244.458 92.0257 243.234 92.246C241.606 92.5316 240.103 93.3047 238.925 94.4631C237.746 95.6215 236.947 97.1104 236.633 98.733Z" fill="black"/>
<path opacity="0.2" d="M241.333 107.929L235.784 106.599C235.613 109.961 235.596 114.122 235.841 119.271C238.395 116.366 241.659 111.829 241.333 107.929Z" fill="black"/>
<path opacity="0.2" d="M246.817 275.612L247.11 282.466H252.855L252.561 275.612H246.817Z" fill="black"/>
<path opacity="0.2" d="M289.621 273.866L284.007 275.082L286.912 281.463L292.526 280.247L289.621 273.866Z" fill="black"/>
<path d="M261.455 72.7522C259.987 78.2519 259.399 81.5485 256.005 83.8332C250.905 87.3092 244.54 83.3273 244.377 77.5175C244.198 72.2708 246.637 64.1518 252.537 63.0421C253.833 62.7988 255.17 62.8896 256.422 63.306C257.674 63.7224 258.799 64.4507 259.691 65.4222C260.583 66.3936 261.213 67.5763 261.522 68.8588C261.831 70.1412 261.808 71.4811 261.455 72.7522Z" fill="#FF8B7B"/>
<path d="M248.577 72.9562C248.3 72.2218 247.035 66.5344 248.227 65.0575C249.418 63.5806 263.004 64.6495 265.011 66.6242C268.349 69.8881 266.031 72.8256 262.384 76.6036C259.642 79.4432 259.536 82.6418 258.149 83.1314C255.701 83.9474 251.964 83.1803 251.213 80.5937C250.462 78.0071 248.577 72.9562 248.577 72.9562Z" fill="#263238"/>
<path d="M263.364 60.1537C258.566 58.1137 249.566 60.374 244.703 59.199C244.641 61.0073 245.236 62.7769 246.377 64.1809C247.519 65.5848 249.13 66.5281 250.912 66.8365C254.947 67.6053 259.045 67.9851 263.152 67.9707C268.489 67.7259 267.444 61.8917 263.364 60.1537Z" fill="#263238"/>
<path d="M264.115 66.7957C265.867 66.9682 267.632 66.631 269.198 65.8247C270.096 67.9952 265.159 68.5909 264.115 66.7957Z" fill="#263238"/>
<path d="M251.191 73.1849C251.081 74.6 250.507 75.9393 249.559 76.9955C248.302 78.3745 246.997 77.5096 246.776 75.8368C246.58 74.3191 246.988 71.7569 248.523 71.0225C250.057 70.2882 251.297 71.4795 251.191 73.1849Z" fill="#FF8B7B"/>
<path d="M249.019 142.91C249.019 142.91 255.547 186.769 259.112 203.202C263.021 221.195 284.024 280.72 284.024 280.72L294.297 278.493C294.297 278.493 279.61 229.975 276.346 204.818C273.816 185.496 268.847 142.894 268.847 142.894L249.019 142.91Z" fill="#424242"/>
<path d="M281.561 277.301C281.52 277.301 283.478 281.022 283.478 281.022L295.033 278.517L294.062 275.041L281.561 277.301Z" fill="#263238"/>
<path opacity="0.3" d="M253.139 158.536C260.671 160.013 259.871 188.099 258.965 202.55C256.795 192.334 253.612 172.685 251.442 158.74C251.968 158.48 252.567 158.408 253.139 158.536Z" fill="black"/>
<path d="M238.127 142.91C238.127 142.91 237.311 185.822 237.963 203.292C238.616 221.496 244.973 281.104 244.973 281.104H254.699C254.699 281.104 255.05 222.557 255.515 204.679C255.988 185.194 258.338 142.877 258.338 142.877L238.127 142.91Z" fill="#424242"/>
<path d="M243.103 277.269C243.054 277.269 243.65 281.299 243.65 281.299H255.474L255.8 277.701L243.103 277.269Z" fill="#263238"/>
<path d="M248.66 100.642C251.41 108.06 235.245 116.799 235.245 116.799L228.244 107.823C228.244 107.823 232.952 98.5045 238.664 94.3104C245.722 89.1371 246.563 94.9958 248.66 100.642Z" fill="#424242"/>
<path opacity="0.4" d="M248.66 100.642C251.41 108.06 235.245 116.799 235.245 116.799L228.244 107.823C228.244 107.823 232.952 98.5045 238.664 94.3104C245.722 89.1371 246.563 94.9958 248.66 100.642Z" fill="black"/>
<path d="M311.995 44.332C328.259 44.332 341.444 35.9295 341.444 25.5646C341.444 15.1996 328.259 6.79712 311.995 6.79712C295.731 6.79712 282.547 15.1996 282.547 25.5646C282.547 35.9295 295.731 44.332 311.995 44.332Z" fill="#424242"/>
<path d="M301.372 35.0135C299.432 35.0072 297.556 34.3174 296.074 33.0654C294.592 31.8134 293.599 30.0791 293.269 28.1674C292.945 26.0967 293.412 23.9797 294.577 22.2378C295.743 20.4959 297.522 19.2569 299.56 18.7674C301.233 18.382 302.984 18.5305 304.568 19.1921C306.151 19.8537 307.488 20.995 308.389 22.4556L327.295 18.5552C328.022 18.3961 328.782 18.5169 329.423 18.8936C330.064 19.2702 330.54 19.875 330.755 20.587C330.854 20.9614 330.876 21.352 330.818 21.7349C330.761 22.1179 330.627 22.4852 330.423 22.8144C330.219 23.1435 329.95 23.4277 329.632 23.6494C329.315 23.8711 328.956 24.0257 328.576 24.1039L328.087 24.2018C328.014 24.2148 327.945 24.2444 327.886 24.2883C327.826 24.3321 327.778 24.3891 327.744 24.4547C327.714 24.5214 327.698 24.5937 327.698 24.6669C327.698 24.7401 327.714 24.8124 327.744 24.879L328.079 25.744C328.191 26.0243 328.202 26.335 328.109 26.6225C328.017 26.9099 327.827 27.1562 327.573 27.3188C327.372 27.4427 327.202 27.6108 327.077 27.8101C326.951 28.0095 326.872 28.235 326.846 28.4693C326.822 28.7383 326.714 28.9928 326.537 29.1965C326.359 29.4002 326.122 29.5427 325.859 29.6035L325.476 29.6851C325.21 29.7343 324.935 29.6975 324.692 29.5801C324.448 29.4627 324.248 29.2709 324.121 29.0323C323.952 28.7477 323.698 28.5231 323.395 28.3897C323.092 28.2563 322.754 28.2208 322.43 28.2882C322.106 28.3555 321.811 28.5224 321.586 28.7655C321.361 29.0086 321.217 29.3158 321.175 29.6443C321.153 29.9116 321.046 30.1647 320.87 30.3671C320.694 30.5696 320.458 30.7108 320.196 30.7704L319.813 30.852C319.547 30.8998 319.273 30.8624 319.03 30.7452C318.786 30.628 318.586 30.4369 318.458 30.1992C318.336 29.9968 318.171 29.8234 317.975 29.691C317.78 29.5585 317.557 29.4702 317.324 29.4322C317.01 29.3944 316.721 29.2434 316.511 29.0075C316.3 28.7717 316.183 28.4671 316.182 28.1511V27.2209C316.178 27.1481 316.159 27.0769 316.126 27.0122C316.093 26.9474 316.046 26.8906 315.988 26.8457C315.931 26.8007 315.865 26.7687 315.794 26.7518C315.723 26.7349 315.649 26.7334 315.578 26.7476L309.548 27.9879C309.302 29.6585 308.547 31.2127 307.386 32.4392C306.226 33.6656 304.715 34.5046 303.061 34.8421C302.505 34.9557 301.939 35.0132 301.372 35.0135ZM299.74 19.5099C297.889 19.9422 296.271 21.0597 295.211 22.6373C294.151 24.215 293.728 26.1356 294.028 28.0124C294.349 29.7585 295.284 31.332 296.664 32.4485C298.045 33.5649 299.779 34.1504 301.554 34.0992C303.328 34.0479 305.026 33.3632 306.34 32.169C307.653 30.9747 308.496 29.3498 308.715 27.5881V27.2943L315.366 25.948C315.556 25.9018 315.755 25.8987 315.947 25.9389C316.139 25.9791 316.32 26.0616 316.476 26.1803C316.633 26.2991 316.76 26.4512 316.851 26.6255C316.941 26.7999 316.991 26.9921 316.998 27.1882V28.1185C316.999 28.2292 317.039 28.3359 317.111 28.4207C317.182 28.5054 317.28 28.5629 317.389 28.5836C317.746 28.6347 318.086 28.7663 318.385 28.9684C318.683 29.1706 318.931 29.438 319.111 29.7504C319.154 29.8385 319.224 29.9109 319.31 29.9577C319.396 30.0045 319.495 30.0233 319.592 30.0115L319.968 29.9299C320.063 29.9054 320.148 29.8509 320.209 29.7745C320.271 29.6981 320.307 29.6038 320.311 29.5056C320.362 28.9977 320.574 28.5192 320.915 28.1394C321.256 27.7596 321.709 27.4981 322.209 27.3928C322.708 27.2874 323.228 27.3436 323.694 27.5533C324.159 27.7629 324.546 28.1152 324.798 28.5591C324.84 28.6465 324.908 28.7186 324.993 28.7654C325.078 28.8123 325.175 28.8314 325.272 28.8202L325.663 28.7386C325.757 28.7126 325.84 28.6575 325.9 28.5812C325.96 28.5049 325.994 28.4114 325.998 28.3143C326.038 27.956 326.16 27.6117 326.354 27.3077C326.547 27.0036 326.808 26.7479 327.116 26.5599C327.206 26.4951 327.271 26.4021 327.302 26.2956C327.333 26.1892 327.328 26.0755 327.287 25.9724L326.953 25.1075C326.883 24.9292 326.854 24.7379 326.866 24.5471C326.879 24.3562 326.933 24.1704 327.024 24.0025C327.116 23.8347 327.243 23.6889 327.397 23.5753C327.551 23.4617 327.728 23.3831 327.915 23.345L328.413 23.2389C328.683 23.1815 328.938 23.0703 329.163 22.912C329.388 22.7538 329.58 22.5516 329.725 22.3178C329.871 22.0839 329.967 21.8231 330.01 21.551C330.052 21.2788 330.039 21.0009 329.972 20.7339C329.812 20.2204 329.465 19.7861 328.999 19.5182C328.533 19.2503 327.982 19.1687 327.458 19.2896L308.022 23.3287L307.875 23.0757C307.094 21.6855 305.882 20.5873 304.422 19.9469C302.961 19.3066 301.332 19.1589 299.781 19.5262L299.74 19.5099ZM301.372 31.978C300.358 31.9893 299.363 31.7058 298.508 31.162C297.496 30.4978 296.746 29.5031 296.385 28.3476C296.025 27.1921 296.076 25.9474 296.531 24.8256C296.985 23.7037 297.815 22.7743 298.878 22.1956C299.941 21.617 301.172 21.425 302.361 21.6524C303.55 21.8798 304.623 22.5125 305.397 23.4426C306.172 24.3728 306.6 25.5427 306.608 26.7531C306.617 27.9635 306.205 29.1394 305.444 30.0802C304.682 31.0211 303.618 31.6687 302.432 31.9127C302.085 31.9756 301.733 32.0029 301.38 31.9943L301.372 31.978ZM301.372 22.3413C301.068 22.3431 300.764 22.3731 300.466 22.4311C299.898 22.5522 299.358 22.7841 298.88 23.1135C298.401 23.4429 297.991 23.8634 297.675 24.351C297.359 24.8385 297.142 25.3837 297.036 25.9552C296.93 26.5267 296.938 27.1135 297.059 27.6819C297.18 28.2504 297.412 28.7894 297.742 29.2683C298.071 29.7471 298.492 30.1564 298.979 30.4727C299.467 30.7891 300.012 31.0063 300.583 31.112C301.155 31.2176 301.742 31.2097 302.31 31.0886C303.163 30.911 303.945 30.4846 304.557 29.8634C305.168 29.2421 305.582 28.4538 305.746 27.5977C305.91 26.7416 305.817 25.8561 305.478 25.0528C305.14 24.2495 304.571 23.5644 303.844 23.0839C303.122 22.6034 302.272 22.3505 301.404 22.3577L301.372 22.3413Z" fill="white"/>
<path opacity="0.6" d="M288.031 55.3396C293.376 55.3396 297.709 52.5778 297.709 49.1709C297.709 45.7639 293.376 43.0021 288.031 43.0021C282.687 43.0021 278.354 45.7639 278.354 49.1709C278.354 52.5778 282.687 55.3396 288.031 55.3396Z" fill="#424242"/>
<path opacity="0.3" d="M272.633 57.8691C274.828 57.8691 276.607 56.7366 276.607 55.3396C276.607 53.9426 274.828 52.8101 272.633 52.8101C270.439 52.8101 268.66 53.9426 268.66 55.3396C268.66 56.7366 270.439 57.8691 272.633 57.8691Z" fill="#424242"/>
</svg>
