<svg width="32" height="32" viewBox="0 0 32 32" fill="none" xmlns="http://www.w3.org/2000/svg">
<g clip-path="url(#clip0_5431_10942)">
<path d="M5.33301 18.6667V14.6667C5.33301 11.8377 6.45681 9.12458 8.4572 7.12419C10.4576 5.12381 13.1707 4 15.9997 4C18.8287 4 21.5418 5.12381 23.5421 7.12419C25.5425 9.12458 26.6663 11.8377 26.6663 14.6667V18.6667" stroke="#373941" stroke-width="2" stroke-linecap="round" stroke-linejoin="round"/>
<path d="M24 25.3334C24 27.5427 20.4187 29.3334 16 29.3334" stroke="#373941" stroke-width="2" stroke-linecap="round" stroke-linejoin="round"/>
<path d="M5.33301 18.6667C5.33301 17.9594 5.61396 17.2811 6.11406 16.781C6.61415 16.281 7.29243 16 7.99967 16H9.33301C10.0403 16 10.7185 16.281 11.2186 16.781C11.7187 17.2811 11.9997 17.9594 11.9997 18.6667V22.6667C11.9997 23.3739 11.7187 24.0522 11.2186 24.5523C10.7185 25.0524 10.0403 25.3333 9.33301 25.3333H7.99967C7.29243 25.3333 6.61415 25.0524 6.11406 24.5523C5.61396 24.0522 5.33301 23.3739 5.33301 22.6667V18.6667Z" stroke="#373941" stroke-width="2" stroke-linecap="round" stroke-linejoin="round"/>
<path d="M20 18.6667C20 17.9594 20.281 17.2811 20.781 16.781C21.2811 16.281 21.9594 16 22.6667 16H24C24.7072 16 25.3855 16.281 25.8856 16.781C26.3857 17.2811 26.6667 17.9594 26.6667 18.6667V22.6667C26.6667 23.3739 26.3857 24.0522 25.8856 24.5523C25.3855 25.0524 24.7072 25.3333 24 25.3333H22.6667C21.9594 25.3333 21.2811 25.0524 20.781 24.5523C20.281 24.0522 20 23.3739 20 22.6667V18.6667Z" stroke="#373941" stroke-width="2" stroke-linecap="round" stroke-linejoin="round"/>
</g>
<defs>
<clipPath id="clip0_5431_10942">
<rect width="32" height="32" fill="white"/>
</clipPath>
</defs>
</svg>
