<svg width="21" height="20" viewBox="0 0 21 20" fill="none" xmlns="http://www.w3.org/2000/svg">
<g clip-path="url(#clip0_4369_4379)">
<path d="M4.36523 5.83333C4.36523 6.71739 4.71642 7.56523 5.34154 8.19036C5.96667 8.81548 6.81451 9.16667 7.69857 9.16667C8.58262 9.16667 9.43047 8.81548 10.0556 8.19036C10.6807 7.56523 11.0319 6.71739 11.0319 5.83333C11.0319 4.94928 10.6807 4.10143 10.0556 3.47631C9.43047 2.85119 8.58262 2.5 7.69857 2.5C6.81451 2.5 5.96667 2.85119 5.34154 3.47631C4.71642 4.10143 4.36523 4.94928 4.36523 5.83333Z" stroke="#373941" stroke-width="1.5" stroke-linecap="round" stroke-linejoin="round"/>
<path d="M2.69922 17.5V15.8333C2.69922 14.9493 3.05041 14.1014 3.67553 13.4763C4.30065 12.8512 5.1485 12.5 6.03255 12.5H9.36589C10.2499 12.5 11.0978 12.8512 11.7229 13.4763C12.348 14.1014 12.6992 14.9493 12.6992 15.8333V17.5" stroke="#373941" stroke-width="1.5" stroke-linecap="round" stroke-linejoin="round"/>
<path d="M13.5332 2.6084C14.2502 2.79198 14.8857 3.20898 15.3396 3.79366C15.7934 4.37833 16.0397 5.09742 16.0397 5.83757C16.0397 6.57771 15.7934 7.2968 15.3396 7.88147C14.8857 8.46615 14.2502 8.88315 13.5332 9.06673" stroke="#373941" stroke-width="1.5" stroke-linecap="round" stroke-linejoin="round"/>
<path d="M17.6992 17.5V15.8333C17.695 15.0976 17.4475 14.384 16.9953 13.8037C16.5431 13.2233 15.9116 12.8089 15.1992 12.625" stroke="#373941" stroke-width="1.5" stroke-linecap="round" stroke-linejoin="round"/>
</g>
<defs>
<clipPath id="clip0_4369_4379">
<rect width="20" height="20" fill="white" transform="translate(0.199219)"/>
</clipPath>
</defs>
</svg>
