<svg width="60" height="43" viewBox="0 0 60 43" fill="none" xmlns="http://www.w3.org/2000/svg">
<path d="M2.6 37.3C2.6 36.582 2.01797 36 1.3 36C0.582031 36 0 36.582 0 37.3C0 38.0179 0.582031 38.6 1.3 38.6C2.01797 38.6 2.6 38.0179 2.6 37.3Z" fill="#8091AF"/>
<path d="M2.6 30.7C2.6 29.982 2.01797 29.4 1.3 29.4C0.582031 29.4 0 29.982 0 30.7C0 31.418 0.582031 32 1.3 32C2.01797 32 2.6 31.418 2.6 30.7Z" fill="#8091AF"/>
<path d="M2.6 24.1C2.6 23.3821 2.01797 22.8 1.3 22.8C0.582031 22.8 0 23.3821 0 24.1C0 24.818 0.582031 25.4 1.3 25.4C2.01797 25.4 2.6 24.818 2.6 24.1Z" fill="#8091AF"/>
<path d="M2.6 17.4999C2.6 16.782 2.01797 16.1999 1.3 16.1999C0.582031 16.1999 0 16.782 0 17.4999C0 18.2179 0.582031 18.7999 1.3 18.7999C2.01797 18.7999 2.6 18.2179 2.6 17.4999Z" fill="#8091AF"/>
<path d="M2.6 10.9C2.6 10.182 2.01797 9.59995 1.3 9.59995C0.582031 9.59995 0 10.182 0 10.9C0 11.6179 0.582031 12.2 1.3 12.2C2.01797 12.2 2.6 11.6179 2.6 10.9Z" fill="#8091AF"/>
<path d="M2.6 4.29998C2.6 3.58201 2.01797 2.99997 1.3 2.99997C0.582031 2.99997 0 3.58201 0 4.29998C0 5.01795 0.582031 5.59998 1.3 5.59998C2.01797 5.59998 2.6 5.01795 2.6 4.29998Z" fill="#8091AF"/>
<path d="M59.6 37.3C59.6 36.582 59.018 36 58.3 36C57.582 36 57 36.582 57 37.3C57 38.0179 57.582 38.6 58.3 38.6C59.018 38.6 59.6 38.0179 59.6 37.3Z" fill="#8091AF"/>
<path d="M59.6 30.7C59.6 29.982 59.018 29.4 58.3 29.4C57.582 29.4 57 29.982 57 30.7C57 31.418 57.582 32 58.3 32C59.018 32 59.6 31.418 59.6 30.7Z" fill="#8091AF"/>
<path d="M59.6 24.1C59.6 23.3821 59.018 22.8 58.3 22.8C57.582 22.8 57 23.3821 57 24.1C57 24.818 57.582 25.4 58.3 25.4C59.018 25.4 59.6 24.818 59.6 24.1Z" fill="#8091AF"/>
<path d="M59.6 17.4999C59.6 16.782 59.018 16.1999 58.3 16.1999C57.582 16.1999 57 16.782 57 17.4999C57 18.2179 57.582 18.7999 58.3 18.7999C59.018 18.7999 59.6 18.2179 59.6 17.4999Z" fill="#8091AF"/>
<path d="M59.6 10.9C59.6 10.182 59.018 9.59995 58.3 9.59995C57.582 9.59995 57 10.182 57 10.9C57 11.6179 57.582 12.2 58.3 12.2C59.018 12.2 59.6 11.6179 59.6 10.9Z" fill="#8091AF"/>
<path d="M59.6 4.29998C59.6 3.58201 59.018 2.99997 58.3 2.99997C57.582 2.99997 57 3.58201 57 4.29998C57 5.01795 57.582 5.59998 58.3 5.59998C59.018 5.59998 59.6 5.01795 59.6 4.29998Z" fill="#8091AF"/>
<path d="M7.6 1.29998C7.6 0.58201 7.01797 -2.28882e-05 6.3 -2.28882e-05C5.58203 -2.28882e-05 5 0.58201 5 1.29998C5 2.01795 5.58203 2.59998 6.3 2.59998C7.01797 2.59998 7.6 2.01795 7.6 1.29998Z" fill="#8091AF"/>
<path d="M14.2016 1.29998C14.2016 0.58201 13.6195 -2.28882e-05 12.9016 -2.28882e-05C12.1836 -2.28882e-05 11.6016 0.58201 11.6016 1.29998C11.6016 2.01795 12.1836 2.59998 12.9016 2.59998C13.6195 2.59998 14.2016 2.01795 14.2016 1.29998Z" fill="#8091AF"/>
<path d="M20.8031 1.29998C20.8031 0.58201 20.2211 -2.28882e-05 19.5031 -2.28882e-05C18.7852 -2.28882e-05 18.2031 0.58201 18.2031 1.29998C18.2031 2.01795 18.7852 2.59998 19.5031 2.59998C20.2211 2.59998 20.8031 2.01795 20.8031 1.29998Z" fill="#8091AF"/>
<path d="M27.3969 1.29998C27.3969 0.58201 26.8148 -2.28882e-05 26.0969 -2.28882e-05C25.3789 -2.28882e-05 24.7969 0.58201 24.7969 1.29998C24.7969 2.01795 25.3789 2.59998 26.0969 2.59998C26.8148 2.59998 27.3969 2.01795 27.3969 1.29998Z" fill="#8091AF"/>
<path d="M33.9984 1.29998C33.9984 0.58201 33.4164 -2.28882e-05 32.6984 -2.28882e-05C31.9805 -2.28882e-05 31.3984 0.58201 31.3984 1.29998C31.3984 2.01795 31.9805 2.59998 32.6984 2.59998C33.4164 2.59998 33.9984 2.01795 33.9984 1.29998Z" fill="#8091AF"/>
<path d="M40.6 1.29998C40.6 0.58201 40.018 -2.28882e-05 39.3 -2.28882e-05C38.582 -2.28882e-05 38 0.58201 38 1.29998C38 2.01795 38.582 2.59998 39.3 2.59998C40.018 2.59998 40.6 2.01795 40.6 1.29998Z" fill="#8091AF"/>
<path d="M47.2016 1.29998C47.2016 0.58201 46.6195 -2.28882e-05 45.9016 -2.28882e-05C45.1836 -2.28882e-05 44.6016 0.58201 44.6016 1.29998C44.6016 2.01795 45.1836 2.59998 45.9016 2.59998C46.6195 2.59998 47.2016 2.01795 47.2016 1.29998Z" fill="#8091AF"/>
<path d="M53.8031 1.29998C53.8031 0.58201 53.2211 -2.28882e-05 52.5031 -2.28882e-05C51.7852 -2.28882e-05 51.2031 0.58201 51.2031 1.29998C51.2031 2.01795 51.7852 2.59998 52.5031 2.59998C53.2211 2.59998 53.8031 2.01795 53.8031 1.29998Z" fill="#8091AF"/>
<path d="M7.6 41.3C7.6 40.582 7.01797 40 6.3 40C5.58203 40 5 40.582 5 41.3C5 42.0179 5.58203 42.6 6.3 42.6C7.01797 42.6 7.6 42.0179 7.6 41.3Z" fill="#8091AF"/>
<path d="M14.2016 41.3C14.2016 40.582 13.6195 40 12.9016 40C12.1836 40 11.6016 40.582 11.6016 41.3C11.6016 42.0179 12.1836 42.6 12.9016 42.6C13.6195 42.6 14.2016 42.0179 14.2016 41.3Z" fill="#8091AF"/>
<path d="M20.8031 41.3C20.8031 40.582 20.2211 40 19.5031 40C18.7852 40 18.2031 40.582 18.2031 41.3C18.2031 42.0179 18.7852 42.6 19.5031 42.6C20.2211 42.6 20.8031 42.0179 20.8031 41.3Z" fill="#8091AF"/>
<path d="M27.3969 41.3C27.3969 40.582 26.8148 40 26.0969 40C25.3789 40 24.7969 40.582 24.7969 41.3C24.7969 42.0179 25.3789 42.6 26.0969 42.6C26.8148 42.6 27.3969 42.0179 27.3969 41.3Z" fill="#8091AF"/>
<path d="M33.9984 41.3C33.9984 40.582 33.4164 40 32.6984 40C31.9805 40 31.3984 40.582 31.3984 41.3C31.3984 42.0179 31.9805 42.6 32.6984 42.6C33.4164 42.6 33.9984 42.0179 33.9984 41.3Z" fill="#8091AF"/>
<path d="M40.6 41.3C40.6 40.582 40.018 40 39.3 40C38.582 40 38 40.582 38 41.3C38 42.0179 38.582 42.6 39.3 42.6C40.018 42.6 40.6 42.0179 40.6 41.3Z" fill="#8091AF"/>
<path d="M47.2016 41.3C47.2016 40.582 46.6195 40 45.9016 40C45.1836 40 44.6016 40.582 44.6016 41.3C44.6016 42.0179 45.1836 42.6 45.9016 42.6C46.6195 42.6 47.2016 42.0179 47.2016 41.3Z" fill="#8091AF"/>
<path d="M53.8031 41.3C53.8031 40.582 53.2211 40 52.5031 40C51.7852 40 51.2031 40.582 51.2031 41.3C51.2031 42.0179 51.7852 42.6 52.5031 42.6C53.2211 42.6 53.8031 42.0179 53.8031 41.3Z" fill="#8091AF"/>
</svg>
