<svg width="74" height="22" viewBox="0 0 74 22" fill="none" xmlns="http://www.w3.org/2000/svg">
<path d="M2.86293 19.0345C2.86293 18.3165 2.28325 17.7345 1.56818 17.7345C0.853114 17.7345 0.273438 18.3165 0.273438 19.0345C0.273438 19.7524 0.853114 20.3345 1.56818 20.3345C2.28325 20.3345 2.86293 19.7524 2.86293 19.0345Z" fill="#8091AF"/>
<path d="M9.63637 19.0345C9.63637 18.3165 9.05669 17.7345 8.34162 17.7345C7.62655 17.7345 7.04688 18.3165 7.04688 19.0345C7.04688 19.7524 7.62655 20.3345 8.34162 20.3345C9.05669 20.3345 9.63637 19.7524 9.63637 19.0345Z" fill="#8091AF"/>
<path d="M16.4254 19.0345C16.4254 18.3165 15.8457 17.7345 15.1307 17.7345C14.4156 17.7345 13.8359 18.3165 13.8359 19.0345C13.8359 19.7524 14.4156 20.3345 15.1307 20.3345C15.8457 20.3345 16.4254 19.7524 16.4254 19.0345Z" fill="#8091AF"/>
<path d="M22.5739 19.0345C22.5739 18.3165 21.9942 17.7345 21.2791 17.7345C20.5641 17.7345 19.9844 18.3165 19.9844 19.0345C19.9844 19.7524 20.5641 20.3345 21.2791 20.3345C21.9942 20.3345 22.5739 19.7524 22.5739 19.0345Z" fill="#8091AF"/>
<path d="M28.9879 19.0345C28.9879 18.3165 28.4083 17.7345 27.6932 17.7345C26.9781 17.7345 26.3984 18.3165 26.3984 19.0345C26.3984 19.7524 26.9781 20.3345 27.6932 20.3345C28.4083 20.3345 28.9879 19.7524 28.9879 19.0345Z" fill="#8091AF"/>
<path d="M35.4176 19.0345C35.4176 18.3165 34.8379 17.7345 34.1229 17.7345C33.4078 17.7345 32.8281 18.3165 32.8281 19.0345C32.8281 19.7524 33.4078 20.3345 34.1229 20.3345C34.8379 20.3345 35.4176 19.7524 35.4176 19.0345Z" fill="#8091AF"/>
<path d="M41.8317 19.0345C41.8317 18.3165 41.252 17.7345 40.5369 17.7345C39.8219 17.7345 39.2422 18.3165 39.2422 19.0345C39.2422 19.7524 39.8219 20.3345 40.5369 20.3345C41.252 20.3345 41.8317 19.7524 41.8317 19.0345Z" fill="#8091AF"/>
<path d="M48.6129 19.0345C48.6129 18.3165 48.0332 17.7345 47.3182 17.7345C46.6031 17.7345 46.0234 18.3165 46.0234 19.0345C46.0234 19.7524 46.6031 20.3345 47.3182 20.3345C48.0332 20.3345 48.6129 19.7524 48.6129 19.0345Z" fill="#8091AF"/>
<path d="M55.402 19.0345C55.402 18.3165 54.8223 17.7345 54.1072 17.7345C53.3922 17.7345 52.8125 18.3165 52.8125 19.0345C52.8125 19.7524 53.3922 20.3345 54.1072 20.3345C54.8223 20.3345 55.402 19.7524 55.402 19.0345Z" fill="#8091AF"/>
<path d="M2.73012 14.6048C2.73012 13.8868 2.15044 13.3048 1.43537 13.3048C0.720303 13.3048 0.140625 13.8868 0.140625 14.6048C0.140625 15.3228 0.720303 15.9048 1.43537 15.9048C2.15044 15.9048 2.73012 15.3228 2.73012 14.6048Z" fill="#8091AF"/>
<path d="M9.49574 14.6048C9.49574 13.8868 8.91606 13.3048 8.201 13.3048C7.48593 13.3048 6.90625 13.8868 6.90625 14.6048C6.90625 15.3228 7.48593 15.9048 8.201 15.9048C8.91606 15.9048 9.49574 15.3228 9.49574 14.6048Z" fill="#8091AF"/>
<path d="M16.2848 14.6048C16.2848 13.8868 15.7051 13.3048 14.9901 13.3048C14.275 13.3048 13.6953 13.8868 13.6953 14.6048C13.6953 15.3228 14.275 15.9048 14.9901 15.9048C15.7051 15.9048 16.2848 15.3228 16.2848 14.6048Z" fill="#8091AF"/>
<path d="M22.4411 14.6048C22.4411 13.8868 21.8614 13.3048 21.1463 13.3048C20.4312 13.3048 19.8516 13.8868 19.8516 14.6048C19.8516 15.3228 20.4312 15.9048 21.1463 15.9048C21.8614 15.9048 22.4411 15.3228 22.4411 14.6048Z" fill="#8091AF"/>
<path d="M28.8473 14.6048C28.8473 13.8868 28.2676 13.3048 27.5526 13.3048C26.8375 13.3048 26.2578 13.8868 26.2578 14.6048C26.2578 15.3228 26.8375 15.9048 27.5526 15.9048C28.2676 15.9048 28.8473 15.3228 28.8473 14.6048Z" fill="#8091AF"/>
<path d="M35.277 14.6048C35.277 13.8868 34.6973 13.3048 33.9822 13.3048C33.2672 13.3048 32.6875 13.8868 32.6875 14.6048C32.6875 15.3228 33.2672 15.9048 33.9822 15.9048C34.6973 15.9048 35.277 15.3228 35.277 14.6048Z" fill="#8091AF"/>
<path d="M41.7067 14.6048C41.7067 13.8868 41.127 13.3048 40.4119 13.3048C39.6969 13.3048 39.1172 13.8868 39.1172 14.6048C39.1172 15.3228 39.6969 15.9048 40.4119 15.9048C41.127 15.9048 41.7067 15.3228 41.7067 14.6048Z" fill="#8091AF"/>
<path d="M48.4723 14.6048C48.4723 13.8868 47.8926 13.3048 47.1776 13.3048C46.4625 13.3048 45.8828 13.8868 45.8828 14.6048C45.8828 15.3228 46.4625 15.9048 47.1776 15.9048C47.8926 15.9048 48.4723 15.3228 48.4723 14.6048Z" fill="#8091AF"/>
<path d="M55.2614 14.6048C55.2614 13.8868 54.6817 13.3048 53.9666 13.3048C53.2515 13.3048 52.6719 13.8868 52.6719 14.6048C52.6719 15.3228 53.2515 15.9048 53.9666 15.9048C54.6817 15.9048 55.2614 15.3228 55.2614 14.6048Z" fill="#8091AF"/>
<path d="M2.73012 10.1595C2.73012 9.4415 2.15044 8.85947 1.43537 8.85947C0.720303 8.85947 0.140625 9.4415 0.140625 10.1595C0.140625 10.8774 0.720303 11.4595 1.43537 11.4595C2.15044 11.4595 2.73012 10.8774 2.73012 10.1595Z" fill="#8091AF"/>
<path d="M9.49574 10.1595C9.49574 9.4415 8.91606 8.85947 8.201 8.85947C7.48593 8.85947 6.90625 9.4415 6.90625 10.1595C6.90625 10.8774 7.48593 11.4595 8.201 11.4595C8.91606 11.4595 9.49574 10.8774 9.49574 10.1595Z" fill="#8091AF"/>
<path d="M16.2848 10.1595C16.2848 9.4415 15.7051 8.85947 14.9901 8.85947C14.275 8.85947 13.6953 9.4415 13.6953 10.1595C13.6953 10.8774 14.275 11.4595 14.9901 11.4595C15.7051 11.4595 16.2848 10.8774 16.2848 10.1595Z" fill="#8091AF"/>
<path d="M22.4411 10.1595C22.4411 9.4415 21.8614 8.85947 21.1463 8.85947C20.4312 8.85947 19.8516 9.4415 19.8516 10.1595C19.8516 10.8774 20.4312 11.4595 21.1463 11.4595C21.8614 11.4595 22.4411 10.8774 22.4411 10.1595Z" fill="#8091AF"/>
<path d="M28.8473 10.1595C28.8473 9.4415 28.2676 8.85947 27.5526 8.85947C26.8375 8.85947 26.2578 9.4415 26.2578 10.1595C26.2578 10.8774 26.8375 11.4595 27.5526 11.4595C28.2676 11.4595 28.8473 10.8774 28.8473 10.1595Z" fill="#8091AF"/>
<path d="M35.277 10.1595C35.277 9.4415 34.6973 8.85947 33.9822 8.85947C33.2672 8.85947 32.6875 9.4415 32.6875 10.1595C32.6875 10.8774 33.2672 11.4595 33.9822 11.4595C34.6973 11.4595 35.277 10.8774 35.277 10.1595Z" fill="#8091AF"/>
<path d="M41.7067 10.1595C41.7067 9.4415 41.127 8.85947 40.4119 8.85947C39.6969 8.85947 39.1172 9.4415 39.1172 10.1595C39.1172 10.8774 39.6969 11.4595 40.4119 11.4595C41.127 11.4595 41.7067 10.8774 41.7067 10.1595Z" fill="#8091AF"/>
<path d="M48.4723 10.1595C48.4723 9.4415 47.8926 8.85947 47.1776 8.85947C46.4625 8.85947 45.8828 9.4415 45.8828 10.1595C45.8828 10.8774 46.4625 11.4595 47.1776 11.4595C47.8926 11.4595 48.4723 10.8774 48.4723 10.1595Z" fill="#8091AF"/>
<path d="M55.2614 10.1595C55.2614 9.4415 54.6817 8.85947 53.9666 8.85947C53.2515 8.85947 52.6719 9.4415 52.6719 10.1595C52.6719 10.8774 53.2515 11.4595 53.9666 11.4595C54.6817 11.4595 55.2614 10.8774 55.2614 10.1595Z" fill="#8091AF"/>
<path d="M2.73012 5.72978C2.73012 5.01181 2.15044 4.42978 1.43537 4.42978C0.720303 4.42978 0.140625 5.01181 0.140625 5.72978C0.140625 6.44775 0.720303 7.02979 1.43537 7.02979C2.15044 7.02979 2.73012 6.44775 2.73012 5.72978Z" fill="#8091AF"/>
<path d="M9.49574 5.72978C9.49574 5.01181 8.91606 4.42978 8.201 4.42978C7.48593 4.42978 6.90625 5.01181 6.90625 5.72978C6.90625 6.44775 7.48593 7.02979 8.201 7.02979C8.91606 7.02979 9.49574 6.44775 9.49574 5.72978Z" fill="#8091AF"/>
<path d="M16.2848 5.72978C16.2848 5.01181 15.7051 4.42978 14.9901 4.42978C14.275 4.42978 13.6953 5.01181 13.6953 5.72978C13.6953 6.44775 14.275 7.02979 14.9901 7.02979C15.7051 7.02979 16.2848 6.44775 16.2848 5.72978Z" fill="#8091AF"/>
<path d="M22.4411 5.72978C22.4411 5.01181 21.8614 4.42978 21.1463 4.42978C20.4312 4.42978 19.8516 5.01181 19.8516 5.72978C19.8516 6.44775 20.4312 7.02979 21.1463 7.02979C21.8614 7.02979 22.4411 6.44775 22.4411 5.72978Z" fill="#8091AF"/>
<path d="M28.8473 5.72978C28.8473 5.01181 28.2676 4.42978 27.5526 4.42978C26.8375 4.42978 26.2578 5.01181 26.2578 5.72978C26.2578 6.44775 26.8375 7.02979 27.5526 7.02979C28.2676 7.02979 28.8473 6.44775 28.8473 5.72978Z" fill="#8091AF"/>
<path d="M35.277 5.72978C35.277 5.01181 34.6973 4.42978 33.9822 4.42978C33.2672 4.42978 32.6875 5.01181 32.6875 5.72978C32.6875 6.44775 33.2672 7.02979 33.9822 7.02979C34.6973 7.02979 35.277 6.44775 35.277 5.72978Z" fill="#8091AF"/>
<path d="M41.7067 5.72978C41.7067 5.01181 41.127 4.42978 40.4119 4.42978C39.6969 4.42978 39.1172 5.01181 39.1172 5.72978C39.1172 6.44775 39.6969 7.02979 40.4119 7.02979C41.127 7.02979 41.7067 6.44775 41.7067 5.72978Z" fill="#8091AF"/>
<path d="M48.4723 5.72978C48.4723 5.01181 47.8926 4.42978 47.1776 4.42978C46.4625 4.42978 45.8828 5.01181 45.8828 5.72978C45.8828 6.44775 46.4625 7.02979 47.1776 7.02979C47.8926 7.02979 48.4723 6.44775 48.4723 5.72978Z" fill="#8091AF"/>
<path d="M55.2614 5.72978C55.2614 5.01181 54.6817 4.42978 53.9666 4.42978C53.2515 4.42978 52.6719 5.01181 52.6719 5.72978C52.6719 6.44775 53.2515 7.02979 53.9666 7.02979C54.6817 7.02979 55.2614 6.44775 55.2614 5.72978Z" fill="#8091AF"/>
<path d="M2.58949 1.30009C2.58949 0.582124 2.00981 9.53674e-05 1.29474 9.53674e-05C0.579676 9.53674e-05 0 0.582124 0 1.30009C0 2.01806 0.579676 2.6001 1.29474 2.6001C2.00981 2.6001 2.58949 2.01806 2.58949 1.30009Z" fill="#8091AF"/>
<path d="M9.37074 1.30009C9.37074 0.582124 8.79106 9.53674e-05 8.076 9.53674e-05C7.36093 9.53674e-05 6.78125 0.582124 6.78125 1.30009C6.78125 2.01806 7.36093 2.6001 8.076 2.6001C8.79106 2.6001 9.37074 2.01806 9.37074 1.30009Z" fill="#8091AF"/>
<path d="M16.152 1.30009C16.152 0.582124 15.5723 9.53674e-05 14.8572 9.53674e-05C14.1422 9.53674e-05 13.5625 0.582124 13.5625 1.30009C13.5625 2.01806 14.1422 2.6001 14.8572 2.6001C15.5723 2.6001 16.152 2.01806 16.152 1.30009Z" fill="#8091AF"/>
<path d="M22.3004 1.30009C22.3004 0.582124 21.7207 9.53674e-05 21.0057 9.53674e-05C20.2906 9.53674e-05 19.7109 0.582124 19.7109 1.30009C19.7109 2.01806 20.2906 2.6001 21.0057 2.6001C21.7207 2.6001 22.3004 2.01806 22.3004 1.30009Z" fill="#8091AF"/>
<path d="M28.7223 1.30009C28.7223 0.582124 28.1426 9.53674e-05 27.4276 9.53674e-05C26.7125 9.53674e-05 26.1328 0.582124 26.1328 1.30009C26.1328 2.01806 26.7125 2.6001 27.4276 2.6001C28.1426 2.6001 28.7223 2.01806 28.7223 1.30009Z" fill="#8091AF"/>
<path d="M35.1364 1.30009C35.1364 0.582124 34.5567 9.53674e-05 33.8416 9.53674e-05C33.1266 9.53674e-05 32.5469 0.582124 32.5469 1.30009C32.5469 2.01806 33.1266 2.6001 33.8416 2.6001C34.5567 2.6001 35.1364 2.01806 35.1364 1.30009Z" fill="#8091AF"/>
<path d="M41.5661 1.30009C41.5661 0.582124 40.9864 9.53674e-05 40.2713 9.53674e-05C39.5562 9.53674e-05 38.9766 0.582124 38.9766 1.30009C38.9766 2.01806 39.5562 2.6001 40.2713 2.6001C40.9864 2.6001 41.5661 2.01806 41.5661 1.30009Z" fill="#8091AF"/>
<path d="M48.3395 1.30009C48.3395 0.582124 47.7598 9.53674e-05 47.0447 9.53674e-05C46.3297 9.53674e-05 45.75 0.582124 45.75 1.30009C45.75 2.01806 46.3297 2.6001 47.0447 2.6001C47.7598 2.6001 48.3395 2.01806 48.3395 1.30009Z" fill="#8091AF"/>
<path d="M55.1286 1.30009C55.1286 0.582124 54.5489 9.53674e-05 53.8338 9.53674e-05C53.1187 9.53674e-05 52.5391 0.582124 52.5391 1.30009C52.5391 2.01806 53.1187 2.6001 53.8338 2.6001C54.5489 2.6001 55.1286 2.01806 55.1286 1.30009Z" fill="#8091AF"/>
<path d="M73.8984 21.0326V0L67.9984 0V21.0326H73.8984Z" fill="#8091AF"/>
</svg>
