<svg width="71" height="41" viewBox="0 0 71 41" fill="none" xmlns="http://www.w3.org/2000/svg">
<path d="M61.6562 12.2383H59.6562C58.5517 12.2383 57.6562 13.1337 57.6562 14.2383V26.2383C57.6562 27.3429 58.5517 28.2383 59.6562 28.2383H61.6562C62.7608 28.2383 63.6562 27.3429 63.6562 26.2383V14.2383C63.6562 13.1337 62.7608 12.2383 61.6562 12.2383Z" fill="#DEDFE3"/>
<path d="M10.6562 18.2383C12.3131 18.2383 13.6562 16.8951 13.6562 15.2383C13.6562 13.5814 12.3131 12.2383 10.6562 12.2383C8.9994 12.2383 7.65625 13.5814 7.65625 15.2383C7.65625 16.8951 8.9994 18.2383 10.6562 18.2383Z" fill="#00A287"/>
<path d="M20.6562 18.2383C22.3131 18.2383 23.6562 16.8951 23.6562 15.2383C23.6562 13.5814 22.3131 12.2383 20.6562 12.2383C18.9994 12.2383 17.6562 13.5814 17.6562 15.2383C17.6562 16.8951 18.9994 18.2383 20.6562 18.2383Z" fill="#00A287"/>
<path d="M30.6562 18.2383C32.3131 18.2383 33.6562 16.8951 33.6562 15.2383C33.6562 13.5814 32.3131 12.2383 30.6562 12.2383C28.9994 12.2383 27.6562 13.5814 27.6562 15.2383C27.6562 16.8951 28.9994 18.2383 30.6562 18.2383Z" fill="#00A287"/>
<path d="M40.6562 18.2383C42.3131 18.2383 43.6562 16.8951 43.6562 15.2383C43.6562 13.5814 42.3131 12.2383 40.6562 12.2383C38.9994 12.2383 37.6562 13.5814 37.6562 15.2383C37.6562 16.8951 38.9994 18.2383 40.6562 18.2383Z" fill="#00A287"/>
<path d="M20.6562 38.2383C22.3131 38.2383 23.6562 36.8951 23.6562 35.2383C23.6562 33.5814 22.3131 32.2383 20.6562 32.2383C18.9994 32.2383 17.6562 33.5814 17.6562 35.2383C17.6562 36.8951 18.9994 38.2383 20.6562 38.2383Z" fill="#00A287"/>
<path d="M30.6562 38.2383C32.3131 38.2383 33.6562 36.8951 33.6562 35.2383C33.6562 33.5814 32.3131 32.2383 30.6562 32.2383C28.9994 32.2383 27.6562 33.5814 27.6562 35.2383C27.6562 36.8951 28.9994 38.2383 30.6562 38.2383Z" fill="#00A287"/>
<path d="M40.6562 38.2383C42.3131 38.2383 43.6562 36.8951 43.6562 35.2383C43.6562 33.5814 42.3131 32.2383 40.6562 32.2383C38.9994 32.2383 37.6562 33.5814 37.6562 35.2383C37.6562 36.8951 38.9994 38.2383 40.6562 38.2383Z" fill="#00A287"/>
<path d="M50.6562 38.2383C52.3131 38.2383 53.6562 36.8951 53.6562 35.2383C53.6562 33.5814 52.3131 32.2383 50.6562 32.2383C48.9994 32.2383 47.6562 33.5814 47.6562 35.2383C47.6562 36.8951 48.9994 38.2383 50.6562 38.2383Z" fill="#00A287"/>
<path d="M20.6562 8.23828C22.3131 8.23828 23.6562 6.89514 23.6562 5.23828C23.6562 3.58143 22.3131 2.23828 20.6562 2.23828C18.9994 2.23828 17.6562 3.58143 17.6562 5.23828C17.6562 6.89514 18.9994 8.23828 20.6562 8.23828Z" fill="#00A287"/>
<path d="M30.6562 8.23828C32.3131 8.23828 33.6562 6.89514 33.6562 5.23828C33.6562 3.58143 32.3131 2.23828 30.6562 2.23828C28.9994 2.23828 27.6562 3.58143 27.6562 5.23828C27.6562 6.89514 28.9994 8.23828 30.6562 8.23828Z" fill="#00A287"/>
<path d="M40.6562 8.23828C42.3131 8.23828 43.6562 6.89514 43.6562 5.23828C43.6562 3.58143 42.3131 2.23828 40.6562 2.23828C38.9994 2.23828 37.6562 3.58143 37.6562 5.23828C37.6562 6.89514 38.9994 8.23828 40.6562 8.23828Z" fill="#00A287"/>
<path d="M50.6562 8.23828C52.3131 8.23828 53.6562 6.89514 53.6562 5.23828C53.6562 3.58143 52.3131 2.23828 50.6562 2.23828C48.9994 2.23828 47.6562 3.58143 47.6562 5.23828C47.6562 6.89514 48.9994 8.23828 50.6562 8.23828Z" fill="#00A287"/>
<path d="M10.6562 28.2383C12.3131 28.2383 13.6562 26.8951 13.6562 25.2383C13.6562 23.5814 12.3131 22.2383 10.6562 22.2383C8.9994 22.2383 7.65625 23.5814 7.65625 25.2383C7.65625 26.8951 8.9994 28.2383 10.6562 28.2383Z" fill="#00A287"/>
<path d="M20.6562 28.2383C22.3131 28.2383 23.6562 26.8951 23.6562 25.2383C23.6562 23.5814 22.3131 22.2383 20.6562 22.2383C18.9994 22.2383 17.6562 23.5814 17.6562 25.2383C17.6562 26.8951 18.9994 28.2383 20.6562 28.2383Z" fill="#00A287"/>
<path d="M30.6562 28.2383C32.3131 28.2383 33.6562 26.8951 33.6562 25.2383C33.6562 23.5814 32.3131 22.2383 30.6562 22.2383C28.9994 22.2383 27.6562 23.5814 27.6562 25.2383C27.6562 26.8951 28.9994 28.2383 30.6562 28.2383Z" fill="#00A287"/>
<path d="M40.6562 28.2383C42.3131 28.2383 43.6562 26.8951 43.6562 25.2383C43.6562 23.5814 42.3131 22.2383 40.6562 22.2383C38.9994 22.2383 37.6562 23.5814 37.6562 25.2383C37.6562 26.8951 38.9994 28.2383 40.6562 28.2383Z" fill="#00A287"/>
</svg>
