<svg xmlns="http://www.w3.org/2000/svg" xmlns:xlink="http://www.w3.org/1999/xlink" version="1.1" x="0px" y="0px" 
viewBox="0 0 100 125" style="enable-background:new 0 0 100 100;" xml:space="preserve"><circle cx="41.02" cy="78.46" 
r="1.3"/><circle cx="47.3" cy="78.46" r="1.3"/><circle cx="53.48" cy="78.46" r="1.3"/><circle cx="59.92" cy="78.46" r="1.3"/>
<circle cx="70.02" cy="34.41" r="1.3"/><circle cx="70.02" cy="41.22" r="1.3"/><circle cx="70.02" cy="48.03" r="1.3"/>
<circle cx="70.02" cy="54.2" r="1.3"/><circle cx="70.02" cy="60.65" r="1.3"/><circle cx="70.02" cy="67.1" r="1.3"/>
<circle cx="29.59" cy="34.41" r="1.3"/><circle cx="29.59" cy="41.22" r="1.3"/><circle cx="29.59" cy="48.03" r="1.3"/>
<circle cx="29.59" cy="54.2" r="1.3"/><circle cx="29.59" cy="60.65" r="1.3"/><circle cx="29.59" cy="67.1" r="1.3"/>
<g><polygon points="67.03,75.06 33.49,75.06 33.49,27.44 38.49,27.44 38.49,70.06 62.03,70.06 62.03,27.44 67.03,27.44  "/></g>
</svg>