<svg width="272" height="206" viewBox="0 0 272 206" fill="none" xmlns="http://www.w3.org/2000/svg">
<path d="M272 180.811H0.0375977V180.947H272V180.811Z" fill="#E6E6E6"/>
<path d="M42.5834 186.881H28.1313V187.017H42.5834V186.881Z" fill="#E6E6E6"/>
<path d="M47.8105 184.161H35.3546V184.297H47.8105V184.161Z" fill="#E6E6E6"/>
<path d="M177.036 184.564H143.612V184.7H177.036V184.564Z" fill="#E6E6E6"/>
<path d="M188.187 184.564H180.169V184.7H188.187V184.564Z" fill="#E6E6E6"/>
<path d="M233.773 185.494H207.306V185.63H233.773V185.494Z" fill="#E6E6E6"/>
<path d="M105.108 187.664H57.9873V187.8H105.108V187.664Z" fill="#E6E6E6"/>
<path d="M242.405 185.494H238.549V185.63H242.405V185.494Z" fill="#E6E6E6"/>
<path d="M128.948 156.552H23.9213C23.0985 156.55 22.3099 156.222 21.7287 155.64C21.1474 155.058 20.8209 154.269 20.8209 153.446V5.80841C20.8281 4.99036 21.1577 4.20817 21.7382 3.63174C22.3187 3.05531 23.1032 2.7312 23.9213 2.7298H128.948C129.771 2.7298 130.561 3.05702 131.144 3.63947C131.726 4.22192 132.054 5.0119 132.054 5.83561V153.446C132.054 154.27 131.726 155.06 131.144 155.642C130.561 156.225 129.771 156.552 128.948 156.552ZM23.9213 2.83858C23.1346 2.84002 22.3806 3.15355 21.8248 3.71035C21.269 4.26714 20.9569 5.02171 20.9569 5.80841V153.446C20.9569 154.233 21.269 154.987 21.8248 155.544C22.3806 156.101 23.1346 156.414 23.9213 156.416H128.948C129.735 156.414 130.49 156.101 131.046 155.544C131.603 154.988 131.916 154.233 131.918 153.446V5.80841C131.916 5.02121 131.603 4.26665 131.046 3.71001C130.49 3.15337 129.735 2.84002 128.948 2.83858H23.9213Z" fill="#E6E6E6"/>
<path d="M246.604 156.552H141.572C140.749 156.55 139.96 156.223 139.378 155.64C138.796 155.058 138.468 154.269 138.466 153.446V5.80841C138.475 4.98987 138.806 4.20768 139.387 3.6314C139.969 3.05512 140.754 2.73118 141.572 2.7298H246.604C247.421 2.73263 248.204 3.05738 248.784 3.63365C249.363 4.20993 249.692 4.9913 249.699 5.80841V153.446C249.699 154.268 249.373 155.056 248.793 155.638C248.213 156.22 247.426 156.549 246.604 156.552ZM141.572 2.83858C140.785 2.84002 140.03 3.15337 139.474 3.71001C138.917 4.26665 138.604 5.02121 138.602 5.80841V153.446C138.604 154.233 138.917 154.988 139.474 155.544C140.03 156.101 140.785 156.414 141.572 156.416H246.604C247.391 156.414 248.146 156.101 248.703 155.544C249.259 154.988 249.573 154.233 249.574 153.446V5.80841C249.573 5.02121 249.259 4.26665 248.703 3.71001C248.146 3.15337 247.391 2.84002 246.604 2.83858H141.572Z" fill="#E6E6E6"/>
<path d="M83.4913 87.2679C85.0054 80.6991 80.9078 74.1467 74.339 72.6326C67.7703 71.1185 61.2178 75.2161 59.7037 81.7849C58.1896 88.3536 62.2872 94.9061 68.856 96.4202C75.4247 97.9343 81.9772 93.8367 83.4913 87.2679Z" fill="#F0F0F0"/>
<path d="M154.828 82.0014C153.31 78.7379 154.518 76.3718 158.238 76.3718C160.566 76.3718 163.46 77.2965 166.277 78.7923C166.598 77.9383 167.49 77.427 168.932 77.427C171.472 77.427 174.969 79.0098 177.711 81.2345C178.557 80.6684 179.554 80.3708 180.572 80.3805C183.003 80.2826 185.94 81.191 188.497 82.6704C188.647 82.5283 188.823 82.4175 189.017 82.3446C189.21 82.2718 189.416 82.2383 189.623 82.2462C190.433 82.2734 191.228 82.4699 191.958 82.8231C192.688 83.1762 193.336 83.6782 193.86 84.2968C193.92 84.3675 193.969 84.4436 194.023 84.5144H152.94C151.64 83.3558 153.076 82.0613 154.828 82.0014Z" fill="#F5F5F5"/>
<path d="M74.7947 107.256L108.453 99.5484V180.811H74.7947V107.256Z" fill="#FAFAFA"/>
<path d="M125.918 99.5484H108.453V180.811H125.918V99.5484Z" fill="#EBEBEB"/>
<path d="M120.212 180.811H148.861V80.114H120.212L120.212 180.811Z" fill="#FAFAFA"/>
<path d="M163.726 80.114H148.861V180.811H163.726V80.114Z" fill="#EBEBEB"/>
<path d="M124.069 80.114H148.861V72.6296H124.069V80.114Z" fill="#FAFAFA"/>
<path d="M124.069 80.114H148.861V78.4332H124.069V80.114Z" fill="#EBEBEB"/>
<path d="M159.875 72.6296H148.861V80.114H159.875V72.6296Z" fill="#EBEBEB"/>
<path d="M127.92 72.6296H148.855V65.1452H127.92V72.6296Z" fill="#FAFAFA"/>
<path d="M127.92 72.6296H148.855V70.9488H127.92V72.6296Z" fill="#EBEBEB"/>
<path d="M156.019 65.1506H148.861V72.635H156.019V65.1506Z" fill="#EBEBEB"/>
<path d="M142.666 54.6964H141.273V65.1506H142.666V54.6964Z" fill="#EBEBEB"/>
<path d="M158.978 180.811H179.897V93.2008H158.978V180.811Z" fill="#FAFAFA"/>
<path d="M190.759 93.2008H179.903V180.811H190.759V93.2008Z" fill="#EBEBEB"/>
<path d="M185.331 110.971L201.192 124.569V180.811H185.331V110.971Z" fill="#FAFAFA"/>
<path d="M209.427 124.569H201.192V180.811H209.427V124.569Z" fill="#EBEBEB"/>
<path d="M209.427 124.569H201.192L185.331 110.971H193.561L209.427 124.569Z" fill="#EBEBEB"/>
<path d="M239.31 180.811C239.544 179.504 240.099 178.276 240.926 177.238C241.753 176.2 242.826 175.385 244.048 174.866C242.975 176.654 242.488 178.732 242.655 180.811H239.31Z" fill="#EBEBEB"/>
<path d="M101.371 180.811C101.137 179.504 100.582 178.276 99.7549 177.238C98.9277 176.2 97.8548 175.385 96.6332 174.866C97.7056 176.654 98.1924 178.732 98.0256 180.811H101.371Z" fill="#EBEBEB"/>
<path d="M32.0585 180.811C32.0585 180.811 31.792 173.849 28.882 171.825C30.0732 174.67 29.8175 180.811 29.8175 180.811H32.0585Z" fill="#EBEBEB"/>
<path d="M30.9652 180.811C30.9652 180.811 31.2372 176.813 34.1472 175.654C32.9505 177.286 33.2116 180.811 33.2116 180.811H30.9652Z" fill="#EBEBEB"/>
<path d="M103.862 180.811C103.862 180.811 103.568 174.218 98.2922 171.825C100.653 175.208 100.517 180.811 100.517 180.811H103.862Z" fill="#EBEBEB"/>
<path d="M50.9924 136.432L54.8325 163.519L55.2133 166.228H57.6773L57.2911 163.519L53.451 136.432H50.9924Z" fill="#E0E0E0"/>
<path d="M156.508 136.432L160.349 163.519L160.729 166.228H163.193L162.807 163.519L158.967 136.432H156.508Z" fill="#E0E0E0"/>
<path d="M66.7609 163.519L67.1471 166.228L69.2194 180.833H71.6834L69.611 166.228L69.2303 163.519H66.7609Z" fill="#E6E6E6"/>
<path d="M172.282 163.519L172.668 166.228L174.735 180.833H177.194L175.127 166.228L174.746 163.519H172.282Z" fill="#E6E6E6"/>
<path d="M159.848 163.519L159.462 166.228L157.39 180.833H154.926L156.998 166.228L157.379 163.519H159.848Z" fill="#E6E6E6"/>
<path d="M54.3268 163.519L53.9406 166.228L51.8737 180.833H49.4152L51.4821 166.228L51.8683 163.519H54.3268Z" fill="#E6E6E6"/>
<path d="M47.4515 140.201H160.223L158.129 132.657H45.3574L47.4515 140.201Z" fill="#F5F5F5"/>
<path d="M50.0243 140.201H162.802L160.708 132.657H47.9302L50.0243 140.201Z" fill="#E6E6E6"/>
<path d="M49.0235 149.606H161.795L159.701 142.067H46.924L49.0235 149.606Z" fill="#F5F5F5"/>
<path d="M51.5962 149.606H164.368L162.274 142.067H49.5021L51.5962 149.606Z" fill="#E6E6E6"/>
<path d="M50.59 159.027H163.367L161.273 151.488H48.4958L50.59 159.027Z" fill="#F5F5F5"/>
<path d="M53.1682 159.027H165.94L163.846 151.488H51.0741L53.1682 159.027Z" fill="#E6E6E6"/>
<path d="M176.204 163.519H63.927V166.228H176.204V163.519Z" fill="#E6E6E6"/>
<path d="M63.927 163.519H48.4958V166.228H63.927V163.519Z" fill="#F5F5F5"/>
<path d="M40.0161 53.0265C37.9111 48.4793 39.5864 45.243 44.732 45.243C47.9574 45.243 51.9553 46.5158 55.8552 48.5881C56.2958 47.4078 57.536 46.7007 59.5267 46.7007C63.0405 46.7007 67.876 48.8764 71.6726 51.9822C72.8411 51.1982 74.2198 50.7867 75.6269 50.8019C78.9883 50.6605 83.0569 51.9224 86.5924 53.9675C87.0127 53.5735 87.5722 53.3622 88.148 53.3801C90.0844 53.2985 92.7061 54.5713 94.0061 56.2139C94.0877 56.3173 94.1584 56.4152 94.2291 56.5185H37.4053C35.6103 54.9031 37.5957 53.1081 40.0161 53.0265Z" fill="#F5F5F5"/>
<path d="M189.275 62.4038C189.418 62.3955 189.561 62.3955 189.704 62.4038C189.574 60.9189 190.341 59.967 191.989 59.967C193.453 60.0661 194.871 60.5237 196.117 61.2996C195.693 58.4168 197.058 56.5403 200.137 56.5403C202.622 56.5403 205.772 57.7587 208.883 59.7494C209.155 58.6181 210.069 57.9382 211.603 57.9382C214.322 57.9382 218.13 60.0377 221.23 62.9967C222.045 62.256 223.11 61.8518 224.211 61.8653C226.784 61.7293 229.982 62.9532 232.816 64.9004C232.952 64.7218 233.13 64.579 233.333 64.4843C233.537 64.3895 233.761 64.3457 233.985 64.3565C235.394 64.2858 237.33 65.3682 238.462 66.815H187.012C185.799 64.5741 186.762 62.654 189.275 62.4038Z" fill="#F5F5F5"/>
<path d="M102.72 29.5072C102.861 29.499 103.003 29.499 103.144 29.5072C103.013 28.0169 103.786 27.0704 105.428 27.0704C106.895 27.1686 108.315 27.6263 109.562 28.4031C109.138 25.5148 110.498 23.6383 113.576 23.6383C116.068 23.6383 119.212 24.8621 122.323 26.8529C122.595 25.7215 123.509 25.0416 125.042 25.0416C127.762 25.0416 131.57 27.1357 134.67 30.1001C135.486 29.3617 136.55 28.9561 137.651 28.9633C140.223 28.8328 143.422 30.0511 146.255 31.9984C146.392 31.8201 146.57 31.6776 146.773 31.5829C146.977 31.4882 147.201 31.4441 147.425 31.4545C148.834 31.3783 150.776 32.4607 151.901 33.913H100.452C99.2441 31.6775 100.207 29.7574 102.72 29.5072Z" fill="#F5F5F5"/>
<path d="M231.081 171.401L221.415 161.735H213.887L222.242 170.09H219.946V180.811H228.785V171.401H231.081Z" fill="#EBEBEB"/>
<path d="M223.553 171.401L213.887 161.735L204.222 171.401H207.828V180.811H219.946V171.401H223.553Z" fill="#FAFAFA"/>
<path d="M136.019 205.374C194.264 205.374 241.48 202.618 241.48 199.217C241.48 195.817 194.264 193.06 136.019 193.06C77.774 193.06 30.5573 195.817 30.5573 199.217C30.5573 202.618 77.774 205.374 136.019 205.374Z" fill="#F5F5F5"/>
<path d="M218.238 31.4055L203.743 16.9099H192.451L204.983 29.4419H201.534V45.5149H214.79V31.4055H218.238Z" fill="#8091AF"/>
<path opacity="0.4" d="M218.238 31.4055L203.743 16.9099H192.451L204.983 29.4419H201.534V45.5149H214.79V31.4055H218.238Z" fill="white"/>
<path d="M206.947 31.4055L192.451 16.9099L177.955 31.4055H183.367V45.5149H201.534V31.4055H206.947Z" fill="#8091AF"/>
<path opacity="0.7" d="M206.947 31.4055L192.451 16.9099L177.955 31.4055H183.367V45.5149H201.534V31.4055H206.947Z" fill="white"/>
<path d="M227.572 89.2683L213.077 74.7672H201.785L214.317 87.2992H210.868V103.372H224.124V89.2683H227.572Z" fill="#8091AF"/>
<path opacity="0.4" d="M227.572 89.2683L213.077 74.7672H201.785L214.317 87.2992H210.868V103.372H224.124V89.2683H227.572Z" fill="white"/>
<path d="M216.28 89.2683L201.785 74.7672L187.289 89.2683H192.696V103.372H210.868V89.2683H216.28Z" fill="#8091AF"/>
<path opacity="0.7" d="M216.28 89.2683L201.785 74.7672L187.289 89.2683H192.696V103.372H210.868V89.2683H216.28Z" fill="white"/>
<path d="M162.334 104.34L147.833 89.8448H136.546L149.078 102.371H145.63V118.45H158.885V104.34H162.334Z" fill="#8091AF"/>
<path opacity="0.4" d="M162.334 104.34L147.833 89.8448H136.546L149.078 102.371H145.63V118.45H158.885V104.34H162.334Z" fill="white"/>
<path d="M151.042 104.34L136.546 89.8448L122.051 104.34H127.457V118.444H145.63V104.34H151.042Z" fill="#8091AF"/>
<path opacity="0.7" d="M151.042 104.34L136.546 89.8448L122.051 104.34H127.457V118.444H145.63V104.34H151.042Z" fill="white"/>
<path d="M161.469 55.6319H153.669L152.554 54.5223L143.498 37.6606L161.469 55.6319Z" fill="#2F54C6"/>
<path d="M153.642 72.0095H170.074V52.0801H153.642V72.0095Z" fill="#8091AF"/>
<path opacity="0.3" d="M153.642 72.0095H170.074V52.0801H153.642V72.0095Z" fill="black"/>
<path d="M160.354 54.5223H174.355L156.378 36.5456H142.383L160.354 54.5223Z" fill="#8091AF"/>
<path opacity="0.3" d="M160.354 54.5223H174.355L156.378 36.5456H142.383L160.354 54.5223Z" fill="black"/>
<path d="M153.642 49.4801V72.0095H131.118V49.4801L142.383 38.5418L142.497 38.656L143.498 39.6242L153.642 49.4801Z" fill="#8091AF"/>
<path opacity="0.3" d="M143.498 37.6606V45.4605L133.321 55.6319H131.118V50.0404L142.497 38.656L143.498 37.6606Z" fill="black"/>
<path d="M160.354 54.5223H152.554L142.383 44.3455V36.5456L160.354 54.5223Z" fill="#8091AF"/>
<path d="M124.406 54.5223H132.206L142.383 44.3455V36.5456L124.406 54.5223Z" fill="#8091AF"/>
<path d="M121.877 77.4542C117.237 81.2181 112.451 84.7591 107.637 88.2402C102.823 91.7213 97.944 95.1045 93.0487 98.4605C88.1534 101.817 83.1765 105.047 78.1778 108.251C75.6921 109.883 73.1683 111.428 70.6608 113.016C69.424 113.868 68.0574 114.515 66.614 114.931C65.8315 115.142 65.0296 115.273 64.2207 115.322C63.3117 115.397 62.3967 115.348 61.5011 115.175C60.7999 115.033 60.1337 114.753 59.5408 114.353C58.9478 113.952 58.4397 113.438 58.0456 112.841C57.6515 112.244 57.3791 111.575 57.244 110.872C57.109 110.169 57.1139 109.447 57.2585 108.746C57.2585 108.665 57.2965 108.561 57.3183 108.474C57.5623 107.593 57.9285 106.751 58.4061 105.972C58.808 105.278 59.28 104.628 59.8149 104.03C60.8225 102.916 62.0035 101.972 63.3123 101.235C65.8416 99.6789 68.3491 98.0961 70.8892 96.5731C75.9531 93.4782 81.066 90.4703 86.2061 87.5005C91.3462 84.5306 96.5407 81.6533 101.779 78.8466C107.017 76.04 112.298 73.304 117.716 70.7802C118.59 70.4012 119.571 70.3486 120.48 70.632C121.39 70.9154 122.168 71.516 122.672 72.3245C123.176 73.1329 123.373 74.0955 123.227 75.0369C123.081 75.9784 122.602 76.8362 121.877 77.4542Z" fill="#8091AF"/>
<path d="M121.877 77.4542C117.237 81.2181 112.451 84.7591 107.637 88.2402C102.823 91.7213 97.944 95.1045 93.0487 98.4605C88.1534 101.817 83.1765 105.047 78.1778 108.251C75.6921 109.883 73.1683 111.428 70.6608 113.016C69.424 113.868 68.0574 114.515 66.614 114.931C65.8315 115.142 65.0296 115.273 64.2207 115.322C63.3117 115.397 62.3967 115.348 61.5011 115.175C60.7999 115.033 60.1337 114.753 59.5408 114.353C58.9478 113.952 58.4397 113.438 58.0456 112.841C57.6515 112.244 57.3791 111.575 57.244 110.872C57.109 110.169 57.1139 109.447 57.2585 108.746C57.2585 108.665 57.2965 108.561 57.3183 108.474C57.5623 107.593 57.9285 106.751 58.4061 105.972C58.808 105.278 59.28 104.628 59.8149 104.03C60.8225 102.916 62.0035 101.972 63.3123 101.235C65.8416 99.6789 68.3491 98.0961 70.8892 96.5731C75.9531 93.4782 81.066 90.4703 86.2061 87.5005C91.3462 84.5306 96.5407 81.6533 101.779 78.8466C107.017 76.04 112.298 73.304 117.716 70.7802C118.59 70.4012 119.571 70.3486 120.48 70.632C121.39 70.9154 122.168 71.516 122.672 72.3245C123.176 73.1329 123.373 74.0955 123.227 75.0369C123.081 75.9784 122.602 76.8362 121.877 77.4542Z" fill="#8091AF"/>
<path opacity="0.5" d="M121.877 77.4542C117.237 81.2181 112.451 84.7591 107.637 88.2402C102.823 91.7213 97.944 95.1045 93.0487 98.4605C88.1534 101.817 83.1765 105.047 78.1778 108.251C75.6921 109.883 73.1683 111.428 70.6608 113.016C69.424 113.868 68.0574 114.515 66.614 114.931C65.8315 115.142 65.0296 115.273 64.2207 115.322C63.3117 115.397 62.3967 115.348 61.5011 115.175C60.7999 115.033 60.1337 114.753 59.5408 114.353C58.9478 113.952 58.4397 113.438 58.0456 112.841C57.6515 112.244 57.3791 111.575 57.244 110.872C57.109 110.169 57.1139 109.447 57.2585 108.746C57.2585 108.665 57.2965 108.561 57.3183 108.474C57.5623 107.593 57.9285 106.751 58.4061 105.972C58.808 105.278 59.28 104.628 59.8149 104.03C60.8225 102.916 62.0035 101.972 63.3123 101.235C65.8416 99.6789 68.3491 98.0961 70.8892 96.5731C75.9531 93.4782 81.066 90.4703 86.2061 87.5005C91.3462 84.5306 96.5407 81.6533 101.779 78.8466C107.017 76.04 112.298 73.304 117.716 70.7802C118.59 70.4012 119.571 70.3486 120.48 70.632C121.39 70.9154 122.168 71.516 122.672 72.3245C123.176 73.1329 123.373 74.0955 123.227 75.0369C123.081 75.9784 122.602 76.8362 121.877 77.4542Z" fill="white"/>
<path d="M101.806 194.534L106.244 193.506L104.167 183.155L99.7281 184.183L101.806 194.534Z" fill="#EBB376"/>
<path d="M71.8791 70.8455C71.2645 73.0212 70.6716 75.3111 70.1059 77.5521C69.5402 79.793 69.0181 82.0667 68.5829 84.3294C68.3436 85.4553 68.1369 86.6084 67.9574 87.6691C67.7779 88.7297 67.6746 89.8448 67.6093 90.9598C67.5522 92.0687 67.5522 93.1798 67.6093 94.2886C67.6093 94.8326 67.68 95.3765 67.7344 95.9531C67.7888 96.5296 67.8867 97.079 67.9629 97.5522L65.7872 98.3735C65.5017 97.7889 65.2563 97.1856 65.0529 96.5677C64.8401 95.9738 64.6585 95.3693 64.5089 94.7564C64.2113 93.5336 64.0076 92.2898 63.8997 91.036C63.799 89.7693 63.7809 88.4975 63.8453 87.2285C63.9324 85.9448 64.0847 84.7645 64.2533 83.5679C64.596 81.1801 65.0365 78.814 65.5587 76.4969C66.0809 74.1797 66.6466 71.8463 67.3809 69.502L71.8791 70.8455Z" fill="#EBB376"/>
<path d="M65.4772 71.5961L70.0516 75.2404L72.7984 77.4161C72.7984 77.4161 73.0867 76.6492 73.4348 75.5505C74.0984 73.4291 74.9632 70.0677 74.3649 68.5229C73.4239 66.0753 71.6453 63.867 69.3934 64.3565C67.4843 64.7862 65.4772 71.5961 65.4772 71.5961Z" fill="#263238"/>
<path d="M71.7976 194.567H76.3502L75.9967 184.014H71.4386L71.7976 194.567Z" fill="#EBB376"/>
<path d="M104.167 183.161L105.282 188.703L100.8 189.519L99.7227 184.189L104.167 183.161Z" fill="#DA9D62"/>
<path d="M71.4386 184.014H75.9967L76.1762 189.454H71.6181L71.4386 184.014Z" fill="#DA9D62"/>
<path d="M86.2877 91.9987C86.2877 91.9987 83.6442 123.269 80.9029 140.892C78.6891 155.127 76.9377 188.404 76.9377 188.404H70.7478C70.7478 188.404 67.7888 156.269 68.9148 142.17C71.7595 106.549 66.7391 100.239 72.695 91.9824L86.2877 91.9987Z" fill="#8091AF"/>
<path opacity="0.6" d="M86.2877 91.9987C86.2877 91.9987 83.6442 123.269 80.9029 140.892C78.6891 155.127 76.9377 188.404 76.9377 188.404H70.7478C70.7478 188.404 67.7888 156.269 68.9148 142.17C71.7595 106.549 66.7391 100.239 72.695 91.9824L86.2877 91.9987Z" fill="black"/>
<path d="M66.0864 98.02L63.3994 99.8476L63.7802 101.409C63.7802 101.409 69.3772 98.5041 67.8814 97.3401L66.0864 98.02Z" fill="#EBB376"/>
<path d="M78.2702 194.833C77.8648 194.823 77.4617 194.768 77.0682 194.67C77.0481 194.664 77.0301 194.653 77.0157 194.637C77.0014 194.622 76.9914 194.603 76.9866 194.583C76.9833 194.562 76.9861 194.541 76.9948 194.521C77.0035 194.502 77.0177 194.486 77.0355 194.474C77.1933 194.371 78.5694 193.479 79.1024 193.718C79.1629 193.744 79.215 193.787 79.2533 193.84C79.2916 193.894 79.3147 193.957 79.32 194.023C79.3413 194.125 79.3359 194.232 79.3045 194.332C79.2731 194.432 79.2166 194.522 79.1405 194.594C78.8885 194.775 78.5796 194.86 78.2702 194.833ZM77.3728 194.512C78.1669 194.675 78.7652 194.643 79.0045 194.436C79.0545 194.387 79.0912 194.325 79.1111 194.258C79.1311 194.19 79.1337 194.119 79.1188 194.05C79.1168 194.021 79.1072 193.993 79.0909 193.969C79.0747 193.946 79.0524 193.926 79.0263 193.914C78.738 193.789 77.9384 194.191 77.3728 194.512Z" fill="#8091AF"/>
<path d="M77.0954 194.67C77.0777 194.676 77.0586 194.676 77.041 194.67C77.025 194.66 77.0117 194.647 77.0022 194.631C76.9927 194.614 76.9874 194.596 76.9866 194.577C76.9866 194.518 76.9866 193.207 77.487 192.766C77.5473 192.709 77.6199 192.667 77.6991 192.643C77.7782 192.618 77.862 192.612 77.9439 192.625C78.0297 192.626 78.1126 192.656 78.1789 192.71C78.2452 192.764 78.2909 192.84 78.3083 192.924C78.4117 193.468 77.5795 194.425 77.1498 194.67C77.132 194.675 77.1131 194.675 77.0954 194.67ZM77.8677 192.826C77.7797 192.828 77.6951 192.861 77.6284 192.919C77.343 193.342 77.1967 193.844 77.2096 194.354C77.6393 194.006 78.1614 193.267 78.0962 192.957C78.0962 192.908 78.0581 192.842 77.9167 192.826H77.8677Z" fill="#8091AF"/>
<path d="M106.647 192.821C106.627 192.819 106.607 192.813 106.59 192.802C106.573 192.79 106.56 192.775 106.551 192.756C106.542 192.738 106.538 192.718 106.54 192.698C106.541 192.677 106.548 192.658 106.56 192.641C106.707 192.467 107.974 190.977 108.621 190.977H108.665C108.724 190.981 108.781 191.001 108.829 191.034C108.878 191.068 108.917 191.114 108.942 191.167C108.986 191.251 109.009 191.344 109.009 191.439C109.009 191.534 108.986 191.627 108.942 191.711C108.659 192.309 107.381 192.647 106.641 192.799L106.647 192.821ZM108.616 191.189C108.262 191.189 107.479 191.929 106.941 192.532C107.936 192.298 108.61 191.988 108.768 191.635C108.8 191.579 108.817 191.517 108.817 191.453C108.817 191.389 108.8 191.326 108.768 191.27C108.759 191.249 108.744 191.229 108.725 191.215C108.706 191.201 108.683 191.192 108.659 191.189H108.616Z" fill="#8091AF"/>
<path d="M106.647 192.821C106.628 192.818 106.611 192.81 106.598 192.797C106.584 192.784 106.575 192.768 106.571 192.75C106.571 192.701 106.179 191.526 106.527 190.868C106.575 190.772 106.642 190.686 106.725 190.617C106.807 190.548 106.903 190.496 107.006 190.465C107.294 190.378 107.435 190.465 107.495 190.591C107.773 191.037 107.158 192.353 106.75 192.766C106.739 192.784 106.724 192.798 106.706 192.808C106.688 192.817 106.667 192.822 106.647 192.821ZM107.191 190.645C107.149 190.638 107.107 190.638 107.066 190.645C106.99 190.667 106.919 190.704 106.858 190.755C106.797 190.805 106.747 190.868 106.712 190.939C106.554 191.434 106.554 191.966 106.712 192.462C107.098 191.918 107.474 190.944 107.31 190.678C107.292 190.656 107.268 190.641 107.24 190.635C107.212 190.629 107.183 190.632 107.158 190.645H107.191Z" fill="#8091AF"/>
<path d="M77.4924 53.3529C78.0364 56.0725 79.1242 61.5117 77.2477 63.3339C77.2477 63.3339 77.9874 66.0535 83.0133 66.0535C88.5341 66.0535 85.6513 63.3339 85.6513 63.3339C82.638 62.6159 82.7141 60.3804 83.2417 58.2754L77.4924 53.3529Z" fill="#EBB376"/>
<path d="M88.4688 47.5546C88.4242 47.5554 88.3804 47.5421 88.3437 47.5166C88.3205 47.4998 88.3007 47.4787 88.2856 47.4543C88.2706 47.4299 88.2605 47.4027 88.2559 47.3744C88.2514 47.3461 88.2525 47.3172 88.2591 47.2893C88.2658 47.2614 88.2779 47.2352 88.2948 47.212C88.4911 46.9325 88.7505 46.7031 89.0519 46.5424C89.3534 46.3818 89.6884 46.2944 90.0299 46.2873C90.081 46.2955 90.1275 46.3216 90.1611 46.3609C90.1947 46.4003 90.2132 46.4504 90.2132 46.5021C90.2132 46.5539 90.1947 46.604 90.1611 46.6433C90.1275 46.6827 90.081 46.7088 90.0299 46.717C89.7583 46.7245 89.4923 46.7964 89.254 46.9269C89.0157 47.0574 88.8118 47.2428 88.6592 47.4676C88.6377 47.4973 88.6089 47.521 88.5755 47.5362C88.5421 47.5515 88.5054 47.5578 88.4688 47.5546Z" fill="#263238"/>
<path d="M89.6763 50.1491C89.9696 51.0012 90.3796 51.8085 90.8947 52.5479C90.7013 52.6733 90.483 52.7553 90.2548 52.7881C90.0266 52.821 89.794 52.804 89.573 52.7382L89.6763 50.1491Z" fill="#DE5753"/>
<path d="M89.3718 49.5073C89.3718 49.8772 89.5404 50.1818 89.7798 50.1872C90.0191 50.1927 90.2258 49.9098 90.2421 49.5399C90.2584 49.1701 90.0735 48.8709 89.8342 48.86C89.5948 48.8492 89.3881 49.1429 89.3718 49.5073Z" fill="#263238"/>
<path d="M89.7253 48.8764L90.6174 48.6588C90.6174 48.6588 90.1387 49.3278 89.7253 48.8764Z" fill="#263238"/>
<path d="M76.7309 194.039H71.6126C71.524 194.036 71.4374 194.066 71.37 194.123C71.3025 194.18 71.259 194.261 71.2481 194.349L70.6662 198.396C70.6537 198.498 70.6634 198.602 70.6945 198.701C70.7256 198.799 70.7774 198.89 70.8464 198.967C70.9155 199.043 71.0001 199.105 71.0948 199.146C71.1894 199.187 71.2918 199.208 71.395 199.206C73.1791 199.179 74.0385 199.07 76.2903 199.07C77.6773 199.07 79.6953 199.217 81.6099 199.217C83.5245 199.217 83.6224 197.324 82.8283 197.156C79.2602 196.383 78.6945 195.328 77.4924 194.316C77.2783 194.139 77.0092 194.041 76.7309 194.039Z" fill="#263238"/>
<path d="M106.157 192.337L101.431 194.3C101.349 194.332 101.281 194.393 101.241 194.471C101.201 194.549 101.191 194.639 101.213 194.724L102.225 198.69C102.253 198.789 102.303 198.88 102.37 198.959C102.436 199.037 102.519 199.1 102.612 199.145C102.705 199.189 102.806 199.213 102.909 199.215C103.012 199.217 103.114 199.198 103.209 199.157C104.841 198.445 105.603 198.021 107.68 197.156C108.959 196.612 111.662 195.66 113.43 194.926C115.197 194.191 114.561 192.407 113.761 192.554C110.171 193.218 108.464 192.777 106.968 192.304C106.702 192.219 106.415 192.231 106.157 192.337Z" fill="#263238"/>
<path d="M95.8662 68.9744C96.7528 71.0631 97.7101 73.2007 98.6783 75.2785C99.1678 76.3228 99.6773 77.349 100.207 78.3571C100.751 79.3688 101.295 80.3588 101.838 81.3052C102.127 81.773 102.415 82.2407 102.714 82.6704L103.16 83.2905C103.252 83.4199 103.356 83.5402 103.47 83.6495C104.063 84.1648 104.804 84.4807 105.586 84.5524C107.441 84.8189 109.769 84.4436 111.852 83.8834L112.82 85.9775C112.27 86.3081 111.7 86.6042 111.112 86.8641C110.535 87.1331 109.941 87.3656 109.334 87.5603C108.055 87.9958 106.714 88.2253 105.363 88.2402C104.61 88.247 103.859 88.1481 103.133 87.9465C102.327 87.7247 101.569 87.3559 100.897 86.8586C100.554 86.5971 100.235 86.3039 99.9456 85.9829C99.7009 85.7055 99.5214 85.4716 99.3038 85.2106C98.8959 84.6993 98.5314 84.1825 98.167 83.6658C96.8116 81.6262 95.5906 79.5004 94.5118 77.3019C93.424 75.1262 92.4449 72.9505 91.542 70.6986L95.8662 68.9744Z" fill="#EBB376"/>
<path d="M111.384 86.2331L116.356 85.4499L115.034 82.6323C115.034 82.6323 111.183 83.3014 110.443 85.0419L111.384 86.2331Z" fill="#EBB376"/>
<path d="M116.35 83.2524L115.807 82.0504L115.034 82.6323L116.35 85.4499V83.2524Z" fill="#EBB376"/>
<path d="M77.0791 47.7613C77.177 52.2813 77.1226 54.1959 79.3092 56.6001C82.5727 60.2172 88.1316 59.1076 89.3826 54.6474C90.5086 50.6332 90.155 43.9158 85.8145 41.9468C84.8588 41.5086 83.807 41.3219 82.7588 41.4046C81.7107 41.4872 80.7011 41.8364 79.8259 42.4189C78.9507 43.0015 78.2389 43.7981 77.7582 44.7331C77.2774 45.6682 77.0437 46.7105 77.0791 47.7613Z" fill="#EBB376"/>
<path d="M73.4348 39.597C78.0799 36.2301 83.269 38.1393 86.1082 40.4673C89.0781 42.9041 88.6049 47.5873 86.7882 49.5236C86.9766 49.81 87.1013 50.1336 87.1539 50.4723C87.2064 50.8111 87.1856 51.1572 87.0928 51.4872C87.322 52.9363 87.0033 54.4188 86.1988 55.6457C85.3944 56.8725 84.1617 57.7558 82.7414 58.1231L82.4857 58.1884C76.682 59.5699 69.9754 55.6428 68.9637 49.7684C68.3491 46.1839 69.3282 42.5668 73.4348 39.597Z" fill="#263238"/>
<path d="M85.7493 49.8554C85.8236 50.7076 86.1885 51.5083 86.7828 52.1236C87.5878 52.9558 88.4145 52.4771 88.5614 51.4926C88.6865 50.606 88.42 49.1048 87.4409 48.6316C86.4619 48.1584 85.6786 48.8492 85.7493 49.8554Z" fill="#EBB376"/>
<path opacity="0.3" d="M79.9945 106.619C79.4778 115.964 81.7297 123.019 82.7577 127.147C83.4865 121.044 84.1556 114.675 84.7158 109.056C82.7957 102.692 80.3698 99.5865 79.9945 106.619Z" fill="black"/>
<path d="M77.7917 188.524H69.8776L69.4587 185.75L77.8352 185.467L77.7917 188.524Z" fill="#8091AF"/>
<path opacity="0.3" d="M70.0515 75.2404L72.7983 77.4161C72.7983 77.4161 73.0866 76.6492 73.4347 75.5504L71.803 67.4731L70.0515 75.2404Z" fill="black"/>
<path d="M76.0239 40.3531C77.4436 38.7811 82.2682 36.3824 86.4074 38.2644C87.5881 38.8022 88.5887 39.6691 89.2891 40.7612C89.9895 41.8533 90.3601 43.1242 90.3563 44.4216L86.625 46.9237L76.0239 40.3531Z" fill="#263238"/>
<path d="M72.2164 44.4815C74.267 42.8007 76.5678 36.7088 72.2164 38.8301C67.865 40.9514 66.5433 49.132 72.2164 44.4815Z" fill="#8091AF"/>
<path d="M72.6788 40.5761C73.5654 37.987 67.7182 32.836 63.7747 37.7313C59.8313 42.6267 70.1278 48.0278 72.6788 40.5761Z" fill="#263238"/>
<path d="M81.8275 44.1877C78.428 42.7409 76.7364 37.2581 82.5727 37.4159C88.409 37.5736 88.2404 46.9237 81.8275 44.1877Z" fill="#8091AF"/>
<path d="M80.7288 41.3485C78.6673 38.7757 80.9464 32.1616 86.8588 34.2774C92.7713 36.3933 85.4609 47.2283 80.7288 41.3485Z" fill="#263238"/>
<path d="M91.1776 91.9987C91.1776 91.9987 96.3123 127.082 98.1181 140.887C99.9947 155.219 105.477 187.354 105.477 187.354L99.3855 188.284C99.3855 188.284 89.758 157.634 87.0765 143.682C84.1501 128.48 78.3737 92.0096 78.3737 92.0096L91.1776 91.9987Z" fill="#8091AF"/>
<path opacity="0.6" d="M91.1776 91.9987C91.1776 91.9987 96.3123 127.082 98.1181 140.887C99.9947 155.219 105.477 187.354 105.477 187.354L99.3855 188.284C99.3855 188.284 89.758 157.634 87.0765 143.682C84.1501 128.48 78.3737 92.0096 78.3737 92.0096L91.1776 91.9987Z" fill="black"/>
<path d="M93.3533 64.5033C95.616 65.0473 98.4063 71.2698 98.4063 71.2698L93.016 78.1776C93.016 78.1776 87.4462 70.2961 88.1914 67.892C88.9638 65.3845 90.6064 63.8343 93.3533 64.5033Z" fill="#263238"/>
<path d="M85.9778 64.2205C86.7229 64.3293 86.0321 62.6268 85.7221 62.4473C85.0096 62.023 75.9315 61.1691 76.0348 62.1264C76.0897 62.6977 76.3349 63.234 76.731 63.6494C77.139 63.9213 79.4507 63.1707 85.9778 64.2205Z" fill="#8091AF"/>
<path opacity="0.6" d="M85.9778 64.2205C86.7229 64.3293 86.0321 62.6268 85.7221 62.4473C85.0096 62.023 75.9315 61.1691 76.0348 62.1264C76.0897 62.6977 76.3349 63.234 76.731 63.6494C77.139 63.9213 79.4507 63.1707 85.9778 64.2205Z" fill="white"/>
<path d="M93.3533 64.5033C93.3533 64.5033 95.529 65.2648 91.1776 91.9987H72.6842C72.9942 84.4708 73.0051 79.8257 69.4207 64.3673C72.0102 63.8329 74.6352 63.4875 77.2749 63.3339C80.0725 63.1324 82.881 63.1324 85.6786 63.3339C89.2413 63.6494 93.3533 64.5033 93.3533 64.5033Z" fill="#263238"/>
<path d="M72.3796 90.9163L71.5474 92.5481C71.4821 92.6786 71.6344 92.8092 71.8465 92.8092H91.2538C91.4169 92.8092 91.5584 92.7276 91.5692 92.6188L91.7324 90.987C91.7324 90.8728 91.6019 90.7749 91.4169 90.7749H72.6951C72.6345 90.7666 72.5728 90.7754 72.5171 90.8004C72.4613 90.8254 72.4136 90.8656 72.3796 90.9163Z" fill="#8091AF"/>
<path opacity="0.6" d="M72.3796 90.9163L71.5474 92.5481C71.4821 92.6786 71.6344 92.8092 71.8465 92.8092H91.2538C91.4169 92.8092 91.5584 92.7276 91.5692 92.6188L91.7324 90.987C91.7324 90.8728 91.6019 90.7749 91.4169 90.7749H72.6951C72.6345 90.7666 72.5728 90.7754 72.5171 90.8004C72.4613 90.8254 72.4136 90.8656 72.3796 90.9163Z" fill="white"/>
<path d="M74.9142 93.0213H74.4084C74.3105 93.0213 74.2343 92.9669 74.2398 92.9071L74.4791 90.7314C74.4791 90.6661 74.5716 90.6172 74.6695 90.6172H75.1753C75.2732 90.6172 75.3494 90.6661 75.3439 90.7314L75.1046 92.9071C75.0992 92.956 75.0122 93.0213 74.9142 93.0213Z" fill="#8091AF"/>
<path d="M87.0656 93.0213H86.5652C86.4618 93.0213 86.3857 92.9669 86.3965 92.9071L86.6304 90.7314C86.6304 90.6661 86.7229 90.6172 86.8262 90.6172H87.3266C87.4246 90.6172 87.5007 90.6661 87.4953 90.7314L87.2614 92.9071C87.2614 92.956 87.1744 93.0213 87.0656 93.0213Z" fill="#8091AF"/>
<path opacity="0.6" d="M74.9142 93.0213H74.4084C74.3105 93.0213 74.2343 92.9669 74.2398 92.9071L74.4791 90.7314C74.4791 90.6661 74.5716 90.6172 74.6695 90.6172H75.1753C75.2732 90.6172 75.3494 90.6661 75.3439 90.7314L75.1046 92.9071C75.0992 92.956 75.0122 93.0213 74.9142 93.0213Z" fill="black"/>
<path opacity="0.6" d="M87.0656 93.0213H86.5652C86.4618 93.0213 86.3857 92.9669 86.3965 92.9071L86.6304 90.7314C86.6304 90.6661 86.7229 90.6172 86.8262 90.6172H87.3266C87.4246 90.6172 87.5007 90.6661 87.4953 90.7314L87.2614 92.9071C87.2614 92.956 87.1744 93.0213 87.0656 93.0213Z" fill="black"/>
<path d="M106.375 187.354L98.575 188.681L97.6884 185.739L106.038 184.308L106.375 187.354Z" fill="#8091AF"/>
<path d="M184.107 35.5067C179.958 28.8633 173.933 23.5992 166.792 20.3802C159.652 17.1612 151.717 16.1318 143.992 17.4222C136.266 18.7125 129.097 22.2647 123.39 27.6295C117.684 32.9943 113.696 39.9308 111.931 47.5619C110.167 55.193 110.704 63.1761 113.477 70.5015C116.249 77.827 121.131 84.1659 127.506 88.7168C133.881 93.2676 141.462 95.826 149.29 96.0684C157.119 96.3108 164.844 94.2264 171.488 90.0787C175.9 87.3243 179.727 83.7278 182.749 79.4945C185.771 75.2612 187.929 70.4741 189.101 65.4065C190.273 60.3389 190.435 55.0901 189.578 49.9599C188.721 44.8296 186.862 39.9184 184.107 35.5067ZM124.009 73.0375C120.736 67.7949 119.092 61.6995 119.283 55.5222C119.475 49.3449 121.494 43.3632 125.085 38.3333C128.676 33.3034 133.678 29.4513 139.458 27.2642C145.238 25.077 151.537 24.653 157.559 26.0457C163.58 27.4385 169.053 30.5854 173.286 35.0887C177.519 39.5919 180.321 45.2491 181.339 51.345C182.356 57.4409 181.543 63.7017 179.003 69.3356C176.462 74.9696 172.308 79.7237 167.066 82.9968C163.585 85.1699 159.709 86.6361 155.661 87.3114C151.613 87.9867 147.472 87.8581 143.473 86.9327C139.475 86.0074 135.698 84.3035 132.359 81.9184C129.019 79.5334 126.182 76.5138 124.009 73.0321V73.0375Z" fill="#8091AF"/>
<path d="M184.107 35.5067C179.958 28.8633 173.933 23.5992 166.792 20.3802C159.652 17.1612 151.717 16.1318 143.992 17.4222C136.266 18.7125 129.097 22.2647 123.39 27.6295C117.684 32.9943 113.696 39.9308 111.931 47.5619C110.167 55.193 110.704 63.1761 113.477 70.5015C116.249 77.827 121.131 84.1659 127.506 88.7168C133.881 93.2676 141.462 95.826 149.29 96.0684C157.119 96.3108 164.844 94.2264 171.488 90.0787C175.9 87.3243 179.727 83.7278 182.749 79.4945C185.771 75.2612 187.929 70.4741 189.101 65.4065C190.273 60.3389 190.435 55.0901 189.578 49.9599C188.721 44.8296 186.862 39.9184 184.107 35.5067ZM124.009 73.0375C120.736 67.7949 119.092 61.6995 119.283 55.5222C119.475 49.3449 121.494 43.3632 125.085 38.3333C128.676 33.3034 133.678 29.4513 139.458 27.2642C145.238 25.077 151.537 24.653 157.559 26.0457C163.58 27.4385 169.053 30.5854 173.286 35.0887C177.519 39.5919 180.321 45.2491 181.339 51.345C182.356 57.4409 181.543 63.7017 179.003 69.3356C176.462 74.9696 172.308 79.7237 167.066 82.9968C163.585 85.1699 159.709 86.6361 155.661 87.3114C151.613 87.9867 147.472 87.8581 143.473 86.9327C139.475 86.0074 135.698 84.3035 132.359 81.9184C129.019 79.5334 126.182 76.5138 124.009 73.0321V73.0375Z" fill="#8091AF"/>
<path opacity="0.5" d="M184.107 35.5067C179.958 28.8633 173.933 23.5992 166.792 20.3802C159.652 17.1612 151.717 16.1318 143.992 17.4222C136.266 18.7125 129.097 22.2647 123.39 27.6295C117.684 32.9943 113.696 39.9308 111.931 47.5619C110.167 55.193 110.704 63.1761 113.477 70.5015C116.249 77.827 121.131 84.1659 127.506 88.7168C133.881 93.2676 141.462 95.826 149.29 96.0684C157.119 96.3108 164.844 94.2264 171.488 90.0787C175.9 87.3243 179.727 83.7278 182.749 79.4945C185.771 75.2612 187.929 70.4741 189.101 65.4065C190.273 60.3389 190.435 55.0901 189.578 49.9599C188.721 44.8296 186.862 39.9184 184.107 35.5067ZM124.009 73.0375C120.736 67.7949 119.092 61.6995 119.283 55.5222C119.475 49.3449 121.494 43.3632 125.085 38.3333C128.676 33.3034 133.678 29.4513 139.458 27.2642C145.238 25.077 151.537 24.653 157.559 26.0457C163.58 27.4385 169.053 30.5854 173.286 35.0887C177.519 39.5919 180.321 45.2491 181.339 51.345C182.356 57.4409 181.543 63.7017 179.003 69.3356C176.462 74.9696 172.308 79.7237 167.066 82.9968C163.585 85.1699 159.709 86.6361 155.661 87.3114C151.613 87.9867 147.472 87.8581 143.473 86.9327C139.475 86.0074 135.698 84.3035 132.359 81.9184C129.019 79.5334 126.182 76.5138 124.009 73.0321V73.0375Z" fill="white"/>
<path opacity="0.2" d="M179.642 38.297C183.237 44.058 185.043 50.7558 184.832 57.5433C184.621 64.3309 182.403 70.9036 178.457 76.4303C174.511 81.9569 169.014 86.1895 162.663 88.5927C156.312 90.996 149.39 91.462 142.774 89.9319C136.158 88.4018 130.144 84.9443 125.492 79.9965C120.841 75.0487 117.761 68.8328 116.642 62.1348C115.523 55.4368 116.416 48.5573 119.206 42.3663C121.997 36.1754 126.56 30.9508 132.32 27.3533C136.146 24.9638 140.404 23.3515 144.853 22.6083C149.302 21.8651 153.853 22.0057 158.248 23.0219C162.642 24.0382 166.794 25.9103 170.464 28.5312C174.135 31.1522 177.254 34.4706 179.642 38.297Z" fill="#FAFAFA"/>
<path opacity="0.1" d="M184.521 51.6232L131.216 84.9005C126.869 81.951 123.257 78.0432 120.658 73.4781L178.858 37.1385C181.828 41.4704 183.765 46.4256 184.521 51.6232Z" fill="#E6E6E6"/>
</svg>
