<svg width="24" height="25" viewBox="0 0 24 25" fill="none" xmlns="http://www.w3.org/2000/svg">
<g clip-path="url(#clip0_5041_2348)">
<path d="M4 5.5C4 5.23478 4.10536 4.98043 4.29289 4.79289C4.48043 4.60536 4.73478 4.5 5 4.5H9C9.26522 4.5 9.51957 4.60536 9.70711 4.79289C9.89464 4.98043 10 5.23478 10 5.5V9.5C10 9.76522 9.89464 10.0196 9.70711 10.2071C9.51957 10.3946 9.26522 10.5 9 10.5H5C4.73478 10.5 4.48043 10.3946 4.29289 10.2071C4.10536 10.0196 4 9.76522 4 9.5V5.5Z" stroke="#ACAEB9" stroke-width="1.5" stroke-linecap="round" stroke-linejoin="round"/>
<path d="M14 5.5C14 5.23478 14.1054 4.98043 14.2929 4.79289C14.4804 4.60536 14.7348 4.5 15 4.5H19C19.2652 4.5 19.5196 4.60536 19.7071 4.79289C19.8946 4.98043 20 5.23478 20 5.5V9.5C20 9.76522 19.8946 10.0196 19.7071 10.2071C19.5196 10.3946 19.2652 10.5 19 10.5H15C14.7348 10.5 14.4804 10.3946 14.2929 10.2071C14.1054 10.0196 14 9.76522 14 9.5V5.5Z" stroke="#ACAEB9" stroke-width="1.5" stroke-linecap="round" stroke-linejoin="round"/>
<path d="M4 15.5C4 15.2348 4.10536 14.9804 4.29289 14.7929C4.48043 14.6054 4.73478 14.5 5 14.5H9C9.26522 14.5 9.51957 14.6054 9.70711 14.7929C9.89464 14.9804 10 15.2348 10 15.5V19.5C10 19.7652 9.89464 20.0196 9.70711 20.2071C9.51957 20.3946 9.26522 20.5 9 20.5H5C4.73478 20.5 4.48043 20.3946 4.29289 20.2071C4.10536 20.0196 4 19.7652 4 19.5V15.5Z" stroke="#ACAEB9" stroke-width="1.5" stroke-linecap="round" stroke-linejoin="round"/>
<path d="M14 15.5C14 15.2348 14.1054 14.9804 14.2929 14.7929C14.4804 14.6054 14.7348 14.5 15 14.5H19C19.2652 14.5 19.5196 14.6054 19.7071 14.7929C19.8946 14.9804 20 15.2348 20 15.5V19.5C20 19.7652 19.8946 20.0196 19.7071 20.2071C19.5196 20.3946 19.2652 20.5 19 20.5H15C14.7348 20.5 14.4804 20.3946 14.2929 20.2071C14.1054 20.0196 14 19.7652 14 19.5V15.5Z" stroke="#373941" stroke-width="1.5" stroke-linecap="round" stroke-linejoin="round"/>
</g>
<defs>
<clipPath id="clip0_5041_2348">
<rect width="24" height="24" fill="white" transform="translate(0 0.5)"/>
</clipPath>
</defs>
</svg>
