<svg width="24" height="25" viewBox="0 0 24 25" fill="none" xmlns="http://www.w3.org/2000/svg">
<g clip-path="url(#clip0_5041_2404)">
<path d="M3 12.5H4" stroke="#373941" stroke-width="1.5" stroke-linecap="round" stroke-linejoin="round"/>
<path d="M20 12.5H21" stroke="#373941" stroke-width="1.5" stroke-linecap="round" stroke-linejoin="round"/>
<path d="M5.60156 6.09961L6.30156 6.79961" stroke="#373941" stroke-width="1.5" stroke-linecap="round" stroke-linejoin="round"/>
<path d="M18.3992 6.09961L17.6992 6.79961" stroke="#373941" stroke-width="1.5" stroke-linecap="round" stroke-linejoin="round"/>
<path d="M8 12.5C8 11.4391 8.42143 10.4217 9.17157 9.67157C9.92172 8.92143 10.9391 8.5 12 8.5C13.0609 8.5 14.0783 8.92143 14.8284 9.67157C15.5786 10.4217 16 11.4391 16 12.5" stroke="#373941" stroke-width="1.5" stroke-linecap="round" stroke-linejoin="round"/>
<path d="M12 4.5V3.5" stroke="#373941" stroke-width="1.5" stroke-linecap="round" stroke-linejoin="round"/>
<path d="M4 15.5C4 15.2348 4.10536 14.9804 4.29289 14.7929C4.48043 14.6054 4.73478 14.5 5 14.5H9C9.26522 14.5 9.51957 14.6054 9.70711 14.7929C9.89464 14.9804 10 15.2348 10 15.5V19.5C10 19.7652 9.89464 20.0196 9.70711 20.2071C9.51957 20.3946 9.26522 20.5 9 20.5H5C4.73478 20.5 4.48043 20.3946 4.29289 20.2071C4.10536 20.0196 4 19.7652 4 19.5V15.5Z" stroke="#ACAEB9" stroke-width="1.5" stroke-linecap="round" stroke-linejoin="round"/>
<path d="M14 15.5C14 15.2348 14.1054 14.9804 14.2929 14.7929C14.4804 14.6054 14.7348 14.5 15 14.5H19C19.2652 14.5 19.5196 14.6054 19.7071 14.7929C19.8946 14.9804 20 15.2348 20 15.5V19.5C20 19.7652 19.8946 20.0196 19.7071 20.2071C19.5196 20.3946 19.2652 20.5 19 20.5H15C14.7348 20.5 14.4804 20.3946 14.2929 20.2071C14.1054 20.0196 14 19.7652 14 19.5V15.5Z" stroke="#373941" stroke-width="1.5" stroke-linecap="round" stroke-linejoin="round"/>
</g>
<defs>
<clipPath id="clip0_5041_2404">
<rect width="24" height="24" fill="white" transform="translate(0 0.5)"/>
</clipPath>
</defs>
</svg>
