<svg width="24" height="20" viewBox="0 0 24 20" fill="none" xmlns="http://www.w3.org/2000/svg">
<mask id="mask0_504_27965" style="mask-type:luminance" maskUnits="userSpaceOnUse" x="0" y="0" width="24" height="20">
<path d="M24 0H0V20H24V0Z" fill="#ffffff"/>
</mask>
<g mask="url(#mask0_504_27965)">
<path d="M24 10.0605C24 4.53805 18.627 0.0605469 12 0.0605469C5.373 0.0605469 0 4.53805 0 10.0605C0 15.0522 4.388 19.1889 10.125 19.9389V12.9514H7.078V10.0597H10.125V7.85805C10.125 5.35222 11.917 3.96722 14.658 3.96722C15.97 3.96722 17.344 4.16305 17.344 4.16305V6.62388H15.83C14.339 6.62388 13.874 7.39471 13.874 8.18555V10.0605H17.202L16.67 12.9522H13.874V19.9397C19.612 19.1889 24 15.0514 24 10.0605Z" fill="#ffffff"/>
</g>
</svg>
