<svg width="24" height="24" viewBox="0 0 24 24" fill="none" xmlns="http://www.w3.org/2000/svg">
<path fill-rule="evenodd" clip-rule="evenodd" d="M11.9362 3.0249C11.9296 3.0276 11.9056 3.03888 11.8539 3.07341C11.7695 3.12979 11.6623 3.21259 11.4782 3.35577L4.69593 8.6309C4.20903 9.0096 4.0828 9.11603 3.9951 9.2346C3.90469 9.35684 3.83733 9.49456 3.79635 9.64097C3.7566 9.78299 3.75008 9.94798 3.75008 10.5649V17.7998C3.75008 18.3722 3.75067 18.7564 3.77484 19.0523C3.7983 19.3394 3.84018 19.4767 3.88632 19.5673C4.00617 19.8025 4.19739 19.9937 4.43259 20.1135C4.52316 20.1597 4.66044 20.2016 4.94756 20.225C5.24344 20.2492 5.62765 20.2498 6.20008 20.2498H8.25008V13.5736C8.25006 13.3161 8.25005 13.0796 8.2662 12.8819C8.28361 12.6688 8.32347 12.4356 8.44082 12.2053C8.6086 11.876 8.87632 11.6083 9.2056 11.4405C9.43591 11.3232 9.66908 11.2833 9.88221 11.2659C10.0799 11.2497 10.3163 11.2498 10.5738 11.2498H13.4263C13.6838 11.2498 13.9202 11.2497 14.1179 11.2659C14.3311 11.2833 14.5642 11.3232 14.7945 11.4405C15.1238 11.6083 15.3915 11.876 15.5593 12.2053C15.6767 12.4356 15.7165 12.6688 15.7339 12.8819C15.7501 13.0796 15.7501 13.3161 15.7501 13.5736V20.2498H17.8001C18.3725 20.2498 18.7567 20.2492 19.0526 20.225C19.3397 20.2016 19.477 20.1597 19.5675 20.1135C19.8027 19.9937 19.994 19.8025 20.1138 19.5673C20.16 19.4767 20.2018 19.3394 20.2253 19.0523C20.2495 18.7564 20.2501 18.3722 20.2501 17.7998V10.5649C20.2501 9.94798 20.2435 9.78299 20.2038 9.64097C20.1628 9.49455 20.0954 9.35684 20.005 9.2346C19.9173 9.11603 19.7911 9.0096 19.3042 8.6309L12.5219 3.35577C12.3378 3.21259 12.2306 3.12979 12.1462 3.07341C12.0945 3.03888 12.0705 3.0276 12.0639 3.0249C12.0221 3.01384 11.9781 3.01384 11.9362 3.0249ZM12.062 3.02418C12.0619 3.02415 12.0628 3.02444 12.0639 3.0249L12.062 3.02418ZM17.8305 21.7498C18.3647 21.7498 18.8105 21.7498 19.1747 21.72C19.5546 21.689 19.9113 21.6219 20.2485 21.4501C20.766 21.1864 21.1867 20.7657 21.4503 20.2483C21.6222 19.911 21.6893 19.5543 21.7203 19.1745C21.7501 18.8102 21.7501 18.3644 21.7501 17.8302V10.5649C21.7501 10.536 21.7501 10.5074 21.7501 10.4792C21.7504 9.98851 21.7507 9.60254 21.6483 9.23665C21.5581 8.91453 21.4099 8.61156 21.211 8.34263C20.9851 8.03715 20.6803 7.8004 20.2927 7.49943C20.2705 7.48213 20.2479 7.46462 20.2251 7.44687L13.4428 2.17174C13.4193 2.15347 13.3957 2.13501 13.372 2.11643C13.0961 1.90056 12.8027 1.67091 12.4574 1.57743C12.1579 1.49633 11.8422 1.49633 11.5427 1.57743C11.1974 1.67091 10.904 1.90056 10.6281 2.11643C10.6044 2.135 10.5808 2.15347 10.5573 2.17174L3.77502 7.44687C3.7522 7.46462 3.72966 7.48213 3.70739 7.49942C3.31988 7.8004 3.01506 8.03715 2.78912 8.34263C2.59021 8.61156 2.44204 8.91453 2.35187 9.23665C2.24945 9.60254 2.24971 9.9885 2.25004 10.4792C2.25006 10.5074 2.25008 10.5359 2.25008 10.5649V17.8302C2.25007 18.3644 2.25006 18.8102 2.27982 19.1745C2.31086 19.5543 2.37797 19.911 2.54982 20.2483C2.81347 20.7657 3.23416 21.1864 3.75161 21.4501C4.08887 21.6219 4.44553 21.689 4.82541 21.72C5.18964 21.7498 5.63548 21.7498 6.16963 21.7498H17.8305ZM14.2501 20.2498V13.5998C14.2501 13.3074 14.2495 13.1332 14.2389 13.0041C14.2325 12.9253 14.224 12.8921 14.2212 12.8832C14.1977 12.8386 14.1612 12.8021 14.1166 12.7786C14.1077 12.7759 14.0746 12.7674 13.9958 12.7609C13.8667 12.7504 13.6925 12.7498 13.4001 12.7498H10.6001C10.3077 12.7498 10.1335 12.7504 10.0043 12.7609C9.92555 12.7674 9.89243 12.7759 9.88355 12.7786C9.83891 12.8021 9.80243 12.8386 9.77891 12.8832C9.77615 12.8921 9.76766 12.9253 9.76122 13.0041C9.75067 13.1332 9.75008 13.3074 9.75008 13.5998V20.2498H14.2501ZM9.77981 12.8807C9.77982 12.8807 9.77965 12.8812 9.77926 12.8822L9.77981 12.8807ZM9.88096 12.7795C9.88092 12.7795 9.88139 12.7793 9.88244 12.779L9.88096 12.7795ZM14.2203 12.8807C14.2203 12.8806 14.2205 12.8811 14.2209 12.8822L14.2203 12.8807ZM11.9362 3.0249C11.9373 3.02444 11.9382 3.02415 11.9381 3.02418L11.9362 3.0249Z" fill="black"/>
</svg>
