<svg width="80" height="80" viewBox="0 0 80 80" fill="none" xmlns="http://www.w3.org/2000/svg">
<path d="M63.3332 70C64.2172 70 65.0651 69.6488 65.6902 69.0237C66.3153 68.3986 66.6665 67.5507 66.6665 66.6667V46.6667H71.6665C72.1085 46.6667 72.5325 46.4911 72.845 46.1785C73.1576 45.866 73.3332 45.442 73.3332 45V38.0333C73.3295 37.1589 72.9823 36.3209 72.3665 35.7L47.6332 10.9667C47.0123 10.3509 46.1743 10.0037 45.2998 10H34.6998C33.8254 10.0037 32.9874 10.3509 32.3665 10.9667L7.63317 35.7C7.01736 36.3209 6.67019 37.1589 6.6665 38.0333V45C6.6665 45.442 6.8421 45.866 7.15466 46.1785C7.46722 46.4911 7.89114 46.6667 8.33317 46.6667H13.3332V66.6667C13.3332 67.5507 13.6844 68.3986 14.3095 69.0237C14.9346 69.6488 15.7824 70 16.6665 70H63.3332ZM19.9998 63.3333V41.6667C19.9998 41.2246 19.8242 40.8007 19.5117 40.4882C19.1991 40.1756 18.7752 40 18.3332 40H13.4998C13.6083 39.4208 13.8868 38.887 14.2998 38.4667L36.0998 16.6667H43.8998L65.6998 38.4667C66.1741 38.8644 66.5121 39.4006 66.6665 40H61.6665C61.2245 40 60.8006 40.1756 60.488 40.4882C60.1754 40.8007 59.9998 41.2246 59.9998 41.6667V63.3333H19.9998ZM46.6665 36.6667C46.6665 37.9852 46.2755 39.2741 45.543 40.3705C44.8104 41.4668 43.7692 42.3213 42.5511 42.8259C41.3329 43.3304 39.9924 43.4625 38.6992 43.2052C37.406 42.948 36.2181 42.3131 35.2858 41.3807C34.3534 40.4484 33.7185 39.2605 33.4613 37.9673C33.204 36.6741 33.3361 35.3336 33.8406 34.1154C34.3452 32.8973 35.1997 31.8561 36.296 31.1235C37.3924 30.391 38.6813 30 39.9998 30C41.7679 30 43.4636 30.7024 44.7139 31.9526C45.9641 33.2029 46.6665 34.8986 46.6665 36.6667ZM26.8332 54.2667L29.2665 49.4333C29.681 48.6031 30.3183 47.9046 31.1071 47.416C31.896 46.9274 32.8053 46.6679 33.7332 46.6667H46.2665C47.1944 46.6679 48.1037 46.9274 48.8925 47.416C49.6814 47.9046 50.3187 48.6031 50.7332 49.4333L53.3332 54.2667C53.4578 54.521 53.5155 54.8029 53.501 55.0858C53.4864 55.3687 53.4 55.6431 53.2498 55.8833C53.0997 56.1235 52.8909 56.3215 52.643 56.4585C52.3951 56.5956 52.1164 56.6672 51.8332 56.6667H28.4998C28.2028 56.6979 27.9029 56.6488 27.6314 56.5245C27.3598 56.4001 27.1267 56.2051 26.9564 55.9598C26.786 55.7145 26.6847 55.428 26.663 55.1301C26.6414 54.8322 26.7001 54.534 26.8332 54.2667Z" fill="#32BA55"/>
</svg>
