<svg width="24" height="20" viewBox="0 0 24 20" fill="none" xmlns="http://www.w3.org/2000/svg">
<mask id="mask0_504_27979" style="mask-type:luminance" maskUnits="userSpaceOnUse" x="0" y="0" width="24" height="20">
<path d="M24 0H0V20H24V0Z" fill="white"/>
</mask>
<g mask="url(#mask0_504_27979)">
<path d="M12 0C8.74 0 8.333 0.0125 7.053 0.06C5.775 0.11 4.905 0.2775 4.14 0.525C3.351 0.78 2.681 1.1225 2.014 1.67833C1.347 2.23417 0.935 2.79167 0.63 3.45C0.333 4.0875 0.131 4.8125 0.072 5.8775C0.012 6.94417 0 7.28333 0 10C0 12.7167 0.015 13.0558 0.072 14.1225C0.132 15.1867 0.333 15.9125 0.63 16.55C0.936 17.2067 1.347 17.7658 2.014 18.3217C2.681 18.8767 3.35 19.2208 4.14 19.475C4.906 19.7217 5.776 19.8908 7.053 19.94C8.333 19.99 8.74 20 12 20C15.26 20 15.667 19.9875 16.947 19.94C18.224 19.89 19.095 19.7217 19.86 19.475C20.648 19.22 21.319 18.8767 21.986 18.3217C22.652 17.7658 23.065 17.2092 23.37 16.55C23.666 15.9125 23.869 15.1867 23.928 14.1225C23.988 13.0558 24 12.7167 24 10C24 7.28333 23.985 6.94417 23.928 5.8775C23.868 4.81333 23.666 4.08667 23.37 3.45C23.064 2.7925 22.652 2.23417 21.986 1.67833C21.319 1.1225 20.651 0.779167 19.86 0.525C19.095 0.2775 18.224 0.109167 16.947 0.06C15.667 0.01 15.26 0 12 0ZM12 1.8C15.203 1.8 15.585 1.81333 16.85 1.85917C18.02 1.905 18.655 2.06667 19.077 2.205C19.639 2.38583 20.037 2.6025 20.459 2.95167C20.878 3.30167 21.138 3.63417 21.355 4.1025C21.519 4.45417 21.715 4.98333 21.768 5.95833C21.825 7.01333 21.838 7.33 21.838 10C21.838 12.67 21.823 12.9875 21.764 14.0417C21.703 15.0167 21.508 15.5458 21.343 15.8975C21.119 16.3658 20.864 16.6975 20.444 17.0492C20.025 17.3983 19.62 17.615 19.064 17.7958C18.644 17.9325 17.999 18.0958 16.829 18.14C15.555 18.1875 15.18 18.1983 11.97 18.1983C8.759 18.1983 8.384 18.1858 7.111 18.1367C5.94 18.0858 5.295 17.9233 4.875 17.7858C4.306 17.5992 3.915 17.3867 3.496 17.0367C3.075 16.6875 2.806 16.35 2.596 15.8867C2.431 15.5367 2.237 14.9992 2.176 14.0242C2.131 12.9742 2.115 12.65 2.115 9.9875C2.115 7.32417 2.131 6.99917 2.176 5.93667C2.237 4.96167 2.431 4.425 2.596 4.075C2.806 3.6 3.075 3.275 3.496 2.92417C3.915 2.575 4.306 2.35 4.875 2.17583C5.295 2.0375 5.926 1.875 7.096 1.825C8.371 1.7875 8.746 1.775 11.955 1.775L12 1.8ZM12 4.865C8.595 4.865 5.838 7.165 5.838 10C5.838 12.8375 8.598 15.135 12 15.135C15.405 15.135 18.162 12.835 18.162 10C18.162 7.1625 15.402 4.865 12 4.865ZM12 13.3333C9.79 13.3333 8 11.8417 8 10C8 8.15833 9.79 6.66667 12 6.66667C14.21 6.66667 16 8.15833 16 10C16 11.8417 14.21 13.3333 12 13.3333ZM19.846 4.6625C19.846 5.325 19.2 5.8625 18.406 5.8625C17.611 5.8625 16.966 5.32417 16.966 4.6625C16.966 4.00083 17.612 3.46333 18.406 3.46333C19.199 3.4625 19.846 4.00083 19.846 4.6625Z" fill="#ffffff"/>
</g>
</svg>
