<svg width="24" height="20" viewBox="0 0 24 20" fill="none" xmlns="http://www.w3.org/2000/svg">
<mask id="mask0_504_27971" style="mask-type:luminance" maskUnits="userSpaceOnUse" x="0" y="0" width="24" height="20">
<path d="M24 0H0V20H24V0Z" fill="white"/>
</mask>
<g mask="url(#mask0_504_27971)">
<path d="M20.447 17.0433H16.893V12.4025C16.893 11.2958 16.866 9.87167 15.041 9.87167C13.188 9.87167 12.905 11.0758 12.905 12.3208V17.0433H9.351V7.5H12.765V8.80083H12.811C13.288 8.05083 14.448 7.25917 16.181 7.25917C19.782 7.25917 20.448 9.23417 20.448 11.805L20.447 17.0433ZM5.337 6.19417C4.193 6.19417 3.274 5.4225 3.274 4.47333C3.274 3.525 4.194 2.75417 5.337 2.75417C6.477 2.75417 7.401 3.525 7.401 4.47333C7.401 5.4225 6.476 6.19417 5.337 6.19417ZM7.119 17.0433H3.555V7.5H7.119V17.0433ZM22.225 0H1.771C0.792 0 0 0.645 0 1.44083V18.5592C0 19.3558 0.792 20 1.771 20H22.222C23.2 20 24 19.3558 24 18.5592V1.44083C24 0.645 23.2 0 22.222 0H22.225Z" fill="#ffffff"/>
</g>
</svg>
