<svg width="18" height="20" viewBox="0 0 18 20" fill="none" xmlns="http://www.w3.org/2000/svg">
<path fill-rule="evenodd" clip-rule="evenodd" d="M8.99981 1.75C6.92877 1.75 5.24984 3.42893 5.24984 5.5C5.24984 7.57107 6.92877 9.25 8.99981 9.25C11.0709 9.25 12.7498 7.57107 12.7498 5.5C12.7498 3.42893 11.0709 1.75 8.99981 1.75ZM3.74985 5.5C3.74985 2.6005 6.10034 0.25 8.99981 0.25C11.8993 0.25 14.2498 2.6005 14.2498 5.5C14.2498 8.3995 11.8993 10.75 8.99981 10.75C6.10034 10.75 3.74985 8.3995 3.74985 5.5ZM8.99981 13.75C6.45724 13.75 4.16045 15.1362 2.68329 17.3541C2.49796 17.6324 2.40008 17.782 2.34207 17.9003C2.30002 17.9861 2.30304 18.0084 2.30381 18.014C2.30381 18.014 2.30494 18.0226 2.31044 18.0403C2.31695 18.0612 2.32735 18.0867 2.34167 18.1134C2.356 18.1402 2.37143 18.1629 2.38523 18.18C2.39474 18.1917 2.40112 18.1978 2.40314 18.1996C2.40314 18.1996 2.40798 18.202 2.41563 18.2046C2.43405 18.2109 2.47275 18.2211 2.54719 18.2297C2.71136 18.2488 2.93636 18.25 3.3222 18.25H14.6775C15.0633 18.25 15.2883 18.2488 15.4525 18.2297C15.5269 18.2211 15.5656 18.2109 15.584 18.2046C15.5917 18.202 15.5965 18.1996 15.5965 18.1996C15.5985 18.1978 15.6049 18.1917 15.6144 18.18C15.6282 18.1629 15.6437 18.1402 15.658 18.1134C15.6723 18.0867 15.6827 18.0612 15.6892 18.0403C15.6947 18.0226 15.6958 18.0135 15.6958 18.0135C15.6966 18.0079 15.6996 17.9861 15.6576 17.9003C15.5996 17.782 15.5017 17.6324 15.3164 17.3541C13.8392 15.1362 11.5424 13.75 8.99981 13.75ZM1.43484 16.5226C3.1463 13.9529 5.8812 12.25 8.99981 12.25C12.1185 12.25 14.8534 13.9529 16.5648 16.5226C16.5716 16.5328 16.5784 16.5429 16.5851 16.5531C16.7422 16.7888 16.8974 17.0218 17.0044 17.24C17.129 17.4941 17.2129 17.7737 17.193 18.1049C17.1772 18.3682 17.089 18.6185 16.9803 18.8215C16.8716 19.0245 16.7122 19.2366 16.5018 19.3958C16.2213 19.6079 15.9154 19.686 15.6258 19.7197C15.3644 19.7501 15.0506 19.75 14.7141 19.75H3.28555C2.94906 19.75 2.63525 19.7501 2.37388 19.7197C2.08423 19.686 1.77832 19.6079 1.49788 19.3958C1.28745 19.2366 1.12801 19.0245 1.01932 18.8215C0.910635 18.6185 0.822425 18.3682 0.806625 18.1049C0.786745 17.7737 0.870655 17.4941 0.995235 17.24C1.10222 17.0218 1.25745 16.7888 1.41454 16.5531L1.43484 16.5226Z" fill="black"/>
</svg>
