<svg width="54" height="54" viewBox="0 0 54 54" fill="none" xmlns="http://www.w3.org/2000/svg">
<path d="M13.672 13.6663C13.672 6.30254 19.6438 0.333008 27.0104 0.333008C34.377 0.333008 40.3488 6.30254 40.3488 13.6663C40.3488 21.0301 34.377 26.9997 27.0104 26.9997C23.4729 26.9997 20.0802 25.5949 17.5788 23.0944C15.0773 20.5939 13.672 17.2026 13.672 13.6663ZM53.3204 48.833L48.5186 39.1997C46.8219 35.8025 43.3469 33.6589 39.5485 33.6663H14.4723C10.6739 33.6589 7.19892 35.8025 5.50228 39.1997L0.700468 48.833C0.180373 49.8647 0.231805 51.0921 0.836395 52.0767C1.44098 53.0614 2.51251 53.6628 3.66826 53.6663H50.3526C51.5083 53.6628 52.5798 53.0614 53.1844 52.0767C53.789 51.0921 53.8405 49.8647 53.3204 48.833Z" fill="#32BA55"/>
</svg>
