<svg width="80" height="80" viewBox="0 0 80 80" fill="none" xmlns="http://www.w3.org/2000/svg">
<g clip-path="url(#clip0_543_28378)">
<path d="M26.672 26.6668C26.672 19.303 32.6438 13.3335 40.0104 13.3335C47.377 13.3335 53.3488 19.303 53.3488 26.6668C53.3488 34.0306 47.377 40.0002 40.0104 40.0002C36.4729 40.0002 33.0802 38.5954 30.5788 36.0949C28.0773 33.5944 26.672 30.203 26.672 26.6668ZM66.3204 61.8335L61.5186 52.2002C59.8219 48.803 56.3469 46.6594 52.5485 46.6668H27.4723C23.6739 46.6594 20.1989 48.803 18.5023 52.2002L13.7005 61.8335C13.1804 62.8652 13.2318 64.0926 13.8364 65.0772C14.441 66.0619 15.5125 66.6633 16.6683 66.6668H63.3526C64.5083 66.6633 65.5798 66.0619 66.1844 65.0772C66.789 64.0926 66.8405 62.8652 66.3204 61.8335Z" fill="#32BA55"/>
</g>
<defs>
<clipPath id="clip0_543_28378">
<rect width="80" height="80" fill="white"/>
</clipPath>
</defs>
</svg>
