<svg width="68" height="60" viewBox="0 0 68 60" fill="none" xmlns="http://www.w3.org/2000/svg">
<path d="M57.3337 60C58.2177 60 59.0656 59.6488 59.6907 59.0237C60.3158 58.3986 60.667 57.5507 60.667 56.6667V36.6667H65.667C66.109 36.6667 66.5329 36.4911 66.8455 36.1785C67.1581 35.866 67.3337 35.442 67.3337 35V28.0333C67.33 27.1589 66.9828 26.3209 66.367 25.7L41.6337 0.966667C41.0128 0.350853 40.1748 0.00368207 39.3003 0H28.7003C27.8259 0.00368207 26.9879 0.350853 26.367 0.966667L1.63366 25.7C1.01784 26.3209 0.670674 27.1589 0.666992 28.0333V35C0.666992 35.442 0.842587 35.866 1.15515 36.1785C1.46771 36.4911 1.89163 36.6667 2.33366 36.6667H7.33366V56.6667C7.33366 57.5507 7.68485 58.3986 8.30997 59.0237C8.93509 59.6488 9.78294 60 10.667 60H57.3337ZM14.0003 53.3333V31.6667C14.0003 31.2246 13.8247 30.8007 13.5122 30.4882C13.1996 30.1756 12.7757 30 12.3337 30H7.50033C7.60879 29.4208 7.88729 28.887 8.30033 28.4667L30.1003 6.66667H37.9003L59.7003 28.4667C60.1746 28.8644 60.5126 29.4006 60.667 30H55.667C55.225 30 54.801 30.1756 54.4885 30.4882C54.1759 30.8007 54.0003 31.2246 54.0003 31.6667V53.3333H14.0003ZM40.667 26.6667C40.667 27.9852 40.276 29.2741 39.5435 30.3705C38.8109 31.4668 37.7697 32.3213 36.5515 32.8259C35.3334 33.3304 33.9929 33.4625 32.6997 33.2052C31.4065 32.948 30.2186 32.3131 29.2863 31.3807C28.3539 30.4484 27.719 29.2605 27.4618 27.9673C27.2045 26.6741 27.3365 25.3336 27.8411 24.1154C28.3457 22.8973 29.2002 21.8561 30.2965 21.1235C31.3929 20.391 32.6818 20 34.0003 20C35.7684 20 37.4641 20.7024 38.7144 21.9526C39.9646 23.2029 40.667 24.8986 40.667 26.6667ZM20.8337 44.2667L23.267 39.4333C23.6815 38.6031 24.3188 37.9046 25.1076 37.416C25.8965 36.9274 26.8057 36.6679 27.7337 36.6667H40.267C41.1949 36.6679 42.1042 36.9274 42.893 37.416C43.6819 37.9046 44.3192 38.6031 44.7337 39.4333L47.3337 44.2667C47.4583 44.521 47.516 44.8029 47.5015 45.0858C47.4869 45.3687 47.4004 45.6431 47.2503 45.8833C47.1002 46.1235 46.8914 46.3215 46.6435 46.4585C46.3956 46.5956 46.1169 46.6672 45.8337 46.6667H22.5003C22.2033 46.6979 21.9034 46.6488 21.6318 46.5245C21.3603 46.4001 21.1272 46.2051 20.9568 45.9598C20.7865 45.7145 20.6852 45.428 20.6635 45.1301C20.6419 44.8322 20.7006 44.534 20.8337 44.2667Z" fill="#32BA55"/>
</svg>
