<svg width="40" height="46" viewBox="0 0 40 46" fill="none" xmlns="http://www.w3.org/2000/svg">
<path fill-rule="evenodd" clip-rule="evenodd" d="M20 45.13C31.0458 45.13 40 35.0273 40 22.565C40 10.1027 31.0458 0 20 0C8.95429 0 0 10.1027 0 22.565C0 35.0273 8.95429 45.13 20 45.13ZM23.087 17.4344C24.7918 15.5108 24.7918 12.3922 23.087 10.4687C21.3821 8.54513 18.618 8.54513 16.9131 10.4687C15.2083 12.3922 15.2083 15.5108 16.9131 17.4344L20 20.9172L23.087 17.4344ZM24.5475 26.0479C26.2524 27.9715 29.0165 27.9715 30.7214 26.0479C32.4262 24.1243 32.4262 21.0057 30.7214 19.0822C29.0165 17.1587 26.2524 17.1587 24.5475 19.0822L21.4606 22.5651L24.5475 26.0479ZM23.087 34.6614C24.7918 32.7379 24.7918 29.6193 23.087 27.6957L20 24.2129L16.9131 27.6957C15.2083 29.6193 15.2083 32.7379 16.9131 34.6614C18.618 36.585 21.3821 36.585 23.087 34.6614ZM9.27863 26.0479C7.57379 24.1243 7.57379 21.0057 9.27863 19.0822C10.9836 17.1587 13.7477 17.1587 15.4526 19.0822L18.5395 22.5651L15.4526 26.0479C13.7477 27.9715 10.9836 27.9715 9.27863 26.0479Z" fill="#7F57F1"/>
</svg>
