<svg width="43" height="39" viewBox="0 0 43 39" fill="none" xmlns="http://www.w3.org/2000/svg">
<path d="M34.3034 22.7259H27.6947C26.7206 22.7259 26.2337 22.7259 25.8617 22.9017C25.5344 23.0563 25.2685 23.303 25.1017 23.6065C24.9121 23.9515 24.9121 24.4031 24.9121 25.3065V31.4355C24.9121 32.3389 24.9121 32.7905 25.1017 33.1355C25.2685 33.4391 25.5344 33.6857 25.8617 33.8404C26.2337 34.0162 26.7206 34.0162 27.6947 34.0162H34.3034C35.2775 34.0162 35.7645 34.0162 36.1365 33.8404C36.4638 33.6857 36.7297 33.4391 36.8965 33.1355C37.086 32.7905 37.086 32.3389 37.086 31.4355V25.3065C37.086 24.4031 37.086 23.9515 36.8965 23.6065C36.7297 23.303 36.4638 23.0563 36.1365 22.9017C35.7645 22.7259 35.2775 22.7259 34.3034 22.7259Z" stroke="white" stroke-width="2" stroke-linecap="round" stroke-linejoin="round"/>
<path d="M34.3034 4.98392H27.6947C26.7206 4.98392 26.2337 4.98392 25.8617 5.15971C25.5344 5.31435 25.2685 5.56109 25.1017 5.86458C24.9121 6.20959 24.9121 6.66126 24.9121 7.56456V13.6936C24.9121 14.5969 24.9121 15.0486 25.1017 15.3936C25.2685 15.6971 25.5344 15.9438 25.8617 16.0985C26.2337 16.2742 26.7206 16.2742 27.6947 16.2742H34.3034C35.2775 16.2742 35.7645 16.2742 36.1365 16.0985C36.4638 15.9438 36.7297 15.6971 36.8965 15.3936C37.086 15.0486 37.086 14.5969 37.086 13.6936V7.56456C37.086 6.66126 37.086 6.20959 36.8965 5.86458C36.7297 5.56109 36.4638 5.31435 36.1365 5.15971C35.7645 4.98392 35.2775 4.98392 34.3034 4.98392Z" stroke="white" stroke-width="2" stroke-linecap="round" stroke-linejoin="round"/>
<path d="M15.1726 4.98392H8.56386C7.58986 4.98392 7.10285 4.98392 6.73083 5.15971C6.4036 5.31435 6.13755 5.56109 5.9708 5.86458C5.78125 6.20959 5.78125 6.66126 5.78125 7.56456V13.6936C5.78125 14.5969 5.78125 15.0486 5.9708 15.3936C6.13755 15.6971 6.4036 15.9438 6.73083 16.0985C7.10285 16.2742 7.58986 16.2742 8.56386 16.2742H15.1726C16.1466 16.2742 16.6336 16.2742 17.0056 16.0985C17.3328 15.9438 17.5989 15.6971 17.7656 15.3936C17.9552 15.0486 17.9552 14.5969 17.9552 13.6936V7.56456C17.9552 6.66126 17.9552 6.20959 17.7656 5.86458C17.5989 5.56109 17.3328 5.31435 17.0056 5.15971C16.6336 4.98392 16.1466 4.98392 15.1726 4.98392Z" stroke="white" stroke-width="2" stroke-linecap="round" stroke-linejoin="round"/>
<path d="M15.1726 22.7259H8.56386C7.58986 22.7259 7.10285 22.7259 6.73083 22.9017C6.4036 23.0563 6.13755 23.303 5.9708 23.6065C5.78125 23.9515 5.78125 24.4031 5.78125 25.3065V31.4355C5.78125 32.3389 5.78125 32.7905 5.9708 33.1355C6.13755 33.4391 6.4036 33.6857 6.73083 33.8404C7.10285 34.0162 7.58986 34.0162 8.56386 34.0162H15.1726C16.1466 34.0162 16.6336 34.0162 17.0056 33.8404C17.3328 33.6857 17.5989 33.4391 17.7656 33.1355C17.9552 32.7905 17.9552 32.3389 17.9552 31.4355V25.3065C17.9552 24.4031 17.9552 23.9515 17.7656 23.6065C17.5989 23.303 17.3328 23.0563 17.0056 22.9017C16.6336 22.7259 16.1466 22.7259 15.1726 22.7259Z" stroke="white" stroke-width="2" stroke-linecap="round" stroke-linejoin="round"/>
</svg>
