<svg width="43" height="39" viewBox="0 0 43 39" fill="none" xmlns="http://www.w3.org/2000/svg">
<g clip-path="url(#clip0_635_11870)">
<path opacity="0.4" fill-rule="evenodd" clip-rule="evenodd" d="M27.7709 21.1129C27.7894 21.1129 27.808 21.1129 27.8264 21.1129H34.4351C34.4536 21.1129 34.4722 21.1129 34.4906 21.1129C34.9296 21.1129 35.357 21.1128 35.719 21.1404C36.1165 21.1704 36.5857 21.2415 37.0577 21.4646C37.7122 21.7738 38.2443 22.2673 38.5777 22.8742C38.8183 23.312 38.895 23.7471 38.9275 24.1158C38.957 24.4515 38.9569 24.8479 38.9569 25.255V31.487C38.9569 31.8941 38.957 32.2905 38.9275 32.6262C38.895 32.9949 38.8183 33.43 38.5777 33.8678C38.2443 34.4747 37.7122 34.9683 37.0577 35.2775C36.5857 35.5005 36.1165 35.5717 35.719 35.6018C35.357 35.6292 34.9296 35.6291 34.4906 35.6291H27.7709C27.332 35.6291 26.9045 35.6292 26.5426 35.6018C26.145 35.5717 25.6758 35.5005 25.2038 35.2775C24.5494 34.9683 24.0172 34.4747 23.6838 33.8678C23.4433 33.43 23.3666 32.9949 23.3343 32.6262C23.3045 32.2905 23.3047 31.8941 23.3047 31.487C23.3047 31.4699 23.3047 31.4526 23.3047 31.4355V25.3065C23.3047 25.2894 23.3047 25.2721 23.3047 25.255C23.3047 24.8479 23.3045 24.4515 23.3343 24.1158C23.3666 23.7471 23.4433 23.312 23.6838 22.8742C24.0172 22.2673 24.5494 21.7738 25.2038 21.4646C25.6758 21.2415 26.145 21.1704 26.5426 21.1404C26.9045 21.1128 27.332 21.1129 27.7709 21.1129ZM26.8029 24.3573C26.8023 24.3639 26.8016 24.371 26.8009 24.3784C26.7843 24.5665 26.7829 24.8283 26.7829 25.3065V31.4355C26.7829 31.9138 26.7843 32.1755 26.8009 32.3636C26.8016 32.371 26.8023 32.3781 26.8029 32.3849C26.8101 32.3854 26.8177 32.386 26.8257 32.3867C27.0285 32.402 27.3108 32.4033 27.8264 32.4033H34.4351C34.9508 32.4033 35.233 32.402 35.4358 32.3867C35.4438 32.386 35.4515 32.3854 35.4588 32.3849C35.4593 32.3781 35.46 32.371 35.4607 32.3636C35.4772 32.1755 35.4786 31.9138 35.4786 31.4355V25.3065C35.4786 24.8283 35.4772 24.5665 35.4607 24.3784C35.46 24.371 35.4593 24.3639 35.4588 24.3573C35.4515 24.3567 35.4438 24.356 35.4358 24.3554C35.233 24.34 34.9508 24.3388 34.4351 24.3388H27.8264C27.3108 24.3388 27.0285 24.34 26.8257 24.3554C26.8177 24.356 26.8101 24.3567 26.8029 24.3573Z" fill="black"/>
<path opacity="0.4" fill-rule="evenodd" clip-rule="evenodd" d="M23.3047 13.745C23.3047 13.7279 23.3047 13.7108 23.3047 13.6936V7.56455C23.3047 7.54739 23.3047 7.53025 23.3047 7.51312C23.3047 7.10604 23.3045 6.7096 23.3343 6.37386C23.3666 6.00517 23.4433 5.57012 23.6838 5.13233C24.0172 4.52536 24.5494 4.03188 25.2038 3.7226C25.6758 3.49955 26.145 3.42847 26.5426 3.39835C26.9045 3.37091 27.332 3.37096 27.7709 3.37101H34.4906C34.9296 3.37096 35.357 3.37091 35.719 3.39835C36.1165 3.42847 36.5857 3.49954 37.0577 3.7226C37.7122 4.03188 38.2443 4.52536 38.5777 5.13233C38.8183 5.57012 38.895 6.00517 38.9275 6.37386C38.957 6.70962 38.9569 7.10605 38.9569 7.51313V13.745C38.9569 14.1521 38.957 14.5485 38.9275 14.8843C38.895 15.253 38.8183 15.688 38.5777 16.1258C38.2443 16.7328 37.7122 17.2263 37.0577 17.5355C36.5857 17.7586 36.1165 17.8297 35.719 17.8597C35.357 17.8873 34.9296 17.8871 34.4906 17.8871C34.4722 17.8871 34.4536 17.8871 34.4351 17.8871H27.8264C27.808 17.8871 27.7894 17.8871 27.7709 17.8871C27.332 17.8871 26.9045 17.8873 26.5426 17.8597C26.145 17.8297 25.6758 17.7586 25.2038 17.5355C24.5494 17.2263 24.0172 16.7328 23.6838 16.1258C23.4433 15.688 23.3666 15.253 23.3343 14.8843C23.3045 14.5486 23.3047 14.1521 23.3047 13.745ZM26.8029 14.6429C26.8101 14.6435 26.8177 14.6441 26.8257 14.6447C27.0285 14.6601 27.3108 14.6613 27.8264 14.6613H34.4351C34.9508 14.6613 35.233 14.6601 35.4358 14.6447C35.4438 14.6441 35.4515 14.6435 35.4588 14.6429C35.4593 14.6362 35.46 14.6291 35.4607 14.6216C35.4772 14.4336 35.4786 14.1719 35.4786 13.6936V7.56455C35.4786 7.0863 35.4772 6.82459 35.4607 6.63655C35.46 6.62907 35.4593 6.62197 35.4588 6.61528C35.4515 6.61467 35.4438 6.61405 35.4358 6.61344C35.233 6.59807 34.9508 6.59681 34.4351 6.59681H27.8264C27.3108 6.59681 27.0285 6.59807 26.8257 6.61344C26.8177 6.61405 26.8101 6.61467 26.8029 6.61528C26.8023 6.62197 26.8016 6.62907 26.8009 6.63655C26.7843 6.82459 26.7829 7.0863 26.7829 7.56455V13.6936C26.7829 14.1719 26.7843 14.4336 26.8009 14.6216C26.8016 14.6291 26.8023 14.6362 26.8029 14.6429Z" fill="black"/>
<path opacity="0.4" fill-rule="evenodd" clip-rule="evenodd" d="M8.64011 21.1129C8.65858 21.1129 8.67707 21.1129 8.69559 21.1129H15.3043C15.3228 21.1129 15.3413 21.1129 15.3597 21.1129C15.7987 21.1129 16.2261 21.1128 16.5882 21.1404C16.9857 21.1704 17.4548 21.2415 17.9269 21.4646C18.5813 21.7738 19.1135 22.2673 19.4469 22.8742C19.6874 23.312 19.7641 23.7471 19.7966 24.1158C19.8262 24.4515 19.826 24.8479 19.826 25.255V31.487C19.826 31.8941 19.8262 32.2905 19.7966 32.6262C19.7641 32.9949 19.6874 33.43 19.4469 33.8678C19.1135 34.4747 18.5813 34.9683 17.9269 35.2775C17.4548 35.5005 16.9857 35.5717 16.5882 35.6018C16.2261 35.6292 15.7986 35.6291 15.3597 35.6291H8.64013C8.20121 35.6291 7.77373 35.6292 7.41171 35.6018C7.01415 35.5717 6.54505 35.5005 6.073 35.2775C5.41853 34.9683 4.88642 34.4747 4.55295 33.8678C4.31242 33.43 4.2358 32.9949 4.20331 32.6262C4.17373 32.2905 4.17378 31.8941 4.17383 31.487C4.17383 31.4699 4.17385 31.4526 4.17385 31.4355V25.3065C4.17385 25.2894 4.17383 25.2721 4.17383 25.255C4.17378 24.8479 4.17373 24.4515 4.20331 24.1158C4.2358 23.7471 4.31242 23.312 4.55295 22.8742C4.88642 22.2673 5.41853 21.7738 6.073 21.4646C6.54505 21.2415 7.01415 21.1704 7.41171 21.1404C7.77371 21.1128 8.20117 21.1129 8.64011 21.1129ZM7.67201 24.3573C7.67135 24.3639 7.67069 24.371 7.67002 24.3784C7.65345 24.5665 7.65211 24.8283 7.65211 25.3065V31.4355C7.65211 31.9138 7.65345 32.1755 7.67002 32.3636C7.67069 32.371 7.67135 32.3781 7.67201 32.3849C7.67922 32.3854 7.68688 32.386 7.69495 32.3867C7.89769 32.402 8.17988 32.4033 8.69559 32.4033H15.3043C15.82 32.4033 16.1022 32.402 16.3049 32.3867C16.313 32.386 16.3206 32.3854 16.3278 32.3849C16.3285 32.3781 16.3292 32.371 16.3298 32.3636C16.3464 32.1755 16.3478 31.9138 16.3478 31.4355V25.3065C16.3478 24.8283 16.3464 24.5665 16.3298 24.3784C16.3292 24.371 16.3285 24.3639 16.3278 24.3573C16.3206 24.3567 16.313 24.356 16.3049 24.3554C16.1022 24.34 15.82 24.3388 15.3043 24.3388H8.69559C8.17988 24.3388 7.89769 24.34 7.69495 24.3554C7.68688 24.356 7.67922 24.3567 7.67201 24.3573Z" fill="black"/>
<path opacity="0.4" fill-rule="evenodd" clip-rule="evenodd" d="M8.64011 3.37101C8.65858 3.37101 8.67707 3.37102 8.69559 3.37102H15.3043C15.3228 3.37102 15.3413 3.37101 15.3597 3.37101C15.7987 3.37096 16.2261 3.37091 16.5882 3.39834C16.9857 3.42847 17.4548 3.49954 17.9269 3.7226C18.5813 4.03188 19.1135 4.52536 19.4469 5.13233C19.6874 5.57012 19.7641 6.00517 19.7966 6.37388C19.8262 6.70962 19.826 7.10607 19.826 7.51315V13.745C19.826 14.1521 19.8262 14.5485 19.7966 14.8843C19.7641 15.253 19.6874 15.688 19.4469 16.1258C19.1135 16.7328 18.5813 17.2263 17.9269 17.5355C17.4548 17.7586 16.9857 17.8297 16.5882 17.8599C16.2261 17.8873 15.7986 17.8871 15.3597 17.8871H8.64013C8.20121 17.8871 7.77373 17.8873 7.41171 17.8599C7.01415 17.8297 6.54505 17.7586 6.073 17.5355C5.41853 17.2263 4.88642 16.7328 4.55295 16.1258C4.31242 15.688 4.2358 15.253 4.20331 14.8843C4.17373 14.5486 4.17378 14.1521 4.17383 13.745C4.17383 13.7279 4.17385 13.7108 4.17385 13.6936V7.56457C4.17385 7.54739 4.17383 7.53025 4.17383 7.51312C4.17378 7.10604 4.17373 6.7096 4.20331 6.37388C4.2358 6.00517 4.31242 5.57012 4.55295 5.13233C4.88642 4.52536 5.41853 4.03188 6.073 3.7226C6.54505 3.49954 7.01415 3.42847 7.41171 3.39834C7.77371 3.37091 8.20117 3.37096 8.64011 3.37101ZM7.67201 6.61528C7.67135 6.62197 7.67069 6.62907 7.67002 6.63655C7.65345 6.82459 7.65211 7.0863 7.65211 7.56457V13.6936C7.65211 14.1719 7.65345 14.4336 7.67002 14.6216C7.67069 14.6291 7.67135 14.6362 7.67201 14.6429C7.67922 14.6435 7.68688 14.6441 7.69495 14.6447C7.89769 14.6601 8.17988 14.6613 8.69559 14.6613H15.3043C15.82 14.6613 16.1022 14.6601 16.3049 14.6447C16.313 14.6441 16.3206 14.6435 16.3278 14.6429C16.3285 14.6362 16.3292 14.6291 16.3298 14.6216C16.3464 14.4336 16.3478 14.1719 16.3478 13.6936V7.56457C16.3478 7.0863 16.3464 6.82459 16.3298 6.63655C16.3292 6.62907 16.3285 6.62197 16.3278 6.61528C16.3206 6.61467 16.313 6.61405 16.3049 6.61344C16.1022 6.59807 15.82 6.59683 15.3043 6.59683H8.69559C8.17988 6.59683 7.89769 6.59807 7.69495 6.61344C7.68688 6.61405 7.67922 6.61467 7.67201 6.61528Z" fill="black"/>
<path fill-rule="evenodd" clip-rule="evenodd" d="M37.937 22.0576L35.4576 24.3571L35.4597 24.3783C35.4762 24.5663 35.4776 24.8281 35.4776 25.3063V31.4354C35.4776 31.9136 35.4762 32.1754 35.4597 32.3634L35.4576 32.3847L35.4346 32.3865C35.2318 32.4018 34.9497 32.4031 34.4341 32.4031H27.8254C27.3096 32.4031 27.0275 32.4018 26.8247 32.3865L26.8017 32.3847L24.3223 34.6841C24.5788 34.922 24.8755 35.1226 25.2028 35.2773C25.6748 35.5004 26.1438 35.5715 26.5414 35.6016C26.9035 35.6291 27.331 35.6289 27.7699 35.6289H34.4894C34.9284 35.6289 35.3558 35.6291 35.7179 35.6016C36.1155 35.5715 36.5845 35.5004 37.0565 35.2773C37.7111 34.9681 38.2431 34.4746 38.5767 33.8676C38.8172 33.4299 38.8937 32.9947 38.9263 32.626C38.9558 32.2904 38.9558 31.8939 38.9558 31.4868V25.2549C38.9558 24.8478 38.9558 24.4513 38.9263 24.1157C38.8937 23.747 38.8172 23.312 38.5767 22.8741C38.4099 22.5707 38.1936 22.2955 37.937 22.0576Z" fill="white"/>
<path fill-rule="evenodd" clip-rule="evenodd" d="M24.3223 4.3156L26.8017 6.61504L26.8245 6.6132C27.0273 6.59783 27.3096 6.59657 27.8252 6.59657H34.4339C34.9496 6.59657 35.2318 6.59783 35.4346 6.6132L35.4576 6.61504L35.4595 6.63631C35.476 6.82434 35.4774 7.08605 35.4774 7.56431V13.6933C35.4774 14.1716 35.476 14.4333 35.4595 14.6214L35.4576 14.6426L37.9369 16.9421C38.1934 16.7042 38.4097 16.4291 38.5765 16.1256C38.817 15.6878 38.8937 15.2527 38.9263 14.884C38.9558 14.5483 38.9557 14.1518 38.9557 13.7448V7.51289C38.9557 7.10581 38.9558 6.70937 38.9263 6.37362C38.8937 6.00492 38.817 5.56988 38.5765 5.13208C38.2431 4.52512 37.711 4.03163 37.0565 3.72236C36.5845 3.49929 36.1153 3.42823 35.7177 3.3981C35.3558 3.37067 34.9284 3.37071 34.4894 3.37076H27.7697C27.3308 3.37071 26.9033 3.37067 26.5414 3.3981C26.1438 3.42823 25.6748 3.49929 25.2026 3.72236C24.8755 3.877 24.5788 4.07768 24.3223 4.3156Z" fill="white"/>
</g>
<defs>
<clipPath id="clip0_635_11870">
<rect width="41.7391" height="38.7097" fill="white" transform="translate(0.695312 0.145203)"/>
</clipPath>
</defs>
</svg>
