<svg width="42" height="39" viewBox="0 0 42 39" fill="none" xmlns="http://www.w3.org/2000/svg">
<path d="M33.7964 24.3387H27.2023C26.2303 24.3387 25.7444 24.3387 25.3733 24.5146C25.0467 24.6692 24.7813 24.9158 24.6149 25.2194C24.4258 25.5644 24.4258 26.016 24.4258 26.9194V33.0484C24.4258 33.9518 24.4258 34.4034 24.6149 34.7484C24.7813 35.052 25.0467 35.2986 25.3733 35.4533C25.7444 35.6291 26.2303 35.6291 27.2023 35.6291H33.7964C34.7683 35.6291 35.2542 35.6291 35.6254 35.4533C35.952 35.2986 36.2173 35.052 36.3837 34.7484C36.5729 34.4034 36.5729 33.9518 36.5729 33.0484V26.9194C36.5729 26.016 36.5729 25.5644 36.3837 25.2194C36.2173 24.9158 35.952 24.6692 35.6254 24.5146C35.2542 24.3387 34.7683 24.3387 33.7964 24.3387Z" stroke="white" stroke-width="2" stroke-linecap="round" stroke-linejoin="round"/>
<path d="M14.7065 24.3387H8.11241C7.14056 24.3387 6.65463 24.3387 6.28343 24.5146C5.95691 24.6692 5.69145 24.9158 5.52507 25.2194C5.33594 25.5644 5.33594 26.016 5.33594 26.9194V33.0484C5.33594 33.9518 5.33594 34.4034 5.52507 34.7484C5.69145 35.052 5.95691 35.2986 6.28343 35.4533C6.65463 35.6291 7.14056 35.6291 8.11241 35.6291H14.7065C15.6784 35.6291 16.1643 35.6291 16.5355 35.4533C16.862 35.2986 17.1275 35.052 17.2939 34.7484C17.483 34.4034 17.483 33.9518 17.483 33.0484V26.9194C17.483 26.016 17.483 25.5644 17.2939 25.2194C17.1275 24.9158 16.862 24.6692 16.5355 24.5146C16.1643 24.3387 15.6784 24.3387 14.7065 24.3387Z" stroke="white" stroke-width="2" stroke-linecap="round" stroke-linejoin="round"/>
<path d="M20.9536 3.371V6.10342M8.27574 17.887H5.33594M11.6771 9.26513L9.59832 7.33302M30.2321 9.26513L32.3108 7.33302M36.5713 17.887H33.6315M13.6042 17.8871C13.6042 14.1144 16.8947 11.0561 20.9538 11.0561C23.7209 11.0561 28.3031 13.6176 28.3031 17.887" stroke="white" stroke-width="2" stroke-linecap="round" stroke-linejoin="round"/>
</svg>
