<svg width="43" height="39" viewBox="0 0 43 39" fill="none" xmlns="http://www.w3.org/2000/svg">
<path d="M34.5222 22.7258H27.9135C26.9394 22.7258 26.4524 22.7258 26.0804 22.9016C25.7531 23.0563 25.4872 23.3029 25.3204 23.6065C25.1309 23.9515 25.1309 24.4031 25.1309 25.3065V31.4355C25.1309 32.3389 25.1309 32.7905 25.3204 33.1355C25.4872 33.4391 25.7531 33.6857 26.0804 33.8403C26.4524 34.0162 26.9394 34.0162 27.9135 34.0162H34.5222C35.4962 34.0162 35.9832 34.0162 36.3552 33.8403C36.6825 33.6857 36.9484 33.4391 37.1152 33.1355C37.3048 32.7905 37.3048 32.3389 37.3048 31.4355V25.3065C37.3048 24.4031 37.3048 23.9515 37.1152 23.6065C36.9484 23.3029 36.6825 23.0563 36.3552 22.9016C35.9832 22.7258 35.4962 22.7258 34.5222 22.7258Z" stroke="white" stroke-width="2" stroke-linecap="round" stroke-linejoin="round"/>
<path opacity="0.4" d="M15.3913 22.7258H8.78261C7.80861 22.7258 7.3216 22.7258 6.94958 22.9016C6.62235 23.0563 6.3563 23.3029 6.18955 23.6065C6 23.9515 6 24.4031 6 25.3065V31.4355C6 32.3389 6 32.7905 6.18955 33.1355C6.3563 33.4391 6.62235 33.6857 6.94958 33.8403C7.3216 34.0162 7.80861 34.0162 8.78261 34.0162H15.3913C16.3653 34.0162 16.8523 34.0162 17.2243 33.8403C17.5516 33.6857 17.8176 33.4391 17.9844 33.1355C18.1739 32.7905 18.1739 32.3389 18.1739 31.4355V25.3065C18.1739 24.4031 18.1739 23.9515 17.9844 23.6065C17.8176 23.3029 17.5516 23.0563 17.2243 22.9016C16.8523 22.7258 16.3653 22.7258 15.3913 22.7258Z" stroke="black" stroke-opacity="0.5" stroke-width="2" stroke-linecap="round" stroke-linejoin="round"/>
<path opacity="0.4" d="M34.5222 4.98392H27.9135C26.9394 4.98392 26.4524 4.98392 26.0804 5.15971C25.7531 5.31435 25.4872 5.56109 25.3204 5.86458C25.1309 6.20959 25.1309 6.66126 25.1309 7.56456V13.6936C25.1309 14.5969 25.1309 15.0486 25.3204 15.3936C25.4872 15.6971 25.7531 15.9438 26.0804 16.0984C26.4524 16.2742 26.9394 16.2742 27.9135 16.2742H34.5222C35.4962 16.2742 35.9832 16.2742 36.3552 16.0984C36.6825 15.9438 36.9484 15.6971 37.1152 15.3936C37.3048 15.0486 37.3048 14.5969 37.3048 13.6936V7.56456C37.3048 6.66126 37.3048 6.20959 37.1152 5.86458C36.9484 5.56109 36.6825 5.31435 36.3552 5.15971C35.9832 4.98392 35.4962 4.98392 34.5222 4.98392Z" stroke="black" stroke-opacity="0.5" stroke-width="2" stroke-linecap="round" stroke-linejoin="round"/>
<path opacity="0.4" d="M15.3913 4.98392H8.78261C7.80861 4.98392 7.3216 4.98392 6.94958 5.15971C6.62235 5.31435 6.3563 5.56109 6.18955 5.86458C6 6.20959 6 6.66126 6 7.56456V13.6936C6 14.5969 6 15.0486 6.18955 15.3936C6.3563 15.6971 6.62235 15.9438 6.94958 16.0984C7.3216 16.2742 7.80861 16.2742 8.78261 16.2742H15.3913C16.3653 16.2742 16.8523 16.2742 17.2243 16.0984C17.5516 15.9438 17.8176 15.6971 17.9844 15.3936C18.1739 15.0486 18.1739 14.5969 18.1739 13.6936V7.56456C18.1739 6.66126 18.1739 6.20959 17.9844 5.86458C17.8176 5.56109 17.5516 5.31435 17.2243 5.15971C16.8523 4.98392 16.3653 4.98392 15.3913 4.98392Z" stroke="black" stroke-opacity="0.5" stroke-width="2" stroke-linecap="round" stroke-linejoin="round"/>
</svg>
