<svg width="43" height="39" viewBox="0 0 43 39" fill="none" xmlns="http://www.w3.org/2000/svg">
<path opacity="0.4" d="M15.019 24.3387H8.42491C7.45306 24.3387 6.96713 24.3387 6.59593 24.5146C6.26941 24.6692 6.00395 24.9158 5.83757 25.2194C5.64844 25.5644 5.64844 26.016 5.64844 26.9194V33.0484C5.64844 33.9518 5.64844 34.4034 5.83757 34.7484C6.00395 35.052 6.26941 35.2986 6.59593 35.4533C6.96713 35.6291 7.45306 35.6291 8.42491 35.6291H15.019C15.9909 35.6291 16.4768 35.6291 16.848 35.4533C17.1745 35.2986 17.44 35.052 17.6064 34.7484C17.7955 34.4034 17.7955 33.9518 17.7955 33.0484V26.9194C17.7955 26.016 17.7955 25.5644 17.6064 25.2194C17.44 24.9158 17.1745 24.6692 16.848 24.5146C16.4768 24.3387 15.9909 24.3387 15.019 24.3387Z" stroke="white" stroke-width="2" stroke-linecap="round" stroke-linejoin="round"/>
<path opacity="0.4" fill-rule="evenodd" clip-rule="evenodd" d="M23.002 33.0999C23.002 33.0828 23.002 33.0655 23.002 33.0484V26.9194C23.002 26.9023 23.002 26.885 23.002 26.8679C23.002 26.4608 23.0018 26.0644 23.0315 25.7287C23.0637 25.36 23.1403 24.9249 23.3802 24.4871C23.7129 23.8802 24.2439 23.3867 24.8969 23.0775C25.3679 22.8544 25.836 22.7833 26.2327 22.7531C26.5938 22.7257 27.0204 22.7258 27.4584 22.7258H34.1632C34.6012 22.7258 35.0277 22.7257 35.3889 22.7531C35.7855 22.7833 36.2537 22.8544 36.7247 23.0775C37.3777 23.3867 37.9087 23.8802 38.2413 24.4871C38.4813 24.9249 38.5579 25.36 38.5903 25.7287C38.6198 26.0644 38.6196 26.4608 38.6196 26.8679V33.0999C38.6196 33.507 38.6198 33.9034 38.5903 34.2391C38.5579 34.6078 38.4813 35.0429 38.2413 35.4807C37.9087 36.0876 37.3777 36.5812 36.7247 36.8904C36.2537 37.1134 35.7855 37.1846 35.3889 37.2146C35.0277 37.2421 34.6012 37.242 34.1632 37.242C34.1448 37.242 34.1263 37.242 34.1079 37.242H27.5137C27.4953 37.242 27.4768 37.242 27.4584 37.242C27.0204 37.242 26.5938 37.2421 26.2327 37.2146C25.836 37.1846 25.3679 37.1134 24.8969 36.8904C24.2439 36.5812 23.7129 36.0876 23.3802 35.4807C23.1403 35.0429 23.0637 34.6078 23.0315 34.2391C23.0018 33.9034 23.002 33.507 23.002 33.0999ZM26.4925 33.9976C26.4996 33.9983 26.5073 33.9989 26.5152 33.9996C26.7176 34.0149 26.9992 34.0162 27.5137 34.0162H34.1079C34.6224 34.0162 34.904 34.0149 35.1064 33.9996C35.1143 33.9989 35.122 33.9983 35.1293 33.9976C35.1298 33.991 35.1305 33.9839 35.1312 33.9765C35.1476 33.7884 35.149 33.5267 35.149 33.0484V26.9194C35.149 26.4412 35.1476 26.1794 35.1312 25.9913C35.1305 25.9839 35.1298 25.9768 35.1293 25.97C35.122 25.9696 35.1143 25.9689 35.1064 25.9683C34.904 25.9529 34.6224 25.9517 34.1079 25.9517H27.5137C26.9992 25.9517 26.7176 25.9529 26.5152 25.9683C26.5073 25.9689 26.4996 25.9696 26.4925 25.97C26.4918 25.9768 26.4911 25.9839 26.4904 25.9913C26.4739 26.1794 26.4725 26.4412 26.4725 26.9194V33.0484C26.4725 33.5267 26.4739 33.7884 26.4904 33.9765C26.4911 33.9839 26.4918 33.991 26.4925 33.9976Z" fill="white"/>
<path fill-rule="evenodd" clip-rule="evenodd" d="M24.0195 23.6707L26.4935 25.97L26.5163 25.9683C26.7186 25.9529 27.0003 25.9517 27.5148 25.9517H34.1089C34.6234 25.9517 34.9051 25.9529 35.1074 25.9683L35.1303 25.97L35.1322 25.9913C35.1487 26.1794 35.1501 26.4412 35.1501 26.9194V33.0484C35.1501 33.5267 35.1487 33.7884 35.1322 33.9765L35.1303 33.9976L35.1074 33.9996C34.9051 34.0149 34.6234 34.0162 34.1089 34.0162H27.5148C27.0003 34.0162 26.7186 34.0149 26.5163 33.9996L26.4935 33.9976L24.0195 36.2971C24.2755 36.535 24.5715 36.7357 24.8979 36.8904C25.3691 37.1134 25.8371 37.1846 26.2338 37.2146C26.5949 37.2421 27.0214 37.242 27.4594 37.242H27.5148H34.1089H34.1643C34.6022 37.242 35.0288 37.2421 35.3899 37.2146C35.7866 37.1846 36.2548 37.1134 36.7257 36.8904C37.3787 36.5812 37.9097 36.0876 38.2424 35.4807C38.4824 35.0429 38.5589 34.6078 38.5913 34.2391C38.6209 33.9034 38.6207 33.507 38.6207 33.0999V26.8679C38.6207 26.4608 38.6209 26.0644 38.5913 25.7287C38.5589 25.36 38.4824 24.9249 38.2424 24.4871C37.9097 23.8802 37.3787 23.3867 36.7257 23.0775C36.2548 22.8544 35.7866 22.7833 35.3899 22.7531C35.0288 22.7257 34.6022 22.7258 34.1643 22.7258H27.4594C27.0214 22.7258 26.5949 22.7257 26.2338 22.7531C25.8371 22.7833 25.3691 22.8544 24.8979 23.0775C24.5715 23.2321 24.2755 23.4328 24.0195 23.6707Z" fill="white"/>
<path d="M21.2661 3.371V6.10342M8.58824 17.887H5.64844M11.9896 9.26513L9.91082 7.33302M30.5446 9.26513L32.6233 7.33302M36.8838 17.887H33.944M13.9167 17.8871C13.9167 14.1144 17.2072 11.0561 21.2663 11.0561C24.0334 11.0561 28.6156 13.6176 28.6156 17.887" stroke="white" stroke-width="2" stroke-linecap="round" stroke-linejoin="round"/>
</svg>
