<svg width="43" height="39" viewBox="0 0 43 39" fill="none" xmlns="http://www.w3.org/2000/svg">
<path opacity="0.4" fill-rule="evenodd" clip-rule="evenodd" d="M27.8392 21.1129C27.8576 21.1129 27.8762 21.1129 27.8946 21.1129H34.4887C34.5071 21.1129 34.5257 21.1129 34.5441 21.1129C34.9821 21.1129 35.4086 21.1128 35.7697 21.1404C36.1664 21.1704 36.6346 21.2415 37.1055 21.4646C37.7585 21.7738 38.2895 22.2673 38.6222 22.8742C38.8622 23.312 38.9387 23.7471 38.9712 24.1158C39.0007 24.4515 39.0005 24.8479 39.0005 25.255V31.487C39.0005 31.8941 39.0007 32.2905 38.9712 32.6262C38.9387 32.9949 38.8622 33.43 38.6222 33.8678C38.2895 34.4747 37.7585 34.9683 37.1055 35.2775C36.6346 35.5005 36.1664 35.5717 35.7697 35.6018C35.4086 35.6292 34.9821 35.6291 34.5441 35.6291H27.8392C27.4012 35.6291 26.9747 35.6292 26.6136 35.6018C26.2169 35.5717 25.7487 35.5005 25.2778 35.2775C24.6248 34.9683 24.0938 34.4747 23.7611 33.8678C23.5211 33.43 23.4446 32.9949 23.4123 32.6262C23.3826 32.2905 23.3828 31.8941 23.3828 31.487C23.3828 31.4699 23.3828 31.4526 23.3828 31.4355V25.3065C23.3828 25.2894 23.3828 25.2721 23.3828 25.255C23.3828 24.8479 23.3826 24.4515 23.4123 24.1158C23.4446 23.7471 23.5211 23.312 23.7611 22.8742C24.0938 22.2673 24.6248 21.7738 25.2778 21.4646C25.7487 21.2415 26.2169 21.1704 26.6136 21.1404C26.9747 21.1128 27.4012 21.1129 27.8392 21.1129ZM26.8734 24.3573C26.8727 24.3639 26.872 24.371 26.8713 24.3784C26.8548 24.5665 26.8534 24.8283 26.8534 25.3065V31.4355C26.8534 31.9138 26.8548 32.1755 26.8713 32.3636C26.872 32.371 26.8727 32.3781 26.8734 32.3849C26.8805 32.3854 26.8881 32.386 26.8961 32.3867C27.0984 32.402 27.3801 32.4033 27.8946 32.4033H34.4887C35.0032 32.4033 35.2849 32.402 35.4872 32.3867C35.4952 32.386 35.5028 32.3854 35.5101 32.3849C35.5106 32.3781 35.5113 32.371 35.512 32.3636C35.5285 32.1755 35.5299 31.9138 35.5299 31.4355V25.3065C35.5299 24.8283 35.5285 24.5665 35.512 24.3784C35.5113 24.371 35.5106 24.3639 35.5101 24.3573C35.5028 24.3567 35.4952 24.356 35.4872 24.3554C35.2849 24.34 35.0032 24.3388 34.4887 24.3388H27.8946C27.3801 24.3388 27.0984 24.34 26.8961 24.3554C26.8881 24.356 26.8805 24.3567 26.8734 24.3573Z" fill="white"/>
<path opacity="0.4" fill-rule="evenodd" clip-rule="evenodd" d="M23.3828 13.745C23.3828 13.7279 23.3828 13.7107 23.3828 13.6936V7.56454C23.3828 7.54738 23.3828 7.53023 23.3828 7.5131C23.3828 7.10602 23.3826 6.70959 23.4123 6.37385C23.4446 6.00515 23.5211 5.5701 23.7611 5.13231C24.0938 4.52535 24.6248 4.03186 25.2778 3.72259C25.7487 3.49954 26.2169 3.42846 26.6136 3.39833C26.9747 3.37089 27.4012 3.37094 27.8392 3.37099H34.5441C34.9821 3.37094 35.4086 3.37089 35.7697 3.39833C36.1664 3.42846 36.6346 3.49952 37.1055 3.72259C37.7585 4.03186 38.2895 4.52535 38.6222 5.13231C38.8622 5.5701 38.9387 6.00515 38.9712 6.37385C39.0007 6.7096 39.0005 7.10604 39.0005 7.51312V13.745C39.0005 14.1521 39.0007 14.5485 38.9712 14.8843C38.9387 15.253 38.8622 15.688 38.6222 16.1258C38.2895 16.7328 37.7585 17.2263 37.1055 17.5355C36.6346 17.7586 36.1664 17.8297 35.7697 17.8597C35.4086 17.8873 34.9821 17.8871 34.5441 17.8871C34.5257 17.8871 34.5071 17.8871 34.4887 17.8871H27.8946C27.8762 17.8871 27.8576 17.8871 27.8392 17.8871C27.4012 17.8871 26.9747 17.8873 26.6136 17.8597C26.2169 17.8297 25.7487 17.7586 25.2778 17.5355C24.6248 17.2263 24.0938 16.7328 23.7611 16.1258C23.5211 15.688 23.4446 15.253 23.4123 14.8843C23.3826 14.5485 23.3828 14.1521 23.3828 13.745ZM26.8734 14.6429C26.8805 14.6435 26.8881 14.6441 26.8961 14.6447C27.0984 14.6601 27.3801 14.6613 27.8946 14.6613H34.4887C35.0032 14.6613 35.2849 14.6601 35.4872 14.6447C35.4952 14.6441 35.5028 14.6435 35.5101 14.6429C35.5106 14.6362 35.5113 14.6291 35.512 14.6216C35.5285 14.4336 35.5299 14.1718 35.5299 13.6936V7.56454C35.5299 7.08628 35.5285 6.82457 35.512 6.63654C35.5113 6.62906 35.5106 6.62196 35.5101 6.61526C35.5028 6.61465 35.4952 6.61404 35.4872 6.61343C35.2849 6.59806 35.0032 6.5968 34.4887 6.5968H27.8946C27.3801 6.5968 27.0984 6.59806 26.8961 6.61343C26.8881 6.61404 26.8805 6.61465 26.8734 6.61526C26.8727 6.62196 26.872 6.62906 26.8713 6.63654C26.8548 6.82457 26.8534 7.08628 26.8534 7.56454V13.6936C26.8534 14.1718 26.8548 14.4336 26.8713 14.6216C26.872 14.6291 26.8727 14.6362 26.8734 14.6429Z" fill="white"/>
<path opacity="0.4" fill-rule="evenodd" clip-rule="evenodd" d="M8.75136 21.1129C8.76979 21.1129 8.78824 21.1129 8.80672 21.1129H15.4009C15.4193 21.1129 15.4378 21.1129 15.4562 21.1129C15.8942 21.1129 16.3207 21.1128 16.6819 21.1404C17.0786 21.1704 17.5466 21.2415 18.0176 21.4646C18.6707 21.7738 19.2017 22.2673 19.5343 22.8742C19.7743 23.312 19.8508 23.7471 19.8833 24.1158C19.9128 24.4515 19.9126 24.8479 19.9126 25.255V31.487C19.9126 31.8941 19.9128 32.2905 19.8833 32.6262C19.8508 32.9949 19.7743 33.43 19.5343 33.8678C19.2017 34.4747 18.6707 34.9683 18.0176 35.2775C17.5466 35.5005 17.0786 35.5717 16.6819 35.6018C16.3207 35.6292 15.8941 35.6291 15.4562 35.6291H8.75138C8.31343 35.6291 7.88689 35.6292 7.52567 35.6018C7.12898 35.5717 6.66092 35.5005 6.18991 35.2775C5.53688 34.9683 5.00595 34.4747 4.6732 33.8678C4.43321 33.43 4.35675 32.9949 4.32434 32.6262C4.29482 32.2905 4.29487 31.8941 4.29493 31.487C4.29493 31.4699 4.29494 31.4526 4.29494 31.4355V25.3065C4.29494 25.2894 4.29493 25.2721 4.29493 25.255C4.29487 24.8479 4.29482 24.4515 4.32434 24.1158C4.35675 23.7471 4.43321 23.312 4.6732 22.8742C5.00595 22.2673 5.53688 21.7738 6.18991 21.4646C6.66092 21.2415 7.12898 21.1704 7.52567 21.1404C7.88687 21.1128 8.31339 21.1129 8.75136 21.1129ZM7.78539 24.3573C7.78473 24.3639 7.78407 24.371 7.78341 24.3784C7.76688 24.5665 7.76554 24.8283 7.76554 25.3065V31.4355C7.76554 31.9138 7.76688 32.1755 7.78341 32.3636C7.78407 32.371 7.78473 32.3781 7.78539 32.3849C7.79259 32.3854 7.80023 32.386 7.80828 32.3867C8.01058 32.402 8.29215 32.4033 8.80672 32.4033H15.4009C15.9154 32.4033 16.197 32.402 16.3993 32.3867C16.4073 32.386 16.415 32.3854 16.4222 32.3849C16.4228 32.3781 16.4235 32.371 16.4241 32.3636C16.4407 32.1755 16.442 31.9138 16.442 31.4355V25.3065C16.442 24.8283 16.4407 24.5665 16.4241 24.3784C16.4235 24.371 16.4228 24.3639 16.4222 24.3573C16.415 24.3567 16.4073 24.356 16.3993 24.3554C16.197 24.34 15.9154 24.3388 15.4009 24.3388H8.80672C8.29215 24.3388 8.01058 24.34 7.80828 24.3554C7.80023 24.356 7.79259 24.3567 7.78539 24.3573Z" fill="white"/>
<path opacity="0.4" fill-rule="evenodd" clip-rule="evenodd" d="M8.75136 3.37101C8.76979 3.37101 8.78824 3.37102 8.80672 3.37102H15.4009C15.4193 3.37102 15.4378 3.37101 15.4562 3.37101C15.8942 3.37096 16.3207 3.37091 16.6819 3.39834C17.0786 3.42847 17.5466 3.49954 18.0176 3.7226C18.6707 4.03188 19.2017 4.52536 19.5343 5.13233C19.7743 5.57012 19.8508 6.00517 19.8833 6.37388C19.9128 6.70962 19.9126 7.10607 19.9126 7.51315V13.745C19.9126 14.1521 19.9128 14.5485 19.8833 14.8843C19.8508 15.253 19.7743 15.688 19.5343 16.1258C19.2017 16.7328 18.6707 17.2263 18.0176 17.5355C17.5466 17.7586 17.0786 17.8297 16.6819 17.8599C16.3207 17.8873 15.8941 17.8871 15.4562 17.8871H8.75138C8.31343 17.8871 7.88689 17.8873 7.52567 17.8599C7.12898 17.8297 6.66092 17.7586 6.18991 17.5355C5.53688 17.2263 5.00595 16.7328 4.6732 16.1258C4.43321 15.688 4.35675 15.253 4.32434 14.8843C4.29482 14.5486 4.29487 14.1521 4.29493 13.745C4.29493 13.7279 4.29494 13.7108 4.29494 13.6936V7.56457C4.29494 7.54739 4.29493 7.53025 4.29493 7.51312C4.29487 7.10604 4.29482 6.7096 4.32434 6.37388C4.35675 6.00517 4.43321 5.57012 4.6732 5.13233C5.00595 4.52536 5.53688 4.03188 6.18991 3.7226C6.66092 3.49954 7.12898 3.42847 7.52567 3.39834C7.88687 3.37091 8.31339 3.37096 8.75136 3.37101ZM7.78539 6.61528C7.78473 6.62197 7.78407 6.62907 7.78341 6.63655C7.76688 6.82459 7.76554 7.0863 7.76554 7.56457V13.6936C7.76554 14.1719 7.76688 14.4336 7.78341 14.6216C7.78407 14.6291 7.78473 14.6362 7.78539 14.6429C7.79259 14.6435 7.80023 14.6441 7.80828 14.6447C8.01058 14.6601 8.29215 14.6613 8.80672 14.6613H15.4009C15.9154 14.6613 16.197 14.6601 16.3993 14.6447C16.4073 14.6441 16.415 14.6435 16.4222 14.6429C16.4228 14.6362 16.4235 14.6291 16.4241 14.6216C16.4407 14.4336 16.442 14.1719 16.442 13.6936V7.56457C16.442 7.0863 16.4407 6.82459 16.4241 6.63655C16.4235 6.62907 16.4228 6.62197 16.4222 6.61528C16.415 6.61467 16.4073 6.61405 16.3993 6.61344C16.197 6.59807 15.9154 6.59683 15.4009 6.59683H8.80672C8.29215 6.59683 8.01058 6.59807 7.80828 6.61344C7.80023 6.61405 7.79259 6.61467 7.78539 6.61528Z" fill="white"/>
</svg>
