<svg width="41" height="40" viewBox="0 0 41 40" fill="none" xmlns="http://www.w3.org/2000/svg">
<mask id="mask0_1222_63150" style="mask-type:luminance" maskUnits="userSpaceOnUse" x="6" y="1" width="29" height="38">
<path d="M34.5049 1H6.50488V39H34.5049V1Z" fill="white"/>
</mask>
<g mask="url(#mask0_1222_63150)">
<path d="M14.1042 39.0001L12.0939 33.1771L6.50488 35.2886L14.3363 18.7114L21.9357 22.4229L14.1042 39.0001Z" fill="#8091AF"/>
<path d="M26.9056 39.0001L28.9161 33.1771L34.5049 35.2886L26.6737 18.7114L19.0742 22.4229L26.9056 39.0001Z" fill="#8091AF"/>
<path d="M34.0253 14.1871C34.0253 15.5893 32.3113 16.6991 31.9076 17.9644C31.4888 19.2757 32.2192 21.195 31.4381 22.2863C30.6491 23.3885 28.623 23.2711 27.5389 24.0738C26.4653 24.8681 25.9532 26.868 24.6634 27.2938C23.4191 27.7046 21.8544 26.4062 20.4753 26.4062C19.0961 26.4062 17.5313 27.7046 16.287 27.2938C14.9973 26.868 14.4852 24.8681 13.4116 24.0738C12.3272 23.2714 10.3011 23.3886 9.51204 22.2861C8.73076 21.1947 9.46131 19.2755 9.04254 17.9642C8.63818 16.6991 6.92432 15.5893 6.92432 14.1871C6.92432 12.7851 8.63818 11.6753 9.04208 10.41C9.46069 9.09871 8.73045 7.17955 9.51158 6.08811C10.3007 4.98593 12.3269 5.10297 13.4111 4.30049C14.4845 3.50611 14.9968 1.50653 16.2865 1.08059C17.5309 0.669758 19.0957 1.96816 20.4748 1.96816C21.8539 1.96816 23.4186 0.669758 24.6631 1.08074C25.9528 1.50653 26.465 3.50627 27.5384 4.30065C28.6226 5.10297 30.6488 4.98577 31.4376 6.08827C32.219 7.1797 31.4883 9.09871 31.9071 10.41C32.3115 11.6753 34.0253 12.7849 34.0253 14.1871Z" fill="#8091AF"/>
<path d="M34.0253 14.1871C34.0253 15.5893 32.3113 16.6991 31.9076 17.9644C31.4888 19.2757 32.2192 21.195 31.4381 22.2863C30.6491 23.3885 28.623 23.2711 27.5389 24.0738C26.4653 24.8681 25.9532 26.868 24.6634 27.2938C23.4191 27.7046 21.8544 26.4062 20.4753 26.4062C19.0961 26.4062 17.5313 27.7046 16.287 27.2938C14.9973 26.868 14.4852 24.8681 13.4116 24.0738C12.3272 23.2714 10.3011 23.3886 9.51204 22.2861C8.73076 21.1947 9.46131 19.2755 9.04254 17.9642C8.63818 16.6991 6.92432 15.5893 6.92432 14.1871C6.92432 12.7851 8.63818 11.6753 9.04208 10.41C9.46069 9.09871 8.73045 7.17955 9.51158 6.08811C10.3007 4.98593 12.3269 5.10297 13.4111 4.30049C14.4845 3.50611 14.9968 1.50653 16.2865 1.08059C17.5309 0.669758 19.0957 1.96816 20.4748 1.96816C21.8539 1.96816 23.4186 0.669758 24.6631 1.08074C25.9528 1.50653 26.465 3.50627 27.5384 4.30065C28.6226 5.10297 30.6488 4.98577 31.4376 6.08827C32.219 7.1797 31.4883 9.09871 31.9071 10.41C32.3115 11.6753 34.0253 12.7849 34.0253 14.1871Z" fill="#8091AF"/>
<path d="M20.3394 23.9136C25.842 23.9136 30.3027 19.3781 30.3027 13.7832C30.3027 8.18836 25.842 3.65283 20.3394 3.65283C14.8367 3.65283 10.376 8.18836 10.376 13.7832C10.376 19.3781 14.8367 23.9136 20.3394 23.9136Z" fill="#10BC9F"/>
<path d="M19.806 7.50985C20.1792 6.74118 20.7896 6.74118 21.1628 7.50985L22.0323 9.3009C22.4055 10.0696 23.3933 10.7993 24.2274 10.9225L26.1715 11.2098C27.0057 11.3331 27.1945 11.9234 26.5906 12.5217L25.1841 13.9158C24.5804 14.5142 24.2032 15.695 24.3454 16.5398L24.6775 18.5083C24.82 19.3532 24.326 19.7181 23.5798 19.3192L21.841 18.3897C21.0948 17.9907 19.8737 17.9907 19.1275 18.3897L17.3886 19.3192C16.6424 19.7182 16.1485 19.3532 16.2909 18.5083L16.6231 16.5398C16.7656 15.6949 16.3882 14.5142 15.7845 13.9158L14.3775 12.5216C13.7738 11.9233 13.9624 11.3329 14.7967 11.2096L16.7409 10.9224C17.5753 10.7991 18.5633 10.0692 18.9362 9.30074L19.806 7.50985Z" fill="white"/>
</g>
</svg>
