<svg width="90" height="90" viewBox="0 0 90 90" fill="none" xmlns="http://www.w3.org/2000/svg">
<g filter="url(#filter0_d_360_6366)">
<circle cx="45" cy="37" r="25" fill="white"/>
<circle cx="45" cy="37" r="24.5" stroke="#38854F"/>
</g>
<path fill-rule="evenodd" clip-rule="evenodd" d="M50.0175 28.2147C50.0856 28.2825 50.1395 28.3632 50.1764 28.4519C50.2132 28.5407 50.2322 28.6359 50.2322 28.732C50.2322 28.8281 50.2132 28.9233 50.1764 29.012C50.1395 29.1008 50.0856 29.1814 50.0175 29.2493L41.7652 37.5002L50.0175 45.7511C50.1547 45.8883 50.2318 46.0744 50.2318 46.2684C50.2318 46.4624 50.1547 46.6485 50.0175 46.7857C49.8803 46.9229 49.6942 47 49.5002 47C49.3062 47 49.1201 46.9229 48.9829 46.7857L40.2147 38.0175C40.1466 37.9496 40.0926 37.869 40.0558 37.7802C40.019 37.6915 40 37.5963 40 37.5002C40 37.4041 40.019 37.3089 40.0558 37.2201C40.0926 37.1314 40.1466 37.0507 40.2147 36.9829L48.9829 28.2147C49.0507 28.1466 49.1314 28.0926 49.2201 28.0558C49.3089 28.019 49.4041 28 49.5002 28C49.5963 28 49.6915 28.019 49.7802 28.0558C49.869 28.0926 49.9496 28.1466 50.0175 28.2147Z" fill="#1C2B38"/>
<defs>
<filter id="filter0_d_360_6366" x="0" y="0" width="90" height="90" filterUnits="userSpaceOnUse" color-interpolation-filters="sRGB">
<feFlood flood-opacity="0" result="BackgroundImageFix"/>
<feColorMatrix in="SourceAlpha" type="matrix" values="0 0 0 0 0 0 0 0 0 0 0 0 0 0 0 0 0 0 127 0" result="hardAlpha"/>
<feOffset dy="8"/>
<feGaussianBlur stdDeviation="10"/>
<feColorMatrix type="matrix" values="0 0 0 0 1 0 0 0 0 0.854902 0 0 0 0 0.196078 0 0 0 0.5 0"/>
<feBlend mode="normal" in2="BackgroundImageFix" result="effect1_dropShadow_360_6366"/>
<feBlend mode="normal" in="SourceGraphic" in2="effect1_dropShadow_360_6366" result="shape"/>
</filter>
</defs>
</svg>
