<svg width="90" height="90" viewBox="0 0 90 90" fill="none" xmlns="http://www.w3.org/2000/svg">
<g filter="url(#filter0_d_360_6369)">
<circle cx="25" cy="25" r="25" transform="matrix(-1 0 0 1 70 12)" fill="#38854F"/>
</g>
<path fill-rule="evenodd" clip-rule="evenodd" d="M39.9825 28.2147C39.9144 28.2825 39.8605 28.3632 39.8236 28.4519C39.7868 28.5407 39.7678 28.6359 39.7678 28.732C39.7678 28.8281 39.7868 28.9233 39.8236 29.012C39.8605 29.1008 39.9144 29.1814 39.9825 29.2493L48.2348 37.5002L39.9825 45.7511C39.8453 45.8883 39.7682 46.0744 39.7682 46.2684C39.7682 46.4624 39.8453 46.6485 39.9825 46.7857C40.1197 46.9229 40.3058 47 40.4998 47C40.6938 47 40.8799 46.9229 41.0171 46.7857L49.7853 38.0175C49.8534 37.9496 49.9074 37.869 49.9442 37.7802C49.981 37.6915 50 37.5963 50 37.5002C50 37.4041 49.981 37.3089 49.9442 37.2201C49.9074 37.1314 49.8534 37.0507 49.7853 36.9829L41.0171 28.2147C40.9493 28.1466 40.8686 28.0926 40.7799 28.0558C40.6911 28.019 40.5959 28 40.4998 28C40.4037 28 40.3085 28.019 40.2198 28.0558C40.131 28.0926 40.0504 28.1466 39.9825 28.2147Z" fill="#1C2B38"/>
<defs>
<filter id="filter0_d_360_6369" x="0" y="0" width="90" height="90" filterUnits="userSpaceOnUse" color-interpolation-filters="sRGB">
<feFlood flood-opacity="0" result="BackgroundImageFix"/>
<feColorMatrix in="SourceAlpha" type="matrix" values="0 0 0 0 0 0 0 0 0 0 0 0 0 0 0 0 0 0 127 0" result="hardAlpha"/>
<feOffset dy="8"/>
<feGaussianBlur stdDeviation="10"/>
<feColorMatrix type="matrix" values="0 0 0 0 1 0 0 0 0 0.854902 0 0 0 0 0.196078 0 0 0 0.5 0"/>
<feBlend mode="normal" in2="BackgroundImageFix" result="effect1_dropShadow_360_6369"/>
<feBlend mode="normal" in="SourceGraphic" in2="effect1_dropShadow_360_6369" result="shape"/>
</filter>
</defs>
</svg>
